solid grep4CCC00u2_3
  facet normal 0.008879260579432155 0.9783905575686977 -0.20657462475332078
    outer loop
      vertex -0.16823222 -1.589479 1.9231414
      vertex -0.17623189 -1.5894064 1.9231414
      vertex -0.1682278 -1.5889922 1.9254472
    endloop
  endfacet
  facet normal 0.008879249551459634 0.9783905654523661 -0.20657458788825486
    outer loop
      vertex -0.17623189 -1.5894064 1.9231414
      vertex -0.17622748 -1.5889196 1.9254472
      vertex -0.1682278 -1.5889922 1.9254472
    endloop
  endfacet
  facet normal 0.007486277130358507 0.8249011216832529 -0.5652274719972824
    outer loop
      vertex -0.1682278 -1.5889922 1.9254472
      vertex -0.17622748 -1.5889196 1.9254472
      vertex -0.16821572 -1.5876602 1.9273913
    endloop
  endfacet
  facet normal 0.007486277130358499 0.8249011216832529 -0.5652274719972824
    outer loop
      vertex -0.17622748 -1.5889196 1.9254472
      vertex -0.1762154 -1.5875876 1.9273913
      vertex -0.16821572 -1.5876602 1.9273913
    endloop
  endfacet
  facet normal 0.004953319488003722 0.5457984964436006 -0.8379018235485317
    outer loop
      vertex -0.16821572 -1.5876602 1.9273913
      vertex -0.1762154 -1.5875876 1.9273913
      vertex -0.16819783 -1.5856855 1.9286777
    endloop
  endfacet
  facet normal 0.004946679174829897 0.5458179447508148 -0.837889194078273
    outer loop
      vertex -0.1762154 -1.5875876 1.9273913
      vertex -0.1761975 -1.585613 1.9286777
      vertex -0.16819783 -1.5856855 1.9286777
    endloop
  endfacet
  facet normal 0.0016639421135406969 0.18359983182623557 -0.9829996607578361
    outer loop
      vertex -0.16819783 -1.5856855 1.9286777
      vertex -0.1761975 -1.585613 1.9286777
      vertex -0.16817683 -1.583369 1.9291104
    endloop
  endfacet
  facet normal 0.0016639421135357564 0.1835998318262526 -0.982999660757833
    outer loop
      vertex -0.1761975 -1.585613 1.9286777
      vertex -0.1761765 -1.5832965 1.9291104
      vertex -0.16817683 -1.583369 1.9291104
    endloop
  endfacet
  facet normal -1.0589315976541726E-4 -0.011684295066388285 -0.9999317306873706
    outer loop
      vertex -0.16823415 -1.5896925 1.9048626
      vertex -0.1683509 -1.6025711 1.9050131
      vertex -0.17623383 -1.58962 1.9048626
    endloop
  endfacet
  facet normal -1.0604003048210082E-4 -0.01168438444968743 -0.9999317296273501
    outer loop
      vertex -0.1683509 -1.6025711 1.9050131
      vertex -0.17635058 -1.6024985 1.9050131
      vertex -0.17623383 -1.58962 1.9048626
    endloop
  endfacet
  facet normal 0.00907438162248246 0.9998906120378259 -0.011679878286674914
    outer loop
      vertex -0.16823222 -1.589479 1.9231414
      vertex -0.16823415 -1.5896925 1.9048626
      vertex -0.17623189 -1.5894064 1.9231414
    endloop
  endfacet
  facet normal 0.009061871594969665 0.9998906615300297 -0.011685352721931044
    outer loop
      vertex -0.16823415 -1.5896925 1.9048626
      vertex -0.17623383 -1.58962 1.9048626
      vertex -0.17623189 -1.5894064 1.9231414
    endloop
  endfacet
  facet normal -1.057822117721932E-4 -0.011688145417466385 -0.9999316856999901
    outer loop
      vertex -0.16812208 -1.5773296 1.9290398
      vertex -0.16817683 -1.583369 1.9291104
      vertex -0.17612174 -1.5772572 1.9290398
    endloop
  endfacet
  facet normal -1.0592992739915077E-4 -0.011688337411284173 -0.9999316834401291
    outer loop
      vertex -0.16817683 -1.583369 1.9291104
      vertex -0.1761765 -1.5832965 1.9291104
      vertex -0.17612174 -1.5772572 1.9290398
    endloop
  endfacet
  facet normal 0.9999589115827605 -0.009065050808011711 2.628899589322081E-7
    outer loop
      vertex -0.16812208 -1.5773296 1.9290398
      vertex -0.16812465 -1.5776138 1.9047215
      vertex -0.1680079 -1.5647352 1.9045709
    endloop
  endfacet
  facet normal 0.9999589109141093 -0.009065124569900803 -2.6057414259228424E-8
    outer loop
      vertex -0.16799901 -1.5637548 1.9884852
      vertex -0.16811576 -1.5766333 1.9886358
      vertex -0.1680079 -1.5647352 1.9045709
    endloop
  endfacet
  facet normal 0.9999589204876563 -0.00906406846542582 1.234302941258439E-7
    outer loop
      vertex -0.16811576 -1.5766333 1.9886358
      vertex -0.16812065 -1.5771734 1.9424214
      vertex -0.1680079 -1.5647352 1.9045709
    endloop
  endfacet
  facet normal 0.9999588890608969 -0.009067534784343054 -1.015743860072348E-6
    outer loop
      vertex -0.1680079 -1.5647352 1.9045709
      vertex -0.16812065 -1.5771734 1.9424214
      vertex -0.16812208 -1.5773296 1.9290398
    endloop
  endfacet
  facet normal 0.9999589111241105 -0.009065101399171164 -3.2586566890702236E-7
    outer loop
      vertex -0.16817683 -1.583369 1.9291104
      vertex -0.16812208 -1.5773296 1.9290398
      vertex -0.16823776 -1.5900905 1.9401045
    endloop
  endfacet
  facet normal 0.9999589055344068 -0.009065717917308938 -1.0369534454617403E-6
    outer loop
      vertex -0.16812208 -1.5773296 1.9290398
      vertex -0.16812065 -1.5771734 1.9424214
      vertex -0.16823776 -1.5900905 1.9401045
    endloop
  endfacet
  facet normal 0.9999589044390237 -0.009065838790530946 -3.630099104308073E-7
    outer loop
      vertex -0.16823776 -1.5900905 1.9401045
      vertex -0.16812065 -1.5771734 1.9424214
      vertex -0.16834271 -1.6016684 1.9888302
    endloop
  endfacet
  facet normal 0.9999589097169527 -0.00906525662517495 -5.571232005919334E-8
    outer loop
      vertex -0.16812065 -1.5771734 1.9424214
      vertex -0.168226 -1.5887945 1.9887779
      vertex -0.16834271 -1.6016684 1.9888302
    endloop
  endfacet
  facet normal 0.9999589102425424 -0.009065035369652807 5.440858611361986E-5
    outer loop
      vertex -0.16834271 -1.6016684 1.9888302
      vertex -0.168226 -1.5887945 1.9887779
      vertex -0.16834201 -1.6015906 1.9889274
    endloop
  endfacet
  facet normal 0.9999589115189877 -0.009065057840211969 -3.3874494277276055E-7
    outer loop
      vertex -0.1683509 -1.6025711 1.9050131
      vertex -0.16823415 -1.5896925 1.9048626
      vertex -0.16834855 -1.6023127 1.9271315
    endloop
  endfacet
  facet normal 0.9999589215164043 -0.009063954968316027 2.863244412386329E-7
    outer loop
      vertex -0.16823415 -1.5896925 1.9048626
      vertex -0.16823222 -1.589479 1.9231414
      vertex -0.16834855 -1.6023127 1.9271315
    endloop
  endfacet
  facet normal 0.9999589228551143 -0.00906380724969777 7.614835007236706E-7
    outer loop
      vertex -0.16834855 -1.6023127 1.9271315
      vertex -0.16823222 -1.589479 1.9231414
      vertex -0.16833352 -1.600654 1.9333752
    endloop
  endfacet
  facet normal 0.9999588947552178 -0.009066906475910162 -2.623055912104779E-6
    outer loop
      vertex -0.16823222 -1.589479 1.9231414
      vertex -0.1682278 -1.5889922 1.9254472
      vertex -0.16833352 -1.600654 1.9333752
    endloop
  endfacet
  facet normal 0.9999589095935038 -0.00906527024001061 -2.1601447454269418E-7
    outer loop
      vertex -0.16833352 -1.600654 1.9333752
      vertex -0.1682278 -1.5889922 1.9254472
      vertex -0.16829336 -1.5962242 1.9380772
    endloop
  endfacet
  facet normal 0.9999588942297286 -0.009066964731984841 -1.186368647680757E-6
    outer loop
      vertex -0.1682278 -1.5889922 1.9254472
      vertex -0.16821572 -1.5876602 1.9273913
      vertex -0.16829336 -1.5962242 1.9380772
    endloop
  endfacet
  facet normal 0.9999589161178607 -0.009064550503626674 7.486252277916165E-7
    outer loop
      vertex -0.16829336 -1.5962242 1.9380772
      vertex -0.16821572 -1.5876602 1.9273913
      vertex -0.16823776 -1.5900905 1.9401045
    endloop
  endfacet
  facet normal 0.9999589550477448 -0.009060254817496 1.5698711783016749E-6
    outer loop
      vertex -0.16821572 -1.5876602 1.9273913
      vertex -0.16819783 -1.5856855 1.9286777
      vertex -0.16823776 -1.5900905 1.9401045
    endloop
  endfacet
  facet normal 0.999958912217282 -0.009064980814474282 -2.521373376207765E-7
    outer loop
      vertex -0.16823776 -1.5900905 1.9401045
      vertex -0.16819783 -1.5856855 1.9286777
      vertex -0.16817683 -1.583369 1.9291104
    endloop
  endfacet
  facet normal -0.009074380936074593 -0.9998905364037151 0.011686351908019347
    outer loop
      vertex -0.16812465 -1.5776138 1.9047215
      vertex -0.16812208 -1.5773296 1.9290398
      vertex -0.17612432 -1.5775412 1.9047215
    endloop
  endfacet
  facet normal -0.009049396871991971 -0.9998908588524271 0.01167813339575422
    outer loop
      vertex -0.16812208 -1.5773296 1.9290398
      vertex -0.17612174 -1.5772572 1.9290398
      vertex -0.17612432 -1.5775412 1.9047215
    endloop
  endfacet
  facet normal -0.9999589122030235 0.009064982390340683 -9.488193921917734E-8
    outer loop
      vertex -0.17611544 -1.5765609 1.9886358
      vertex -0.17599869 -1.5636822 1.9884852
      vertex -0.17612033 -1.5771008 1.9424214
    endloop
  endfacet
  facet normal -0.9999589119642232 0.009065008732299214 -1.0255610531983519E-7
    outer loop
      vertex -0.17599869 -1.5636822 1.9884852
      vertex -0.17600757 -1.5646627 1.9045709
      vertex -0.17612033 -1.5771008 1.9424214
    endloop
  endfacet
  facet normal -0.999958924808209 0.00906359178734776 -5.682184159508817E-7
    outer loop
      vertex -0.17612033 -1.5771008 1.9424214
      vertex -0.17600757 -1.5646627 1.9045709
      vertex -0.17612174 -1.5772572 1.9290398
    endloop
  endfacet
  facet normal -0.9999589108933178 0.00906512686070992 2.2197117666996306E-7
    outer loop
      vertex -0.17600757 -1.5646627 1.9045709
      vertex -0.17612432 -1.5775412 1.9047215
      vertex -0.17612174 -1.5772572 1.9290398
    endloop
  endfacet
  facet normal -0.9999589167982585 0.009064406918023349 -3.525447620946432E-5
    outer loop
      vertex -0.17634168 -1.6015182 1.9889274
      vertex -0.17622568 -1.588722 1.9887779
      vertex -0.17634238 -1.6015958 1.9888302
    endloop
  endfacet
  facet normal -0.9999589161252436 0.009064549719522435 -1.0196225522553938E-7
    outer loop
      vertex -0.17622568 -1.588722 1.9887779
      vertex -0.17612033 -1.5771008 1.9424214
      vertex -0.17634238 -1.6015958 1.9888302
    endloop
  endfacet
  facet normal -0.9999589117509575 0.009065032256830472 1.527463920689342E-7
    outer loop
      vertex -0.17634238 -1.6015958 1.9888302
      vertex -0.17612033 -1.5771008 1.9424214
      vertex -0.17623743 -1.590018 1.9401045
    endloop
  endfacet
  facet normal -0.9999589105486857 0.009065164860152249 -5.866055066238902E-7
    outer loop
      vertex -0.17612033 -1.5771008 1.9424214
      vertex -0.17612174 -1.5772572 1.9290398
      vertex -0.17623743 -1.590018 1.9401045
    endloop
  endfacet
  facet normal -0.9999589108959355 0.009065126572517417 1.9745559089766833E-7
    outer loop
      vertex -0.17623383 -1.58962 1.9048626
      vertex -0.17635058 -1.6024985 1.9050131
      vertex -0.17623189 -1.5894064 1.9231414
    endloop
  endfacet
  facet normal -0.9999589184554935 0.009064292618859602 7.997791362626147E-7
    outer loop
      vertex -0.17635058 -1.6024985 1.9050131
      vertex -0.17634822 -1.6022401 1.9271315
      vertex -0.17623189 -1.5894064 1.9231414
    endloop
  endfacet
  facet normal -0.9999589236423654 0.009063720368513857 -1.0409498306712166E-6
    outer loop
      vertex -0.17623189 -1.5894064 1.9231414
      vertex -0.17634822 -1.6022401 1.9271315
      vertex -0.17622748 -1.5889196 1.9254472
    endloop
  endfacet
  facet normal -0.9999589231463102 0.009063775135254987 -6.07784557914522E-7
    outer loop
      vertex -0.17634822 -1.6022401 1.9271315
      vertex -0.17633319 -1.6005815 1.9333752
      vertex -0.17622748 -1.5889196 1.9254472
    endloop
  endfacet
  facet normal -0.9999589064137333 0.00906562074047286 2.1072800600234186E-6
    outer loop
      vertex -0.17622748 -1.5889196 1.9254472
      vertex -0.17633319 -1.6005815 1.9333752
      vertex -0.1762154 -1.5875876 1.9273913
    endloop
  endfacet
  facet normal -0.9999589134447995 0.009064845399505826 4.2350673813379805E-7
    outer loop
      vertex -0.17633319 -1.6005815 1.9333752
      vertex -0.17629303 -1.5961516 1.9380772
      vertex -0.1762154 -1.5875876 1.9273913
    endloop
  endfacet
  facet normal -0.999958915628269 0.009064604540921692 2.304595996389599E-7
    outer loop
      vertex -0.1762154 -1.5875876 1.9273913
      vertex -0.17629303 -1.5961516 1.9380772
      vertex -0.1761975 -1.585613 1.9286777
    endloop
  endfacet
  facet normal -0.9999589171484927 0.009064436839231834 4.2419144753218043E-8
    outer loop
      vertex -0.17629303 -1.5961516 1.9380772
      vertex -0.17623743 -1.590018 1.9401045
      vertex -0.1761975 -1.585613 1.9286777
    endloop
  endfacet
  facet normal -0.999958912217282 0.009064980814475095 2.521373379318802E-7
    outer loop
      vertex -0.1761975 -1.585613 1.9286777
      vertex -0.17623743 -1.590018 1.9401045
      vertex -0.1761765 -1.5832965 1.9291104
    endloop
  endfacet
  facet normal -0.9999588946340556 0.009066920103889936 1.4378646960441589E-6
    outer loop
      vertex -0.17623743 -1.590018 1.9401045
      vertex -0.17612174 -1.5772572 1.9290398
      vertex -0.1761765 -1.5832965 1.9291104
    endloop
  endfacet
  facet normal -1.0596364350202551E-4 -0.011692057655340565 -0.9999316399431966
    outer loop
      vertex -0.1680079 -1.5647352 1.9045709
      vertex -0.16812465 -1.5776138 1.9047215
      vertex -0.17600757 -1.5646627 1.9045709
    endloop
  endfacet
  facet normal -1.0611061197709966E-4 -0.011692147098004145 -0.9999316388817671
    outer loop
      vertex -0.16812465 -1.5776138 1.9047215
      vertex -0.17612432 -1.5775412 1.9047215
      vertex -0.17600757 -1.5646627 1.9045709
    endloop
  endfacet
  facet normal 0.009074369945717881 0.9998905753082955 -0.011683031273350129
    outer loop
      vertex -0.16799901 -1.5637548 1.9884852
      vertex -0.1680079 -1.5647352 1.9045709
      vertex -0.17599869 -1.5636822 1.9884852
    endloop
  endfacet
  facet normal 0.00906188304166112 0.9998906746447374 -0.011684221592870652
    outer loop
      vertex -0.1680079 -1.5647352 1.9045709
      vertex -0.17600757 -1.5646627 1.9045709
      vertex -0.17599869 -1.5636822 1.9884852
    endloop
  endfacet
  facet normal 1.058181879555218E-4 0.011692149748973058 0.9999316388817582
    outer loop
      vertex -0.16811576 -1.5766333 1.9886358
      vertex -0.16799901 -1.5637548 1.9884852
      vertex -0.17611544 -1.5765609 1.9886358
    endloop
  endfacet
  facet normal 1.0610883186069453E-4 0.01169196556555945 0.9999316410045886
    outer loop
      vertex -0.16799901 -1.5637548 1.9884852
      vertex -0.17599869 -1.5636822 1.9884852
      vertex -0.17611544 -1.5765609 1.9886358
    endloop
  endfacet
  facet normal -0.009074369576344034 -0.9998905346075679 0.011686514406955825
    outer loop
      vertex -0.16812065 -1.5771734 1.9424214
      vertex -0.16811576 -1.5766333 1.9886358
      vertex -0.17612033 -1.5771008 1.9424214
    endloop
  endfacet
  facet normal -0.009049373820816716 -0.999890811699581 0.011682187817531203
    outer loop
      vertex -0.16811576 -1.5766333 1.9886358
      vertex -0.17611544 -1.5765609 1.9886358
      vertex -0.17612033 -1.5771008 1.9424214
    endloop
  endfacet
  facet normal 0.008790457162113506 0.9699426806962569 0.2431746780128229
    outer loop
      vertex -0.168226 -1.5887945 1.9887779
      vertex -0.16812065 -1.5771734 1.9424214
      vertex -0.17622568 -1.588722 1.9887779
    endloop
  endfacet
  facet normal 0.00880257645392697 0.9699420772310117 0.24317664662660946
    outer loop
      vertex -0.16812065 -1.5771734 1.9424214
      vertex -0.17612033 -1.5771008 1.9424214
      vertex -0.17622568 -1.588722 1.9887779
    endloop
  endfacet
  facet normal 1.0572185942798635E-4 0.011681491536040131 0.9999317634610784
    outer loop
      vertex -0.16834201 -1.6015906 1.9889274
      vertex -0.168226 -1.5887945 1.9887779
      vertex -0.17634168 -1.6015182 1.9889274
    endloop
  endfacet
  facet normal 1.058669133626534E-4 0.01168139902741096 0.9999317645264396
    outer loop
      vertex -0.168226 -1.5887945 1.9887779
      vertex -0.17622568 -1.588722 1.9887779
      vertex -0.17634168 -1.6015182 1.9889274
    endloop
  endfacet
  facet normal -0.007084850501236198 -0.7806675758824755 0.624906345670417
    outer loop
      vertex -0.16834271 -1.6016684 1.9888302
      vertex -0.16834201 -1.6015906 1.9889274
      vertex -0.17634238 -1.6015958 1.9888302
    endloop
  endfacet
  facet normal -0.007072428302371541 -0.7814515541100469 0.6239258364075817
    outer loop
      vertex -0.16834201 -1.6015906 1.9889274
      vertex -0.17634168 -1.6015182 1.9889274
      vertex -0.17634238 -1.6015958 1.9888302
    endloop
  endfacet
  facet normal -0.008816994079817465 -0.9728695590393855 -0.23118624896370468
    outer loop
      vertex -0.16823776 -1.5900905 1.9401045
      vertex -0.16834271 -1.6016684 1.9888302
      vertex -0.17623743 -1.590018 1.9401045
    endloop
  endfacet
  facet normal -0.00882915852558179 -0.9728698978257012 -0.2311843590391439
    outer loop
      vertex -0.16834271 -1.6016684 1.9888302
      vertex -0.17634238 -1.6015958 1.9888302
      vertex -0.17623743 -1.590018 1.9401045
    endloop
  endfacet
  facet normal -0.002843941566679939 -0.3138012970024555 0.9494844169316009
    outer loop
      vertex -0.16823776 -1.5900905 1.9401045
      vertex -0.17623743 -1.590018 1.9401045
      vertex -0.17629303 -1.5961516 1.9380772
    endloop
  endfacet
  facet normal -0.0028478220679315227 -0.31379664961675624 0.9494859412328168
    outer loop
      vertex -0.16823776 -1.5900905 1.9401045
      vertex -0.17629303 -1.5961516 1.9380772
      vertex -0.16829336 -1.5962242 1.9380772
    endloop
  endfacet
  facet normal -0.006605140224569774 -0.7278091198388407 0.6857479545737093
    outer loop
      vertex -0.17629303 -1.5961516 1.9380772
      vertex -0.17633319 -1.6005815 1.9333752
      vertex -0.16829336 -1.5962242 1.9380772
    endloop
  endfacet
  facet normal -0.006596112996870116 -0.7278169276928323 0.6857397546132928
    outer loop
      vertex -0.16829336 -1.5962242 1.9380772
      vertex -0.17633319 -1.6005815 1.9333752
      vertex -0.16833352 -1.600654 1.9333752
    endloop
  endfacet
  facet normal -0.008758708585991915 -0.9664383215748901 0.2567494023662281
    outer loop
      vertex -0.17633319 -1.6005815 1.9333752
      vertex -0.17634822 -1.6022401 1.9271315
      vertex -0.16833352 -1.600654 1.9333752
    endloop
  endfacet
  facet normal -0.008770753712108347 -0.966434371186814 0.2567638605179263
    outer loop
      vertex -0.16833352 -1.600654 1.9333752
      vertex -0.17634822 -1.6022401 1.9271315
      vertex -0.16834855 -1.6023127 1.9271315
    endloop
  endfacet
  facet normal -0.009074370026764433 -0.999890584238688 0.011682266879021158
    outer loop
      vertex -0.1683509 -1.6025711 1.9050131
      vertex -0.16834855 -1.6023127 1.9271315
      vertex -0.17635058 -1.6024985 1.9050131
    endloop
  endfacet
  facet normal -0.009074381368825794 -0.9998905840878277 0.01168227098110293
    outer loop
      vertex -0.16834855 -1.6023127 1.9271315
      vertex -0.17634822 -1.6022401 1.9271315
      vertex -0.17635058 -1.6024985 1.9050131
    endloop
  endfacet
endsolid grep4CCC00u2_3
