solid grep4CCC00u2_14
  facet normal -0.5537869822675007 0.00241270097604048 0.8326548847782347
    outer loop
      vertex -0.0992 -0.14240195 0.61320544999999
      vertex -0.4515 0.38393182 0.37737059999999
      vertex -0.4515 0.33032194 0.37752593999998996
    endloop
  endfacet
  facet normal -0.6793586054887608 -0.14796646548076947 0.7187334764998041
    outer loop
      vertex -0.0992 -0.14240195 0.61320544999999
      vertex -0.4515 0.33032194 0.37752593999998996
      vertex -0.0345 -0.5184044 0.59695289999999
    endloop
  endfacet
  facet normal -0.09720777713154932 -0.9245742243053264 -0.3683926598282696
    outer loop
      vertex -0.0345 -0.56913126 0.30938179999999005
      vertex -0.15463938 -0.4332282 -9.992007221626409E-15
      vertex 0.06115648 -0.45591652 -9.992007221626409E-15
    endloop
  endfacet
  facet normal 0.3328306539603052 -0.8544609868511047 -0.39889870610694084
    outer loop
      vertex 0.20573889 -0.5597592 0.34307199999999005
      vertex 0.06115648 -0.45591652 -9.992007221626409E-15
      vertex 0.26334456 -0.37715998 -9.992007221626409E-15
    endloop
  endfacet
  facet normal 0.681134405529965 -0.6875744255884708 -0.2515896080525297
    outer loop
      vertex 0.20573889 -0.5597592 0.34307199999999005
      vertex 0.26334456 -0.37715998 -9.992007221626409E-15
      vertex 0.22920725 -0.52957165 0.32410825999999004
    endloop
  endfacet
  facet normal -0.06486714436897961 0.8789368597922456 0.4725063492483042
    outer loop
      vertex -0.45111743 0.5 0.16151786999999002
      vertex -0.4515 0.38393182 0.37737059999999
      vertex -0.043091152 0.5146896 0.19020799999999005
    endloop
  endfacet
  facet normal -0.5405725277739666 -0.8233876119824576 -0.17266783907227823
    outer loop
      vertex -0.0345 -0.5922951 0.38240859999999
      vertex -0.3360268 -0.31414327 -9.992007221626409E-15
      vertex -0.15463938 -0.4332282 -9.992007221626409E-15
    endloop
  endfacet
  facet normal -0.287046262545236 -0.9130831360048487 -0.2896267078540277
    outer loop
      vertex -0.0345 -0.5922951 0.38240859999999
      vertex -0.15463938 -0.4332282 -9.992007221626409E-15
      vertex -0.0345 -0.56913126 0.30938179999999005
    endloop
  endfacet
  facet normal -0.07789070312453036 -0.9927701562874097 0.09132609239334853
    outer loop
      vertex -0.0345 -0.5922951 0.38240859999999
      vertex 0.042000867 -0.59504324 0.41778112999998995
      vertex -0.0345 -0.58155525 0.49915729999999003
    endloop
  endfacet
  facet normal 0.7302837075506876 -0.6446054717146857 -0.2262067468523196
    outer loop
      vertex 0.40693647 -0.21448244 -9.992007221626409E-15
      vertex 0.22920725 -0.52957165 0.32410825999999004
      vertex 0.26334456 -0.37715998 -9.992007221626409E-15
    endloop
  endfacet
  facet normal 0.6371600251856607 0.3113092178136715 0.7050628859964538
    outer loop
      vertex 0.26439068 -0.19851168 0.56570819999999
      vertex 0.26999485 0.39266175 0.29962059999999
      vertex 0.24033763 -0.25900143 0.61415303999999
    endloop
  endfacet
  facet normal 0.9139477502531274 0.15966062601508035 0.37310587546662916
    outer loop
      vertex 0.4599819 -0.004080933499999994 0.0040099999999900215
      vertex 0.26999485 0.39266175 0.29962059999999
      vertex 0.26523677 -0.19596331 0.56316209999999
    endloop
  endfacet
  facet normal -0.9867609840165078 -0.16218125792696655 0.0
    outer loop
      vertex -0.45941952 -0.023101956000000007 0.0040099999999900215
      vertex -0.4426457 -0.12515907 -9.992007221626409E-15
      vertex -0.4426457 -0.12515907 0.0040099999999900215
    endloop
  endfacet
  facet normal -0.9997765248131286 6.125506852739438E-5 0.0211399309459708
    outer loop
      vertex -0.45941952 -0.023101956000000007 0.0040099999999900215
      vertex -0.4515 0.33032194 0.37752593999998996
      vertex -0.4515 0.38393182 0.37737059999999
    endloop
  endfacet
  facet normal -0.999883419535282 0.014116969091559541 0.005818807618332784
    outer loop
      vertex -0.45941952 -0.023101956000000007 0.0040099999999900215
      vertex -0.4515 0.38393182 0.37737059999999
      vertex -0.45111743 0.5 0.16151786999999002
    endloop
  endfacet
  facet normal -0.8831964602825912 -0.307541957163036 0.3540931475313107
    outer loop
      vertex -0.42464787 -0.17684509 0.0040099999999900215
      vertex -0.4515 0.33032194 0.37752593999998996
      vertex -0.4426457 -0.12515907 0.0040099999999900215
    endloop
  endfacet
  facet normal -0.9443828759654954 -0.3288479642374876 0.0
    outer loop
      vertex -0.42464787 -0.17684509 0.0040099999999900215
      vertex -0.4426457 -0.12515907 0.0040099999999900215
      vertex -0.4426457 -0.12515907 -9.992007221626409E-15
    endloop
  endfacet
  facet normal -0.8649816514393566 -0.3264606553112581 0.3810907807950584
    outer loop
      vertex -0.42464787 -0.17684509 0.0040099999999900215
      vertex -0.0345 -0.5184044 0.59695289999999
      vertex -0.4515 0.33032194 0.37752593999998996
    endloop
  endfacet
  facet normal -0.5111333585460516 -0.12074576963321033 0.850977760518521
    outer loop
      vertex -0.004 -0.47540992 0.62313589999999
      vertex 0.037 -0.36361635 0.66362469999999
      vertex -0.0992 -0.14240195 0.61320544999999
    endloop
  endfacet
  facet normal -0.5356908064756487 -0.1282541020686792 0.8346174244287176
    outer loop
      vertex -0.004 -0.47540992 0.62313589999999
      vertex -0.0992 -0.14240195 0.61320544999999
      vertex -0.0345 -0.5184044 0.59695289999999
    endloop
  endfacet
  facet normal -0.2515631913727077 0.2505009505638227 0.9348610776543217
    outer loop
      vertex -0.0992 -0.13240196 0.61052589999999
      vertex -0.4515 0.38393182 0.37737059999999
      vertex -0.0992 -0.14240195 0.61320544999999
    endloop
  endfacet
  facet normal -0.2723971961040459 0.05127696989914361 0.9608175893022652
    outer loop
      vertex 0.042 -0.33234993 0.66337359999999
      vertex -0.0992 -0.14240195 0.61320544999999
      vertex 0.037 -0.36361635 0.66362469999999
    endloop
  endfacet
  facet normal -0.036577100994848274 -0.9525589358327193 -0.302148290493344
    outer loop
      vertex 0.042 -0.58029616 0.33531964999999
      vertex -0.0345 -0.5922951 0.38240859999999
      vertex -0.0345 -0.56913126 0.30938179999999005
    endloop
  endfacet
  facet normal -0.018551244826960883 -0.9370708133784386 -0.34864615590831044
    outer loop
      vertex 0.042 -0.58029616 0.33531964999999
      vertex -0.0345 -0.56913126 0.30938179999999005
      vertex 0.06115648 -0.45591652 -9.992007221626409E-15
    endloop
  endfacet
  facet normal 0.8580641652015771 -0.5101808459845287 -0.058663385407179934
    outer loop
      vertex 0.27842376 -0.47450536 0.38161046999999004
      vertex 0.40693647 -0.21448244 -9.992007221626409E-15
      vertex 0.2777137 -0.48 0.41900999999999
    endloop
  endfacet
  facet normal 0.8019766270850546 -0.5835763808318672 -0.1275621313104287
    outer loop
      vertex 0.27842376 -0.47450536 0.38161046999999004
      vertex 0.22920725 -0.52957165 0.32410825999999004
      vertex 0.40693647 -0.21448244 -9.992007221626409E-15
    endloop
  endfacet
  facet normal -0.040941946039827225 -0.9912100944895698 0.12580264558605264
    outer loop
      vertex 0.042 -0.58697426 0.48135704999998996
      vertex -0.0345 -0.58155525 0.49915729999999003
      vertex 0.042000867 -0.59504324 0.41778112999998995
    endloop
  endfacet
  facet normal 0.12208466403054881 -0.9828949494576315 0.1378871028748816
    outer loop
      vertex 0.15729903 -0.5835784 0.40347833999999005
      vertex 0.18940042 -0.5687633 0.48066176999999
      vertex 0.042 -0.58697426 0.48135704999998996
    endloop
  endfacet
  facet normal 0.1135256172839982 -0.9856281501426882 0.12509629837285144
    outer loop
      vertex 0.15729903 -0.5835784 0.40347833999999005
      vertex 0.042 -0.58697426 0.48135704999998996
      vertex 0.042000867 -0.59504324 0.41778112999998995
    endloop
  endfacet
  facet normal 0.7033854236509554 -0.687772368548461 0.1794940524268311
    outer loop
      vertex 0.23999968 -0.5331052 0.41900999999999
      vertex 0.22526774 -0.5237262 0.51267799999999
      vertex 0.18940042 -0.5687633 0.48066176999999
    endloop
  endfacet
  facet normal 0.7501999335161728 -0.6520654785077924 -0.10959320914515534
    outer loop
      vertex 0.23999968 -0.5331052 0.41900999999999
      vertex 0.20573889 -0.5597592 0.34307199999999005
      vertex 0.22920725 -0.52957165 0.32410825999999004
    endloop
  endfacet
  facet normal 0.796426510333977 -0.594142230537612 -0.1126934937298294
    outer loop
      vertex 0.23999968 -0.5331052 0.41900999999999
      vertex 0.22920725 -0.52957165 0.32410825999999004
      vertex 0.27842376 -0.47450536 0.38161046999999004
    endloop
  endfacet
  facet normal 0.846395752268522 0.21190687357197305 0.4885792745038974
    outer loop
      vertex 0.2648152 -0.19723092 0.56444219999999
      vertex 0.26523677 -0.19596331 0.56316209999999
      vertex 0.26999485 0.39266175 0.29962059999999
    endloop
  endfacet
  facet normal 0.8376720334840286 0.2175491893805224 0.5009769600676365
    outer loop
      vertex 0.2648152 -0.19723092 0.56444219999999
      vertex 0.26999485 0.39266175 0.29962059999999
      vertex 0.26439068 -0.19851168 0.56570819999999
    endloop
  endfacet
  facet normal 0.9696579733291298 -0.24446556968056798 0.0
    outer loop
      vertex 0.40693647 -0.21448244 0.0040099999999900215
      vertex 0.4599819 -0.004080933499999994 -9.992007221626409E-15
      vertex 0.4599819 -0.004080933499999994 0.0040099999999900215
    endloop
  endfacet
  facet normal 0.8991657171752268 -0.43760828723501144 0.0
    outer loop
      vertex 0.40693647 -0.21448244 0.0040099999999900215
      vertex 0.2777137 -0.48 0.41900999999999
      vertex 0.40693647 -0.21448244 -9.992007221626409E-15
    endloop
  endfacet
  facet normal 0.9077723392427159 0.36811364267456875 0.20110128339388422
    outer loop
      vertex 0.41067785 0.20722862 0.0040099999999900215
      vertex 0.24575078 0.5146896 0.18568785999999005
      vertex 0.26999485 0.39266175 0.29962059999999
    endloop
  endfacet
  facet normal 0.9272624031651014 0.21635459037005778 0.305573439458153
    outer loop
      vertex 0.41067785 0.20722862 0.0040099999999900215
      vertex 0.26999485 0.39266175 0.29962059999999
      vertex 0.4599819 -0.004080933499999994 0.0040099999999900215
    endloop
  endfacet
  facet normal 0.07797369490750242 0.7018308882534255 0.7080632084749775
    outer loop
      vertex 0.2423319 0.40393934 0.29583979999999
      vertex 0.24575078 0.5146896 0.18568785999999005
      vertex 0.11783965 0.38271347 0.33058823999999
    endloop
  endfacet
  facet normal 0.18570273866139364 0.6900351039628685 0.6995470306938708
    outer loop
      vertex 0.2423319 0.40393934 0.29583979999999
      vertex 0.26999485 0.39266175 0.29962059999999
      vertex 0.24575078 0.5146896 0.18568785999999005
    endloop
  endfacet
  facet normal 0.06431719319503577 0.7088603370030813 0.7024103653017875
    outer loop
      vertex -0.4065 0.38393182 0.37737059999999
      vertex 0.11783965 0.38271347 0.33058823999999
      vertex 0.24575078 0.5146896 0.18568785999999005
    endloop
  endfacet
  facet normal 0.009147902802220536 0.8112981325534334 0.5845610797766415
    outer loop
      vertex -0.4065 0.38393182 0.37737059999999
      vertex 0.24575078 0.5146896 0.18568785999999005
      vertex -0.043091152 0.5146896 0.19020799999999005
    endloop
  endfacet
  facet normal 0.0 0.8197584240884741 0.5727094604910778
    outer loop
      vertex -0.4065 0.38393182 0.37737059999999
      vertex -0.043091152 0.5146896 0.19020799999999005
      vertex -0.4515 0.38393182 0.37737059999999
    endloop
  endfacet
  facet normal -0.036022441891905184 0.9993507834203168 6.287744772955356E-4
    outer loop
      vertex -0.045215048 0.5146896 0.06853015999999001
      vertex -0.45111743 0.5 0.16151786999999002
      vertex -0.043091152 0.5146896 0.19020799999999005
    endloop
  endfacet
  facet normal -0.0384585000373784 0.9991341514333818 -0.015871081071280137
    outer loop
      vertex -0.4505079 0.5 0.11725617999999
      vertex -0.04484177 0.5146896 0.059009999999990015
      vertex -0.44632307 0.5 0.10711557999999
    endloop
  endfacet
  facet normal -0.916359620182545 0.13144231632794603 -0.37816393796506576
    outer loop
      vertex -0.4505079 0.5 0.11725617999999
      vertex -0.44632307 0.5 0.10711557999999
      vertex -0.4518921 0.153 -9.992007221626409E-15
    endloop
  endfacet
  facet normal -0.9934796126396737 0.04003517731714293 -0.10674944424449749
    outer loop
      vertex -0.4505079 0.5 0.11725617999999
      vertex -0.4518921 0.153 -9.992007221626409E-15
      vertex -0.45941952 -0.023101956000000007 0.0040099999999900215
    endloop
  endfacet
  facet normal -0.2761814804805041 0.2863207405067351 -0.917466197412892
    outer loop
      vertex -0.3131701 0.33693394 -9.992007221626409E-15
      vertex -0.40369737 0.4466229 0.06148256999999002
      vertex -0.25487807 0.44790033 0.017082699999990014
    endloop
  endfacet
  facet normal -0.0541925175779498 0.7018960675324474 -0.7102148135747732
    outer loop
      vertex -0.2351 0.5 0.059009999999990015
      vertex -0.04484177 0.5146896 0.059009999999990015
      vertex -0.08676259 0.45174357 -9.992007221626409E-15
    endloop
  endfacet
  facet normal -0.09181913276868287 0.6452245995503316 -0.7584553137744645
    outer loop
      vertex -0.2351 0.5 0.059009999999990015
      vertex -0.08676259 0.45174357 -9.992007221626409E-15
      vertex -0.25487807 0.44790033 0.017082699999990014
    endloop
  endfacet
  facet normal -0.3275065959526453 -0.01670912561199567 -0.9447011351368185
    outer loop
      vertex -0.45308518 0.07945957 -9.992007221626409E-15
      vertex -0.4426457 -0.12515907 -9.992007221626409E-15
      vertex -0.45941952 -0.023101956000000007 0.0040099999999900215
    endloop
  endfacet
  facet normal -0.6513885652771486 0.010567774344817303 -0.7586707185410381
    outer loop
      vertex -0.45308518 0.07945957 -9.992007221626409E-15
      vertex -0.45941952 -0.023101956000000007 0.0040099999999900215
      vertex -0.4518921 0.153 -9.992007221626409E-15
    endloop
  endfacet
  facet normal -0.9724723047615961 -0.15861467519499112 0.17070149760461065
    outer loop
      vertex -0.44835752 -0.06229334000000001 0.03061292999998999
      vertex -0.4515 0.33032194 0.37752593999998996
      vertex -0.45941952 -0.023101956000000007 0.0040099999999900215
    endloop
  endfacet
  facet normal -0.9725800404035269 -0.15985051794940558 0.1689256550082937
    outer loop
      vertex -0.44835752 -0.06229334000000001 0.03061292999998999
      vertex -0.45941952 -0.023101956000000007 0.0040099999999900215
      vertex -0.4426457 -0.12515907 0.0040099999999900215
    endloop
  endfacet
  facet normal -0.9711606212760971 -0.16219068465352232 0.174760491800197
    outer loop
      vertex -0.44835752 -0.06229334000000001 0.03061292999998999
      vertex -0.4426457 -0.12515907 0.0040099999999900215
      vertex -0.4515 0.33032194 0.37752593999998996
    endloop
  endfacet
  facet normal -0.8401911894157512 -0.4555639020537012 0.29417732131106084
    outer loop
      vertex -0.40063882 -0.22602773 0.0040099999999900215
      vertex -0.0345 -0.58155525 0.49915729999999003
      vertex -0.0345 -0.5184044 0.59695289999999
    endloop
  endfacet
  facet normal -0.8511738646739269 -0.4155099416308178 0.32070943313536326
    outer loop
      vertex -0.40063882 -0.22602773 0.0040099999999900215
      vertex -0.0345 -0.5184044 0.59695289999999
      vertex -0.42464787 -0.17684509 0.0040099999999900215
    endloop
  endfacet
  facet normal -0.4718226969418717 -0.23032547097943978 -0.8510778578183068
    outer loop
      vertex -0.40063882 -0.22602773 0.0040099999999900215
      vertex -0.42464787 -0.17684509 0.0040099999999900215
      vertex -0.4426457 -0.12515907 -9.992007221626409E-15
    endloop
  endfacet
  facet normal -0.2571311406864397 -0.1450652455376346 -0.955426423659298
    outer loop
      vertex -0.40063882 -0.22602773 0.0040099999999900215
      vertex -0.4426457 -0.12515907 -9.992007221626409E-15
      vertex -0.3360268 -0.31414327 -9.992007221626409E-15
    endloop
  endfacet
  facet normal 0.8748012244667761 0.03890290397928414 0.48291757240072347
    outer loop
      vertex 0.28035337 -0.3290141 0.54730493999999
      vertex 0.26439068 -0.19851168 0.56570819999999
      vertex 0.24033763 -0.25900143 0.61415303999999
    endloop
  endfacet
  facet normal 0.8707312796927454 0.028949096527149484 0.4909062928654468
    outer loop
      vertex 0.28035337 -0.3290141 0.54730493999999
      vertex 0.24033763 -0.25900143 0.61415303999999
      vertex 0.24903503 -0.29425502 0.60080519999999
    endloop
  endfacet
  facet normal -0.41064958815289854 -0.17358424365641226 0.8951175487633376
    outer loop
      vertex 0.042 -0.39558944 0.65971819999999
      vertex 0.037 -0.36361635 0.66362469999999
      vertex -0.004 -0.47540992 0.62313589999999
    endloop
  endfacet
  facet normal 0.21601143847257617 0.2693329773664288 0.9385088202845743
    outer loop
      vertex 0.22871657 -0.29428408 0.62695319999999
      vertex 0.24033763 -0.25900143 0.61415303999999
      vertex 0.15784839 -0.32683387 0.65260566999999
    endloop
  endfacet
  facet normal 0.09116009857115115 0.028627785710796314 0.995424676363709
    outer loop
      vertex 0.041999914 -0.35346973 0.66398099999999
      vertex 0.15784839 -0.32683387 0.65260566999999
      vertex 0.042 -0.33234993 0.66337359999999
    endloop
  endfacet
  facet normal -0.12849836568444253 0.02851005055854876 0.9912998270117757
    outer loop
      vertex 0.041999914 -0.35346973 0.66398099999999
      vertex 0.042 -0.33234993 0.66337359999999
      vertex 0.037 -0.36361635 0.66362469999999
    endloop
  endfacet
  facet normal 0.11117954057279343 -0.9338198273579025 -0.3400288808193797
    outer loop
      vertex 0.15769193 -0.5570376 0.30927265999999
      vertex 0.042 -0.58029616 0.33531964999999
      vertex 0.06115648 -0.45591652 -9.992007221626409E-15
    endloop
  endfacet
  facet normal 0.20224649771443642 -0.9104456338089121 -0.36081172658400784
    outer loop
      vertex 0.15769193 -0.5570376 0.30927265999999
      vertex 0.06115648 -0.45591652 -9.992007221626409E-15
      vertex 0.20573889 -0.5597592 0.34307199999999005
    endloop
  endfacet
  facet normal 0.1412018754596728 -0.9814532536836216 0.12965932747204836
    outer loop
      vertex 0.1916192 -0.57658887 0.41900999999999
      vertex 0.18940042 -0.5687633 0.48066176999999
      vertex 0.15729903 -0.5835784 0.40347833999999005
    endloop
  endfacet
  facet normal 0.2664279383495345 -0.9503012302770689 -0.16107056031660777
    outer loop
      vertex 0.1916192 -0.57658887 0.41900999999999
      vertex 0.15729903 -0.5835784 0.40347833999999005
      vertex 0.20573889 -0.5597592 0.34307199999999005
    endloop
  endfacet
  facet normal 0.667916903265767 -0.7431327755939486 -0.04050540914374351
    outer loop
      vertex 0.1916192 -0.57658887 0.41900999999999
      vertex 0.20573889 -0.5597592 0.34307199999999005
      vertex 0.23999968 -0.5331052 0.41900999999999
    endloop
  endfacet
  facet normal 0.6638239254178274 -0.7385788767875073 0.11763944409155827
    outer loop
      vertex 0.1916192 -0.57658887 0.41900999999999
      vertex 0.23999968 -0.5331052 0.41900999999999
      vertex 0.18940042 -0.5687633 0.48066176999999
    endloop
  endfacet
  facet normal 0.0875569255613744 -0.9921345184940648 -0.08945882851228416
    outer loop
      vertex 0.037 -0.5922951 0.38240859999999
      vertex 0.15729903 -0.5835784 0.40347833999999005
      vertex 0.042000867 -0.59504324 0.41778112999998995
    endloop
  endfacet
  facet normal -0.0 -0.9969956200971448 -0.07745794670083765
    outer loop
      vertex 0.037 -0.5922951 0.38240859999999
      vertex 0.042000867 -0.59504324 0.41778112999998995
      vertex -0.0345 -0.5922951 0.38240859999999
    endloop
  endfacet
  facet normal -0.08981459474191147 -0.8366787031374555 0.5402796371209746
    outer loop
      vertex 0.042 -0.551714 0.55808669999999
      vertex -0.0345 -0.5184044 0.59695289999999
      vertex -0.0345 -0.58155525 0.49915729999999003
    endloop
  endfacet
  facet normal 0.7745938176286454 -0.6055674170878517 0.18246238256974703
    outer loop
      vertex 0.27738282 -0.47085944 0.46689523999999005
      vertex 0.22526774 -0.5237262 0.51267799999999
      vertex 0.23999968 -0.5331052 0.41900999999999
    endloop
  endfacet
  facet normal 0.9364818923375082 -0.3432475297220303 0.0719916569033099
    outer loop
      vertex 0.27738282 -0.47085944 0.46689523999999005
      vertex 0.2777137 -0.48 0.41900999999999
      vertex 0.40693647 -0.21448244 0.0040099999999900215
    endloop
  endfacet
  facet normal 0.9608144744956796 -0.24223598869453603 0.13474891977589978
    outer loop
      vertex 0.27738282 -0.47085944 0.46689523999999005
      vertex 0.40693647 -0.21448244 0.0040099999999900215
      vertex 0.4599819 -0.004080933499999994 0.0040099999999900215
    endloop
  endfacet
  facet normal 0.8165438371922585 0.4927003760246654 -0.3008363365826933
    outer loop
      vertex 0.41067785 0.20722862 -9.992007221626409E-15
      vertex 0.26999485 0.44038013 -9.992007221626409E-15
      vertex 0.24873969 0.5146896 0.06400999999999002
    endloop
  endfacet
  facet normal 0.8847799015539302 0.46600914777096136 -0.0
    outer loop
      vertex 0.41067785 0.20722862 -9.992007221626409E-15
      vertex 0.24873969 0.5146896 0.06400999999999002
      vertex 0.41067785 0.20722862 0.0040099999999900215
    endloop
  endfacet
  facet normal 0.973842752177487 0.22722300506633938 0.0
    outer loop
      vertex 0.41067785 0.20722862 -9.992007221626409E-15
      vertex 0.4599819 -0.004080933499999994 0.0040099999999900215
      vertex 0.4599819 -0.004080933499999994 -9.992007221626409E-15
    endloop
  endfacet
  facet normal 0.09124098114674888 0.6703819666307747 0.7363851588507427
    outer loop
      vertex 0.19301759 0.38612956 0.31816349999999005
      vertex 0.2423319 0.40393934 0.29583979999999
      vertex 0.11783965 0.38271347 0.33058823999999
    endloop
  endfacet
  facet normal 0.0760725260374754 0.5394457323573459 0.8385769330381826
    outer loop
      vertex 0.11820182 0.36556008 0.34158993999999
      vertex 0.11783965 0.38271347 0.33058823999999
      vertex -0.4065 0.38393182 0.37737059999999
    endloop
  endfacet
  facet normal 0.1448399189509596 0.46678746499788937 0.8724281405360121
    outer loop
      vertex 0.11820182 0.36556008 0.34158993999999
      vertex 0.19337498 0.37297058 0.32514479999999
      vertex 0.19301759 0.38612956 0.31816349999999005
    endloop
  endfacet
  facet normal 0.11358542973967505 0.5380767713536881 0.8352076019053252
    outer loop
      vertex 0.11820182 0.36556008 0.34158993999999
      vertex 0.19301759 0.38612956 0.31816349999999005
      vertex 0.11783965 0.38271347 0.33058823999999
    endloop
  endfacet
  facet normal -0.16280550258058168 0.3116424484886002 0.9361481467318699
    outer loop
      vertex -0.0205 -0.14380899 0.62800999999999
      vertex -0.4515 0.38393182 0.37737059999999
      vertex -0.0992 -0.13240196 0.61052589999999
    endloop
  endfacet
  facet normal -0.17436365364409492 0.2548596723584533 0.9511276800163183
    outer loop
      vertex -0.0205 -0.14380899 0.62800999999999
      vertex -0.0992 -0.13240196 0.61052589999999
      vertex -0.0992 -0.14240195 0.61320544999999
    endloop
  endfacet
  facet normal -0.18134732647434357 0.12289329395898908 0.9757101954374144
    outer loop
      vertex -0.0205 -0.14380899 0.62800999999999
      vertex -0.0992 -0.14240195 0.61320544999999
      vertex 0.042 -0.33234993 0.66337359999999
    endloop
  endfacet
  facet normal -0.9998740813218664 0.01586888467264973 0.0
    outer loop
      vertex -0.45111743 0.5 0.13855079999998998
      vertex -0.45941952 -0.023101956000000007 0.0040099999999900215
      vertex -0.45111743 0.5 0.16151786999999002
    endloop
  endfacet
  facet normal -0.03616630622659487 0.9993457851484261 0.0
    outer loop
      vertex -0.45111743 0.5 0.13855079999998998
      vertex -0.45111743 0.5 0.16151786999999002
      vertex -0.045215048 0.5146896 0.06853015999999001
    endloop
  endfacet
  facet normal 0.8863174429526908 0.4625657247359773 0.02177936218725621
    outer loop
      vertex 0.24576755 0.5146896 0.18500539999999
      vertex 0.24575078 0.5146896 0.18568785999999005
      vertex 0.41067785 0.20722862 0.0040099999999900215
    endloop
  endfacet
  facet normal -0.03479818347461791 0.695751982205046 -0.7174386842682908
    outer loop
      vertex 0.04125426 0.45814636 -9.992007221626409E-15
      vertex -0.08676259 0.45174357 -9.992007221626409E-15
      vertex -0.04484177 0.5146896 0.059009999999990015
    endloop
  endfacet
  facet normal 0.0 0.7220371635156843 -0.6918542725908579
    outer loop
      vertex 0.04125426 0.45814636 -9.992007221626409E-15
      vertex -0.04484177 0.5146896 0.059009999999990015
      vertex -0.03184177 0.5146896 0.059009999999990015
    endloop
  endfacet
  facet normal 0.012187041722374746 0.7294818479786062 -0.6838915919089626
    outer loop
      vertex 0.04125426 0.45814636 -9.992007221626409E-15
      vertex -0.03184177 0.5146896 0.059009999999990015
      vertex 0.24873969 0.5146896 0.06400999999999002
    endloop
  endfacet
  facet normal 0.051275117566833464 0.660168231783381 -0.7493655770466853
    outer loop
      vertex 0.04125426 0.45814636 -9.992007221626409E-15
      vertex 0.24873969 0.5146896 0.06400999999999002
      vertex 0.26999485 0.44038013 -9.992007221626409E-15
    endloop
  endfacet
  facet normal -0.26965001816582745 0.35914394861409066 -0.8934788704144315
    outer loop
      vertex -0.41782537 0.5 0.08720189999999
      vertex -0.25487807 0.44790033 0.017082699999990014
      vertex -0.40369737 0.4466229 0.06148256999999002
    endloop
  endfacet
  facet normal -0.518401457371331 0.2559410606030311 -0.815937560412974
    outer loop
      vertex -0.41782537 0.5 0.08720189999999
      vertex -0.40369737 0.4466229 0.06148256999999002
      vertex -0.4518921 0.153 -9.992007221626409E-15
    endloop
  endfacet
  facet normal -0.5540594379434861 0.2536506595638878 -0.7928931088920833
    outer loop
      vertex -0.41782537 0.5 0.08720189999999
      vertex -0.4518921 0.153 -9.992007221626409E-15
      vertex -0.44632307 0.5 0.10711557999999
    endloop
  endfacet
  facet normal -0.04403008903794021 0.9970411831793272 -0.06300976355834331
    outer loop
      vertex -0.41782537 0.5 0.08720189999999
      vertex -0.44632307 0.5 0.10711557999999
      vertex -0.04484177 0.5146896 0.059009999999990015
    endloop
  endfacet
  facet normal -0.06888180296002229 0.8921502226325175 -0.4464563556247422
    outer loop
      vertex -0.41782537 0.5 0.08720189999999
      vertex -0.04484177 0.5146896 0.059009999999990015
      vertex -0.2351 0.5 0.059009999999990015
    endloop
  endfacet
  facet normal -0.11599675277419555 0.6490721249630785 -0.7518311844701283
    outer loop
      vertex -0.41782537 0.5 0.08720189999999
      vertex -0.2351 0.5 0.059009999999990015
      vertex -0.25487807 0.44790033 0.017082699999990014
    endloop
  endfacet
  facet normal -0.16251143873065782 0.23297287598549168 -0.9588084643643591
    outer loop
      vertex -0.20804292 0.41026595 -9.992007221626409E-15
      vertex -0.3131701 0.33693394 -9.992007221626409E-15
      vertex -0.25487807 0.44790033 0.017082699999990014
    endloop
  endfacet
  facet normal -0.10320515138556752 0.3017712881727926 -0.9477778148711942
    outer loop
      vertex -0.20804292 0.41026595 -9.992007221626409E-15
      vertex -0.25487807 0.44790033 0.017082699999990014
      vertex -0.08676259 0.45174357 -9.992007221626409E-15
    endloop
  endfacet
  facet normal -0.31319141605549483 0.25438580278180406 -0.914985792377243
    outer loop
      vertex -0.39398175 0.2374413 -9.992007221626409E-15
      vertex -0.40369737 0.4466229 0.06148256999999002
      vertex -0.3131701 0.33693394 -9.992007221626409E-15
    endloop
  endfacet
  facet normal 0.0 0.0 -1.0
    outer loop
      vertex -0.39398175 0.2374413 -9.992007221626409E-15
      vertex -0.45308518 0.07945957 -9.992007221626409E-15
      vertex -0.4518921 0.153 -9.992007221626409E-15
    endloop
  endfacet
  facet normal -0.36091265624767377 0.24751606432791148 -0.8991539648246398
    outer loop
      vertex -0.39398175 0.2374413 -9.992007221626409E-15
      vertex -0.4518921 0.153 -9.992007221626409E-15
      vertex -0.40369737 0.4466229 0.06148256999999002
    endloop
  endfacet
  facet normal -0.7947965269963613 -0.5827962819976982 0.1692541708915379
    outer loop
      vertex -0.3360268 -0.31414327 0.0040099999999900215
      vertex -0.0345 -0.58155525 0.49915729999999003
      vertex -0.40063882 -0.22602773 0.0040099999999900215
    endloop
  endfacet
  facet normal -0.806431367559109 -0.591327700532239 -0.0
    outer loop
      vertex -0.3360268 -0.31414327 0.0040099999999900215
      vertex -0.40063882 -0.22602773 0.0040099999999900215
      vertex -0.3360268 -0.31414327 -9.992007221626409E-15
    endloop
  endfacet
  facet normal -0.6780423630346715 -0.7350228254485428 -0.0
    outer loop
      vertex -0.3360268 -0.31414327 0.0040099999999900215
      vertex -0.3360268 -0.31414327 -9.992007221626409E-15
      vertex -0.0345 -0.5922951 0.38240859999999
    endloop
  endfacet
  facet normal -0.7186775460859979 -0.6924199144791475 0.06369652097641233
    outer loop
      vertex -0.3360268 -0.31414327 0.0040099999999900215
      vertex -0.0345 -0.5922951 0.38240859999999
      vertex -0.0345 -0.58155525 0.49915729999999003
    endloop
  endfacet
  facet normal 0.926164472305618 0.066798599000882 0.3711567289035395
    outer loop
      vertex 0.27996174 -0.29495475 0.54423409999999
      vertex 0.26523677 -0.19596331 0.56316209999999
      vertex 0.2648152 -0.19723092 0.56444219999999
    endloop
  endfacet
  facet normal 0.9242423627052007 0.06546780763480865 0.3761515933032851
    outer loop
      vertex 0.27996174 -0.29495475 0.54423409999999
      vertex 0.2648152 -0.19723092 0.56444219999999
      vertex 0.26439068 -0.19851168 0.56570819999999
    endloop
  endfacet
  facet normal 0.9006518959591121 0.04928219855937153 0.4317376833337707
    outer loop
      vertex 0.27996174 -0.29495475 0.54423409999999
      vertex 0.26439068 -0.19851168 0.56570819999999
      vertex 0.28035337 -0.3290141 0.54730493999999
    endloop
  endfacet
  facet normal 0.9410660579850243 0.04108959197644453 0.33571761934658156
    outer loop
      vertex 0.27996174 -0.29495475 0.54423409999999
      vertex 0.28035337 -0.3290141 0.54730493999999
      vertex 0.4599819 -0.004080933499999994 0.0040099999999900215
    endloop
  endfacet
  facet normal 0.9339774860436361 0.07200579615841955 0.3500017441145141
    outer loop
      vertex 0.27996174 -0.29495475 0.54423409999999
      vertex 0.4599819 -0.004080933499999994 0.0040099999999900215
      vertex 0.26523677 -0.19596331 0.56316209999999
    endloop
  endfacet
  facet normal -0.14310953701221563 -0.14205091813237603 0.9794596454545222
    outer loop
      vertex 0.042 -0.3746179 0.66275969999999
      vertex 0.037 -0.36361635 0.66362469999999
      vertex 0.042 -0.39558944 0.65971819999999
    endloop
  endfacet
  facet normal 0.11060099470319379 -0.05729945996003033 0.9922117676478913
    outer loop
      vertex 0.042 -0.3746179 0.66275969999999
      vertex 0.15784839 -0.32683387 0.65260566999999
      vertex 0.041999914 -0.35346973 0.66398099999999
    endloop
  endfacet
  facet normal 0.045808676093099014 -0.057592910902841375 0.9972886351545048
    outer loop
      vertex 0.042 -0.3746179 0.66275969999999
      vertex 0.041999914 -0.35346973 0.66398099999999
      vertex 0.037 -0.36361635 0.66362469999999
    endloop
  endfacet
  facet normal 0.9645621417867085 -0.14691558260148246 0.21917045015399483
    outer loop
      vertex 0.2790066 -0.38743758 0.54350269999999
      vertex 0.2778441 -0.43788514 0.51480252999999
      vertex 0.4599819 -0.004080933499999994 0.0040099999999900215
    endloop
  endfacet
  facet normal 0.9557035170177764 -0.04099926387358077 0.2914615719467616
    outer loop
      vertex 0.2790066 -0.38743758 0.54350269999999
      vertex 0.4599819 -0.004080933499999994 0.0040099999999900215
      vertex 0.28035337 -0.3290141 0.54730493999999
    endloop
  endfacet
  facet normal 0.8460485753808762 -0.05401930849774003 0.530361878725664
    outer loop
      vertex 0.2790066 -0.38743758 0.54350269999999
      vertex 0.28035337 -0.3290141 0.54730493999999
      vertex 0.24903503 -0.29425502 0.60080519999999
    endloop
  endfacet
  facet normal 0.39722435161307484 0.19453900134450988 0.8968653139917125
    outer loop
      vertex 0.21939363 -0.32258943 0.63722206999999
      vertex 0.24033763 -0.25900143 0.61415303999999
      vertex 0.22871657 -0.29428408 0.62695319999999
    endloop
  endfacet
  facet normal 0.21601145502732355 0.26933294552227477 0.9385088256128836
    outer loop
      vertex 0.21939363 -0.32258943 0.63722206999999
      vertex 0.22871657 -0.29428408 0.62695319999999
      vertex 0.15784839 -0.32683387 0.65260566999999
    endloop
  endfacet
  facet normal 0.247856440328313 -0.10226873944110831 0.9633837708415605
    outer loop
      vertex 0.21939363 -0.32258943 0.63722206999999
      vertex 0.15784839 -0.32683387 0.65260566999999
      vertex 0.20101576 -0.42618477 0.63095302999999
    endloop
  endfacet
  facet normal 0.7719706383994891 -0.17394640001445266 0.6113951123218907
    outer loop
      vertex 0.21939363 -0.32258943 0.63722206999999
      vertex 0.20101576 -0.42618477 0.63095302999999
      vertex 0.2790066 -0.38743758 0.54350269999999
    endloop
  endfacet
  facet normal 0.8077246021891781 -0.09773347600810547 0.5814027302014562
    outer loop
      vertex 0.21939363 -0.32258943 0.63722206999999
      vertex 0.2790066 -0.38743758 0.54350269999999
      vertex 0.24903503 -0.29425502 0.60080519999999
    endloop
  endfacet
  facet normal 0.7890940875452939 -0.037467831282575095 0.613128602024111
    outer loop
      vertex 0.21939363 -0.32258943 0.63722206999999
      vertex 0.24903503 -0.29425502 0.60080519999999
      vertex 0.24033763 -0.25900143 0.61415303999999
    endloop
  endfacet
  facet normal 0.10320807959900952 -0.9773131116900879 -0.1849518154118049
    outer loop
      vertex 0.042 -0.5866992 0.35562915999999
      vertex 0.15729903 -0.5835784 0.40347833999999005
      vertex 0.037 -0.5922951 0.38240859999999
    endloop
  endfacet
  facet normal 0.0 -0.9788572645879396 -0.204544507536664
    outer loop
      vertex 0.042 -0.5866992 0.35562915999999
      vertex 0.037 -0.5922951 0.38240859999999
      vertex -0.0345 -0.5922951 0.38240859999999
    endloop
  endfacet
  facet normal -0.03547033851669052 -0.9531238558143935 -0.30049421053160863
    outer loop
      vertex 0.042 -0.5866992 0.35562915999999
      vertex -0.0345 -0.5922951 0.38240859999999
      vertex 0.042 -0.58029616 0.33531964999999
    endloop
  endfacet
  facet normal 0.12309597776314864 -0.9464707160769056 -0.29839665525505465
    outer loop
      vertex 0.042 -0.5866992 0.35562915999999
      vertex 0.042 -0.58029616 0.33531964999999
      vertex 0.15769193 -0.5570376 0.30927265999999
    endloop
  endfacet
  facet normal 0.13609639224477807 -0.9531327401679468 -0.27021426986355995
    outer loop
      vertex 0.042 -0.5866992 0.35562915999999
      vertex 0.15769193 -0.5570376 0.30927265999999
      vertex 0.20573889 -0.5597592 0.34307199999999005
    endloop
  endfacet
  facet normal 0.13651546203779963 -0.9540545198229787 -0.2667273923502268
    outer loop
      vertex 0.042 -0.5866992 0.35562915999999
      vertex 0.20573889 -0.5597592 0.34307199999999005
      vertex 0.15729903 -0.5835784 0.40347833999999005
    endloop
  endfacet
  facet normal -0.06043904391739681 -0.8566898700455773 0.5122788191323578
    outer loop
      vertex 0.042000007 -0.5527227 0.55639983999999
      vertex 0.042 -0.551714 0.55808669999999
      vertex -0.0345 -0.58155525 0.49915729999999003
    endloop
  endfacet
  facet normal -0.06043508055920469 -0.8566925190629676 0.5122748567120482
    outer loop
      vertex 0.042000007 -0.5527227 0.55639983999999
      vertex -0.0345 -0.58155525 0.49915729999999003
      vertex 0.042000085 -0.56805736 0.53075523999999
    endloop
  endfacet
  facet normal 0.9620116880628963 -0.22912551847138263 0.14844193752304938
    outer loop
      vertex 0.2776253 -0.453528 0.49207549999999
      vertex 0.27738282 -0.47085944 0.46689523999999005
      vertex 0.4599819 -0.004080933499999994 0.0040099999999900215
    endloop
  endfacet
  facet normal 0.9620117996190085 -0.22912429042860322 0.1484431100771801
    outer loop
      vertex 0.2776253 -0.453528 0.49207549999999
      vertex 0.4599819 -0.004080933499999994 0.0040099999999900215
      vertex 0.2778441 -0.43788514 0.51480252999999
    endloop
  endfacet
  facet normal 0.8098700754509331 -0.575149668542209 0.11538335956665098
    outer loop
      vertex 0.24241199 -0.52970845 0.41900999999999
      vertex 0.2777137 -0.48 0.41900999999999
      vertex 0.27738282 -0.47085944 0.46689523999999005
    endloop
  endfacet
  facet normal 0.8098669908290653 -0.5751527903575162 0.11538944886529895
    outer loop
      vertex 0.24241199 -0.52970845 0.41900999999999
      vertex 0.27738282 -0.47085944 0.46689523999999005
      vertex 0.23999968 -0.5331052 0.41900999999999
    endloop
  endfacet
  facet normal 0.8133456376485967 -0.5776232619875225 -0.0694279549525399
    outer loop
      vertex 0.24241199 -0.52970845 0.41900999999999
      vertex 0.23999968 -0.5331052 0.41900999999999
      vertex 0.27842376 -0.47450536 0.38161046999999004
    endloop
  endfacet
  facet normal 0.8133485888651896 -0.5776200226124161 -0.06942033180731032
    outer loop
      vertex 0.24241199 -0.52970845 0.41900999999999
      vertex 0.27842376 -0.47450536 0.38161046999999004
      vertex 0.2777137 -0.48 0.41900999999999
    endloop
  endfacet
  facet normal 0.1182927345953656 0.6322242238700493 0.7657018738999299
    outer loop
      vertex 0.22552297 0.39011 0.30985519999999
      vertex 0.2423319 0.40393934 0.29583979999999
      vertex 0.19301759 0.38612956 0.31816349999999005
    endloop
  endfacet
  facet normal 0.19813805150694386 0.2898394294017132 0.9363409729949455
    outer loop
      vertex 0.006348499 -0.14380899 0.62800999999999
      vertex 0.15784839 -0.32683387 0.65260566999999
      vertex 0.24033763 -0.25900143 0.61415303999999
    endloop
  endfacet
  facet normal 0.25417903148777127 0.4109953332491016 0.8754860684210792
    outer loop
      vertex 0.006348499 -0.14380899 0.62800999999999
      vertex 0.24033763 -0.25900143 0.61415303999999
      vertex 0.26999485 0.39266175 0.29962059999999
    endloop
  endfacet
  facet normal 0.1461869288925884 0.46028192841451826 0.8756540002740613
    outer loop
      vertex 0.006348499 -0.14380899 0.62800999999999
      vertex 0.19337498 0.37297058 0.32514479999999
      vertex 0.11820182 0.36556008 0.34158993999999
    endloop
  endfacet
  facet normal 0.07641137994753512 0.47589720174642375 0.8761752988896897
    outer loop
      vertex 0.006348499 -0.14380899 0.62800999999999
      vertex 0.11820182 0.36556008 0.34158993999999
      vertex -0.4065 0.38393182 0.37737059999999
    endloop
  endfacet
  facet normal 0.0 0.4290044647166569 0.9033023686746176
    outer loop
      vertex 0.006348499 -0.14380899 0.62800999999999
      vertex -0.4515 0.38393182 0.37737059999999
      vertex -0.0205 -0.14380899 0.62800999999999
    endloop
  endfacet
  facet normal 0.0 0.18434984094394613 0.9828606901000476
    outer loop
      vertex 0.006348499 -0.14380899 0.62800999999999
      vertex -0.0205 -0.14380899 0.62800999999999
      vertex 0.042 -0.33234993 0.66337359999999
    endloop
  endfacet
  facet normal 0.08132830877561549 0.19857388877095347 0.9767057473415826
    outer loop
      vertex 0.006348499 -0.14380899 0.62800999999999
      vertex 0.042 -0.33234993 0.66337359999999
      vertex 0.15784839 -0.32683387 0.65260566999999
    endloop
  endfacet
  facet normal -0.9973695065350698 0.031159620814667093 -0.06544574443519953
    outer loop
      vertex -0.45059428 0.5 0.11857257999998999
      vertex -0.4505079 0.5 0.11725617999999
      vertex -0.45941952 -0.023101956000000007 0.0040099999999900215
    endloop
  endfacet
  facet normal -0.9994021699963457 0.022592360890421673 -0.026170361785662625
    outer loop
      vertex -0.45059428 0.5 0.11857257999998999
      vertex -0.45941952 -0.023101956000000007 0.0040099999999900215
      vertex -0.45111743 0.5 0.13855079999998998
    endloop
  endfacet
  facet normal -0.03633018717244286 0.9993393880192722 -9.513428833631066E-4
    outer loop
      vertex -0.45059428 0.5 0.11857257999998999
      vertex -0.45111743 0.5 0.13855079999998998
      vertex -0.045215048 0.5146896 0.06853015999999001
    endloop
  endfacet
  facet normal -0.03638877964800403 0.9993366905239935 -0.0014267754837571098
    outer loop
      vertex -0.45059428 0.5 0.11857257999998999
      vertex -0.045215048 0.5146896 0.06853015999999001
      vertex -0.04484177 0.5146896 0.059009999999990015
    endloop
  endfacet
  facet normal -0.036530964005966414 0.9993296465992892 -0.0023971016946484967
    outer loop
      vertex -0.45059428 0.5 0.11857257999998999
      vertex -0.04484177 0.5146896 0.059009999999990015
      vertex -0.4505079 0.5 0.11725617999999
    endloop
  endfacet
  facet normal 0.0 1.0 0.0
    outer loop
      vertex 0.24750048 0.5146896 0.11445806999998998
      vertex 0.24575078 0.5146896 0.18568785999999005
      vertex 0.24576755 0.5146896 0.18500539999999
    endloop
  endfacet
  facet normal 0.8863157125755815 0.4625694091281687 0.021771526828777168
    outer loop
      vertex 0.24750048 0.5146896 0.11445806999998998
      vertex 0.24576755 0.5146896 0.18500539999999
      vertex 0.41067785 0.20722862 0.0040099999999900215
    endloop
  endfacet
  facet normal 0.886315712029434 0.462569410376111 0.02177152254791932
    outer loop
      vertex 0.24750048 0.5146896 0.11445806999998998
      vertex 0.41067785 0.20722862 0.0040099999999900215
      vertex 0.24873969 0.5146896 0.06400999999999002
    endloop
  endfacet
  facet normal 0.7736872322506737 -0.2019339826273916 0.6005253810727174
    outer loop
      vertex 0.23272032 -0.4541608 0.58069915999999
      vertex 0.2790066 -0.38743758 0.54350269999999
      vertex 0.20101576 -0.42618477 0.63095302999999
    endloop
  endfacet
  facet normal 0.2240925523925005 -0.11358399643540595 0.9679262387785426
    outer loop
      vertex 0.15797101 -0.4275723 0.64075584999999
      vertex 0.20101576 -0.42618477 0.63095302999999
      vertex 0.15784839 -0.32683387 0.65260566999999
    endloop
  endfacet
  facet normal 0.1339521751685389 -0.11561046587971621 0.9842210295186199
    outer loop
      vertex 0.15797101 -0.4275723 0.64075584999999
      vertex 0.15784839 -0.32683387 0.65260566999999
      vertex 0.042 -0.3746179 0.66275969999999
    endloop
  endfacet
  facet normal 0.12133071896093299 -0.1424679082856045 0.9823348470583478
    outer loop
      vertex 0.15797101 -0.4275723 0.64075584999999
      vertex 0.042 -0.3746179 0.66275969999999
      vertex 0.042 -0.39558944 0.65971819999999
    endloop
  endfacet
  facet normal -0.002484207391174779 -0.9174193000739591 0.3979141321509512
    outer loop
      vertex 0.04200001 -0.5793636 0.50468789999999
      vertex 0.042000085 -0.56805736 0.53075523999999
      vertex -0.0345 -0.58155525 0.49915729999999003
    endloop
  endfacet
  facet normal -0.002482968270675554 -0.9174256465067848 0.3978995074138378
    outer loop
      vertex 0.04200001 -0.5793636 0.50468789999999
      vertex -0.0345 -0.58155525 0.49915729999999003
      vertex 0.042 -0.5806542 0.50171219999999
    endloop
  endfacet
  facet normal 0.020582238554198745 -0.9548227117311308 0.2964624101273347
    outer loop
      vertex 0.037 -0.58155525 0.49915729999999003
      vertex 0.042 -0.58697426 0.48135704999998996
      vertex 0.042 -0.5806542 0.50171219999999
    endloop
  endfacet
  facet normal 0.0 -0.9430690153163824 0.33259710213738924
    outer loop
      vertex 0.037 -0.58155525 0.49915729999999003
      vertex 0.042 -0.5806542 0.50171219999999
      vertex -0.0345 -0.58155525 0.49915729999999003
    endloop
  endfacet
  facet normal 0.0 -0.9566507843779596 0.29123749200443744
    outer loop
      vertex 0.037 -0.58155525 0.49915729999999003
      vertex -0.0345 -0.58155525 0.49915729999999003
      vertex 0.042 -0.58697426 0.48135704999998996
    endloop
  endfacet
  facet normal 0.11842620249883994 -0.8522188446043021 0.5096060002227331
    outer loop
      vertex 0.15743546 -0.56894314 0.50244845999999
      vertex 0.042 -0.551714 0.55808669999999
      vertex 0.042000007 -0.5527227 0.55639983999999
    endloop
  endfacet
  facet normal 0.11842391366676135 -0.8522215963594562 0.509601930304809
    outer loop
      vertex 0.15743546 -0.56894314 0.50244845999999
      vertex 0.042000007 -0.5527227 0.55639983999999
      vertex 0.042000085 -0.56805736 0.53075523999999
    endloop
  endfacet
  facet normal 0.09016725544771921 -0.9136852347448371 0.39629428188443205
    outer loop
      vertex 0.15743546 -0.56894314 0.50244845999999
      vertex 0.042000085 -0.56805736 0.53075523999999
      vertex 0.04200001 -0.5793636 0.50468789999999
    endloop
  endfacet
  facet normal 0.09016754157116338 -0.9136915451117844 0.3962796674550092
    outer loop
      vertex 0.15743546 -0.56894314 0.50244845999999
      vertex 0.04200001 -0.5793636 0.50468789999999
      vertex 0.042 -0.5806542 0.50171219999999
    endloop
  endfacet
  facet normal 0.0945713460814984 -0.9507446815309238 0.2951962246387914
    outer loop
      vertex 0.15743546 -0.56894314 0.50244845999999
      vertex 0.042 -0.5806542 0.50171219999999
      vertex 0.042 -0.58697426 0.48135704999998996
    endloop
  endfacet
  facet normal 0.12161437271928949 -0.9778486656843716 0.17035824420141213
    outer loop
      vertex 0.15743546 -0.56894314 0.50244845999999
      vertex 0.042 -0.58697426 0.48135704999998996
      vertex 0.18940042 -0.5687633 0.48066176999999
    endloop
  endfacet
  facet normal 0.13607386741778826 0.6187396865590445 0.7737215926176428
    outer loop
      vertex 0.2452975 0.391193 0.30551139999999
      vertex 0.2423319 0.40393934 0.29583979999999
      vertex 0.22552297 0.39011 0.30985519999999
    endloop
  endfacet
  facet normal 0.1716858508248178 0.4511319694046663 0.8757875968564671
    outer loop
      vertex 0.24202725 0.38967577 0.30700209999998995
      vertex 0.19337498 0.37297058 0.32514479999999
      vertex 0.006348499 -0.14380899 0.62800999999999
    endloop
  endfacet
  facet normal 0.16075514709468006 0.4933860146945536 0.8548263117068833
    outer loop
      vertex 0.24202725 0.38967577 0.30700209999998995
      vertex 0.2452975 0.391193 0.30551139999999
      vertex 0.22552297 0.39011 0.30985519999999
    endloop
  endfacet
  facet normal 0.16171124964229452 0.47960613878313874 0.8624543021984737
    outer loop
      vertex 0.24202725 0.38967577 0.30700209999998995
      vertex 0.22552297 0.39011 0.30985519999999
      vertex 0.19301759 0.38612956 0.31816349999999005
    endloop
  endfacet
  facet normal 0.16432030551898918 0.4657709845105054 0.8695149378718348
    outer loop
      vertex 0.24202725 0.38967577 0.30700209999998995
      vertex 0.19301759 0.38612956 0.31816349999999005
      vertex 0.19337498 0.37297058 0.32514479999999
    endloop
  endfacet
  facet normal 0.8132291302714053 -0.2796304440671453 0.5103579101266335
    outer loop
      vertex 0.26374713 -0.45389804 0.53140349999999
      vertex 0.2790066 -0.38743758 0.54350269999999
      vertex 0.23272032 -0.4541608 0.58069915999999
    endloop
  endfacet
  facet normal 0.7239473149270834 -0.5203840907533844 0.45288042936368933
    outer loop
      vertex 0.26374713 -0.45389804 0.53140349999999
      vertex 0.23272032 -0.4541608 0.58069915999999
      vertex 0.22526774 -0.5237262 0.51267799999999
    endloop
  endfacet
  facet normal 0.7969632128808607 -0.5210906939877051 0.3054736092595038
    outer loop
      vertex 0.26374713 -0.45389804 0.53140349999999
      vertex 0.22526774 -0.5237262 0.51267799999999
      vertex 0.27738282 -0.47085944 0.46689523999999005
    endloop
  endfacet
  facet normal 0.8478649692549397 -0.44053308309215794 0.29505185410642315
    outer loop
      vertex 0.26374713 -0.45389804 0.53140349999999
      vertex 0.27738282 -0.47085944 0.46689523999999005
      vertex 0.2776253 -0.453528 0.49207549999999
    endloop
  endfacet
  facet normal 0.8478657217695411 -0.4405314466057115 0.29505213505361116
    outer loop
      vertex 0.26374713 -0.45389804 0.53140349999999
      vertex 0.2776253 -0.453528 0.49207549999999
      vertex 0.2778441 -0.43788514 0.51480252999999
    endloop
  endfacet
  facet normal 0.8476128649679373 -0.27700489744859835 0.45257122967587865
    outer loop
      vertex 0.26374713 -0.45389804 0.53140349999999
      vertex 0.2778441 -0.43788514 0.51480252999999
      vertex 0.2790066 -0.38743758 0.54350269999999
    endloop
  endfacet
  facet normal 0.7200631118197439 -0.5230309181055617 0.4560129095783586
    outer loop
      vertex 0.19920462 -0.5238541 0.55368603999999
      vertex 0.22526774 -0.5237262 0.51267799999999
      vertex 0.23272032 -0.4541608 0.58069915999999
    endloop
  endfacet
  facet normal 0.14609454671273292 0.6193260926935481 0.771421787564847
    outer loop
      vertex 0.26500002 0.39235616 0.30084623999999005
      vertex 0.2423319 0.40393934 0.29583979999999
      vertex 0.2452975 0.391193 0.30551139999999
    endloop
  endfacet
  facet normal 0.17731121954771206 0.4682882176086897 0.8656020313466112
    outer loop
      vertex 0.26500002 0.39235616 0.30084623999999005
      vertex 0.2452975 0.391193 0.30551139999999
      vertex 0.24202725 0.38967577 0.30700209999998995
    endloop
  endfacet
  facet normal 0.18264720417108946 0.44641092669631566 0.8759893169066739
    outer loop
      vertex 0.26500002 0.39235616 0.30084623999999005
      vertex 0.24202725 0.38967577 0.30700209999998995
      vertex 0.006348499 -0.14380899 0.62800999999999
    endloop
  endfacet
  facet normal 0.18782016025533751 0.44399667443691 0.8761224460602661
    outer loop
      vertex 0.26500002 0.39235616 0.30084623999999005
      vertex 0.006348499 -0.14380899 0.62800999999999
      vertex 0.26999485 0.39266175 0.29962059999999
    endloop
  endfacet
  facet normal 0.14986451744680157 0.6245604256937373 0.7664625894769391
    outer loop
      vertex 0.26500002 0.39235616 0.30084623999999005
      vertex 0.26999485 0.39266175 0.29962059999999
      vertex 0.2423319 0.40393934 0.29583979999999
    endloop
  endfacet
  facet normal 0.677053530480923 -0.7002134790677556 0.22649415134865575
    outer loop
      vertex 0.18910469 -0.5655037 0.49162293999998996
      vertex 0.18940042 -0.5687633 0.48066176999999
      vertex 0.22526774 -0.5237262 0.51267799999999
    endloop
  endfacet
  facet normal 0.5974803139519443 -0.7074526461587215 0.3775288437760867
    outer loop
      vertex 0.18910469 -0.5655037 0.49162293999998996
      vertex 0.22526774 -0.5237262 0.51267799999999
      vertex 0.19920462 -0.5238541 0.55368603999999
    endloop
  endfacet
  facet normal 0.26269381034482375 -0.8204287506619099 0.5078273595365412
    outer loop
      vertex 0.18910469 -0.5655037 0.49162293999998996
      vertex 0.19920462 -0.5238541 0.55368603999999
      vertex 0.15743546 -0.56894314 0.50244845999999
    endloop
  endfacet
  facet normal 0.19902770463234337 -0.937859242272588 0.2842675051297068
    outer loop
      vertex 0.18910469 -0.5655037 0.49162293999998996
      vertex 0.15743546 -0.56894314 0.50244845999999
      vertex 0.18940042 -0.5687633 0.48066176999999
    endloop
  endfacet
  facet normal 0.6113826476789026 -0.46165741874267774 0.6427158671115744
    outer loop
      vertex 0.18946595 -0.5084974 0.58281529999999
      vertex 0.23272032 -0.4541608 0.58069915999999
      vertex 0.20101576 -0.42618477 0.63095302999999
    endloop
  endfacet
  facet normal 0.20604887429866806 -0.5153759854657533 0.8318241731312306
    outer loop
      vertex 0.18946595 -0.5084974 0.58281529999999
      vertex 0.20101576 -0.42618477 0.63095302999999
      vertex 0.15797101 -0.4275723 0.64075584999999
    endloop
  endfacet
  facet normal 0.25136277175842275 -0.8189994910973784 0.5158067376025236
    outer loop
      vertex 0.18946595 -0.5084974 0.58281529999999
      vertex 0.15743546 -0.56894314 0.50244845999999
      vertex 0.19920462 -0.5238541 0.55368603999999
    endloop
  endfacet
  facet normal 0.6844552292625495 -0.5251628433046516 0.5056926212110723
    outer loop
      vertex 0.18946595 -0.5084974 0.58281529999999
      vertex 0.19920462 -0.5238541 0.55368603999999
      vertex 0.23272032 -0.4541608 0.58069915999999
    endloop
  endfacet
  facet normal -0.04078436555886034 -0.7969179890938082 0.6027091787791541
    outer loop
      vertex 0.042 -0.53884876 0.57509745999999
      vertex -0.0345 -0.5184044 0.59695289999999
      vertex 0.042 -0.551714 0.55808669999999
    endloop
  endfacet
  facet normal -0.24982959644247324 -0.3681604864382017 0.8955685506799453
    outer loop
      vertex 0.0085 -0.47747198 0.62577522999999
      vertex -0.004 -0.47540992 0.62313589999999
      vertex -0.0345 -0.5184044 0.59695289999999
    endloop
  endfacet
  facet normal -0.31924048345476036 -0.23659604226001404 0.9176643321555374
    outer loop
      vertex 0.04199972 -0.4263726 0.65178145999999
      vertex 0.042 -0.39558944 0.65971819999999
      vertex -0.004 -0.47540992 0.62313589999999
    endloop
  endfacet
  facet normal -0.24487063684008148 -0.3074431031853759 0.9195200430209661
    outer loop
      vertex 0.04199972 -0.4263726 0.65178145999999
      vertex -0.004 -0.47540992 0.62313589999999
      vertex 0.0085 -0.47747198 0.62577522999999
    endloop
  endfacet
  facet normal 0.08912243706913738 -0.24866995178100937 0.9644793654050294
    outer loop
      vertex 0.04199972 -0.4263726 0.65178145999999
      vertex 0.15797101 -0.4275723 0.64075584999999
      vertex 0.042 -0.39558944 0.65971819999999
    endloop
  endfacet
  facet normal 0.1089340457778053 -0.7928351751746697 0.5996213460811998
    outer loop
      vertex 0.15776975 -0.5137901 0.58719862999999
      vertex 0.042 -0.53884876 0.57509745999999
      vertex 0.042 -0.551714 0.55808669999999
    endloop
  endfacet
  facet normal 0.1362947260831473 -0.8305721880521929 0.5399755439611247
    outer loop
      vertex 0.15776975 -0.5137901 0.58719862999999
      vertex 0.042 -0.551714 0.55808669999999
      vertex 0.15743546 -0.56894314 0.50244845999999
    endloop
  endfacet
  facet normal 0.21054093652995956 -0.8197402171775264 0.5326335423035519
    outer loop
      vertex 0.15776975 -0.5137901 0.58719862999999
      vertex 0.15743546 -0.56894314 0.50244845999999
      vertex 0.18946595 -0.5084974 0.58281529999999
    endloop
  endfacet
  facet normal 0.20139822136931837 -0.517193695135606 0.8318349825183196
    outer loop
      vertex 0.15776975 -0.5137901 0.58719862999999
      vertex 0.18946595 -0.5084974 0.58281529999999
      vertex 0.15797101 -0.4275723 0.64075584999999
    endloop
  endfacet
  facet normal 0.0977844520922698 -0.6131069652544967 0.7839247732311028
    outer loop
      vertex 0.042 -0.49249786 0.61829204999999
      vertex 0.041999936 -0.50916564 0.60525619999999
      vertex 0.15776975 -0.5137901 0.58719862999999
    endloop
  endfacet
  facet normal -0.011095884763086926 -0.616021171771253 0.7876514440226062
    outer loop
      vertex 0.042 -0.49249786 0.61829204999999
      vertex -0.0345 -0.5184044 0.59695289999999
      vertex 0.041999936 -0.50916564 0.60525619999999
    endloop
  endfacet
  facet normal 0.08406808845120708 -0.37138032911669505 0.9246670793584767
    outer loop
      vertex 0.04199977 -0.43132824 0.64979109999999
      vertex 0.042 -0.45590487 0.63992019999999
      vertex 0.15797101 -0.4275723 0.64075584999999
    endloop
  endfacet
  facet normal 0.08406808636248814 -0.37137840921009313 0.9246678506512108
    outer loop
      vertex 0.04199977 -0.43132824 0.64979109999999
      vertex 0.15797101 -0.4275723 0.64075584999999
      vertex 0.04199972 -0.4263726 0.65178145999999
    endloop
  endfacet
  facet normal -0.15015411418859195 -0.3684743612408037 0.9174314072999796
    outer loop
      vertex 0.04199977 -0.43132824 0.64979109999999
      vertex 0.04199972 -0.4263726 0.65178145999999
      vertex 0.0085 -0.47747198 0.62577522999999
    endloop
  endfacet
  facet normal -0.1501512526490544 -0.3684762811109862 0.9174311045449339
    outer loop
      vertex 0.04199977 -0.43132824 0.64979109999999
      vertex 0.0085 -0.47747198 0.62577522999999
      vertex 0.042 -0.45590487 0.63992019999999
    endloop
  endfacet
  facet normal 0.09026230901810452 -0.7392708488061284 0.6673314975903557
    outer loop
      vertex 0.042 -0.5246241 0.59085555999999
      vertex 0.042 -0.53884876 0.57509745999999
      vertex 0.15776975 -0.5137901 0.58719862999999
    endloop
  endfacet
  facet normal -0.006944466167990223 -0.7422830022183086 0.6700505346669133
    outer loop
      vertex 0.042 -0.5246241 0.59085555999999
      vertex -0.0345 -0.5184044 0.59695289999999
      vertex 0.042 -0.53884876 0.57509745999999
    endloop
  endfacet
  facet normal 0.10803656986299671 -0.46808394567723993 0.8770550264216406
    outer loop
      vertex 0.042 -0.46566373 0.63471189999999
      vertex 0.15797101 -0.4275723 0.64075584999999
      vertex 0.042 -0.45590487 0.63992019999999
    endloop
  endfacet
  facet normal 0.10803917594533805 -0.4680912136031918 0.8770508264681948
    outer loop
      vertex 0.042 -0.47461703 0.62993342999999
      vertex 0.15797101 -0.4275723 0.64075584999999
      vertex 0.042 -0.46566373 0.63471189999999
    endloop
  endfacet
  facet normal -0.05947278883382479 -0.5321945351945654 0.8445306176198516
    outer loop
      vertex 0.042 -0.47461703 0.62993342999999
      vertex 0.0085 -0.47747198 0.62577522999999
      vertex -0.0345 -0.5184044 0.59695289999999
    endloop
  endfacet
  facet normal -0.04893762076465371 -0.544955223318145 0.8370357900664498
    outer loop
      vertex 0.042 -0.47461703 0.62993342999999
      vertex -0.0345 -0.5184044 0.59695289999999
      vertex 0.042 -0.49249786 0.61829204999999
    endloop
  endfacet
  facet normal 0.12377370394978904 -0.5414134758287925 0.8315957662239122
    outer loop
      vertex 0.042 -0.47461703 0.62993342999999
      vertex 0.042 -0.49249786 0.61829204999999
      vertex 0.15776975 -0.5137901 0.58719862999999
    endloop
  endfacet
  facet normal 0.13367681232868867 -0.5231560144028802 0.8416877654093197
    outer loop
      vertex 0.042 -0.47461703 0.62993342999999
      vertex 0.15776975 -0.5137901 0.58719862999999
      vertex 0.15797101 -0.4275723 0.64075584999999
    endloop
  endfacet
  facet normal 0.0 -0.7000476950344235 0.7140960892463919
    outer loop
      vertex 0.037 -0.5184044 0.59695289999999
      vertex -0.0345 -0.5184044 0.59695289999999
      vertex 0.042 -0.5246241 0.59085555999999
    endloop
  endfacet
  facet normal 0.0 -0.6684493449394906 0.7437576710528545
    outer loop
      vertex 0.037 -0.5184044 0.59695289999999
      vertex 0.041999936 -0.50916564 0.60525619999999
      vertex -0.0345 -0.5184044 0.59695289999999
    endloop
  endfacet
  facet normal 0.04433377609217487 -0.6809579309329206 0.7309793516898851
    outer loop
      vertex 0.04199999 -0.5219145 0.59337974999999
      vertex 0.041999936 -0.50916564 0.60525619999999
      vertex 0.037 -0.5184044 0.59695289999999
    endloop
  endfacet
  facet normal 0.04433196445452003 -0.680959312877564 0.7309781741836888
    outer loop
      vertex 0.04199999 -0.5219145 0.59337974999999
      vertex 0.037 -0.5184044 0.59695289999999
      vertex 0.042 -0.5246241 0.59085555999999
    endloop
  endfacet
  facet normal 0.0865749957269278 -0.6790700802761352 0.7289503386299
    outer loop
      vertex 0.04199999 -0.5219145 0.59337974999999
      vertex 0.042 -0.5246241 0.59085555999999
      vertex 0.15776975 -0.5137901 0.58719862999999
    endloop
  endfacet
  facet normal 0.08657496862831002 -0.6790687460574955 0.7289515847674028
    outer loop
      vertex 0.04199999 -0.5219145 0.59337974999999
      vertex 0.15776975 -0.5137901 0.58719862999999
      vertex 0.041999936 -0.50916564 0.60525619999999
    endloop
  endfacet
  facet normal -0.06205164437893534 -0.5161163472267106 0.854267820741966
    outer loop
      vertex 0.037 -0.46577173 0.63491423999999
      vertex 0.0085 -0.47747198 0.62577522999999
      vertex 0.042 -0.47461703 0.62993342999999
    endloop
  endfacet
  facet normal 0.045823581059767235 -0.47035265090572514 0.8812880251114366
    outer loop
      vertex 0.037 -0.46577173 0.63491423999999
      vertex 0.042 -0.47461703 0.62993342999999
      vertex 0.042 -0.46566373 0.63471189999999
    endloop
  endfacet
  facet normal 0.04582358104474727 -0.4703452138750438 0.8812919942930804
    outer loop
      vertex 0.037 -0.46577173 0.63491423999999
      vertex 0.042 -0.46566373 0.63471189999999
      vertex 0.042 -0.45590487 0.63992019999999
    endloop
  endfacet
  facet normal -0.12901603802451622 -0.39589797219776574 0.9091862611930263
    outer loop
      vertex 0.037 -0.46577173 0.63491423999999
      vertex 0.042 -0.45590487 0.63992019999999
      vertex 0.0085 -0.47747198 0.62577522999999
    endloop
  endfacet
  facet normal 0.9696579733291298 -0.24446556968056798 0.0
    outer loop
      vertex 0.40693647 -0.21448244 0.0040099999999900215
      vertex 0.40693647 -0.21448244 -9.992007221626409E-15
      vertex 0.4599819 -0.004080933499999994 -9.992007221626409E-15
    endloop
  endfacet
  facet normal 0.973842752177487 0.22722300506633938 -0.0
    outer loop
      vertex 0.41067785 0.20722862 -9.992007221626409E-15
      vertex 0.41067785 0.20722862 0.0040099999999900215
      vertex 0.4599819 -0.004080933499999994 0.0040099999999900215
    endloop
  endfacet
  facet normal 0.0 0.0 -1.0
    outer loop
      vertex -0.39398175 0.2374413 -9.992007221626409E-15
      vertex -0.3131701 0.33693394 -9.992007221626409E-15
      vertex -0.20804292 0.41026595 -9.992007221626409E-15
    endloop
  endfacet
  facet normal 0.0 0.0 -1.0
    outer loop
      vertex -0.39398175 0.2374413 -9.992007221626409E-15
      vertex -0.20804292 0.41026595 -9.992007221626409E-15
      vertex -0.08676259 0.45174357 -9.992007221626409E-15
    endloop
  endfacet
  facet normal 0.0 0.0 -1.0
    outer loop
      vertex -0.39398175 0.2374413 -9.992007221626409E-15
      vertex -0.08676259 0.45174357 -9.992007221626409E-15
      vertex 0.04125426 0.45814636 -9.992007221626409E-15
    endloop
  endfacet
  facet normal 0.0 0.0 -1.0
    outer loop
      vertex -0.39398175 0.2374413 -9.992007221626409E-15
      vertex 0.04125426 0.45814636 -9.992007221626409E-15
      vertex 0.26999485 0.44038013 -9.992007221626409E-15
    endloop
  endfacet
  facet normal 0.0 0.0 -1.0
    outer loop
      vertex -0.39398175 0.2374413 -9.992007221626409E-15
      vertex 0.26999485 0.44038013 -9.992007221626409E-15
      vertex 0.41067785 0.20722862 -9.992007221626409E-15
    endloop
  endfacet
  facet normal 0.0 0.0 -1.0
    outer loop
      vertex -0.39398175 0.2374413 -9.992007221626409E-15
      vertex 0.41067785 0.20722862 -9.992007221626409E-15
      vertex 0.4599819 -0.004080933499999994 -9.992007221626409E-15
    endloop
  endfacet
  facet normal 0.0 0.0 -1.0
    outer loop
      vertex -0.39398175 0.2374413 -9.992007221626409E-15
      vertex 0.4599819 -0.004080933499999994 -9.992007221626409E-15
      vertex 0.40693647 -0.21448244 -9.992007221626409E-15
    endloop
  endfacet
  facet normal 0.0 0.0 -1.0
    outer loop
      vertex -0.39398175 0.2374413 -9.992007221626409E-15
      vertex 0.40693647 -0.21448244 -9.992007221626409E-15
      vertex 0.26334456 -0.37715998 -9.992007221626409E-15
    endloop
  endfacet
  facet normal 0.0 0.0 -1.0
    outer loop
      vertex -0.39398175 0.2374413 -9.992007221626409E-15
      vertex 0.26334456 -0.37715998 -9.992007221626409E-15
      vertex 0.06115648 -0.45591652 -9.992007221626409E-15
    endloop
  endfacet
  facet normal 0.0 0.0 -1.0
    outer loop
      vertex -0.39398175 0.2374413 -9.992007221626409E-15
      vertex 0.06115648 -0.45591652 -9.992007221626409E-15
      vertex -0.15463938 -0.4332282 -9.992007221626409E-15
    endloop
  endfacet
  facet normal 0.0 0.0 -1.0
    outer loop
      vertex -0.39398175 0.2374413 -9.992007221626409E-15
      vertex -0.15463938 -0.4332282 -9.992007221626409E-15
      vertex -0.3360268 -0.31414327 -9.992007221626409E-15
    endloop
  endfacet
  facet normal 0.0 -0.0 -1.0
    outer loop
      vertex -0.39398175 0.2374413 -9.992007221626409E-15
      vertex -0.3360268 -0.31414327 -9.992007221626409E-15
      vertex -0.4426457 -0.12515907 -9.992007221626409E-15
    endloop
  endfacet
  facet normal 0.0 0.0 -1.0
    outer loop
      vertex -0.39398175 0.2374413 -9.992007221626409E-15
      vertex -0.4426457 -0.12515907 -9.992007221626409E-15
      vertex -0.45308518 0.07945957 -9.992007221626409E-15
    endloop
  endfacet
  facet normal 0.0 0.4290044647166569 0.9033023686746177
    outer loop
      vertex 0.006348499 -0.14380899 0.62800999999999
      vertex -0.4065 0.38393182 0.37737059999999
      vertex -0.4515 0.38393182 0.37737059999999
    endloop
  endfacet
  facet normal 0.0 1.0 0.0
    outer loop
      vertex 0.24750048 0.5146896 0.11445806999998998
      vertex 0.24873969 0.5146896 0.06400999999999002
      vertex -0.03184177 0.5146896 0.059009999999990015
    endloop
  endfacet
  facet normal 0.0 1.0 0.0
    outer loop
      vertex 0.24750048 0.5146896 0.11445806999998998
      vertex -0.03184177 0.5146896 0.059009999999990015
      vertex -0.04484177 0.5146896 0.059009999999990015
    endloop
  endfacet
  facet normal 0.0 1.0 0.0
    outer loop
      vertex 0.24750048 0.5146896 0.11445806999998998
      vertex -0.04484177 0.5146896 0.059009999999990015
      vertex -0.045215048 0.5146896 0.06853015999999001
    endloop
  endfacet
  facet normal 0.0 1.0 0.0
    outer loop
      vertex 0.24750048 0.5146896 0.11445806999998998
      vertex -0.045215048 0.5146896 0.06853015999999001
      vertex -0.043091152 0.5146896 0.19020799999999005
    endloop
  endfacet
  facet normal 0.0 1.0 0.0
    outer loop
      vertex 0.24750048 0.5146896 0.11445806999998998
      vertex -0.043091152 0.5146896 0.19020799999999005
      vertex 0.24575078 0.5146896 0.18568785999999005
    endloop
  endfacet
endsolid grep4CCC00u2_14
