solid grep4CCC00u2_9
  facet normal -0.8788075242245449 0.451160440112299 -0.15540782684280333
    outer loop
      vertex -0.12956900999999998 0.09283580000000002 0.23399999999999976
      vertex -0.10478907 0.06050000000000022 0.0
      vertex -0.1748616399999992 0.042019700000003546 0.3426000000000011
    endloop
  endfacet
  facet normal -0.1984452479756072 0.9799736215984992 0.016467681288549765
    outer loop
      vertex -3.9687266868247606E-17 0.121 0.11936219999999986
      vertex -0.12956900999999998 0.09283580000000002 0.23399999999999976
      vertex -0.14145847999999997 0.08484170000000013 0.5664449999999996
    endloop
  endfacet
  facet normal -0.051378026536744316 0.9337467790288527 0.3542276824902769
    outer loop
      vertex 0.12855879999999997 0.08626000000000023 0.6018702999999996
      vertex 0.12902993999999998 0.10425230000000019 0.5545107999999996
      vertex -0.14145847999999997 0.08484170000000013 0.5664449999999996
    endloop
  endfacet
  facet normal -0.9500457525683904 0.25456405275509913 -0.18058297558645958
    outer loop
      vertex -0.121 2.220446049250313E-16 0.0
      vertex -0.1748616399999992 0.042019700000003546 0.3426000000000011
      vertex -0.10478907 0.06050000000000022 0.0
    endloop
  endfacet
  facet normal -0.6968055558996297 0.6968035105991419 -0.1700790548072269
    outer loop
      vertex -0.0605 0.10478920000000036 0.0
      vertex -0.10478907 0.06050000000000022 0.0
      vertex -0.12956900999999998 0.09283580000000002 0.23399999999999976
    endloop
  endfacet
  facet normal -0.2587225162095193 0.9655730889700869 -0.027041994434209803
    outer loop
      vertex -0.0605 0.10478920000000036 0.0
      vertex -0.12956900999999998 0.09283580000000002 0.23399999999999976
      vertex 5.947694977368933E-17 0.121 0.0
    endloop
  endfacet
  facet normal -0.18744163958448665 0.9820696851076184 0.020118780840366408
    outer loop
      vertex -0.12817672999999996 0.08773870000000006 0.5487747999999997
      vertex -3.9687266868247606E-17 0.121 0.11936219999999986
      vertex -0.14145847999999997 0.08484170000000013 0.5664449999999996
    endloop
  endfacet
  facet normal -0.06616789740264545 0.9914114965481728 0.1128053804808322
    outer loop
      vertex -0.12817672999999996 0.08773870000000006 0.5487747999999997
      vertex -0.14145847999999997 0.08484170000000013 0.5664449999999996
      vertex 0.12902993999999998 0.10425230000000019 0.5545107999999996
    endloop
  endfacet
  facet normal -0.21240821214633568 0.9771810228472498 3.3229833303781694E-14
    outer loop
      vertex -9.989463001909847E-15 0.121 0.05576230000000004
      vertex -0.12956900999999998 0.09283580000000002 0.23399999999999976
      vertex -3.9687266868247606E-17 0.121 0.11936219999999986
    endloop
  endfacet
  facet normal -0.2124082121464296 0.9771810228472294 -3.827814435745884E-14
    outer loop
      vertex -9.989463001909847E-15 0.121 0.05576230000000004
      vertex 5.947694977368933E-17 0.121 0.0
      vertex -0.12956900999999998 0.09283580000000002 0.23399999999999976
    endloop
  endfacet
  facet normal 0.7003373428031412 0.7003352871359657 -0.1380510480496977
    outer loop
      vertex 0.15550451999999998 0.09301599999999999 0.42223529999999965
      vertex 0.10478906999999997 0.06050000000000022 0.0
      vertex 0.060499999999999984 0.10478920000000036 0.0
    endloop
  endfacet
  facet normal -0.04642713013734159 0.2383316391265819 0.9700734773090373
    outer loop
      vertex 0.12756905999999998 0.04846360000000005 0.6351467999999998
      vertex -0.14430920999999997 0.01874890000000007 0.6294352999999997
      vertex 0.12629999999999997 2.220446049250313E-16 0.6469927999999998
    endloop
  endfacet
  facet normal -0.8356949248230803 -0.37093404453424556 0.4049962064395326
    outer loop
      vertex -0.14779294999999998 -0.03260609999999975 0.6234012999999998
      vertex -0.17691908999999997 -0.039254099999999736 0.5572116999999996
      vertex -0.14345059999999998 -0.05253619999999981 0.6141076999999997
    endloop
  endfacet
  facet normal 0.2585687326194476 -0.9649932035529593 -0.04393549371715064
    outer loop
      vertex -3.871252522631065E-17 -0.12099999999999977 0.0
      vertex 0.060499999999999984 -0.10478909999999986 0.0
      vertex 0.16399999999999998 -0.1017332999999998 0.5419999999999998
    endloop
  endfacet
  facet normal 0.9949269040300609 -0.026037334671131642 -0.09717259305164949
    outer loop
      vertex 0.16399999999999998 -0.05086669999999982 0.45389639999999964
      vertex 0.12099999999999997 2.220446049250313E-16 0.0
      vertex 0.16399999999999998 2.220446049250313E-16 0.4402666999999998
    endloop
  endfacet
  facet normal 0.957055193192712 -0.25644222715675247 -0.13521368759761507
    outer loop
      vertex 0.15664597999999996 -0.09300299999999995 0.4286922999999998
      vertex 0.10478906999999997 -0.060499999999999776 0.0
      vertex 0.12099999999999997 2.220446049250313E-16 0.0
    endloop
  endfacet
  facet normal 0.5457617094193746 -0.8320086782551497 -0.0995274627415003
    outer loop
      vertex 0.15664597999999996 -0.09300299999999995 0.4286922999999998
      vertex 0.16399999999999998 -0.1017332999999998 0.5419999999999998
      vertex 0.060499999999999984 -0.10478909999999986 0.0
    endloop
  endfacet
  facet normal 0.7003593365479266 -0.7003588621472239 -0.1378196790084564
    outer loop
      vertex 0.15664597999999996 -0.09300299999999995 0.4286922999999998
      vertex 0.060499999999999984 -0.10478909999999986 0.0
      vertex 0.10478906999999997 -0.060499999999999776 0.0
    endloop
  endfacet
  facet normal -0.8161555808465407 0.5775837597786406 -0.01694308983082477
    outer loop
      vertex -0.15963798999999998 0.06317600000000034 0.33048109999999964
      vertex -0.1748616399999992 0.042019700000003546 0.3426000000000011
      vertex -0.17673862999999998 0.04507900000000009 0.5373057999999997
    endloop
  endfacet
  facet normal -0.7700951253762931 0.6378806606193655 -0.007858796311978363
    outer loop
      vertex -0.15963798999999998 0.06317600000000034 0.33048109999999964
      vertex -0.17673862999999998 0.04507900000000009 0.5373057999999997
      vertex -0.14731016999999996 0.07786800000000005 0.3149759999999997
    endloop
  endfacet
  facet normal -0.7964094630676137 0.6014341553631452 -0.06331606351452455
    outer loop
      vertex -0.15963798999999998 0.06317600000000034 0.33048109999999964
      vertex -0.14731016999999996 0.07786800000000005 0.3149759999999997
      vertex -0.12956900999999998 0.09283580000000002 0.23399999999999976
    endloop
  endfacet
  facet normal -0.8323797990248379 0.5466206317986471 -0.09137699419119952
    outer loop
      vertex -0.15963798999999998 0.06317600000000034 0.33048109999999964
      vertex -0.12956900999999998 0.09283580000000002 0.23399999999999976
      vertex -0.1748616399999992 0.042019700000003546 0.3426000000000011
    endloop
  endfacet
  facet normal -0.5621938008201485 0.8270054909569962 -2.196505701029893E-4
    outer loop
      vertex -0.14158130999999996 0.08469530000000036 0.3296172999999998
      vertex -0.14145847999999997 0.08484170000000013 0.5664449999999996
      vertex -0.12956900999999998 0.09283580000000002 0.23399999999999976
    endloop
  endfacet
  facet normal -0.729173179201378 0.683512993431162 -0.033413508407940315
    outer loop
      vertex -0.14158130999999996 0.08469530000000036 0.3296172999999998
      vertex -0.12956900999999998 0.09283580000000002 0.23399999999999976
      vertex -0.14731016999999996 0.07786800000000005 0.3149759999999997
    endloop
  endfacet
  facet normal -0.7607487911987721 0.6490273479973131 -0.004977774721866175
    outer loop
      vertex -0.14158130999999996 0.08469530000000036 0.3296172999999998
      vertex -0.14731016999999996 0.07786800000000005 0.3149759999999997
      vertex -0.17673862999999998 0.04507900000000009 0.5373057999999997
    endloop
  endfacet
  facet normal -0.748003128178832 0.6636952009289868 -2.2327426992921687E-5
    outer loop
      vertex -0.14158130999999996 0.08469530000000036 0.3296172999999998
      vertex -0.17673862999999998 0.04507900000000009 0.5373057999999997
      vertex -0.14145847999999997 0.08484170000000013 0.5664449999999996
    endloop
  endfacet
  facet normal -0.06580329167405503 0.9961733990769229 0.05751943824820374
    outer loop
      vertex 8.119799411248762E-17 0.11900000000000022 0.15399999999999991
      vertex -3.9687266868247606E-17 0.121 0.11936219999999986
      vertex -0.12817672999999996 0.08773870000000006 0.5487747999999997
    endloop
  endfacet
  facet normal -0.06524644037203552 0.9961994511248671 0.05770230149042563
    outer loop
      vertex 8.119799411248762E-17 0.11900000000000022 0.15399999999999991
      vertex -0.12817672999999996 0.08773870000000006 0.5487747999999997
      vertex 0.12902993999999998 0.10425230000000019 0.5545107999999996
    endloop
  endfacet
  facet normal -0.06468654107503659 0.9962462955528962 0.05752364731898613
    outer loop
      vertex 8.119799411248762E-17 0.11900000000000022 0.15399999999999991
      vertex 0.12902993999999998 0.10425230000000019 0.5545107999999996
      vertex -3.9687266868247606E-17 0.121 0.11936219999999986
    endloop
  endfacet
  facet normal 0.04165566722120238 0.9338627871656302 0.35519726932452267
    outer loop
      vertex 0.16399999999999998 0.08810370000000001 0.5928665999999998
      vertex 0.12902993999999998 0.10425230000000019 0.5545107999999996
      vertex 0.12855879999999997 0.08626000000000023 0.6018702999999996
    endloop
  endfacet
  facet normal -0.752517553670902 0.6584516719684481 0.01259869434173359
    outer loop
      vertex -0.14676516999999997 0.07851739999999996 0.5800073999999997
      vertex -0.14145847999999997 0.08484170000000013 0.5664449999999996
      vertex -0.17673862999999998 0.04507900000000009 0.5373057999999997
    endloop
  endfacet
  facet normal -0.059644286778985964 0.8996564033813652 0.4325053929253744
    outer loop
      vertex -0.14676516999999997 0.07851739999999996 0.5800073999999997
      vertex -0.14382507999999997 0.07222499999999998 0.5935016999999998
      vertex 0.12855879999999997 0.08626000000000023 0.6018702999999996
    endloop
  endfacet
  facet normal -0.05770609728089189 0.9132545610395945 0.40328167957023037
    outer loop
      vertex -0.14676516999999997 0.07851739999999996 0.5800073999999997
      vertex 0.12855879999999997 0.08626000000000023 0.6018702999999996
      vertex -0.14145847999999997 0.08484170000000013 0.5664449999999996
    endloop
  endfacet
  facet normal -0.9999529391398956 -7.528943350294386E-6 -0.009701517860598585
    outer loop
      vertex -0.1748705199999992 -0.04189459999999645 0.3435804000000011
      vertex -0.17657609999999999 -0.03969629999999991 0.5193758999999998
      vertex -0.1748616399999992 0.042019700000003546 0.3426000000000011
    endloop
  endfacet
  facet normal -0.9878969608368204 -0.0017075710490598278 -0.1551021565629766
    outer loop
      vertex -0.1748705199999992 -0.04189459999999645 0.3435804000000011
      vertex -0.1748616399999992 0.042019700000003546 0.3426000000000011
      vertex -0.121 2.220446049250313E-16 0.0
    endloop
  endfacet
  facet normal -0.9501457001157547 -0.2545908336260742 -0.18001848789811317
    outer loop
      vertex -0.1748705199999992 -0.04189459999999645 0.3435804000000011
      vertex -0.121 2.220446049250313E-16 0.0
      vertex -0.10478907 -0.060499999999999776 0.0
    endloop
  endfacet
  facet normal -0.06474525125486873 0.0 0.9979018250509135
    outer loop
      vertex -0.14430920999999997 -0.019666099999999798 0.6294352999999997
      vertex 0.12629999999999997 2.220446049250313E-16 0.6469927999999998
      vertex -0.14430920999999997 0.01874890000000007 0.6294352999999997
    endloop
  endfacet
  facet normal -0.8660248770373102 0.0 0.5000009123516794
    outer loop
      vertex -0.14430920999999997 -0.019666099999999798 0.6294352999999997
      vertex -0.14430920999999997 0.01874890000000007 0.6294352999999997
      vertex -0.14779294999999998 -0.03260609999999975 0.6234012999999998
    endloop
  endfacet
  facet normal -0.047288133416841696 -0.21932513413699306 0.9745051656988489
    outer loop
      vertex 0.12747154999999996 -0.04478099999999974 0.6369710999999998
      vertex 0.12629999999999997 2.220446049250313E-16 0.6469927999999998
      vertex -0.14430920999999997 -0.019666099999999798 0.6294352999999997
    endloop
  endfacet
  facet normal -0.06294203414362028 -0.4078102578895006 0.9108946667414198
    outer loop
      vertex 0.12747154999999996 -0.04478099999999974 0.6369710999999998
      vertex -0.14430920999999997 -0.019666099999999798 0.6294352999999997
      vertex -0.14779294999999998 -0.03260609999999975 0.6234012999999998
    endloop
  endfacet
  facet normal -0.0634794238777832 -0.43309473039961 0.8991102920355399
    outer loop
      vertex 0.12747154999999996 -0.04478099999999974 0.6369710999999998
      vertex -0.14779294999999998 -0.03260609999999975 0.6234012999999998
      vertex -0.14345059999999998 -0.05253619999999981 0.6141076999999997
    endloop
  endfacet
  facet normal -0.048985642702878675 -0.6131564773358142 0.7884412096726813
    outer loop
      vertex 0.12747154999999996 -0.04478099999999974 0.6369710999999998
      vertex -0.14345059999999998 -0.05253619999999981 0.6141076999999997
      vertex 0.12841733999999996 -0.08088349999999989 0.6089535999999998
    endloop
  endfacet
  facet normal -0.9457356951336249 0.0038960101545228434 0.3249135516641238
    outer loop
      vertex -0.16294340999999998 0.021736600000000106 0.5971597999999998
      vertex -0.17691213999999997 0.02638140000000022 0.5564448999999998
      vertex -0.17691908999999997 -0.039254099999999736 0.5572116999999996
    endloop
  endfacet
  facet normal 0.0 0.0 -1.0
    outer loop
      vertex -0.0605 -0.10478909999999986 0.0
      vertex 0.060499999999999984 -0.10478909999999986 0.0
      vertex -3.871252522631065E-17 -0.12099999999999977 0.0
    endloop
  endfacet
  facet normal 0.04781791368015071 -0.998492089660713 0.02696282656288868
    outer loop
      vertex -9.989904314868247E-15 -0.12099999999999977 0.11936219999999986
      vertex 0.16399999999999998 -0.1017332999999998 0.5419999999999998
      vertex 0.12898674999999998 -0.10283799999999976 0.5631856999999998
    endloop
  endfacet
  facet normal -0.061927733431156276 -0.9951667709808857 0.07621058829032351
    outer loop
      vertex -0.14145847999999997 -0.08575899999999992 0.5664449999999996
      vertex -0.12817672999999996 -0.08793869999999981 0.5487747999999997
      vertex 0.12898674999999998 -0.10283799999999976 0.5631856999999998
    endloop
  endfacet
  facet normal -0.05276328702114813 -0.9127931656166933 0.4049995954889089
    outer loop
      vertex -0.14145847999999997 -0.08575899999999992 0.5664449999999996
      vertex 0.12898674999999998 -0.10283799999999976 0.5631856999999998
      vertex -0.14652463999999998 -0.07972139999999994 0.5793925999999998
    endloop
  endfacet
  facet normal -0.10167130388644552 -0.9937464425937388 0.04616225512601282
    outer loop
      vertex -0.14145847999999997 -0.08575899999999992 0.5664449999999996
      vertex -9.989904314868247E-15 -0.12099999999999977 0.11936219999999986
      vertex -0.12817672999999996 -0.08793869999999981 0.5487747999999997
    endloop
  endfacet
  facet normal -0.829060210849081 -0.3953853606210492 0.39538536062105345
    outer loop
      vertex -0.14345059999999998 -0.07314219999999994 0.5935016999999998
      vertex -0.14345059999999998 -0.05253619999999981 0.6141076999999997
      vertex -0.17691908999999997 -0.039254099999999736 0.5572116999999996
    endloop
  endfacet
  facet normal -0.8282253309677094 -0.416664131340427 0.3747449836859136
    outer loop
      vertex -0.14345059999999998 -0.07314219999999994 0.5935016999999998
      vertex -0.17691908999999997 -0.039254099999999736 0.5572116999999996
      vertex -0.14652463999999998 -0.07972139999999994 0.5793925999999998
    endloop
  endfacet
  facet normal -0.050234896148742 -0.900926221171303 0.431054983981071
    outer loop
      vertex -0.14345059999999998 -0.07314219999999994 0.5935016999999998
      vertex -0.14652463999999998 -0.07972139999999994 0.5793925999999998
      vertex 0.12898674999999998 -0.10283799999999976 0.5631856999999998
    endloop
  endfacet
  facet normal -0.05017018511780113 -0.9007391541559977 0.4314532752171243
    outer loop
      vertex -0.14345059999999998 -0.07314219999999994 0.5935016999999998
      vertex 0.12898674999999998 -0.10283799999999976 0.5631856999999998
      vertex 0.12841733999999996 -0.08088349999999989 0.6089535999999998
    endloop
  endfacet
  facet normal -0.06021420077713396 -0.7058237209193101 0.7058237209193177
    outer loop
      vertex -0.14345059999999998 -0.07314219999999994 0.5935016999999998
      vertex 0.12841733999999996 -0.08088349999999989 0.6089535999999998
      vertex -0.14345059999999998 -0.05253619999999981 0.6141076999999997
    endloop
  endfacet
  facet normal -0.8274878266349637 -0.5428149229497222 0.14358222798811712
    outer loop
      vertex -0.15904837999999996 -0.06479619999999975 0.5636411999999997
      vertex -0.14652463999999998 -0.07972139999999994 0.5793925999999998
      vertex -0.17691908999999997 -0.039254099999999736 0.5572116999999996
    endloop
  endfacet
  facet normal 0.9906748905105291 -0.08831430005079863 -0.10374895526456428
    outer loop
      vertex 0.16054981999999998 -0.09009069999999975 0.4543400999999998
      vertex 0.12099999999999997 2.220446049250313E-16 0.0
      vertex 0.16399999999999998 -0.05086669999999982 0.45389639999999964
    endloop
  endfacet
  facet normal 0.08411066782987653 -0.2155215493443578 0.9728699077088467
    outer loop
      vertex 0.16399999999999998 2.220446049250313E-16 0.6437333999999997
      vertex 0.12629999999999997 2.220446049250313E-16 0.6469927999999998
      vertex 0.12747154999999996 -0.04478099999999974 0.6369710999999998
    endloop
  endfacet
  facet normal 0.08373236651877417 0.23453729611490193 0.9684942681958818
    outer loop
      vertex 0.16399999999999998 2.220446049250313E-16 0.6437333999999997
      vertex 0.12756905999999998 0.04846360000000005 0.6351467999999998
      vertex 0.12629999999999997 2.220446049250313E-16 0.6469927999999998
    endloop
  endfacet
  facet normal 0.11585422001858327 0.2570763717635667 0.9594214604566473
    outer loop
      vertex 0.16399999999999998 0.050866700000000264 0.6301036999999998
      vertex 0.12756905999999998 0.04846360000000005 0.6351467999999998
      vertex 0.16399999999999998 2.220446049250313E-16 0.6437333999999997
    endloop
  endfacet
  facet normal 0.14141713202302458 0.7000013666276035 0.6999994867782904
    outer loop
      vertex 0.16399999999999998 0.050866700000000264 0.6301036999999998
      vertex 0.16399999999999998 0.08810370000000001 0.5928665999999998
      vertex 0.12855879999999997 0.08626000000000023 0.6018702999999996
    endloop
  endfacet
  facet normal 0.06036884762500833 0.6587011717507981 0.7499789120839027
    outer loop
      vertex 0.12765736999999996 0.05183570000000026 0.6321779999999997
      vertex 0.12756905999999998 0.04846360000000005 0.6351467999999998
      vertex 0.16399999999999998 0.050866700000000264 0.6301036999999998
    endloop
  endfacet
  facet normal 0.060368697870082366 0.6587075825341052 0.7499732935442074
    outer loop
      vertex 0.12765736999999996 0.05183570000000026 0.6321779999999997
      vertex 0.16399999999999998 0.050866700000000264 0.6301036999999998
      vertex 0.12855879999999997 0.08626000000000023 0.6018702999999996
    endloop
  endfacet
  facet normal -0.9999589134050916 -1.4491547214069203E-7 -0.009064849788485489
    outer loop
      vertex -0.17679539999999996 0.026230900000000057 0.5435661999999997
      vertex -0.17657609999999999 -0.03969629999999991 0.5193758999999998
      vertex -0.17691908999999997 -0.039254099999999736 0.5572116999999996
    endloop
  endfacet
  facet normal -0.9999589107084395 -3.5758062903096346E-8 -0.009065147256932533
    outer loop
      vertex -0.17656914999999998 0.02593930000000011 0.5186089999999997
      vertex -0.17657609999999999 -0.03969629999999991 0.5193758999999998
      vertex -0.17679539999999996 0.026230900000000057 0.5435661999999997
    endloop
  endfacet
  facet normal -0.9999530750983784 1.6022002052270106E-4 -0.009686172145992563
    outer loop
      vertex -0.17656914999999998 0.02593930000000011 0.5186089999999997
      vertex -0.17659110999999997 0.03542820000000013 0.5210329999999996
      vertex -0.1748616399999992 0.042019700000003546 0.3426000000000011
    endloop
  endfacet
  facet normal -0.9999529393976235 -7.4715669568699864E-6 -0.009701491340425299
    outer loop
      vertex -0.17656914999999998 0.02593930000000011 0.5186089999999997
      vertex -0.1748616399999992 0.042019700000003546 0.3426000000000011
      vertex -0.17657609999999999 -0.03969629999999991 0.5193758999999998
    endloop
  endfacet
  facet normal -0.06368754059231663 0.407626886671658 0.9109249246977894
    outer loop
      vertex -0.14799992999999997 0.032457600000000086 0.6230427999999997
      vertex -0.14430920999999997 0.01874890000000007 0.6294352999999997
      vertex 0.12756905999999998 0.04846360000000005 0.6351467999999998
    endloop
  endfacet
  facet normal -0.8660249039831208 7.311604350836771E-9 0.5000008656802769
    outer loop
      vertex -0.14799992999999997 0.032457600000000086 0.6230427999999997
      vertex -0.14779294999999998 -0.03260609999999975 0.6234012999999998
      vertex -0.14430920999999997 0.01874890000000007 0.6294352999999997
    endloop
  endfacet
  facet normal -0.866026507759909 -1.3096097817611043E-8 0.49999808785352
    outer loop
      vertex -0.16294340999999998 -0.021736599999999884 0.5971597999999998
      vertex -0.14779294999999998 -0.03260609999999975 0.6234012999999998
      vertex -0.14799992999999997 0.032457600000000086 0.6230427999999997
    endloop
  endfacet
  facet normal -0.866026519633433 0.0 0.4999980672878678
    outer loop
      vertex -0.16294340999999998 -0.021736599999999884 0.5971597999999998
      vertex -0.14799992999999997 0.032457600000000086 0.6230427999999997
      vertex -0.16294340999999998 0.021736600000000106 0.5971597999999998
    endloop
  endfacet
  facet normal -0.9439036937166201 0.0 0.33022086092208225
    outer loop
      vertex -0.16294340999999998 -0.021736599999999884 0.5971597999999998
      vertex -0.16294340999999998 0.021736600000000106 0.5971597999999998
      vertex -0.17691908999999997 -0.039254099999999736 0.5572116999999996
    endloop
  endfacet
  facet normal -0.8807522167081326 -0.2349811487472409 0.4111683262328672
    outer loop
      vertex -0.16294340999999998 -0.021736599999999884 0.5971597999999998
      vertex -0.17691908999999997 -0.039254099999999736 0.5572116999999996
      vertex -0.14779294999999998 -0.03260609999999975 0.6234012999999998
    endloop
  endfacet
  facet normal -0.6968047309457659 -0.696804258952838 -0.17007936863942474
    outer loop
      vertex -0.12956900999999998 -0.09283589999999986 0.23399999999999976
      vertex -0.10478907 -0.060499999999999776 0.0
      vertex -0.0605 -0.10478909999999986 0.0
    endloop
  endfacet
  facet normal -0.2587239962958762 -0.9655726564163979 -0.027043278678304937
    outer loop
      vertex -0.12956900999999998 -0.09283589999999986 0.23399999999999976
      vertex -0.0605 -0.10478909999999986 0.0
      vertex -3.871252522631065E-17 -0.12099999999999977 0.0
    endloop
  endfacet
  facet normal -0.21240749199461692 -0.9771811793851521 -1.7728895645769382E-14
    outer loop
      vertex -0.12956900999999998 -0.09283589999999986 0.23399999999999976
      vertex -3.871252522631065E-17 -0.12099999999999977 0.0
      vertex -9.989904314868247E-15 -0.12099999999999977 0.11936219999999986
    endloop
  endfacet
  facet normal -0.20082420822838018 -0.9795319199657225 0.013669497346629636
    outer loop
      vertex -0.12956900999999998 -0.09283589999999986 0.23399999999999976
      vertex -9.989904314868247E-15 -0.12099999999999977 0.11936219999999986
      vertex -0.14145847999999997 -0.08575899999999992 0.5664449999999996
    endloop
  endfacet
  facet normal -0.8800698128343202 -0.4487615403996702 -0.15521019423955318
    outer loop
      vertex -0.12956900999999998 -0.09283589999999986 0.23399999999999976
      vertex -0.1748705199999992 -0.04189459999999645 0.3435804000000011
      vertex -0.10478907 -0.060499999999999776 0.0
    endloop
  endfacet
  facet normal 0.11667747381510249 -0.9931698581331021 3.5578222481046985E-14
    outer loop
      vertex 1.0013338475877957E-14 -0.12099999999999977 0.05376230000000004
      vertex 0.16399999999999998 -0.1017332999999998 0.5419999999999998
      vertex -9.989904314868247E-15 -0.12099999999999977 0.11936219999999986
    endloop
  endfacet
  facet normal -0.0 -1.0 0.0
    outer loop
      vertex 1.0013338475877957E-14 -0.12099999999999977 0.05376230000000004
      vertex -9.989904314868247E-15 -0.12099999999999977 0.11936219999999986
      vertex -3.871252522631065E-17 -0.12099999999999977 0.0
    endloop
  endfacet
  facet normal 0.11667747381527105 -0.9931698581330823 -2.1815434188476153E-14
    outer loop
      vertex 1.0013338475877957E-14 -0.12099999999999977 0.05376230000000004
      vertex -3.871252522631065E-17 -0.12099999999999977 0.0
      vertex 0.16399999999999998 -0.1017332999999998 0.5419999999999998
    endloop
  endfacet
  facet normal -0.06425541180804216 -0.9962741025098298 0.05752525290350264
    outer loop
      vertex 1.0013777937112486E-14 -0.11899999999999977 0.15399999999999991
      vertex -0.12817672999999996 -0.08793869999999981 0.5487747999999997
      vertex -9.989904314868247E-15 -0.12099999999999977 0.11936219999999986
    endloop
  endfacet
  facet normal -0.05767819300556252 -0.996675175991744 0.05754841104182831
    outer loop
      vertex 1.0013777937112486E-14 -0.11899999999999977 0.15399999999999991
      vertex -9.989904314868247E-15 -0.12099999999999977 0.11936219999999986
      vertex 0.12898674999999998 -0.10283799999999976 0.5631856999999998
    endloop
  endfacet
  facet normal -0.06101264668957423 -0.9964159536117966 0.058589285128145235
    outer loop
      vertex 1.0013777937112486E-14 -0.11899999999999977 0.15399999999999991
      vertex 0.12898674999999998 -0.10283799999999976 0.5631856999999998
      vertex -0.12817672999999996 -0.08793869999999981 0.5487747999999997
    endloop
  endfacet
  facet normal -0.7230263150287776 -0.6897340799966318 -0.03872785389234525
    outer loop
      vertex -0.14158130999999996 -0.08561259999999993 0.3296172999999998
      vertex -0.14706961999999998 -0.07907179999999991 0.3155906999999998
      vertex -0.12956900999999998 -0.09283589999999986 0.23399999999999976
    endloop
  endfacet
  facet normal -0.5168564049678525 -0.856072069660827 -2.611327930649203E-4
    outer loop
      vertex -0.14158130999999996 -0.08561259999999993 0.3296172999999998
      vertex -0.12956900999999998 -0.09283589999999986 0.23399999999999976
      vertex -0.14145847999999997 -0.08575899999999992 0.5664449999999996
    endloop
  endfacet
  facet normal -0.7660437386249345 -0.6427884492689108 -4.677053262501453E-8
    outer loop
      vertex -0.14158130999999996 -0.08561259999999993 0.3296172999999998
      vertex -0.14145847999999997 -0.08575899999999992 0.5664449999999996
      vertex -0.14652463999999998 -0.07972139999999994 0.5793925999999998
    endloop
  endfacet
  facet normal -0.9776317759820882 -0.21021203746572792 -0.006856376201439326
    outer loop
      vertex -0.1755724099999992 -0.041155599999996406 0.42100370000000087
      vertex -0.17657609999999999 -0.03969629999999991 0.5193758999999998
      vertex -0.1748705199999992 -0.04189459999999645 0.3435804000000011
    endloop
  endfacet
  facet normal -0.9404203845872083 -0.3399835040596987 -0.004551617309910154
    outer loop
      vertex -0.1755724099999992 -0.041155599999996406 0.42100370000000087
      vertex -0.17691908999999997 -0.039254099999999736 0.5572116999999996
      vertex -0.17657609999999999 -0.03969629999999991 0.5193758999999998
    endloop
  endfacet
  facet normal 0.9921775655227361 -0.08827139534803113 -0.08827139534803113
    outer loop
      vertex 0.16399999999999998 -0.08810359999999995 0.4911332999999998
      vertex 0.16054981999999998 -0.09009069999999975 0.4543400999999998
      vertex 0.16399999999999998 -0.05086669999999982 0.45389639999999964
    endloop
  endfacet
  facet normal 0.9949269040300609 0.026037334671131642 -0.09717259305164949
    outer loop
      vertex 0.16399999999999998 0.050866700000000264 0.45389639999999964
      vertex 0.16399999999999998 2.220446049250313E-16 0.4402666999999998
      vertex 0.12099999999999997 2.220446049250313E-16 0.0
    endloop
  endfacet
  facet normal 0.5442953085404106 0.8330028063143616 -0.09924183479409016
    outer loop
      vertex 0.16399999999999998 0.10173340000000008 0.5419999999999998
      vertex 0.15550451999999998 0.09301599999999999 0.42223529999999965
      vertex 0.060499999999999984 0.10478920000000036 0.0
    endloop
  endfacet
  facet normal 0.2585672476887936 0.9649936144528548 -0.04393520783901262
    outer loop
      vertex 0.16399999999999998 0.10173340000000008 0.5419999999999998
      vertex 0.060499999999999984 0.10478920000000036 0.0
      vertex 5.947694977368933E-17 0.121 0.0
    endloop
  endfacet
  facet normal 0.1166768764680578 0.9931699283091779 9.693329257656955E-17
    outer loop
      vertex 5.947694977368933E-17 0.121 0.0
      vertex -3.9687266868247606E-17 0.121 0.11936219999999986
      vertex 0.16399999999999998 0.10173340000000008 0.5419999999999998
    endloop
  endfacet
  facet normal 0.07732893487839895 0.9968861046193118 0.015437948293316213
    outer loop
      vertex 0.16399999999999998 0.10173340000000008 0.5419999999999998
      vertex -3.9687266868247606E-17 0.121 0.11936219999999986
      vertex 0.12902993999999998 0.10425230000000019 0.5545107999999996
    endloop
  endfacet
  facet normal 0.16007915666769787 0.9534692545330107 0.2554819842196776
    outer loop
      vertex 0.16399999999999998 0.10173340000000008 0.5419999999999998
      vertex 0.12902993999999998 0.10425230000000019 0.5545107999999996
      vertex 0.16399999999999998 0.08810370000000001 0.5928665999999998
    endloop
  endfacet
  facet normal 0.1371668232129198 -0.25637283201103916 0.9567958160528898
    outer loop
      vertex 0.16399999999999998 -0.05086669999999982 0.6301036999999998
      vertex 0.16399999999999998 2.220446049250313E-16 0.6437333999999997
      vertex 0.12747154999999996 -0.04478099999999974 0.6369710999999998
    endloop
  endfacet
  facet normal 0.046568773111691844 -0.6116650447026097 0.7897450363628925
    outer loop
      vertex 0.16399999999999998 -0.05086669999999982 0.6301036999999998
      vertex 0.12747154999999996 -0.04478099999999974 0.6369710999999998
      vertex 0.12841733999999996 -0.08088349999999989 0.6089535999999998
    endloop
  endfacet
  facet normal -0.9999589143291248 -1.2367356298787663E-7 -0.009064747856557219
    outer loop
      vertex -0.17688816999999998 0.035811100000000096 0.5537997999999997
      vertex -0.17679539999999996 0.026230900000000057 0.5435661999999997
      vertex -0.17691908999999997 -0.039254099999999736 0.5572116999999996
    endloop
  endfacet
  facet normal -0.9999589428819006 1.9526578501924227E-8 -0.00906159756950041
    outer loop
      vertex -0.17688816999999998 0.035811100000000096 0.5537997999999997
      vertex -0.17691908999999997 -0.039254099999999736 0.5572116999999996
      vertex -0.17691213999999997 0.02638140000000022 0.5564448999999998
    endloop
  endfacet
  facet normal -0.938132025186533 0.09573238945248612 0.33278162949467605
    outer loop
      vertex -0.17688816999999998 0.035811100000000096 0.5537997999999997
      vertex -0.17691213999999997 0.02638140000000022 0.5564448999999998
      vertex -0.16294340999999998 0.021736600000000106 0.5971597999999998
    endloop
  endfacet
  facet normal -0.8743213764140624 0.302652474051275 0.3794253690728414
    outer loop
      vertex -0.17688816999999998 0.035811100000000096 0.5537997999999997
      vertex -0.16294340999999998 0.021736600000000106 0.5971597999999998
      vertex -0.14799992999999997 0.032457600000000086 0.6230427999999997
    endloop
  endfacet
  facet normal -0.05037934236185654 0.6607012926131662 0.7489564231665806
    outer loop
      vertex -0.14382507999999997 0.051618900000000245 0.6141076999999997
      vertex 0.12756905999999998 0.04846360000000005 0.6351467999999998
      vertex 0.12765736999999996 0.05183570000000026 0.6321779999999997
    endloop
  endfacet
  facet normal -0.050378983216944645 0.6607075210776396 0.748950952760905
    outer loop
      vertex -0.14382507999999997 0.051618900000000245 0.6141076999999997
      vertex 0.12765736999999996 0.05183570000000026 0.6321779999999997
      vertex 0.12855879999999997 0.08626000000000023 0.6018702999999996
    endloop
  endfacet
  facet normal -0.05806144967622081 0.7059121869884889 0.7059156127488784
    outer loop
      vertex -0.14382507999999997 0.051618900000000245 0.6141076999999997
      vertex 0.12855879999999997 0.08626000000000023 0.6018702999999996
      vertex -0.14382507999999997 0.07222499999999998 0.5935016999999998
    endloop
  endfacet
  facet normal -0.8520689126132025 0.37011973640674567 0.37012153258133457
    outer loop
      vertex -0.14382507999999997 0.051618900000000245 0.6141076999999997
      vertex -0.14382507999999997 0.07222499999999998 0.5935016999999998
      vertex -0.17688816999999998 0.035811100000000096 0.5537997999999997
    endloop
  endfacet
  facet normal -0.8544916664910152 0.3605556531571197 0.3739566991963786
    outer loop
      vertex -0.14382507999999997 0.051618900000000245 0.6141076999999997
      vertex -0.17688816999999998 0.035811100000000096 0.5537997999999997
      vertex -0.14799992999999997 0.032457600000000086 0.6230427999999997
    endloop
  endfacet
  facet normal -0.06465071188340579 0.43327130320176793 0.8989417463188649
    outer loop
      vertex -0.14382507999999997 0.051618900000000245 0.6141076999999997
      vertex -0.14799992999999997 0.032457600000000086 0.6230427999999997
      vertex 0.12756905999999998 0.04846360000000005 0.6351467999999998
    endloop
  endfacet
  facet normal -0.819363917710706 -0.5732737307375625 0.0
    outer loop
      vertex -0.15904837999999996 -0.06479619999999975 0.3306568999999997
      vertex -0.15904837999999996 -0.06479619999999975 0.5636411999999997
      vertex -0.17691908999999997 -0.039254099999999736 0.5572116999999996
    endloop
  endfacet
  facet normal -0.8232812397056056 -0.5676299992226743 -0.002045563802000114
    outer loop
      vertex -0.15904837999999996 -0.06479619999999975 0.3306568999999997
      vertex -0.1755724099999992 -0.041155599999996406 0.42100370000000087
      vertex -0.1748705199999992 -0.04189459999999645 0.3435804000000011
    endloop
  endfacet
  facet normal -0.8450260734700443 -0.5241817728735685 -0.10566174398959158
    outer loop
      vertex -0.15904837999999996 -0.06479619999999975 0.3306568999999997
      vertex -0.1748705199999992 -0.04189459999999645 0.3435804000000011
      vertex -0.12956900999999998 -0.09283589999999986 0.23399999999999976
    endloop
  endfacet
  facet normal -0.7997237919510652 -0.5961592655171939 -0.07096468646734926
    outer loop
      vertex -0.15904837999999996 -0.06479619999999975 0.3306568999999997
      vertex -0.12956900999999998 -0.09283589999999986 0.23399999999999976
      vertex -0.14706961999999998 -0.07907179999999991 0.3155906999999998
    endloop
  endfacet
  facet normal -0.7660438935073723 -0.6427882646718243 -4.500049193024156E-6
    outer loop
      vertex -0.15904837999999996 -0.06479619999999975 0.3306568999999997
      vertex -0.14706961999999998 -0.07907179999999991 0.3155906999999998
      vertex -0.14158130999999996 -0.08561259999999993 0.3296172999999998
    endloop
  endfacet
  facet normal -0.766043784056546 -0.6427883951257409 -4.894669531733531E-8
    outer loop
      vertex -0.15904837999999996 -0.06479619999999975 0.3306568999999997
      vertex -0.14158130999999996 -0.08561259999999993 0.3296172999999998
      vertex -0.14652463999999998 -0.07972139999999994 0.5793925999999998
    endloop
  endfacet
  facet normal -0.7660441857206537 -0.6427879164417923 0.0
    outer loop
      vertex -0.15904837999999996 -0.06479619999999975 0.3306568999999997
      vertex -0.14652463999999998 -0.07972139999999994 0.5793925999999998
      vertex -0.15904837999999996 -0.06479619999999975 0.5636411999999997
    endloop
  endfacet
  facet normal 0.9919089990086689 -0.09142871527450831 -0.08807569306496234
    outer loop
      vertex 0.16066674999999997 -0.09295999999999993 0.45863549999999975
      vertex 0.16054981999999998 -0.09009069999999975 0.4543400999999998
      vertex 0.16399999999999998 -0.08810359999999995 0.4911332999999998
    endloop
  endfacet
  facet normal 0.9691289695811884 -0.23815318985791728 -0.06381299616067916
    outer loop
      vertex 0.16066674999999997 -0.09295999999999993 0.45863549999999975
      vertex 0.16399999999999998 -0.08810359999999995 0.4911332999999998
      vertex 0.16399999999999998 -0.1017332999999998 0.5419999999999998
    endloop
  endfacet
  facet normal 0.7455530506927592 -0.6590270668628126 -0.09916639423170619
    outer loop
      vertex 0.16066674999999997 -0.09295999999999993 0.45863549999999975
      vertex 0.16399999999999998 -0.1017332999999998 0.5419999999999998
      vertex 0.15664597999999996 -0.09300299999999995 0.4286922999999998
    endloop
  endfacet
  facet normal 0.9654934148534998 -0.22604944706887933 -0.12932174354833664
    outer loop
      vertex 0.16066674999999997 -0.09295999999999993 0.45863549999999975
      vertex 0.15664597999999996 -0.09300299999999995 0.4286922999999998
      vertex 0.12099999999999997 2.220446049250313E-16 0.0
    endloop
  endfacet
  facet normal 0.9858865745291802 -0.12557346130880975 -0.11072022388906301
    outer loop
      vertex 0.16066674999999997 -0.09295999999999993 0.45863549999999975
      vertex 0.12099999999999997 2.220446049250313E-16 0.0
      vertex 0.16054981999999998 -0.09009069999999975 0.4543400999999998
    endloop
  endfacet
  facet normal 0.7199614445384449 0.6866184411890747 -0.10104768476912779
    outer loop
      vertex 0.16066674999999997 0.09296000000000015 0.45863549999999975
      vertex 0.15550451999999998 0.09301599999999999 0.42223529999999965
      vertex 0.16399999999999998 0.10173340000000008 0.5419999999999998
    endloop
  endfacet
  facet normal 0.9691285352527047 0.23815483889112862 -0.06381343801808319
    outer loop
      vertex 0.16066674999999997 0.09296000000000015 0.45863549999999975
      vertex 0.16399999999999998 0.10173340000000008 0.5419999999999998
      vertex 0.16399999999999998 0.08810370000000001 0.4911332999999998
    endloop
  endfacet
  facet normal 0.9921311977749357 0.0885314754890707 -0.08853171324107248
    outer loop
      vertex 0.16066674999999997 0.09296000000000015 0.45863549999999975
      vertex 0.16399999999999998 0.08810370000000001 0.4911332999999998
      vertex 0.16399999999999998 0.050866700000000264 0.45389639999999964
    endloop
  endfacet
  facet normal 0.9904912390426251 0.09013587855064667 -0.10393569539724289
    outer loop
      vertex 0.16066674999999997 0.09296000000000015 0.45863549999999975
      vertex 0.16399999999999998 0.050866700000000264 0.45389639999999964
      vertex 0.12099999999999997 2.220446049250313E-16 0.0
    endloop
  endfacet
  facet normal 0.9571148177131814 0.25645820350266346 -0.13476058611496922
    outer loop
      vertex 0.16066674999999997 0.09296000000000015 0.45863549999999975
      vertex 0.12099999999999997 2.220446049250313E-16 0.0
      vertex 0.10478906999999997 0.06050000000000022 0.0
    endloop
  endfacet
  facet normal 0.9550426128889632 0.2639292471303422 -0.1350368841296068
    outer loop
      vertex 0.16066674999999997 0.09296000000000015 0.45863549999999975
      vertex 0.10478906999999997 0.06050000000000022 0.0
      vertex 0.15550451999999998 0.09301599999999999 0.42223529999999965
    endloop
  endfacet
  facet normal 1.0 0.0 0.0
    outer loop
      vertex 0.16399999999999998 -0.08810359999999995 0.5928665999999998
      vertex 0.16399999999999998 2.220446049250313E-16 0.6437333999999997
      vertex 0.16399999999999998 -0.05086669999999982 0.6301036999999998
    endloop
  endfacet
  facet normal 0.17353054814659633 -0.6963807716062087 0.6963770313537656
    outer loop
      vertex 0.16399999999999998 -0.08810359999999995 0.5928665999999998
      vertex 0.16399999999999998 -0.05086669999999982 0.6301036999999998
      vertex 0.12841733999999996 -0.08088349999999989 0.6089535999999998
    endloop
  endfacet
  facet normal 0.01265540353443958 -0.9014977178244065 0.43259878122663215
    outer loop
      vertex 0.16399999999999998 -0.08810359999999995 0.5928665999999998
      vertex 0.12841733999999996 -0.08088349999999989 0.6089535999999998
      vertex 0.12898674999999998 -0.10283799999999976 0.5631856999999998
    endloop
  endfacet
  facet normal 0.18389120233117728 -0.9494533442047476 0.25440592147907104
    outer loop
      vertex 0.16399999999999998 -0.08810359999999995 0.5928665999999998
      vertex 0.12898674999999998 -0.10283799999999976 0.5631856999999998
      vertex 0.16399999999999998 -0.1017332999999998 0.5419999999999998
    endloop
  endfacet
  facet normal -0.9999589106741816 2.8731206136857507E-7 -0.009065151031374272
    outer loop
      vertex -0.17665315999999998 0.042433900000000246 0.5278764999999996
      vertex -0.17656914999999998 0.02593930000000011 0.5186089999999997
      vertex -0.17679539999999996 0.026230900000000057 0.5435661999999997
    endloop
  endfacet
  facet normal -0.9999589107619652 2.9668960629537833E-7 -0.009065141347831939
    outer loop
      vertex -0.17665315999999998 0.042433900000000246 0.5278764999999996
      vertex -0.17679539999999996 0.026230900000000057 0.5435661999999997
      vertex -0.17688816999999998 0.035811100000000096 0.5537997999999997
    endloop
  endfacet
  facet normal -0.99995084324768 0.0021744384362816786 -0.009673825806813962
    outer loop
      vertex -0.17665315999999998 0.042433900000000246 0.5278764999999996
      vertex -0.17673862999999998 0.04507900000000009 0.5373057999999997
      vertex -0.1748616399999992 0.042019700000003546 0.3426000000000011
    endloop
  endfacet
  facet normal -0.9999530675977661 5.897543279913894E-4 -0.00967030463068001
    outer loop
      vertex -0.17665315999999998 0.042433900000000246 0.5278764999999996
      vertex -0.1748616399999992 0.042019700000003546 0.3426000000000011
      vertex -0.17659110999999997 0.03542820000000013 0.5210329999999996
    endloop
  endfacet
  facet normal -0.9999588729289492 2.626078310583888E-6 -0.009069313301975546
    outer loop
      vertex -0.17665315999999998 0.042433900000000246 0.5278764999999996
      vertex -0.17659110999999997 0.03542820000000013 0.5210329999999996
      vertex -0.17656914999999998 0.02593930000000011 0.5186089999999997
    endloop
  endfacet
  facet normal -0.8210077704917926 -0.5709164984555536 -7.697943529666447E-4
    outer loop
      vertex -0.1756487299999992 -0.04105719999999646 0.429423000000001
      vertex -0.1755724099999992 -0.041155599999996406 0.42100370000000087
      vertex -0.15904837999999996 -0.06479619999999975 0.3306568999999997
    endloop
  endfacet
  facet normal -0.8196328848247962 -0.5728891078937706 -6.457911478308444E-5
    outer loop
      vertex -0.1756487299999992 -0.04105719999999646 0.429423000000001
      vertex -0.15904837999999996 -0.06479619999999975 0.3306568999999997
      vertex -0.17691908999999997 -0.039254099999999736 0.5572116999999996
    endloop
  endfacet
  facet normal -0.9403715199252438 -0.34011866879506086 -0.004549247252297795
    outer loop
      vertex -0.1756487299999992 -0.04105719999999646 0.429423000000001
      vertex -0.17691908999999997 -0.039254099999999736 0.5572116999999996
      vertex -0.1755724099999992 -0.041155599999996406 0.42100370000000087
    endloop
  endfacet
  facet normal -0.9999589105161016 4.421321576751981E-6 -0.009065167395195535
    outer loop
      vertex -0.17682465999999997 0.04265490000000005 0.5467943999999998
      vertex -0.17673862999999998 0.04507900000000009 0.5373057999999997
      vertex -0.17665315999999998 0.042433900000000246 0.5278764999999996
    endloop
  endfacet
  facet normal -0.9999589109538084 3.7954144237567077E-7 -0.009065120182854682
    outer loop
      vertex -0.17682465999999997 0.04265490000000005 0.5467943999999998
      vertex -0.17665315999999998 0.042433900000000246 0.5278764999999996
      vertex -0.17688816999999998 0.035811100000000096 0.5537997999999997
    endloop
  endfacet
  facet normal -0.8517869568828329 0.3785812423954455 0.36212597668574414
    outer loop
      vertex -0.17682465999999997 0.04265490000000005 0.5467943999999998
      vertex -0.17688816999999998 0.035811100000000096 0.5537997999999997
      vertex -0.14382507999999997 0.07222499999999998 0.5935016999999998
    endloop
  endfacet
  facet normal -0.85178591395478 0.3785889783052906 0.36212034228136997
    outer loop
      vertex -0.17682465999999997 0.04265490000000005 0.5467943999999998
      vertex -0.14382507999999997 0.07222499999999998 0.5935016999999998
      vertex -0.14676516999999997 0.07851739999999996 0.5800073999999997
    endloop
  endfacet
  facet normal -0.8175366606584604 0.5596904015880171 0.1355745656443615
    outer loop
      vertex -0.17682465999999997 0.04265490000000005 0.5467943999999998
      vertex -0.14676516999999997 0.07851739999999996 0.5800073999999997
      vertex -0.17673862999999998 0.04507900000000009 0.5373057999999997
    endloop
  endfacet
  facet normal 0.0 0.0 -1.0
    outer loop
      vertex -0.0605 -0.10478909999999986 0.0
      vertex -0.10478907 -0.060499999999999776 0.0
      vertex -0.121 2.220446049250313E-16 0.0
    endloop
  endfacet
  facet normal 0.0 0.0 -1.0
    outer loop
      vertex -0.0605 -0.10478909999999986 0.0
      vertex -0.121 2.220446049250313E-16 0.0
      vertex -0.10478907 0.06050000000000022 0.0
    endloop
  endfacet
  facet normal 0.0 0.0 -1.0
    outer loop
      vertex -0.0605 -0.10478909999999986 0.0
      vertex -0.10478907 0.06050000000000022 0.0
      vertex -0.0605 0.10478920000000036 0.0
    endloop
  endfacet
  facet normal 0.0 0.0 -1.0
    outer loop
      vertex -0.0605 -0.10478909999999986 0.0
      vertex -0.0605 0.10478920000000036 0.0
      vertex 5.947694977368933E-17 0.121 0.0
    endloop
  endfacet
  facet normal 0.0 0.0 -1.0
    outer loop
      vertex -0.0605 -0.10478909999999986 0.0
      vertex 5.947694977368933E-17 0.121 0.0
      vertex 0.060499999999999984 0.10478920000000036 0.0
    endloop
  endfacet
  facet normal 0.0 0.0 -1.0
    outer loop
      vertex -0.0605 -0.10478909999999986 0.0
      vertex 0.060499999999999984 0.10478920000000036 0.0
      vertex 0.10478906999999997 0.06050000000000022 0.0
    endloop
  endfacet
  facet normal 0.0 0.0 -1.0
    outer loop
      vertex -0.0605 -0.10478909999999986 0.0
      vertex 0.10478906999999997 0.06050000000000022 0.0
      vertex 0.12099999999999997 2.220446049250313E-16 0.0
    endloop
  endfacet
  facet normal 0.0 0.0 -1.0
    outer loop
      vertex -0.0605 -0.10478909999999986 0.0
      vertex 0.12099999999999997 2.220446049250313E-16 0.0
      vertex 0.10478906999999997 -0.060499999999999776 0.0
    endloop
  endfacet
  facet normal 0.0 0.0 -1.0
    outer loop
      vertex -0.0605 -0.10478909999999986 0.0
      vertex 0.10478906999999997 -0.060499999999999776 0.0
      vertex 0.060499999999999984 -0.10478909999999986 0.0
    endloop
  endfacet
  facet normal 0.0 1.0 0.0
    outer loop
      vertex 5.947694977368933E-17 0.121 0.0
      vertex -9.989463001909847E-15 0.121 0.05576230000000004
      vertex -3.9687266868247606E-17 0.121 0.11936219999999986
    endloop
  endfacet
  facet normal 1.0 0.0 0.0
    outer loop
      vertex 0.16399999999999998 -0.08810359999999995 0.5928665999999998
      vertex 0.16399999999999998 -0.1017332999999998 0.5419999999999998
      vertex 0.16399999999999998 -0.08810359999999995 0.4911332999999998
    endloop
  endfacet
  facet normal 1.0 0.0 0.0
    outer loop
      vertex 0.16399999999999998 -0.08810359999999995 0.5928665999999998
      vertex 0.16399999999999998 -0.08810359999999995 0.4911332999999998
      vertex 0.16399999999999998 -0.05086669999999982 0.45389639999999964
    endloop
  endfacet
  facet normal 1.0 0.0 0.0
    outer loop
      vertex 0.16399999999999998 -0.08810359999999995 0.5928665999999998
      vertex 0.16399999999999998 -0.05086669999999982 0.45389639999999964
      vertex 0.16399999999999998 2.220446049250313E-16 0.4402666999999998
    endloop
  endfacet
  facet normal 1.0 0.0 0.0
    outer loop
      vertex 0.16399999999999998 -0.08810359999999995 0.5928665999999998
      vertex 0.16399999999999998 2.220446049250313E-16 0.4402666999999998
      vertex 0.16399999999999998 0.050866700000000264 0.45389639999999964
    endloop
  endfacet
  facet normal 1.0 0.0 0.0
    outer loop
      vertex 0.16399999999999998 -0.08810359999999995 0.5928665999999998
      vertex 0.16399999999999998 0.050866700000000264 0.45389639999999964
      vertex 0.16399999999999998 0.08810370000000001 0.4911332999999998
    endloop
  endfacet
  facet normal 1.0 0.0 0.0
    outer loop
      vertex 0.16399999999999998 -0.08810359999999995 0.5928665999999998
      vertex 0.16399999999999998 0.08810370000000001 0.4911332999999998
      vertex 0.16399999999999998 0.10173340000000008 0.5419999999999998
    endloop
  endfacet
  facet normal 1.0 -0.0 0.0
    outer loop
      vertex 0.16399999999999998 -0.08810359999999995 0.5928665999999998
      vertex 0.16399999999999998 0.10173340000000008 0.5419999999999998
      vertex 0.16399999999999998 0.08810370000000001 0.5928665999999998
    endloop
  endfacet
  facet normal 1.0 0.0 0.0
    outer loop
      vertex 0.16399999999999998 -0.08810359999999995 0.5928665999999998
      vertex 0.16399999999999998 0.08810370000000001 0.5928665999999998
      vertex 0.16399999999999998 0.050866700000000264 0.6301036999999998
    endloop
  endfacet
  facet normal 1.0 0.0 0.0
    outer loop
      vertex 0.16399999999999998 -0.08810359999999995 0.5928665999999998
      vertex 0.16399999999999998 0.050866700000000264 0.6301036999999998
      vertex 0.16399999999999998 2.220446049250313E-16 0.6437333999999997
    endloop
  endfacet
endsolid grep4CCC00u2_9
