solid grep4CCC00u2_20
  facet normal 0.1698620525315472 -0.8062630293232045 -0.5666452246832576
    outer loop
      vertex 0.2007967700000099 -0.1902514000000004 -0.27073660000001
      vertex 0.028519200000009903 -0.08158370000000015 -0.4770000000000101
      vertex 0.40100000000000985 -0.17600000000000038 -0.2310000000000101
    endloop
  endfacet
  facet normal 0.18643617454833816 -0.6867405906809073 0.7025872998645935
    outer loop
      vertex 0.07250000000000989 -0.12557360000000028 -1.021405182655144E-14
      vertex 0.2007967700000099 -0.1902514000000004 -0.09726340000000988
      vertex 0.40100000000000985 -0.15200000000000036 -0.1130000000000102
    endloop
  endfacet
  facet normal 0.18730780196513513 -0.6945918900055592 0.6945918900055592
    outer loop
      vertex 0.40100000000000985 -0.17600000000000038 -0.13700000000001022
      vertex 0.40100000000000985 -0.15200000000000036 -0.1130000000000102
      vertex 0.2007967700000099 -0.1902514000000004 -0.09726340000000988
    endloop
  endfacet
  facet normal 0.14256873770648257 -0.9889138752748641 0.041515085422418
    outer loop
      vertex 0.40100000000000985 -0.17600000000000038 -0.13700000000001022
      vertex 0.16912391000000992 -0.20961830000000004 -0.1415121400000099
      vertex 0.17580940000000989 -0.21043940000000005 -0.18403015568700987
    endloop
  endfacet
  facet normal 0.1511767337209982 -0.9885067501951873 0.0
    outer loop
      vertex 0.40100000000000985 -0.17600000000000038 -0.13700000000001022
      vertex 0.17580940000000989 -0.21043940000000005 -0.18403015568700987
      vertex 0.40100000000000985 -0.17600000000000038 -0.2310000000000101
    endloop
  endfacet
  facet normal 0.980580675690921 -0.19611613513818008 0.0
    outer loop
      vertex 0.40100000000000985 -0.17600000000000038 -0.13700000000001022
      vertex 0.40100000000000985 -0.17600000000000038 -0.2310000000000101
      vertex 0.40520000000000983 -0.15500000000000003 -0.1839999999999864
    endloop
  endfacet
  facet normal 0.1366232298225807 -0.9240893775762127 -0.35692144138963444
    outer loop
      vertex 0.16220144000000988 -0.2087622 -0.23758472500000982
      vertex 0.2007967700000099 -0.1902514000000004 -0.27073660000001
      vertex 0.40100000000000985 -0.17600000000000038 -0.2310000000000101
    endloop
  endfacet
  facet normal 0.2765400774704738 -0.6795313037501012 -0.6795313037501012
    outer loop
      vertex 0.40100000000000985 -0.15200000000000036 -0.2550000000000101
      vertex 0.40100000000000985 -0.17600000000000038 -0.2310000000000101
      vertex 0.028519200000009903 -0.08158370000000015 -0.4770000000000101
    endloop
  endfacet
  facet normal -0.1599802320889997 -0.2554856400111826 0.953484878269617
    outer loop
      vertex -0.9479999999999901 -0.005571600000000343 -0.07908686000001008
      vertex -0.26251276999999007 -0.1396546000000003 -1.021405182655144E-14
      vertex -0.9479999999999899 0.054999999999999716 -0.06285674000000996
    endloop
  endfacet
  facet normal 0.22985014172048457 0.22985053149077997 0.9456942664119726
    outer loop
      vertex 0.07250000000000989 0.12557359999999984 -9.992007221626409E-15
      vertex 0.1255736900000099 0.07249999999999981 -9.992007221626409E-15
      vertex 0.40100000000000985 0.2619999999999998 -0.11300000000000998
    endloop
  endfacet
  facet normal 0.2903064016037413 -0.2903068938932425 0.9118355666160127
    outer loop
      vertex 0.1255736900000099 -0.07250000000000001 -1.021405182655144E-14
      vertex 0.07250000000000989 -0.12557360000000028 -1.021405182655144E-14
      vertex 0.40100000000000985 -0.15200000000000036 -0.1130000000000102
    endloop
  endfacet
  facet normal -0.1105523241440467 -0.9003799180311705 -0.4208256014461722
    outer loop
      vertex -0.22097199999999007 -0.1617208000000001 -0.24000000000000998
      vertex 0.028519200000009903 -0.08158370000000015 -0.4770000000000101
      vertex 0.15662987000000989 -0.2080843000000001 -0.24000000000000998
    endloop
  endfacet
  facet normal -0.17938784650568726 -0.9502570693316018 0.2546203108775248
    outer loop
      vertex -0.9479999999999901 -0.049913200000000435 -0.12342837000000983
      vertex -0.9479999999999901 -0.06614330000000002 -0.18400000000000993
      vertex -0.23018385999999003 -0.15636800000000028 -0.015000000000009894
    endloop
  endfacet
  facet normal -0.20069543248044855 -0.8402534850114107 0.5036818681545573
    outer loop
      vertex -0.9479999999999901 -0.049913200000000435 -0.12342837000000983
      vertex -0.23018385999999003 -0.15636800000000028 -0.015000000000009894
      vertex -0.26251276999999007 -0.1396546000000003 -1.021405182655144E-14
    endloop
  endfacet
  facet normal -0.21476206277715312 -0.6906067333541548 0.6906081350792255
    outer loop
      vertex -0.9479999999999901 -0.049913200000000435 -0.12342837000000983
      vertex -0.26251276999999007 -0.1396546000000003 -1.021405182655144E-14
      vertex -0.9479999999999901 -0.005571600000000343 -0.07908686000001008
    endloop
  endfacet
  facet normal 0.18450939789580348 -0.688595485908134 0.7012792160581042
    outer loop
      vertex 9.936496070395151E-15 -0.14500000000000024 -1.021405182655144E-14
      vertex 0.2007967700000099 -0.1902514000000004 -0.09726340000000988
      vertex 0.07250000000000989 -0.12557360000000028 -1.021405182655144E-14
    endloop
  endfacet
  facet normal 0.0497757366967903 -0.8623017253063621 0.5039425667374838
    outer loop
      vertex 9.936496070395151E-15 -0.1675000000000002 -0.03850000000001019
      vertex 0.2007967700000099 -0.1902514000000004 -0.09726340000000988
      vertex 9.936496070395151E-15 -0.14500000000000024 -1.021405182655144E-14
    endloop
  endfacet
  facet normal 0.11090440551317393 -0.9170862800476068 -0.3829529576674034
    outer loop
      vertex 0.15850102000000987 -0.20831270000000024 -0.2397328300000101
      vertex 0.2007967700000099 -0.1902514000000004 -0.27073660000001
      vertex 0.16220144000000988 -0.2087622 -0.23758472500000982
    endloop
  endfacet
  facet normal -0.044274883836446184 -0.8910773798195192 -0.451686658907754
    outer loop
      vertex 0.15850102000000987 -0.20831270000000024 -0.2397328300000101
      vertex 0.15662987000000989 -0.2080843000000001 -0.24000000000000998
      vertex 0.028519200000009903 -0.08158370000000015 -0.4770000000000101
    endloop
  endfacet
  facet normal 0.02220798055916123 -0.8767406854724492 -0.4804503887362188
    outer loop
      vertex 0.15850102000000987 -0.20831270000000024 -0.2397328300000101
      vertex 0.028519200000009903 -0.08158370000000015 -0.4770000000000101
      vertex 0.2007967700000099 -0.1902514000000004 -0.27073660000001
    endloop
  endfacet
  facet normal 0.9805806756909202 -1.0394243662861655E-16 0.1961161351381838
    outer loop
      vertex 0.40520000000000983 -0.1050000000000002 -0.1340000000000101
      vertex 0.40100000000000985 0.2619999999999998 -0.11300000000000998
      vertex 0.40100000000000985 -0.15200000000000036 -0.1130000000000102
    endloop
  endfacet
  facet normal 0.9929337668773005 -0.08391225951806679 -0.08391225951806679
    outer loop
      vertex 0.40520000000000983 -0.14830140000000003 -0.20900000000000984
      vertex 0.40100000000000985 -0.17600000000000038 -0.2310000000000101
      vertex 0.40100000000000985 -0.15200000000000036 -0.2550000000000101
    endloop
  endfacet
  facet normal 0.9917271083389567 -0.12399036187810146 -0.03322247352303486
    outer loop
      vertex 0.40520000000000983 -0.14830140000000003 -0.20900000000000984
      vertex 0.40520000000000983 -0.15500000000000003 -0.1839999999999864
      vertex 0.40100000000000985 -0.17600000000000038 -0.2310000000000101
    endloop
  endfacet
  facet normal 0.22942081122533362 0.6882463553760055 -0.6882463553760055
    outer loop
      vertex 0.40100000000000985 0.2859999999999998 -0.2310000000000101
      vertex 0.40100000000000985 0.2619999999999998 -0.2550000000000101
      vertex 0.2028086100000099 0.3140202999999997 -0.26904504000000995
    endloop
  endfacet
  facet normal 0.5707133740600111 0.0 -0.8211493437061482
    outer loop
      vertex 0.08158370000000992 0.028519199999999856 -0.47700000000000986
      vertex 0.40100000000000985 0.2619999999999998 -0.2550000000000101
      vertex 0.40100000000000985 -0.15200000000000036 -0.2550000000000101
    endloop
  endfacet
  facet normal 0.3857505738538411 0.30138102938928674 -0.8719896615761487
    outer loop
      vertex 0.04740890000000991 0.07226099999999969 -0.47700000000000986
      vertex 0.40100000000000985 0.2619999999999998 -0.2550000000000101
      vertex 0.08158370000000992 0.028519199999999856 -0.47700000000000986
    endloop
  endfacet
  facet normal 0.07631789257184159 0.621565753765112 -0.7796355514083495
    outer loop
      vertex 0.04740890000000991 0.07226099999999969 -0.47700000000000986
      vertex -0.028519179999990096 0.0815836999999997 -0.4770000000000101
      vertex 0.2028086100000099 0.3140202999999997 -0.26904504000000995
    endloop
  endfacet
  facet normal 0.20385353159276023 0.5598147178651878 -0.8031508073323963
    outer loop
      vertex 0.04740890000000991 0.07226099999999969 -0.47700000000000986
      vertex 0.2028086100000099 0.3140202999999997 -0.26904504000000995
      vertex 0.40100000000000985 0.2619999999999998 -0.2550000000000101
    endloop
  endfacet
  facet normal -0.0992907603927748 -0.028470931562678263 0.9946510699519595
    outer loop
      vertex -0.28390403999999003 -0.06505470000000035 -1.021405182655144E-14
      vertex -0.29662914999999 -0.020676600000000045 -1.021405182655144E-14
      vertex -0.9479999999999899 0.054999999999999716 -0.06285674000000996
    endloop
  endfacet
  facet normal -0.09929082718324454 -0.02847131018674451 0.9946510524467952
    outer loop
      vertex -0.28390403999999003 -0.06505470000000035 -1.021405182655144E-14
      vertex -0.9479999999999899 0.054999999999999716 -0.06285674000000996
      vertex -0.26251276999999007 -0.1396546000000003 -1.021405182655144E-14
    endloop
  endfacet
  facet normal -0.0810094702672865 0.12414741116905811 0.9889514073133394
    outer loop
      vertex -0.07249999999999007 0.12557359999999984 -9.992007221626409E-15
      vertex -0.9479999999999899 0.054999999999999716 -0.06285674000000996
      vertex -0.29662914999999 -0.020676600000000045 -1.021405182655144E-14
    endloop
  endfacet
  facet normal -0.23473434961684408 -0.2515876524578139 0.9389373984673971
    outer loop
      vertex -0.9579999999999899 0.054999999999999716 -0.0653567400000099
      vertex -0.9479999999999901 -0.005571600000000343 -0.07908686000001008
      vertex -0.9479999999999899 0.054999999999999716 -0.06285674000000996
    endloop
  endfacet
  facet normal 0.0 0.0 1.0
    outer loop
      vertex 0.1450000000000099 -2.220446049250313E-16 -1.021405182655144E-14
      vertex 0.07250000000000989 -0.12557360000000028 -1.021405182655144E-14
      vertex 0.1255736900000099 -0.07250000000000001 -1.021405182655144E-14
    endloop
  endfacet
  facet normal 0.3542799621000594 -0.09492899821440036 0.930308655099151
    outer loop
      vertex 0.1450000000000099 -2.220446049250313E-16 -1.021405182655144E-14
      vertex 0.1255736900000099 -0.07250000000000001 -1.021405182655144E-14
      vertex 0.40100000000000985 -0.15200000000000036 -0.1130000000000102
    endloop
  endfacet
  facet normal 0.40381616175839974 -4.791650640202773E-16 0.9148401540721275
    outer loop
      vertex 0.1450000000000099 -2.220446049250313E-16 -1.021405182655144E-14
      vertex 0.40100000000000985 -0.15200000000000036 -0.1130000000000102
      vertex 0.40100000000000985 0.2619999999999998 -0.11300000000000998
    endloop
  endfacet
  facet normal 0.3260752807348053 0.08737157912953301 0.9412975716818406
    outer loop
      vertex 0.1450000000000099 -2.220446049250313E-16 -1.021405182655144E-14
      vertex 0.40100000000000985 0.2619999999999998 -0.11300000000000998
      vertex 0.1255736900000099 0.07249999999999981 -9.992007221626409E-15
    endloop
  endfacet
  facet normal -0.14535912085924496 -0.9556667654980059 -0.25606983286909657
    outer loop
      vertex -0.9479999999999901 -0.049913200000000435 -0.24457163000001003
      vertex -0.22097199999999007 -0.1617208000000001 -0.24000000000000998
      vertex -0.9479999999999901 -0.06614330000000002 -0.18400000000000993
    endloop
  endfacet
  facet normal -3.582676181261934E-4 -0.905084655866448 0.42523127514263015
    outer loop
      vertex -0.22210432999999008 -0.1520720000000002 -0.00584936000001024
      vertex -0.23018385999999003 -0.15636800000000028 -0.015000000000009894
      vertex 9.936496070395151E-15 -0.1675000000000002 -0.03850000000001019
    endloop
  endfacet
  facet normal 0.014200751181287182 -0.8632848853682435 0.5045171407996224
    outer loop
      vertex -0.22210432999999008 -0.1520720000000002 -0.00584936000001024
      vertex 9.936496070395151E-15 -0.1675000000000002 -0.03850000000001019
      vertex 9.936496070395151E-15 -0.14500000000000024 -1.021405182655144E-14
    endloop
  endfacet
  facet normal -0.1746465868831636 -0.8229725018029919 0.5405689881654202
    outer loop
      vertex -0.22210432999999008 -0.1520720000000002 -0.00584936000001024
      vertex -0.26251276999999007 -0.1396546000000003 -1.021405182655144E-14
      vertex -0.23018385999999003 -0.15636800000000028 -0.015000000000009894
    endloop
  endfacet
  facet normal 0.9929337668773004 -0.08391225951806752 0.08391225951806754
    outer loop
      vertex 0.40520000000000983 -0.14830140000000003 -0.15900000000001002
      vertex 0.40100000000000985 -0.15200000000000036 -0.1130000000000102
      vertex 0.40100000000000985 -0.17600000000000038 -0.13700000000001022
    endloop
  endfacet
  facet normal 0.99172710833896 -0.12399036187806137 0.03322247352308667
    outer loop
      vertex 0.40520000000000983 -0.14830140000000003 -0.15900000000001002
      vertex 0.40100000000000985 -0.17600000000000038 -0.13700000000001022
      vertex 0.40520000000000983 -0.15500000000000003 -0.1839999999999864
    endloop
  endfacet
  facet normal 0.9929338091479996 -0.08391171139618976 -0.08391230744894744
    outer loop
      vertex 0.40520000000000983 -0.13000000000000012 -0.2273012700000101
      vertex 0.40520000000000983 -0.14830140000000003 -0.20900000000000984
      vertex 0.40100000000000985 -0.15200000000000036 -0.2550000000000101
    endloop
  endfacet
  facet normal 0.9917272059797851 -0.033222879839328846 -0.12398947203174425
    outer loop
      vertex 0.40520000000000983 -0.13000000000000012 -0.2273012700000101
      vertex 0.40100000000000985 -0.15200000000000036 -0.2550000000000101
      vertex 0.40520000000000983 -0.1050000000000002 -0.2340000000000102
    endloop
  endfacet
  facet normal 0.023050039792961524 0.4843650658398257 0.8745622783195741
    outer loop
      vertex 0.20280861000000988 0.3140202999999997 -0.09895496000000992
      vertex -0.05512376999999008 0.3083202999999999 -0.08900000000000996
      vertex 9.936496070395151E-15 0.1449999999999998 -9.992007221626409E-15
    endloop
  endfacet
  facet normal 0.10790045663993846 0.40268825445762246 0.9089552580731165
    outer loop
      vertex 0.20280861000000988 0.3140202999999997 -0.09895496000000992
      vertex 9.936496070395151E-15 0.1449999999999998 -9.992007221626409E-15
      vertex 0.07250000000000989 0.12557359999999984 -9.992007221626409E-15
    endloop
  endfacet
  facet normal 0.16167781940038312 0.36884490484003746 0.9153216477760595
    outer loop
      vertex 0.20280861000000988 0.3140202999999997 -0.09895496000000992
      vertex 0.07250000000000989 0.12557359999999984 -9.992007221626409E-15
      vertex 0.40100000000000985 0.2619999999999998 -0.11300000000000998
    endloop
  endfacet
  facet normal 0.9805806756909201 0.0 -0.19611613513818454
    outer loop
      vertex 0.4052000000000099 0.21499999999999986 -0.23400000000000998
      vertex 0.40100000000000985 -0.15200000000000036 -0.2550000000000101
      vertex 0.40100000000000985 0.2619999999999998 -0.2550000000000101
    endloop
  endfacet
  facet normal 0.5437245871315 -0.06676094071248599 -0.8366041776992653
    outer loop
      vertex 0.07226092000000989 -0.04740880000000014 -0.4770000000000101
      vertex 0.08158370000000992 0.028519199999999856 -0.47700000000000986
      vertex 0.40100000000000985 -0.15200000000000036 -0.2550000000000101
    endloop
  endfacet
  facet normal 0.3784902114768091 -0.4844436370891901 -0.7887075011054715
    outer loop
      vertex 0.07226092000000989 -0.04740880000000014 -0.4770000000000101
      vertex 0.40100000000000985 -0.15200000000000036 -0.2550000000000101
      vertex 0.028519200000009903 -0.08158370000000015 -0.4770000000000101
    endloop
  endfacet
  facet normal -0.2347349476140941 -0.25158771358296433 0.938937232589434
    outer loop
      vertex -0.9579999999999901 -0.0043216000000001475 -0.08125193000000985
      vertex -0.9479999999999901 -0.005571600000000343 -0.07908686000001008
      vertex -0.9579999999999899 0.054999999999999716 -0.0653567400000099
    endloop
  endfacet
  facet normal -0.23474324966647062 -0.6873487022893588 0.6873480691739519
    outer loop
      vertex -0.9579999999999901 -0.0043216000000001475 -0.08125193000000985
      vertex -0.9579999999999901 -0.047748000000000124 -0.12467837000001003
      vertex -0.9479999999999901 -0.049913200000000435 -0.12342837000000983
    endloop
  endfacet
  facet normal -0.23473483943676113 -0.6873491242786006 0.6873505193916994
    outer loop
      vertex -0.9579999999999901 -0.0043216000000001475 -0.08125193000000985
      vertex -0.9479999999999901 -0.049913200000000435 -0.12342837000000983
      vertex -0.9479999999999901 -0.005571600000000343 -0.07908686000001008
    endloop
  endfacet
  facet normal -0.23473434961684392 0.2515876524578147 0.9389373984673969
    outer loop
      vertex -0.9479999999999899 0.11557159999999977 -0.07908686000001008
      vertex -0.9579999999999899 0.054999999999999716 -0.0653567400000099
      vertex -0.9479999999999899 0.054999999999999716 -0.06285674000000996
    endloop
  endfacet
  facet normal -0.08984730295129477 0.25777239386742357 0.9620191552730311
    outer loop
      vertex -0.9479999999999899 0.11557159999999977 -0.07908686000001008
      vertex -0.9479999999999899 0.054999999999999716 -0.06285674000000996
      vertex -0.07249999999999007 0.12557359999999984 -9.992007221626409E-15
    endloop
  endfacet
  facet normal -0.0886490431089355 0.33084131004189304 0.9395133712330198
    outer loop
      vertex -0.9479999999999899 0.11557159999999977 -0.07908686000001008
      vertex -0.07249999999999007 0.12557359999999984 -9.992007221626409E-15
      vertex 9.936496070395151E-15 0.1449999999999998 -9.992007221626409E-15
    endloop
  endfacet
  facet normal -0.13110924969921967 0.9709978445006784 -0.19993386561146703
    outer loop
      vertex -0.053953139999990074 0.3093606999999999 -0.12329995200000998
      vertex 0.2028086100000099 0.3140202999999997 -0.26904504000000995
      vertex -0.9479999999999899 0.17614329999999967 -0.18400000000001016
    endloop
  endfacet
  facet normal -0.1336434903842854 0.9572610395538155 -0.2564970168057591
    outer loop
      vertex -0.9479999999999899 0.15991319999999987 -0.24457163000001003
      vertex -0.9479999999999899 0.17614329999999967 -0.18400000000001016
      vertex 0.2028086100000099 0.3140202999999997 -0.26904504000000995
    endloop
  endfacet
  facet normal -0.11118599711213795 0.7218094369430911 -0.6831023428345694
    outer loop
      vertex -0.9479999999999899 0.15991319999999987 -0.24457163000001003
      vertex 0.2028086100000099 0.3140202999999997 -0.26904504000000995
      vertex -0.028519179999990096 0.0815836999999997 -0.4770000000000101
    endloop
  endfacet
  facet normal -0.23474324727354895 -0.9389354316770109 -0.25158669082639246
    outer loop
      vertex -0.9579999999999901 -0.06364320000000023 -0.18400000000000993
      vertex -0.9479999999999901 -0.049913200000000435 -0.24457163000001003
      vertex -0.9479999999999901 -0.06614330000000002 -0.18400000000000993
    endloop
  endfacet
  facet normal -0.23474324727354895 -0.9389354316770109 0.25158669082639246
    outer loop
      vertex -0.9579999999999901 -0.06364320000000023 -0.18400000000000993
      vertex -0.9479999999999901 -0.06614330000000002 -0.18400000000000993
      vertex -0.9479999999999901 -0.049913200000000435 -0.12342837000000983
    endloop
  endfacet
  facet normal -0.23474648301518963 -0.9389345340818835 0.2515870215659698
    outer loop
      vertex -0.9579999999999901 -0.06364320000000023 -0.18400000000000993
      vertex -0.9479999999999901 -0.049913200000000435 -0.12342837000000983
      vertex -0.9579999999999901 -0.047748000000000124 -0.12467837000001003
    endloop
  endfacet
  facet normal -0.18478266042485897 0.25436215555379477 -0.9492919794395919
    outer loop
      vertex -0.9479999999999899 0.11557159999999977 -0.2889131400000098
      vertex -0.028519179999990096 0.0815836999999997 -0.4770000000000101
      vertex -0.94799999999999 0.054999999999999716 -0.3051432600000099
    endloop
  endfacet
  facet normal -0.23473483943673226 0.6873491242786056 -0.6873505193917043
    outer loop
      vertex -0.9479999999999899 0.11557159999999977 -0.2889131400000098
      vertex -0.9579999999999899 0.1143215999999998 -0.28674807000001024
      vertex -0.9479999999999899 0.15991319999999987 -0.24457163000001003
    endloop
  endfacet
  facet normal -0.11768315653820043 0.7021925209934875 -0.7021939462342411
    outer loop
      vertex -0.9479999999999899 0.11557159999999977 -0.2889131400000098
      vertex -0.9479999999999899 0.15991319999999987 -0.24457163000001003
      vertex -0.028519179999990096 0.0815836999999997 -0.4770000000000101
    endloop
  endfacet
  facet normal -0.23473494761406896 0.25158771358296217 -0.938937232589441
    outer loop
      vertex -0.9579999999999897 0.054999999999999716 -0.30264326000000996
      vertex -0.9579999999999899 0.1143215999999998 -0.28674807000001024
      vertex -0.9479999999999899 0.11557159999999977 -0.2889131400000098
    endloop
  endfacet
  facet normal -0.2347343496168489 0.2515876524578148 -0.9389373984673955
    outer loop
      vertex -0.9579999999999897 0.054999999999999716 -0.30264326000000996
      vertex -0.9479999999999899 0.11557159999999977 -0.2889131400000098
      vertex -0.94799999999999 0.054999999999999716 -0.3051432600000099
    endloop
  endfacet
  facet normal -0.16018844775341443 -0.9739643431495079 0.16041545897979856
    outer loop
      vertex -0.23314119999999006 -0.15794040000000042 -0.027500000000010072
      vertex -0.23018385999999003 -0.15636800000000028 -0.015000000000009894
      vertex -0.9479999999999901 -0.06614330000000002 -0.18400000000000993
    endloop
  endfacet
  facet normal -0.13196411875070424 -0.9910215716859149 0.021487573514226303
    outer loop
      vertex -0.23314119999999006 -0.15794040000000042 -0.027500000000010072
      vertex -0.9479999999999901 -0.06614330000000002 -0.18400000000000993
      vertex -0.22521503999999004 -0.16120500000000004 -0.12938774000001008
    endloop
  endfacet
  facet normal -0.1210271976251068 -0.9926487110954827 -9.766245391279007E-4
    outer loop
      vertex 0.1534634900000099 -0.20769900000000008 -0.2392314860000102
      vertex 0.15662987000000989 -0.2080843000000001 -0.24000000000000998
      vertex 0.15850102000000987 -0.20831270000000024 -0.2397328300000101
    endloop
  endfacet
  facet normal -0.12186885121072794 -0.9925460711117186 -5.28985131169613E-4
    outer loop
      vertex -0.22871479999999003 -0.16077600000000003 -0.23523349300001017
      vertex 0.1530312000000099 -0.2076464 -0.23885382700001
      vertex 0.14888710000000988 -0.20713950000000003 -0.23523349300001017
    endloop
  endfacet
  facet normal -0.1306911563500745 -0.991416640050859 -0.003587127283194937
    outer loop
      vertex -0.22871479999999003 -0.16077600000000003 -0.23523349300001017
      vertex -0.23617009999999009 -0.15985500000000008 -0.21815937000001018
      vertex -0.9479999999999901 -0.06614330000000002 -0.18400000000000993
    endloop
  endfacet
  facet normal -0.01712314857514016 -0.4711458547407736 0.8818890980976347
    outer loop
      vertex -0.21106745999999 -0.1462038000000001 -0.0025000000000101608
      vertex -0.26251276999999007 -0.1396546000000003 -1.021405182655144E-14
      vertex -0.22210432999999008 -0.1520720000000002 -0.00584936000001024
    endloop
  endfacet
  facet normal -0.007593172405122759 -0.4848796772939166 0.8745479073670999
    outer loop
      vertex -0.21106745999999 -0.1462038000000001 -0.0025000000000101608
      vertex -0.22210432999999008 -0.1520720000000002 -0.00584936000001024
      vertex 9.936496070395151E-15 -0.14500000000000024 -1.021405182655144E-14
    endloop
  endfacet
  facet normal -0.008423645870189482 -0.4136855260378128 0.9103808696018781
    outer loop
      vertex -0.21106745999999 -0.1462038000000001 -0.0025000000000101608
      vertex 9.936496070395151E-15 -0.14500000000000024 -1.021405182655144E-14
      vertex -0.26251276999999007 -0.1396546000000003 -1.021405182655144E-14
    endloop
  endfacet
  facet normal 0.9929338091479996 -0.08391171139618864 0.08391230744894834
    outer loop
      vertex 0.40520000000000983 -0.13000000000000012 -0.1406987300000102
      vertex 0.40100000000000985 -0.15200000000000036 -0.1130000000000102
      vertex 0.40520000000000983 -0.14830140000000003 -0.15900000000001002
    endloop
  endfacet
  facet normal 0.9917272059797851 -0.033222879839328846 0.12398947203174425
    outer loop
      vertex 0.40520000000000983 -0.13000000000000012 -0.1406987300000102
      vertex 0.40520000000000983 -0.1050000000000002 -0.1340000000000101
      vertex 0.40100000000000985 -0.15200000000000036 -0.1130000000000102
    endloop
  endfacet
  facet normal 0.9929338047676378 0.08391196656402636 0.08391210411508158
    outer loop
      vertex 0.4052000000000099 0.23999999999999977 -0.14069873000000999
      vertex 0.4052000000000099 0.25830129999999984 -0.15900000000001002
      vertex 0.40100000000000985 0.2619999999999998 -0.11300000000000998
    endloop
  endfacet
  facet normal 0.9917272059797848 0.03322287983932842 0.12398947203174679
    outer loop
      vertex 0.4052000000000099 0.23999999999999977 -0.14069873000000999
      vertex 0.40100000000000985 0.2619999999999998 -0.11300000000000998
      vertex 0.4052000000000099 0.21499999999999986 -0.1340000000000101
    endloop
  endfacet
  facet normal 0.22942081122533428 0.6882463553760054 0.6882463553760054
    outer loop
      vertex 0.40100000000000985 0.2859999999999998 -0.13700000000001
      vertex 0.20280861000000988 0.3140202999999997 -0.09895496000000992
      vertex 0.40100000000000985 0.2619999999999998 -0.11300000000000998
    endloop
  endfacet
  facet normal 0.9929337950128664 0.08391209305382388 0.08391209305382388
    outer loop
      vertex 0.40100000000000985 0.2859999999999998 -0.13700000000001
      vertex 0.40100000000000985 0.2619999999999998 -0.11300000000000998
      vertex 0.4052000000000099 0.25830129999999984 -0.15900000000001002
    endloop
  endfacet
  facet normal 0.9917271834474958 0.12398967737977665 0.03322278607455924
    outer loop
      vertex 0.40100000000000985 0.2859999999999998 -0.13700000000001
      vertex 0.4052000000000099 0.25830129999999984 -0.15900000000001002
      vertex 0.4052000000000099 0.2649999999999997 -0.18400000000000727
    endloop
  endfacet
  facet normal 0.9805806756909201 0.19611613513818457 0.0
    outer loop
      vertex 0.40100000000000985 0.2859999999999998 -0.13700000000001
      vertex 0.4052000000000099 0.2649999999999997 -0.18400000000000727
      vertex 0.40100000000000985 0.2859999999999998 -0.2310000000000101
    endloop
  endfacet
  facet normal 0.9929337950128664 0.08391209305382388 -0.08391209305382388
    outer loop
      vertex 0.4052000000000099 0.25830129999999984 -0.20900000000001007
      vertex 0.40100000000000985 0.2619999999999998 -0.2550000000000101
      vertex 0.40100000000000985 0.2859999999999998 -0.2310000000000101
    endloop
  endfacet
  facet normal 0.9917271834474954 0.12398967737978143 -0.03322278607455314
    outer loop
      vertex 0.4052000000000099 0.25830129999999984 -0.20900000000001007
      vertex 0.40100000000000985 0.2859999999999998 -0.2310000000000101
      vertex 0.4052000000000099 0.2649999999999997 -0.18400000000000727
    endloop
  endfacet
  facet normal -0.2347375773135594 0.9389367542493906 0.25158704520817465
    outer loop
      vertex -0.9479999999999899 0.15991319999999987 -0.12342837000001006
      vertex -0.9479999999999899 0.17614329999999967 -0.18400000000001016
      vertex -0.9579999999999899 0.15774809999999984 -0.12467837000001003
    endloop
  endfacet
  facet normal -0.23473668649292648 0.6873490316058587 -0.6873499812794135
    outer loop
      vertex -0.9579999999999899 0.15774809999999984 -0.24332163000000984
      vertex -0.9479999999999899 0.15991319999999987 -0.24457163000001003
      vertex -0.9579999999999899 0.1143215999999998 -0.28674807000001024
    endloop
  endfacet
  facet normal -0.23473757731356473 0.9389367542493892 -0.25158704520817515
    outer loop
      vertex -0.9579999999999899 0.15774809999999984 -0.24332163000000984
      vertex -0.9479999999999899 0.17614329999999967 -0.18400000000001016
      vertex -0.9479999999999899 0.15991319999999987 -0.24457163000001003
    endloop
  endfacet
  facet normal -0.23473483943676093 0.6873491242786024 0.6873505193916977
    outer loop
      vertex -0.9579999999999899 0.1143215999999998 -0.08125193000001008
      vertex -0.9479999999999899 0.11557159999999977 -0.07908686000001008
      vertex -0.9479999999999899 0.15991319999999987 -0.12342837000001006
    endloop
  endfacet
  facet normal -0.23473668649291146 0.6873490316058577 0.6873499812794195
    outer loop
      vertex -0.9579999999999899 0.1143215999999998 -0.08125193000001008
      vertex -0.9479999999999899 0.15991319999999987 -0.12342837000001006
      vertex -0.9579999999999899 0.15774809999999984 -0.12467837000001003
    endloop
  endfacet
  facet normal -0.23473494761410882 0.25158771358296667 0.9389372325894297
    outer loop
      vertex -0.9579999999999899 0.1143215999999998 -0.08125193000001008
      vertex -0.9579999999999899 0.054999999999999716 -0.0653567400000099
      vertex -0.9479999999999899 0.11557159999999977 -0.07908686000001008
    endloop
  endfacet
  facet normal -0.2347464830151896 -0.9389345340818835 -0.2515870215659698
    outer loop
      vertex -0.9579999999999901 -0.047748000000000124 -0.24332163000000984
      vertex -0.9479999999999901 -0.049913200000000435 -0.24457163000001003
      vertex -0.9579999999999901 -0.06364320000000023 -0.18400000000000993
    endloop
  endfacet
  facet normal -0.2347432496664706 -0.6873487022893588 -0.6873480691739519
    outer loop
      vertex -0.9579999999999901 -0.047748000000000124 -0.24332163000000984
      vertex -0.9579999999999901 -0.0043216000000001475 -0.28674807000001
      vertex -0.9479999999999901 -0.049913200000000435 -0.24457163000001003
    endloop
  endfacet
  facet normal -0.19231817650867453 0.023613681532575325 -0.9810484763908747
    outer loop
      vertex -0.07226093999999006 0.047408899999999754 -0.47700000000000986
      vertex -0.08158372999999008 -0.028519200000000078 -0.4770000000000101
      vertex -0.94799999999999 0.054999999999999716 -0.3051432600000099
    endloop
  endfacet
  facet normal -0.18510803637642198 0.2369275402123352 -0.9537297078091872
    outer loop
      vertex -0.07226093999999006 0.047408899999999754 -0.47700000000000986
      vertex -0.94799999999999 0.054999999999999716 -0.3051432600000099
      vertex -0.028519179999990096 0.0815836999999997 -0.4770000000000101
    endloop
  endfacet
  facet normal -0.20697723504148458 -0.1617085209787395 -0.964888997977203
    outer loop
      vertex -0.04740892999999008 -0.07226090000000007 -0.4770000000000101
      vertex -0.94799999999999 0.054999999999999716 -0.3051432600000099
      vertex -0.08158372999999008 -0.028519200000000078 -0.4770000000000101
    endloop
  endfacet
  facet normal 0.0 0.0 -1.0
    outer loop
      vertex -0.04740892999999008 -0.07226090000000007 -0.4770000000000101
      vertex 0.07226092000000989 -0.04740880000000014 -0.4770000000000101
      vertex 0.028519200000009903 -0.08158370000000015 -0.4770000000000101
    endloop
  endfacet
  facet normal -0.11055270324035886 -0.9003797167680653 -0.42082593246959943
    outer loop
      vertex -0.04740892999999008 -0.07226090000000007 -0.4770000000000101
      vertex 0.028519200000009903 -0.08158370000000015 -0.4770000000000101
      vertex -0.22097199999999007 -0.1617208000000001 -0.24000000000000998
    endloop
  endfacet
  facet normal -0.13423390625392992 -0.8906202364591851 -0.4344845829499549
    outer loop
      vertex -0.04740892999999008 -0.07226090000000007 -0.4770000000000101
      vertex -0.22097199999999007 -0.1617208000000001 -0.24000000000000998
      vertex -0.9479999999999901 -0.049913200000000435 -0.24457163000001003
    endloop
  endfacet
  facet normal -0.11888784292605548 -0.9929032547039658 -0.0029677605465131328
    outer loop
      vertex 0.1675962300000099 -0.20943100000000014 -0.2299430200000101
      vertex 0.15850102000000987 -0.20831270000000024 -0.2397328300000101
      vertex 0.16220144000000988 -0.2087622 -0.23758472500000982
    endloop
  endfacet
  facet normal 0.1385785600660784 -0.9732942728584204 -0.18301431941520582
    outer loop
      vertex 0.1675962300000099 -0.20943100000000014 -0.2299430200000101
      vertex 0.16220144000000988 -0.2087622 -0.23758472500000982
      vertex 0.40100000000000985 -0.17600000000000038 -0.2310000000000101
    endloop
  endfacet
  facet normal 0.14142002365386003 -0.9888325742430366 -0.047016135800713704
    outer loop
      vertex 0.1675962300000099 -0.20943100000000014 -0.2299430200000101
      vertex 0.40100000000000985 -0.17600000000000038 -0.2310000000000101
      vertex 0.17580940000000989 -0.21043940000000005 -0.18403015568700987
    endloop
  endfacet
  facet normal -0.12155629432963638 -0.9925845375586667 -5.575208197163427E-5
    outer loop
      vertex 0.1675962300000099 -0.20943100000000014 -0.2299430200000101
      vertex 0.17580940000000989 -0.21043940000000005 -0.18403015568700987
      vertex 0.14888710000000988 -0.20713950000000003 -0.23523349300001017
    endloop
  endfacet
  facet normal -0.12153312641125902 -0.9925873663760226 -1.3890794189623922E-4
    outer loop
      vertex 0.1675962300000099 -0.20943100000000014 -0.2299430200000101
      vertex 0.14888710000000988 -0.20713950000000003 -0.23523349300001017
      vertex 0.1530312000000099 -0.2076464 -0.23885382700001
    endloop
  endfacet
  facet normal -0.1212749579593127 -0.9926187903072771 -5.671868166785588E-4
    outer loop
      vertex 0.1675962300000099 -0.20943100000000014 -0.2299430200000101
      vertex 0.1530312000000099 -0.2076464 -0.23885382700001
      vertex 0.1534634900000099 -0.20769900000000008 -0.2392314860000102
    endloop
  endfacet
  facet normal -0.12102491087309336 -0.9926490125966402 -9.532780681809612E-4
    outer loop
      vertex 0.1675962300000099 -0.20943100000000014 -0.2299430200000101
      vertex 0.1534634900000099 -0.20769900000000008 -0.2392314860000102
      vertex 0.15850102000000987 -0.20831270000000024 -0.2397328300000101
    endloop
  endfacet
  facet normal -0.12186949894831012 -0.9925459518982948 -5.988291875195693E-4
    outer loop
      vertex -0.22413839999999008 -0.16133550000000008 -0.2392314860000102
      vertex 0.1530312000000099 -0.2076464 -0.23885382700001
      vertex -0.22871479999999003 -0.16077600000000003 -0.23523349300001017
    endloop
  endfacet
  facet normal -0.13123725367823602 -0.9912843031134161 -0.01149841936718518
    outer loop
      vertex -0.22413839999999008 -0.16133550000000008 -0.2392314860000102
      vertex -0.22871479999999003 -0.16077600000000003 -0.23523349300001017
      vertex -0.9479999999999901 -0.06614330000000002 -0.18400000000000993
    endloop
  endfacet
  facet normal -0.1345390021385258 -0.9891866862947051 -0.05838627031135508
    outer loop
      vertex -0.22413839999999008 -0.16133550000000008 -0.2392314860000102
      vertex -0.9479999999999901 -0.06614330000000002 -0.18400000000000993
      vertex -0.22097199999999007 -0.1617208000000001 -0.24000000000000998
    endloop
  endfacet
  facet normal -0.12186764443357427 -0.9925361638058543 -0.004498975191140304
    outer loop
      vertex -0.22413839999999008 -0.16133550000000008 -0.2392314860000102
      vertex -0.22097199999999007 -0.1617208000000001 -0.24000000000000998
      vertex 0.15662987000000989 -0.2080843000000001 -0.24000000000000998
    endloop
  endfacet
  facet normal -0.12186763982745193 -0.9925361788623619 -0.004495777150636323
    outer loop
      vertex -0.22413839999999008 -0.16133550000000008 -0.2392314860000102
      vertex 0.15662987000000989 -0.2080843000000001 -0.24000000000000998
      vertex 0.1534634900000099 -0.20769900000000008 -0.2392314860000102
    endloop
  endfacet
  facet normal -0.12186877514311122 -0.9925454253027449 -0.0012571219953107862
    outer loop
      vertex -0.22413839999999008 -0.16133550000000008 -0.2392314860000102
      vertex 0.1534634900000099 -0.20769900000000008 -0.2392314860000102
      vertex 0.1530312000000099 -0.2076464 -0.23885382700001
    endloop
  endfacet
  facet normal 0.17232466801207943 0.9674828336099365 0.1851517633310976
    outer loop
      vertex 0.20779625000000992 0.3205857999999997 -0.13790410000001008
      vertex 0.20280861000000988 0.3140202999999997 -0.09895496000000992
      vertex 0.40100000000000985 0.2859999999999998 -0.13700000000001
    endloop
  endfacet
  facet normal 0.1762109492402007 0.9843524274201123 0.0
    outer loop
      vertex 0.20779625000000992 0.3205857999999997 -0.13790410000001008
      vertex 0.40100000000000985 0.2859999999999998 -0.13700000000001
      vertex 0.40100000000000985 0.2859999999999998 -0.2310000000000101
    endloop
  endfacet
  facet normal -0.04121881235636665 0.9987324665187141 0.028887191441472854
    outer loop
      vertex 0.20779625000000992 0.3205857999999997 -0.13790410000001008
      vertex -0.053953139999990074 0.3093606999999999 -0.12329995200000998
      vertex -0.05512376999999008 0.3083202999999999 -0.08900000000000996
    endloop
  endfacet
  facet normal -0.015455630096223322 0.9862932700417962 0.16427631895251762
    outer loop
      vertex 0.20779625000000992 0.3205857999999997 -0.13790410000001008
      vertex -0.05512376999999008 0.3083202999999999 -0.08900000000000996
      vertex 0.20280861000000988 0.3140202999999997 -0.09895496000000992
    endloop
  endfacet
  facet normal 0.9929338047676378 0.08391196656402636 -0.08391210411508158
    outer loop
      vertex 0.4052000000000099 0.23999999999999977 -0.2273012700000101
      vertex 0.40100000000000985 0.2619999999999998 -0.2550000000000101
      vertex 0.4052000000000099 0.25830129999999984 -0.20900000000001007
    endloop
  endfacet
  facet normal 1.0 -1.734723475976811E-16 6.474075966552008E-16
    outer loop
      vertex 0.4052000000000099 0.23999999999999977 -0.2273012700000101
      vertex 0.40520000000000983 -0.1050000000000002 -0.2340000000000102
      vertex 0.4052000000000099 0.21499999999999986 -0.23400000000000998
    endloop
  endfacet
  facet normal 0.9917272059797848 0.03322287983932842 -0.12398947203174679
    outer loop
      vertex 0.4052000000000099 0.23999999999999977 -0.2273012700000101
      vertex 0.4052000000000099 0.21499999999999986 -0.23400000000000998
      vertex 0.40100000000000985 0.2619999999999998 -0.2550000000000101
    endloop
  endfacet
  facet normal -0.16848573771289646 0.952117115161935 0.25511870806167036
    outer loop
      vertex -0.06405229999999007 0.3071106999999998 -0.08900000000000996
      vertex -0.9479999999999899 0.17614329999999967 -0.18400000000001016
      vertex -0.9479999999999899 0.15991319999999987 -0.12342837000001006
    endloop
  endfacet
  facet normal -0.14378042793541407 0.6997589587863484 0.6997603790876952
    outer loop
      vertex -0.06405229999999007 0.3071106999999998 -0.08900000000000996
      vertex -0.9479999999999899 0.15991319999999987 -0.12342837000001006
      vertex -0.9479999999999899 0.11557159999999977 -0.07908686000001008
    endloop
  endfacet
  facet normal -0.088079408192133 0.4524140719502351 0.8874477592252579
    outer loop
      vertex -0.06405229999999007 0.3071106999999998 -0.08900000000000996
      vertex -0.9479999999999899 0.11557159999999977 -0.07908686000001008
      vertex 9.936496070395151E-15 0.1449999999999998 -9.992007221626409E-15
    endloop
  endfacet
  facet normal -0.06248505142978584 0.46122656766066833 0.885079471929937
    outer loop
      vertex -0.06405229999999007 0.3071106999999998 -0.08900000000000996
      vertex 9.936496070395151E-15 0.1449999999999998 -9.992007221626409E-15
      vertex -0.05512376999999008 0.3083202999999999 -0.08900000000000996
    endloop
  endfacet
  facet normal -0.1342058986697006 0.9906261511650898 0.025467732331300157
    outer loop
      vertex -0.06405229999999007 0.3071106999999998 -0.08900000000000996
      vertex -0.05512376999999008 0.3083202999999999 -0.08900000000000996
      vertex -0.053953139999990074 0.3093606999999999 -0.12329995200000998
    endloop
  endfacet
  facet normal -0.1487436536002487 0.9886515545934113 0.021057756615571136
    outer loop
      vertex -0.06405229999999007 0.3071106999999998 -0.08900000000000996
      vertex -0.053953139999990074 0.3093606999999999 -0.12329995200000998
      vertex -0.9479999999999899 0.17614329999999967 -0.18400000000001016
    endloop
  endfacet
  facet normal -0.2347433070131381 0.9389356706258096 -0.2515857433142757
    outer loop
      vertex -0.9579999999999899 0.1736431999999999 -0.18400000000001016
      vertex -0.9479999999999899 0.17614329999999967 -0.18400000000001016
      vertex -0.9579999999999899 0.15774809999999984 -0.24332163000000984
    endloop
  endfacet
  facet normal -1.0 0.0 0.0
    outer loop
      vertex -0.9579999999999899 0.1736431999999999 -0.18400000000001016
      vertex -0.9579999999999899 0.1143215999999998 -0.08125193000001008
      vertex -0.9579999999999899 0.15774809999999984 -0.12467837000001003
    endloop
  endfacet
  facet normal -0.23474330701313822 0.9389356706258101 0.2515857433142739
    outer loop
      vertex -0.9579999999999899 0.1736431999999999 -0.18400000000001016
      vertex -0.9579999999999899 0.15774809999999984 -0.12467837000001003
      vertex -0.9479999999999899 0.17614329999999967 -0.18400000000001016
    endloop
  endfacet
  facet normal -0.21569772503814136 -0.25272661880148634 -0.9431880764526971
    outer loop
      vertex -0.9479999999999901 -0.005571600000000343 -0.2889131400000102
      vertex -0.94799999999999 0.054999999999999716 -0.3051432600000099
      vertex -0.04740892999999008 -0.07226090000000007 -0.4770000000000101
    endloop
  endfacet
  facet normal -0.19615363984941642 -0.6933692371205432 -0.693370644452663
    outer loop
      vertex -0.9479999999999901 -0.005571600000000343 -0.2889131400000102
      vertex -0.04740892999999008 -0.07226090000000007 -0.4770000000000101
      vertex -0.9479999999999901 -0.049913200000000435 -0.24457163000001003
    endloop
  endfacet
  facet normal -0.23473483943678963 -0.6873491242785992 -0.687350519391691
    outer loop
      vertex -0.9479999999999901 -0.005571600000000343 -0.2889131400000102
      vertex -0.9479999999999901 -0.049913200000000435 -0.24457163000001003
      vertex -0.9579999999999901 -0.0043216000000001475 -0.28674807000001
    endloop
  endfacet
  facet normal -0.23473494761413352 -0.2515877135829615 -0.938937232589425
    outer loop
      vertex -0.9479999999999901 -0.005571600000000343 -0.2889131400000102
      vertex -0.9579999999999901 -0.0043216000000001475 -0.28674807000001
      vertex -0.9579999999999897 0.054999999999999716 -0.30264326000000996
    endloop
  endfacet
  facet normal -0.23473434961684944 -0.25158765245780756 -0.9389373984673974
    outer loop
      vertex -0.9479999999999901 -0.005571600000000343 -0.2889131400000102
      vertex -0.9579999999999897 0.054999999999999716 -0.30264326000000996
      vertex -0.94799999999999 0.054999999999999716 -0.3051432600000099
    endloop
  endfacet
  facet normal -0.1216583449954082 -0.99257203622272 -1.2889953069625894E-6
    outer loop
      vertex 0.1523868700000099 -0.20756860000000033 -0.12938774000001008
      vertex 0.14888710000000988 -0.20713950000000003 -0.23523349300001017
      vertex 0.17580940000000989 -0.21043940000000005 -0.18403015568700987
    endloop
  endfacet
  facet normal -0.12151234777738153 -0.9925899180753167 6.223234425938568E-5
    outer loop
      vertex 0.1523868700000099 -0.20756860000000033 -0.12938774000001008
      vertex 0.17580940000000989 -0.21043940000000005 -0.18403015568700987
      vertex 0.16912391000000992 -0.20961830000000004 -0.1415121400000099
    endloop
  endfacet
  facet normal -0.1218691240307155 -0.9925461785544001 6.711416355920546E-6
    outer loop
      vertex 0.1523868700000099 -0.20756860000000033 -0.12938774000001008
      vertex -0.22521503999999004 -0.16120500000000004 -0.12938774000001008
      vertex -0.22871479999999003 -0.16077600000000003 -0.23523349300001017
    endloop
  endfacet
  facet normal -0.12186886825969025 -0.992546209964923 5.776616969962221E-6
    outer loop
      vertex 0.1523868700000099 -0.20756860000000033 -0.12938774000001008
      vertex -0.22871479999999003 -0.16077600000000003 -0.23523349300001017
      vertex 0.14888710000000988 -0.20713950000000003 -0.23523349300001017
    endloop
  endfacet
  facet normal 0.13650254674585396 -0.9243823170855884 0.3562083471669001
    outer loop
      vertex 0.1626280600000099 -0.2088146000000004 -0.13080940700000987
      vertex 0.40100000000000985 -0.17600000000000038 -0.13700000000001022
      vertex 0.2007967700000099 -0.1902514000000004 -0.09726340000000988
    endloop
  endfacet
  facet normal -0.1218381178184676 -0.9922935739225386 0.022559614324908307
    outer loop
      vertex -0.22203393999999 -0.16159100000000026 -0.1280859070000102
      vertex 0.1555679400000099 -0.2079546000000001 -0.1280859070000102
      vertex -0.23314119999999006 -0.15794040000000042 -0.027500000000010072
    endloop
  endfacet
  facet normal -0.12918292364369643 -0.9913829778734053 0.021715511085999332
    outer loop
      vertex -0.22203393999999 -0.16159100000000026 -0.1280859070000102
      vertex -0.23314119999999006 -0.15794040000000042 -0.027500000000010072
      vertex -0.22521503999999004 -0.16120500000000004 -0.12938774000001008
    endloop
  endfacet
  facet normal -0.13065747168498862 -0.9914229213329988 0.0030358110001940082
    outer loop
      vertex -0.23042424999999 -0.16056350000000008 -0.13581428600001022
      vertex -0.9479999999999901 -0.06614330000000002 -0.18400000000000993
      vertex -0.23749189999998999 -0.15969250000000001 -0.15554934700001022
    endloop
  endfacet
  facet normal -0.12236024633791785 -0.9924857529515223 1.744632100915156E-5
    outer loop
      vertex -0.23042424999999 -0.16056350000000008 -0.13581428600001022
      vertex -0.23749189999998999 -0.15969250000000001 -0.15554934700001022
      vertex -0.22871479999999003 -0.16077600000000003 -0.23523349300001017
    endloop
  endfacet
  facet normal -0.12263605341531061 -0.9924517107669472 -1.4088185429113336E-5
    outer loop
      vertex -0.23689265999998999 -0.1597662000000002 -0.18393247526001
      vertex -0.23617009999999009 -0.15985500000000008 -0.21815937000001018
      vertex -0.22871479999999003 -0.16077600000000003 -0.23523349300001017
    endloop
  endfacet
  facet normal -0.12262222000550659 -0.992453420075982 -1.184936534282274E-5
    outer loop
      vertex -0.23689265999998999 -0.1597662000000002 -0.18393247526001
      vertex -0.22871479999999003 -0.16077600000000003 -0.23523349300001017
      vertex -0.23749189999998999 -0.15969250000000001 -0.15554934700001022
    endloop
  endfacet
  facet normal -0.13053143935876896 -0.9914441539559644 -1.81453768148508E-4
    outer loop
      vertex -0.23689265999998999 -0.1597662000000002 -0.18393247526001
      vertex -0.23749189999998999 -0.15969250000000001 -0.15554934700001022
      vertex -0.9479999999999901 -0.06614330000000002 -0.18400000000000993
    endloop
  endfacet
  facet normal -0.1305314391330147 -0.9914441536311268 -1.8338081398511455E-4
    outer loop
      vertex -0.23689265999998999 -0.1597662000000002 -0.18393247526001
      vertex -0.9479999999999901 -0.06614330000000002 -0.18400000000000993
      vertex -0.23617009999999009 -0.15985500000000008 -0.21815937000001018
    endloop
  endfacet
  facet normal -0.12186834142566229 -0.9925397258800462 0.0036055385341061826
    outer loop
      vertex 0.15298339000000988 -0.20764110000000024 -0.12914361800000984
      vertex 0.1555679400000099 -0.2079546000000001 -0.1280859070000102
      vertex -0.22203393999999 -0.16159100000000026 -0.1280859070000102
    endloop
  endfacet
  facet normal -0.12186868139576913 -0.9925400630399626 0.0034996793401611435
    outer loop
      vertex 0.15298339000000988 -0.20764110000000024 -0.12914361800000984
      vertex -0.22203393999999 -0.16159100000000026 -0.1280859070000102
      vertex -0.22521503999999004 -0.16120500000000004 -0.12938774000001008
    endloop
  endfacet
  facet normal -0.12186856750019802 -0.9925416459687861 0.003022130543575235
    outer loop
      vertex 0.15298339000000988 -0.20764110000000024 -0.12914361800000984
      vertex -0.22521503999999004 -0.16120500000000004 -0.12938774000001008
      vertex 0.1523868700000099 -0.20756860000000033 -0.12938774000001008
    endloop
  endfacet
  facet normal -0.1209776054424551 -0.9926549050961907 8.113999522270205E-4
    outer loop
      vertex 0.15298339000000988 -0.20764110000000024 -0.12914361800000984
      vertex 0.1523868700000099 -0.20756860000000033 -0.12938774000001008
      vertex 0.16912391000000992 -0.20961830000000004 -0.1415121400000099
    endloop
  endfacet
  facet normal 0.13868659424604562 -0.9777170429915838 0.15759255191863064
    outer loop
      vertex 0.16580766000000985 -0.20920800000000006 -0.13604819700001025
      vertex 0.16912391000000992 -0.20961830000000004 -0.1415121400000099
      vertex 0.40100000000000985 -0.17600000000000038 -0.13700000000001022
    endloop
  endfacet
  facet normal 0.13868656859357073 -0.9777168212298513 0.1575939503151561
    outer loop
      vertex 0.16580766000000985 -0.20920800000000006 -0.13604819700001025
      vertex 0.40100000000000985 -0.17600000000000038 -0.13700000000001022
      vertex 0.1626280600000099 -0.2088146000000004 -0.13080940700000987
    endloop
  endfacet
  facet normal -0.12095815478830747 -0.9926572540191447 8.371579177096687E-4
    outer loop
      vertex 0.1587532500000099 -0.20834350000000001 -0.12834429000001002
      vertex 0.15298339000000988 -0.20764110000000024 -0.12914361800000984
      vertex 0.16912391000000992 -0.20961830000000004 -0.1415121400000099
    endloop
  endfacet
  facet normal -0.11937450345346969 -0.9928470709289706 0.0021027774492806913
    outer loop
      vertex 0.1587532500000099 -0.20834350000000001 -0.12834429000001002
      vertex 0.16912391000000992 -0.20961830000000004 -0.1415121400000099
      vertex 0.16580766000000985 -0.20920800000000006 -0.13604819700001025
    endloop
  endfacet
  facet normal -0.11937032365141043 -0.9928475652453399 0.0021066603328545328
    outer loop
      vertex 0.1587532500000099 -0.20834350000000001 -0.12834429000001002
      vertex 0.16580766000000985 -0.20920800000000006 -0.13604819700001025
      vertex 0.1626280600000099 -0.2088146000000004 -0.13080940700000987
    endloop
  endfacet
  facet normal 0.12313187660241484 -0.921013522507862 0.3695573464592848
    outer loop
      vertex 0.1587532500000099 -0.20834350000000001 -0.12834429000001002
      vertex 0.1626280600000099 -0.2088146000000004 -0.13080940700000987
      vertex 0.2007967700000099 -0.1902514000000004 -0.09726340000000988
    endloop
  endfacet
  facet normal 0.036133314545456846 -0.8841582703971632 0.46578808107148484
    outer loop
      vertex 0.1587532500000099 -0.20834350000000001 -0.12834429000001002
      vertex 0.2007967700000099 -0.1902514000000004 -0.09726340000000988
      vertex 9.936496070395151E-15 -0.1675000000000002 -0.03850000000001019
    endloop
  endfacet
  facet normal -0.0021691493179437213 -0.9117829982344693 0.410666603124479
    outer loop
      vertex 0.1587532500000099 -0.20834350000000001 -0.12834429000001002
      vertex 9.936496070395151E-15 -0.1675000000000002 -0.03850000000001019
      vertex -0.23018385999999003 -0.15636800000000028 -0.015000000000009894
    endloop
  endfacet
  facet normal -0.08939417869333609 -0.9853701450001053 0.1451011997132184
    outer loop
      vertex 0.1587532500000099 -0.20834350000000001 -0.12834429000001002
      vertex -0.23018385999999003 -0.15636800000000028 -0.015000000000009894
      vertex -0.23314119999999006 -0.15794040000000042 -0.027500000000010072
    endloop
  endfacet
  facet normal -0.1306588110191211 -0.9914226821048672 0.0030562249690031917
    outer loop
      vertex -0.22996963999998998 -0.16061950000000036 -0.13454503000001017
      vertex -0.9479999999999901 -0.06614330000000002 -0.18400000000000993
      vertex -0.23042424999999 -0.16056350000000008 -0.13581428600001022
    endloop
  endfacet
  facet normal -0.12230887758916766 -0.9924920846668797 1.8343107452685178E-5
    outer loop
      vertex -0.22996963999998998 -0.16061950000000036 -0.13454503000001017
      vertex -0.23042424999999 -0.16056350000000008 -0.13581428600001022
      vertex -0.22871479999999003 -0.16077600000000003 -0.23523349300001017
    endloop
  endfacet
  facet normal -0.12224120107712265 -0.9925004223629338 1.9199492000009334E-5
    outer loop
      vertex -0.22996963999998998 -0.16061950000000036 -0.13454503000001017
      vertex -0.22871479999999003 -0.16077600000000003 -0.23523349300001017
      vertex -0.22521503999999004 -0.16120500000000004 -0.12938774000001008
    endloop
  endfacet
  facet normal -0.13100525723458237 -0.9913475134648191 0.00822983134828548
    outer loop
      vertex -0.22996963999998998 -0.16061950000000036 -0.13454503000001017
      vertex -0.22521503999999004 -0.16120500000000004 -0.12938774000001008
      vertex -0.9479999999999901 -0.06614330000000002 -0.18400000000000993
    endloop
  endfacet
  facet normal 0.15014769771654932 0.9871258594610689 -0.055119927917822074
    outer loop
      vertex 0.20769512000000995 0.3204526999999997 -0.14056322700001012
      vertex 0.20779625000000992 0.3205857999999997 -0.13790410000001008
      vertex 0.40100000000000985 0.2859999999999998 -0.2310000000000101
    endloop
  endfacet
  facet normal 0.15014368842731005 0.9871259879964376 -0.05512854657525451
    outer loop
      vertex 0.20769512000000995 0.3204526999999997 -0.14056322700001012
      vertex 0.40100000000000985 0.2859999999999998 -0.2310000000000101
      vertex 0.2060496100000099 0.3182866999999998 -0.18382897549000998
    endloop
  endfacet
  facet normal -0.0454812421745274 0.9978005895997505 -0.04822281622481526
    outer loop
      vertex 0.20769512000000995 0.3204526999999997 -0.14056322700001012
      vertex 0.2060496100000099 0.3182866999999998 -0.18382897549000998
      vertex -0.053953139999990074 0.3093606999999999 -0.12329995200000998
    endloop
  endfacet
  facet normal -0.04548069654871378 0.9978010277046064 -0.04821426503717498
    outer loop
      vertex 0.20769512000000995 0.3204526999999997 -0.14056322700001012
      vertex -0.053953139999990074 0.3093606999999999 -0.12329995200000998
      vertex 0.20779625000000992 0.3205857999999997 -0.13790410000001008
    endloop
  endfacet
  facet normal -0.04548190057402797 0.9978004217056441 -0.048225669142202346
    outer loop
      vertex 0.2043982700000099 0.3161128999999998 -0.22724802000001
      vertex -0.053953139999990074 0.3093606999999999 -0.12329995200000998
      vertex 0.2060496100000099 0.3182866999999998 -0.18382897549000998
    endloop
  endfacet
  facet normal 0.15014299608800388 0.987125935506538 -0.05513137197693898
    outer loop
      vertex 0.2043982700000099 0.3161128999999998 -0.22724802000001
      vertex 0.2060496100000099 0.3182866999999998 -0.18382897549000998
      vertex 0.40100000000000985 0.2859999999999998 -0.2310000000000101
    endloop
  endfacet
  facet normal 0.15014299029915285 0.987125924416737 -0.05513158630432327
    outer loop
      vertex 0.2043982700000099 0.3161128999999998 -0.22724802000001
      vertex 0.40100000000000985 0.2859999999999998 -0.2310000000000101
      vertex 0.2028086100000099 0.3140202999999997 -0.26904504000000995
    endloop
  endfacet
  facet normal -0.04548196782441524 0.9978004105267424 -0.048225837011744245
    outer loop
      vertex 0.2043982700000099 0.3161128999999998 -0.22724802000001
      vertex 0.2028086100000099 0.3140202999999997 -0.26904504000000995
      vertex -0.053953139999990074 0.3093606999999999 -0.12329995200000998
    endloop
  endfacet
  facet normal -0.12102829178006377 -0.9926481381571054 0.001351444424314681
    outer loop
      vertex 0.15661616000000989 -0.20808270000000006 -0.12817093300001003
      vertex 0.15298339000000988 -0.20764110000000024 -0.12914361800000984
      vertex 0.1587532500000099 -0.20834350000000001 -0.12834429000001002
    endloop
  endfacet
  facet normal -0.11809146998917742 -0.9923113319967659 0.037048955539927896
    outer loop
      vertex 0.15661616000000989 -0.20808270000000006 -0.12817093300001003
      vertex 0.1587532500000099 -0.20834350000000001 -0.12834429000001002
      vertex -0.23314119999999006 -0.15794040000000042 -0.027500000000010072
    endloop
  endfacet
  facet normal -0.11834126575583369 -0.9923171053787401 0.03608472241913061
    outer loop
      vertex 0.15661616000000989 -0.20808270000000006 -0.12817093300001003
      vertex -0.23314119999999006 -0.15794040000000042 -0.027500000000010072
      vertex 0.1555679400000099 -0.2079546000000001 -0.1280859070000102
    endloop
  endfacet
  facet normal -0.12115736619746721 -0.9926316050161914 0.001841015772015363
    outer loop
      vertex 0.15661616000000989 -0.20808270000000006 -0.12817093300001003
      vertex 0.1555679400000099 -0.2079546000000001 -0.1280859070000102
      vertex 0.15298339000000988 -0.20764110000000024 -0.12914361800000984
    endloop
  endfacet
  facet normal 0.98058067569092 -1.7010363182102385E-16 0.1961161351381849
    outer loop
      vertex 0.40520000000000983 -0.1050000000000002 -0.1340000000000101
      vertex 0.4052000000000099 0.21499999999999986 -0.1340000000000101
      vertex 0.40100000000000985 0.2619999999999998 -0.11300000000000998
    endloop
  endfacet
  facet normal -4.183694229123464E-15 -4.183701323657857E-15 1.0
    outer loop
      vertex 0.1450000000000099 -2.220446049250313E-16 -1.021405182655144E-14
      vertex 0.1255736900000099 0.07249999999999981 -9.992007221626409E-15
      vertex 0.07250000000000989 0.12557359999999984 -9.992007221626409E-15
    endloop
  endfacet
  facet normal -5.605134045624108E-16 -2.0918555074936608E-15 1.0
    outer loop
      vertex 0.1450000000000099 -2.220446049250313E-16 -1.021405182655144E-14
      vertex 0.07250000000000989 0.12557359999999984 -9.992007221626409E-15
      vertex 9.936496070395151E-15 0.1449999999999998 -9.992007221626409E-15
    endloop
  endfacet
  facet normal 3.2361176145681303E-16 -1.207730341474437E-15 1.0
    outer loop
      vertex 0.1450000000000099 -2.220446049250313E-16 -1.021405182655144E-14
      vertex 9.936496070395151E-15 0.1449999999999998 -9.992007221626409E-15
      vertex -0.07249999999999007 0.12557359999999984 -9.992007221626409E-15
    endloop
  endfacet
  facet normal 7.657734396073233E-17 -1.6356067884776094E-15 1.0
    outer loop
      vertex 0.1450000000000099 -2.220446049250313E-16 -1.021405182655144E-14
      vertex -0.07249999999999007 0.12557359999999984 -9.992007221626409E-15
      vertex -0.29662914999999 -0.020676600000000045 -1.021405182655144E-14
    endloop
  endfacet
  facet normal 0.0 0.0 1.0
    outer loop
      vertex 0.1450000000000099 -2.220446049250313E-16 -1.021405182655144E-14
      vertex -0.29662914999999 -0.020676600000000045 -1.021405182655144E-14
      vertex -0.28390403999999003 -0.06505470000000035 -1.021405182655144E-14
    endloop
  endfacet
  facet normal 0.0 0.0 1.0
    outer loop
      vertex 0.1450000000000099 -2.220446049250313E-16 -1.021405182655144E-14
      vertex -0.28390403999999003 -0.06505470000000035 -1.021405182655144E-14
      vertex -0.26251276999999007 -0.1396546000000003 -1.021405182655144E-14
    endloop
  endfacet
  facet normal 0.0 0.0 1.0
    outer loop
      vertex 0.1450000000000099 -2.220446049250313E-16 -1.021405182655144E-14
      vertex -0.26251276999999007 -0.1396546000000003 -1.021405182655144E-14
      vertex 9.936496070395151E-15 -0.14500000000000024 -1.021405182655144E-14
    endloop
  endfacet
  facet normal 0.0 0.0 1.0
    outer loop
      vertex 0.1450000000000099 -2.220446049250313E-16 -1.021405182655144E-14
      vertex 9.936496070395151E-15 -0.14500000000000024 -1.021405182655144E-14
      vertex 0.07250000000000989 -0.12557360000000028 -1.021405182655144E-14
    endloop
  endfacet
  facet normal 0.9805806756909202 -3.4020726364204836E-17 -0.19611613513818396
    outer loop
      vertex 0.4052000000000099 0.21499999999999986 -0.23400000000000998
      vertex 0.40520000000000983 -0.1050000000000002 -0.2340000000000102
      vertex 0.40100000000000985 -0.15200000000000036 -0.2550000000000101
    endloop
  endfacet
  facet normal 3.2347086898033377E-15 2.5272342531792576E-15 -1.0
    outer loop
      vertex -0.04740892999999008 -0.07226090000000007 -0.4770000000000101
      vertex -0.08158372999999008 -0.028519200000000078 -0.4770000000000101
      vertex -0.07226093999999006 0.047408899999999754 -0.47700000000000986
    endloop
  endfacet
  facet normal -5.614897504295538E-15 6.894230290290767E-16 -1.0
    outer loop
      vertex -0.04740892999999008 -0.07226090000000007 -0.4770000000000101
      vertex -0.07226093999999006 0.047408899999999754 -0.47700000000000986
      vertex -0.028519179999990096 0.0815836999999997 -0.4770000000000101
    endloop
  endfacet
  facet normal 2.880973680227782E-15 -3.537392445109076E-16 -1.0
    outer loop
      vertex -0.04740892999999008 -0.07226090000000007 -0.4770000000000101
      vertex -0.028519179999990096 0.0815836999999997 -0.4770000000000101
      vertex 0.04740890000000991 0.07226099999999969 -0.47700000000000986
    endloop
  endfacet
  facet normal 1.0689066697700625E-15 8.351204490454915E-16 -1.0
    outer loop
      vertex -0.04740892999999008 -0.07226090000000007 -0.4770000000000101
      vertex 0.04740890000000991 0.07226099999999969 -0.47700000000000986
      vertex 0.08158370000000992 0.028519199999999856 -0.47700000000000986
    endloop
  endfacet
  facet normal -6.232098186696462E-16 3.000930525739231E-15 -1.0
    outer loop
      vertex -0.04740892999999008 -0.07226090000000007 -0.4770000000000101
      vertex 0.08158370000000992 0.028519199999999856 -0.47700000000000986
      vertex 0.07226092000000989 -0.04740880000000014 -0.4770000000000101
    endloop
  endfacet
  facet normal 1.0 0.0 0.0
    outer loop
      vertex 0.4052000000000099 0.23999999999999977 -0.2273012700000101
      vertex 0.4052000000000099 0.25830129999999984 -0.20900000000001007
      vertex 0.4052000000000099 0.2649999999999997 -0.18400000000000727
    endloop
  endfacet
  facet normal 1.0 0.0 0.0
    outer loop
      vertex 0.4052000000000099 0.23999999999999977 -0.2273012700000101
      vertex 0.4052000000000099 0.2649999999999997 -0.18400000000000727
      vertex 0.4052000000000099 0.25830129999999984 -0.15900000000001002
    endloop
  endfacet
  facet normal 1.0 0.0 0.0
    outer loop
      vertex 0.4052000000000099 0.23999999999999977 -0.2273012700000101
      vertex 0.4052000000000099 0.25830129999999984 -0.15900000000001002
      vertex 0.4052000000000099 0.23999999999999977 -0.14069873000000999
    endloop
  endfacet
  facet normal 1.0 0.0 -0.0
    outer loop
      vertex 0.4052000000000099 0.23999999999999977 -0.2273012700000101
      vertex 0.4052000000000099 0.23999999999999977 -0.14069873000000999
      vertex 0.4052000000000099 0.21499999999999986 -0.1340000000000101
    endloop
  endfacet
  facet normal 1.0 -1.7347234759768068E-16 -4.648177554219789E-17
    outer loop
      vertex 0.4052000000000099 0.23999999999999977 -0.2273012700000101
      vertex 0.4052000000000099 0.21499999999999986 -0.1340000000000101
      vertex 0.40520000000000983 -0.1050000000000002 -0.1340000000000101
    endloop
  endfacet
  facet normal 1.0 -8.007897463020176E-17 2.988587934959325E-16
    outer loop
      vertex 0.4052000000000099 0.23999999999999977 -0.2273012700000101
      vertex 0.40520000000000983 -0.1050000000000002 -0.1340000000000101
      vertex 0.40520000000000983 -0.13000000000000012 -0.1406987300000102
    endloop
  endfacet
  facet normal 1.0 -1.2157417355340542E-16 1.215750371351445E-16
    outer loop
      vertex 0.4052000000000099 0.23999999999999977 -0.2273012700000101
      vertex 0.40520000000000983 -0.13000000000000012 -0.1406987300000102
      vertex 0.40520000000000983 -0.14830140000000003 -0.15900000000001002
    endloop
  endfacet
  facet normal 1.0 -1.3652443460512866E-16 3.658090310587116E-17
    outer loop
      vertex 0.4052000000000099 0.23999999999999977 -0.2273012700000101
      vertex 0.40520000000000983 -0.14830140000000003 -0.15900000000001002
      vertex 0.40520000000000983 -0.15500000000000003 -0.1839999999999864
    endloop
  endfacet
  facet normal 1.0 -1.4478739302257618E-16 -3.879491323600476E-17
    outer loop
      vertex 0.4052000000000099 0.23999999999999977 -0.2273012700000101
      vertex 0.40520000000000983 -0.15500000000000003 -0.1839999999999864
      vertex 0.40520000000000983 -0.14830140000000003 -0.20900000000000984
    endloop
  endfacet
  facet normal 1.0 -1.5003013846285904E-16 -1.500312041767657E-16
    outer loop
      vertex 0.4052000000000099 0.23999999999999977 -0.2273012700000101
      vertex 0.40520000000000983 -0.14830140000000003 -0.20900000000000984
      vertex 0.40520000000000983 -0.13000000000000012 -0.2273012700000101
    endloop
  endfacet
  facet normal 1.0 -1.5003013846285904E-16 -5.599200835936675E-16
    outer loop
      vertex 0.4052000000000099 0.23999999999999977 -0.2273012700000101
      vertex 0.40520000000000983 -0.13000000000000012 -0.2273012700000101
      vertex 0.40520000000000983 -0.1050000000000002 -0.2340000000000102
    endloop
  endfacet
  facet normal -1.0 0.0 0.0
    outer loop
      vertex -0.9579999999999899 0.1736431999999999 -0.18400000000001016
      vertex -0.9579999999999899 0.15774809999999984 -0.24332163000000984
      vertex -0.9579999999999899 0.1143215999999998 -0.28674807000001024
    endloop
  endfacet
  facet normal -1.0 -2.2140469321074083E-15 1.2782800347267147E-15
    outer loop
      vertex -0.9579999999999899 0.1736431999999999 -0.18400000000001016
      vertex -0.9579999999999899 0.1143215999999998 -0.28674807000001024
      vertex -0.9579999999999897 0.054999999999999716 -0.30264326000000996
    endloop
  endfacet
  facet normal -1.0 4.23034227545553E-15 -5.166105913794369E-15
    outer loop
      vertex -0.9579999999999899 0.1736431999999999 -0.18400000000001016
      vertex -0.9579999999999897 0.054999999999999716 -0.30264326000000996
      vertex -0.9579999999999901 -0.0043216000000001475 -0.28674807000001
    endloop
  endfacet
  facet normal -1.0 7.910028485204552E-16 7.910021199294378E-16
    outer loop
      vertex -0.9579999999999899 0.1736431999999999 -0.18400000000001016
      vertex -0.9579999999999901 -0.0043216000000001475 -0.28674807000001
      vertex -0.9579999999999901 -0.047748000000000124 -0.24332163000000984
    endloop
  endfacet
  facet normal -1.0 9.357662509314957E-16 2.5073808173859077E-16
    outer loop
      vertex -0.9579999999999899 0.1736431999999999 -0.18400000000001016
      vertex -0.9579999999999901 -0.047748000000000124 -0.24332163000000984
      vertex -0.9579999999999901 -0.06364320000000023 -0.18400000000000993
    endloop
  endfacet
  facet normal -1.0 9.357662509314951E-16 -2.507380817385906E-16
    outer loop
      vertex -0.9579999999999899 0.1736431999999999 -0.18400000000001016
      vertex -0.9579999999999901 -0.06364320000000023 -0.18400000000000993
      vertex -0.9579999999999901 -0.047748000000000124 -0.12467837000001003
    endloop
  endfacet
  facet normal -1.0 7.91002848520454E-16 -7.910021199294367E-16
    outer loop
      vertex -0.9579999999999899 0.1736431999999999 -0.18400000000001016
      vertex -0.9579999999999901 -0.047748000000000124 -0.12467837000001003
      vertex -0.9579999999999901 -0.0043216000000001475 -0.08125193000000985
    endloop
  endfacet
  facet normal -1.0 2.9520620150783032E-15 2.952060522168203E-15
    outer loop
      vertex -0.9579999999999899 0.1736431999999999 -0.18400000000001016
      vertex -0.9579999999999901 -0.0043216000000001475 -0.08125193000000985
      vertex -0.9579999999999899 0.054999999999999716 -0.0653567400000099
    endloop
  endfacet
  facet normal -1.0 0.0 0.0
    outer loop
      vertex -0.9579999999999899 0.1736431999999999 -0.18400000000001016
      vertex -0.9579999999999899 0.054999999999999716 -0.0653567400000099
      vertex -0.9579999999999899 0.1143215999999998 -0.08125193000001008
    endloop
  endfacet
endsolid grep4CCC00u2_20
