solid grep4CCC00u2_1
  facet normal 0.009074370235696773 0.999890607260611 -0.011680296093512964
    outer loop
      vertex -0.16879572 -1.8516388 1.9712309
      vertex -0.16879894 -1.8519934 1.9408729
      vertex -0.1767954 -1.8515662 1.9712309
    endloop
  endfacet
  facet normal 0.009049384635941711 0.9998907567751412 -0.011686879538457451
    outer loop
      vertex -0.16879894 -1.8519934 1.9408729
      vertex -0.17679861 -1.851921 1.9408729
      vertex -0.1767954 -1.8515662 1.9712309
    endloop
  endfacet
  facet normal -1.0604029557179123E-4 -0.011684384447301499 -0.9999317296273498
    outer loop
      vertex -0.16880268 -1.8524057 1.9055954
      vertex -0.16891943 -1.8652842 1.9057459
      vertex -0.17680234 -1.8523331 1.9055954
    endloop
  endfacet
  facet normal -1.0589342448830154E-4 -0.011684295064005897 -0.9999317306873704
    outer loop
      vertex -0.16891943 -1.8652842 1.9057459
      vertex -0.17691909 -1.8652117 1.9057459
      vertex -0.17680234 -1.8523331 1.9055954
    endloop
  endfacet
  facet normal -0.009061894401631158 -0.9998906781904933 0.01168390934615339
    outer loop
      vertex -0.16891943 -1.8652842 1.9057459
      vertex -0.16891247 -1.8645173 1.9713814
      vertex -0.17691909 -1.8652117 1.9057459
    endloop
  endfacet
  facet normal -0.009049385111249622 -0.9998908092962524 0.011682384773403652
    outer loop
      vertex -0.16891247 -1.8645173 1.9713814
      vertex -0.17691214 -1.8644449 1.9713814
      vertex -0.17691909 -1.8652117 1.9057459
    endloop
  endfacet
  facet normal 0.9999589108972762 -0.009065126424891806 -1.8469929251431854E-7
    outer loop
      vertex -0.16869059 -1.8400428 1.9297726
      vertex -0.16869317 -1.8403269 1.9054543
      vertex -0.16857642 -1.8274484 1.9053037
    endloop
  endfacet
  facet normal 0.999958909810652 -0.009065246288885628 1.1914429337441642E-7
    outer loop
      vertex -0.16879894 -1.8519934 1.9408729
      vertex -0.1688001 -1.8521215 1.9299138
      vertex -0.16868944 -1.8399148 1.9407319
    endloop
  endfacet
  facet normal 0.9999589030745838 -0.009065989243224272 9.575323780499346E-7
    outer loop
      vertex -0.1688001 -1.8521215 1.9299138
      vertex -0.16869059 -1.8400428 1.9297726
      vertex -0.16868944 -1.8399148 1.9407319
    endloop
  endfacet
  facet normal 0.9999588953045908 -0.009066846214993096 9.675422620670042E-7
    outer loop
      vertex -0.16868944 -1.8399148 1.9407319
      vertex -0.16869059 -1.8400428 1.9297726
      vertex -0.16856948 -1.8266815 1.9709393
    endloop
  endfacet
  facet normal 0.9999589173127467 -0.009064418717562615 1.7959504196826078E-7
    outer loop
      vertex -0.16869059 -1.8400428 1.9297726
      vertex -0.16857642 -1.8274484 1.9053037
      vertex -0.16856948 -1.8266815 1.9709393
    endloop
  endfacet
  facet normal 0.9999589109012437 -0.009065125987922128 -1.4742681916369642E-7
    outer loop
      vertex -0.16880268 -1.8524057 1.9055954
      vertex -0.1688001 -1.8521215 1.9299138
      vertex -0.16891943 -1.8652842 1.9057459
    endloop
  endfacet
  facet normal 0.9999589063910035 -0.009065623491703888 1.2355374741821048E-7
    outer loop
      vertex -0.1688001 -1.8521215 1.9299138
      vertex -0.16879894 -1.8519934 1.9408729
      vertex -0.16891943 -1.8652842 1.9057459
    endloop
  endfacet
  facet normal 0.9999589121902326 -0.00906498380102425 -1.1850221050620104E-7
    outer loop
      vertex -0.16891943 -1.8652842 1.9057459
      vertex -0.16879894 -1.8519934 1.9408729
      vertex -0.16891247 -1.8645173 1.9713814
    endloop
  endfacet
  facet normal 0.9999589108981044 -0.009065126333693803 -1.7701743070846474E-7
    outer loop
      vertex -0.16879894 -1.8519934 1.9408729
      vertex -0.16879572 -1.8516388 1.9712309
      vertex -0.16891247 -1.8645173 1.9713814
    endloop
  endfacet
  facet normal 0.9999589110087413 -0.00906511408939642 8.708304147576497E-7
    outer loop
      vertex -0.16891247 -1.8645173 1.9713814
      vertex -0.16879572 -1.8516388 1.9712309
      vertex -0.1688885 -1.8618723 1.9808111
    endloop
  endfacet
  facet normal 0.9999588957855677 -0.009066793173792066 -9.229027608450161E-7
    outer loop
      vertex -0.16879572 -1.8516388 1.9712309
      vertex -0.16878806 -1.8507943 1.9742413
      vertex -0.1688885 -1.8618723 1.9808111
    endloop
  endfacet
  facet normal 0.999958902890445 -0.00906600959512226 3.9847659894945093E-7
    outer loop
      vertex -0.1688885 -1.8618723 1.9808111
      vertex -0.16878806 -1.8507943 1.9742413
      vertex -0.16882499 -1.854867 1.9876549
    endloop
  endfacet
  facet normal 0.9999589475206859 -0.009061085461262124 1.893688038606404E-6
    outer loop
      vertex -0.16878806 -1.8507943 1.9742413
      vertex -0.1687678 -1.848558 1.976426
      vertex -0.16882499 -1.854867 1.9876549
    endloop
  endfacet
  facet normal 0.999958902381221 -0.009066065724747349 -9.047217659417461E-7
    outer loop
      vertex -0.16882499 -1.854867 1.9876549
      vertex -0.1687678 -1.848558 1.976426
      vertex -0.16873896 -1.8453784 1.990079
    endloop
  endfacet
  facet normal 0.9999588856910316 -0.009067906446584464 -4.7600716121363644E-7
    outer loop
      vertex -0.1687678 -1.848558 1.976426
      vertex -0.16874033 -1.8455288 1.9771999
      vertex -0.16873896 -1.8453784 1.990079
    endloop
  endfacet
  facet normal 0.999958920443647 -0.009064073306466254 -5.207736344036734E-7
    outer loop
      vertex -0.16873896 -1.8453784 1.990079
      vertex -0.16874033 -1.8455288 1.9771999
      vertex -0.16865349 -1.8359491 1.9874339
    endloop
  endfacet
  facet normal 0.9999589310491973 -0.009062903085358896 -1.6162678818295438E-6
    outer loop
      vertex -0.16874033 -1.8455288 1.9771999
      vertex -0.16871305 -1.8425187 1.9763554
      vertex -0.16865349 -1.8359491 1.9874339
    endloop
  endfacet
  facet normal 0.9999589014702234 -0.009066166243922247 3.189587482632806E-7
    outer loop
      vertex -0.16865349 -1.8359491 1.9874339
      vertex -0.16871305 -1.8425187 1.9763554
      vertex -0.16859144 -1.8291055 1.9804282
    endloop
  endfacet
  facet normal 0.9999589007937338 -0.009066240845504394 5.64668876309802E-7
    outer loop
      vertex -0.16871305 -1.8425187 1.9763554
      vertex -0.16869324 -1.8403339 1.974119
      vertex -0.16859144 -1.8291055 1.9804282
    endloop
  endfacet
  facet normal 0.9999589115090465 -0.009065058812498951 -1.5391525617651115E-6
    outer loop
      vertex -0.16859144 -1.8291055 1.9804282
      vertex -0.16869324 -1.8403339 1.974119
      vertex -0.16856948 -1.8266815 1.9709393
    endloop
  endfacet
  facet normal 0.9999589107121738 -0.009065146642537759 -1.9162917392941648E-6
    outer loop
      vertex -0.16869324 -1.8403339 1.974119
      vertex -0.16868623 -1.83956 1.9710897
      vertex -0.16856948 -1.8266815 1.9709393
    endloop
  endfacet
  facet normal 0.9999589109392963 -0.009065121789117798 2.1204127638597881E-7
    outer loop
      vertex -0.16856948 -1.8266815 1.9709393
      vertex -0.16868623 -1.83956 1.9710897
      vertex -0.16868944 -1.8399148 1.9407319
    endloop
  endfacet
  facet normal -0.9999589115788029 0.009065051245585294 -2.2561747919496202E-7
    outer loop
      vertex -0.17679977 -1.852049 1.9299138
      vertex -0.17680234 -1.8523331 1.9055954
      vertex -0.17691909 -1.8652117 1.9057459
    endloop
  endfacet
  facet normal -0.9999589153272973 0.009064637745336326 -2.9804334374784584E-8
    outer loop
      vertex -0.17656915 -1.826609 1.9709393
      vertex -0.1765761 -1.8273759 1.9053037
      vertex -0.17669027 -1.8399704 1.9297726
    endloop
  endfacet
  facet normal -0.9999589179740251 0.009064345767044039 -1.801021728201531E-7
    outer loop
      vertex -0.1765761 -1.8273759 1.9053037
      vertex -0.17669284 -1.8402544 1.9054543
      vertex -0.17669027 -1.8399704 1.9297726
    endloop
  endfacet
  facet normal -0.9999589098019119 0.009065247253691221 -3.6436669376123195E-8
    outer loop
      vertex -0.17669027 -1.8399704 1.9297726
      vertex -0.17679977 -1.852049 1.9299138
      vertex -0.17679861 -1.851921 1.9408729
    endloop
  endfacet
  facet normal -0.9999589148353503 0.009064692013963937 -2.995105250325071E-8
    outer loop
      vertex -0.17679977 -1.852049 1.9299138
      vertex -0.17691909 -1.8652117 1.9057459
      vertex -0.17679861 -1.851921 1.9408729
    endloop
  endfacet
  facet normal -0.9999589104580865 0.009065174870430641 -2.126603022182448E-7
    outer loop
      vertex -0.17679861 -1.851921 1.9408729
      vertex -0.17691909 -1.8652117 1.9057459
      vertex -0.1767954 -1.8515662 1.9712309
    endloop
  endfacet
  facet normal -0.9999589192319929 0.009064206991506231 -1.0961025933588135E-8
    outer loop
      vertex -0.17691909 -1.8652117 1.9057459
      vertex -0.17691214 -1.8644449 1.9713814
      vertex -0.1767954 -1.8515662 1.9712309
    endloop
  endfacet
  facet normal -0.9999589186605291 0.009064268512200312 5.253977681712243E-6
    outer loop
      vertex -0.1767954 -1.8515662 1.9712309
      vertex -0.17691214 -1.8644449 1.9713814
      vertex -0.17678773 -1.8507218 1.9742413
    endloop
  endfacet
  facet normal -0.9999589066682975 0.009065592839440346 -1.1012679916527445E-6
    outer loop
      vertex -0.17691214 -1.8644449 1.9713814
      vertex -0.17688817 -1.8617998 1.9808111
      vertex -0.17678773 -1.8507218 1.9742413
    endloop
  endfacet
  facet normal -0.9999589247438863 0.009063597801619257 -4.465578091527562E-6
    outer loop
      vertex -0.17678773 -1.8507218 1.9742413
      vertex -0.17688817 -1.8617998 1.9808111
      vertex -0.17676747 -1.8484855 1.976426
    endloop
  endfacet
  facet normal -0.9999589104572681 0.009065174957424704 3.234688937786845E-7
    outer loop
      vertex -0.17688817 -1.8617998 1.9808111
      vertex -0.17682466 -1.8547944 1.9876549
      vertex -0.17676747 -1.8484855 1.976426
    endloop
  endfacet
  facet normal -0.9999588861159996 0.009067859410786284 1.8318392497378508E-6
    outer loop
      vertex -0.17676747 -1.8484855 1.976426
      vertex -0.17682466 -1.8547944 1.9876549
      vertex -0.17674 -1.8454564 1.9771999
    endloop
  endfacet
  facet normal -0.9999589011085444 0.009066206134123038 3.55075332926885E-7
    outer loop
      vertex -0.17682466 -1.8547944 1.9876549
      vertex -0.17673863 -1.8453058 1.990079
      vertex -0.17674 -1.8454564 1.9771999
    endloop
  endfacet
  facet normal -0.9999589395869791 0.00906196115201781 4.047175455435487E-7
    outer loop
      vertex -0.17674 -1.8454564 1.9771999
      vertex -0.17673863 -1.8453058 1.990079
      vertex -0.17671272 -1.8424461 1.9763554
    endloop
  endfacet
  facet normal -0.9999589195681877 0.009064169861308048 8.650023574134594E-7
    outer loop
      vertex -0.17673863 -1.8453058 1.990079
      vertex -0.17665316 -1.8358765 1.9874339
      vertex -0.17671272 -1.8424461 1.9763554
    endloop
  endfacet
  facet normal -0.9999588738034868 0.009069217007724902 -2.128224058233138E-6
    outer loop
      vertex -0.17671272 -1.8424461 1.9763554
      vertex -0.17665316 -1.8358765 1.9874339
      vertex -0.1766929 -1.8402613 1.974119
    endloop
  endfacet
  facet normal -0.9999589061554677 0.009065649422522465 -9.532671856045537E-7
    outer loop
      vertex -0.17665316 -1.8358765 1.9874339
      vertex -0.17659111 -1.829033 1.9804282
      vertex -0.1766929 -1.8402613 1.974119
    endloop
  endfacet
  facet normal -0.9999589315365697 0.009062848558102608 4.0317593641761605E-6
    outer loop
      vertex -0.1766929 -1.8402613 1.974119
      vertex -0.17659111 -1.829033 1.9804282
      vertex -0.1766859 -1.8394876 1.9710897
    endloop
  endfacet
  facet normal -0.9999589113904505 0.009065071894151979 1.542494630821094E-6
    outer loop
      vertex -0.17659111 -1.829033 1.9804282
      vertex -0.17656915 -1.826609 1.9709393
      vertex -0.1766859 -1.8394876 1.9710897
    endloop
  endfacet
  facet normal -0.9999589116057159 0.009065048266882801 -4.808516532226546E-7
    outer loop
      vertex -0.1766859 -1.8394876 1.9710897
      vertex -0.17656915 -1.826609 1.9709393
      vertex -0.1766891 -1.8398422 1.9407319
    endloop
  endfacet
  facet normal -0.9999589369800402 0.009062248793317101 7.45637128990608E-7
    outer loop
      vertex -0.17656915 -1.826609 1.9709393
      vertex -0.17669027 -1.8399704 1.9297726
      vertex -0.1766891 -1.8398422 1.9407319
    endloop
  endfacet
  facet normal -0.9999589035794108 0.00906593358509538 7.02529504898184E-7
    outer loop
      vertex -0.1766891 -1.8398422 1.9407319
      vertex -0.17669027 -1.8399704 1.9297726
      vertex -0.17679861 -1.851921 1.9408729
    endloop
  endfacet
  facet normal 1.0563401570286593E-4 0.011671785447469189 0.9999318768125772
    outer loop
      vertex -0.16879894 -1.8519934 1.9408729
      vertex -0.16868944 -1.8399148 1.9407319
      vertex -0.17679861 -1.851921 1.9408729
    endloop
  endfacet
  facet normal 1.0592417644453827E-4 0.01167158949499405 0.999931879069134
    outer loop
      vertex -0.16868944 -1.8399148 1.9407319
      vertex -0.1766891 -1.8398422 1.9407319
      vertex -0.17679861 -1.851921 1.9408729
    endloop
  endfacet
  facet normal -0.009074392214471509 -0.9998905292347221 0.011686956517648726
    outer loop
      vertex -0.16868944 -1.8399148 1.9407319
      vertex -0.16868623 -1.83956 1.9710897
      vertex -0.1766891 -1.8398422 1.9407319
    endloop
  endfacet
  facet normal -0.009049385324596652 -0.9998908328664741 0.011680367067692128
    outer loop
      vertex -0.16868623 -1.83956 1.9710897
      vertex -0.1766859 -1.8394876 1.9710897
      vertex -0.1766891 -1.8398422 1.9407319
    endloop
  endfacet
  facet normal 0.008737664167851307 0.9627894943567153 -0.2701111674500526
    outer loop
      vertex -0.16879572 -1.8516388 1.9712309
      vertex -0.1767954 -1.8515662 1.9712309
      vertex -0.16878806 -1.8507943 1.9742413
    endloop
  endfacet
  facet normal 0.008725716020112443 0.9627979127543469 -0.2700815452336749
    outer loop
      vertex -0.1767954 -1.8515662 1.9712309
      vertex -0.17678773 -1.8507218 1.9742413
      vertex -0.16878806 -1.8507943 1.9742413
    endloop
  endfacet
  facet normal 0.0063327988444980875 0.6987627714816842 -0.7153254398174518
    outer loop
      vertex -0.16878806 -1.8507943 1.9742413
      vertex -0.17678773 -1.8507218 1.9742413
      vertex -0.1687678 -1.848558 1.976426
    endloop
  endfacet
  facet normal 0.006332798844498105 0.6987627714816842 -0.7153254398174519
    outer loop
      vertex -0.17678773 -1.8507218 1.9742413
      vertex -0.17676747 -1.8484855 1.976426
      vertex -0.1687678 -1.848558 1.976426
    endloop
  endfacet
  facet normal 0.002243150340281499 0.24750982734702853 -0.9688827863282509
    outer loop
      vertex -0.1687678 -1.848558 1.976426
      vertex -0.17676747 -1.8484855 1.976426
      vertex -0.16874033 -1.8455288 1.9771999
    endloop
  endfacet
  facet normal 0.002240126008319912 0.2475175252065726 -0.968880826805382
    outer loop
      vertex -0.17676747 -1.8484855 1.976426
      vertex -0.17674 -1.8454564 1.9771999
      vertex -0.16874033 -1.8455288 1.9771999
    endloop
  endfacet
  facet normal -0.0024445463587436573 -0.27010447748105454 -0.9628279157968918
    outer loop
      vertex -0.16874033 -1.8455288 1.9771999
      vertex -0.17674 -1.8454564 1.9771999
      vertex -0.16871305 -1.8425187 1.9763554
    endloop
  endfacet
  facet normal -0.0024511477271373728 -0.27008778152003954 -0.9628325826167305
    outer loop
      vertex -0.17674 -1.8454564 1.9771999
      vertex -0.17671272 -1.8424461 1.9763554
      vertex -0.16871305 -1.8425187 1.9763554
    endloop
  endfacet
  facet normal -0.0064913150945002445 -0.7152669231685433 -0.6988212156548692
    outer loop
      vertex -0.16871305 -1.8425187 1.9763554
      vertex -0.17671272 -1.8424461 1.9763554
      vertex -0.16869324 -1.8403339 1.974119
    endloop
  endfacet
  facet normal -0.0064913230766521154 -0.7152669085865916 -0.6988212305058391
    outer loop
      vertex -0.17671272 -1.8424461 1.9763554
      vertex -0.1766929 -1.8402613 1.974119
      vertex -0.16869324 -1.8403339 1.974119
    endloop
  endfacet
  facet normal -0.008792596438197455 -0.9688399727660044 -0.24753140693383327
    outer loop
      vertex -0.16869324 -1.8403339 1.974119
      vertex -0.1766929 -1.8402613 1.974119
      vertex -0.16868623 -1.83956 1.9710897
    endloop
  endfacet
  facet normal -0.008768504315878466 -0.9688555375762812 -0.24747133296573484
    outer loop
      vertex -0.1766929 -1.8402613 1.974119
      vertex -0.1766859 -1.8394876 1.9710897
      vertex -0.16868623 -1.83956 1.9710897
    endloop
  endfacet
  facet normal 0.008780507415950283 0.968843610483002 0.24751759758809003
    outer loop
      vertex -0.16856948 -1.8266815 1.9709393
      vertex -0.17656915 -1.826609 1.9709393
      vertex -0.17659111 -1.829033 1.9804282
    endloop
  endfacet
  facet normal 0.00878050741595031 0.968843610483002 0.24751759758809008
    outer loop
      vertex -0.16856948 -1.8266815 1.9709393
      vertex -0.17659111 -1.829033 1.9804282
      vertex -0.16859144 -1.8291055 1.9804282
    endloop
  endfacet
  facet normal 0.006482633157371613 0.7152955308955777 0.6987920140844203
    outer loop
      vertex -0.17659111 -1.829033 1.9804282
      vertex -0.17665316 -1.8358765 1.9874339
      vertex -0.16859144 -1.8291055 1.9804282
    endloop
  endfacet
  facet normal 0.006491527668605228 0.7152903463460992 0.6987972384695043
    outer loop
      vertex -0.16859144 -1.8291055 1.9804282
      vertex -0.17665316 -1.8358765 1.9874339
      vertex -0.16865349 -1.8359491 1.9874339
    endloop
  endfacet
  facet normal 0.0024510051976993005 0.270072076444698 0.9628369883310312
    outer loop
      vertex -0.17665316 -1.8358765 1.9874339
      vertex -0.17673863 -1.8453058 1.990079
      vertex -0.16865349 -1.8359491 1.9874339
    endloop
  endfacet
  facet normal 0.002451005197699263 0.270072076444698 0.9628369883310312
    outer loop
      vertex -0.16865349 -1.8359491 1.9874339
      vertex -0.17673863 -1.8453058 1.990079
      vertex -0.16873896 -1.8453784 1.990079
    endloop
  endfacet
  facet normal -0.00224620282093731 -0.2475052523494902 0.9688839479691582
    outer loop
      vertex -0.17673863 -1.8453058 1.990079
      vertex -0.17682466 -1.8547944 1.9876549
      vertex -0.16873896 -1.8453784 1.990079
    endloop
  endfacet
  facet normal -0.002246202820937325 -0.2475052523494902 0.9688839479691582
    outer loop
      vertex -0.16873896 -1.8453784 1.990079
      vertex -0.17682466 -1.8547944 1.9876549
      vertex -0.16882499 -1.854867 1.9876549
    endloop
  endfacet
  facet normal -0.006341552461242127 -0.6987648344027538 0.7153233471056802
    outer loop
      vertex -0.17682466 -1.8547944 1.9876549
      vertex -0.17688817 -1.8617998 1.9808111
      vertex -0.16882499 -1.854867 1.9876549
    endloop
  endfacet
  facet normal -0.0063328645107068844 -0.6987700171092736 0.7153183613022909
    outer loop
      vertex -0.16882499 -1.854867 1.9876549
      vertex -0.17688817 -1.8617998 1.9808111
      vertex -0.1688885 -1.8618723 1.9808111
    endloop
  endfacet
  facet normal -0.008725686537376168 -0.9627946596210939 0.27009314282216346
    outer loop
      vertex -0.17688817 -1.8617998 1.9808111
      vertex -0.17691214 -1.8644449 1.9713814
      vertex -0.1688885 -1.8618723 1.9808111
    endloop
  endfacet
  facet normal -0.00871367612353412 -0.962797423691784 0.2700836773684733
    outer loop
      vertex -0.1688885 -1.8618723 1.9808111
      vertex -0.17691214 -1.8644449 1.9713814
      vertex -0.16891247 -1.8645173 1.9713814
    endloop
  endfacet
  facet normal 0.009061883076903313 0.9998906785333709 -0.011683888786507621
    outer loop
      vertex -0.16856948 -1.8266815 1.9709393
      vertex -0.16857642 -1.8274484 1.9053037
      vertex -0.17656915 -1.826609 1.9709393
    endloop
  endfacet
  facet normal 0.009061871749852774 0.9998906786198959 -0.011683890166957952
    outer loop
      vertex -0.16857642 -1.8274484 1.9053037
      vertex -0.1765761 -1.8273759 1.9053037
      vertex -0.17656915 -1.826609 1.9709393
    endloop
  endfacet
  facet normal -1.059643336665429E-4 -0.011692148424089764 -0.9999316388817733
    outer loop
      vertex -0.16857642 -1.8274484 1.9053037
      vertex -0.16869317 -1.8403269 1.9054543
      vertex -0.1765761 -1.8273759 1.9053037
    endloop
  endfacet
  facet normal -1.0596446686207353E-4 -0.011692148505151165 -0.9999316388808114
    outer loop
      vertex -0.16869317 -1.8403269 1.9054543
      vertex -0.17669284 -1.8402544 1.9054543
      vertex -0.1765761 -1.8273759 1.9053037
    endloop
  endfacet
  facet normal -0.009061883250978918 -0.9998906977439798 0.011682244519060189
    outer loop
      vertex -0.16869317 -1.8403269 1.9054543
      vertex -0.16869059 -1.8400428 1.9297726
      vertex -0.17669284 -1.8402544 1.9054543
    endloop
  endfacet
  facet normal -0.009049374249841048 -0.9998908591006218 0.011678129675041896
    outer loop
      vertex -0.16869059 -1.8400428 1.9297726
      vertex -0.17669027 -1.8399704 1.9297726
      vertex -0.17669284 -1.8402544 1.9054543
    endloop
  endfacet
  facet normal -1.0578282211663482E-4 -0.01168824207774898 -0.9999316845700643
    outer loop
      vertex -0.16869059 -1.8400428 1.9297726
      vertex -0.1688001 -1.8521215 1.9299138
      vertex -0.17669027 -1.8399704 1.9297726
    endloop
  endfacet
  facet normal -1.0592992898860708E-4 -0.011688337586665183 -0.9999316834380788
    outer loop
      vertex -0.1688001 -1.8521215 1.9299138
      vertex -0.17679977 -1.852049 1.9299138
      vertex -0.17669027 -1.8399704 1.9297726
    endloop
  endfacet
  facet normal 0.009061882820716098 0.9998906502686615 -0.011686307588661175
    outer loop
      vertex -0.1688001 -1.8521215 1.9299138
      vertex -0.16880268 -1.8524057 1.9055954
      vertex -0.17679977 -1.852049 1.9299138
    endloop
  endfacet
  facet normal 0.009074392719643928 0.9998905848987386 -0.011682192757707321
    outer loop
      vertex -0.16880268 -1.8524057 1.9055954
      vertex -0.17680234 -1.8523331 1.9055954
      vertex -0.17679977 -1.852049 1.9299138
    endloop
  endfacet
endsolid grep4CCC00u2_1
