solid grep4CCC00u2_17
  facet normal 1.0585666362754529E-4 0.011689212339651237 0.9999316732203483
    outer loop
      vertex -0.166205 -1.4761734 1.9874618
      vertex -0.166089 -1.4633772 1.9873122
      vertex -0.17520463 -1.4760919 1.9874618
    endloop
  endfacet
  facet normal 1.0585666362754529E-4 0.011689212339651237 0.9999316732203483
    outer loop
      vertex -0.166089 -1.4633772 1.9873122
      vertex -0.17508863 -1.4632957 1.9873122
      vertex -0.17520463 -1.4760919 1.9874618
    endloop
  endfacet
  facet normal -0.009066047804048223 -0.999890634787014 0.011684401672190751
    outer loop
      vertex -0.16598365 -1.4517561 1.9409559
      vertex -0.16597876 -1.4512161 1.9871701
      vertex -0.17498328 -1.4516745 1.9409559
    endloop
  endfacet
  facet normal -0.00905493859184934 -0.9998907607303013 0.01168223836759982
    outer loop
      vertex -0.16597876 -1.4512161 1.9871701
      vertex -0.17497839 -1.4511346 1.9871701
      vertex -0.17498328 -1.4516745 1.9409559
    endloop
  endfacet
  facet normal -0.9999589115650553 0.009065052764372807 -9.570456594419626E-8
    outer loop
      vertex -0.17497839 -1.4511346 1.9871701
      vertex -0.17486164 -1.438256 1.9870197
      vertex -0.17498328 -1.4516745 1.9409559
    endloop
  endfacet
  facet normal -0.9999589116764656 0.009065040474827122 -9.212429638964737E-8
    outer loop
      vertex -0.17486164 -1.438256 1.9870197
      vertex -0.17487052 -1.4392364 1.9031054
      vertex -0.17498328 -1.4516745 1.9409559
    endloop
  endfacet
  facet normal -0.9999589049040111 0.009065787508404312 1.5337951461504343E-7
    outer loop
      vertex -0.17498328 -1.4516745 1.9409559
      vertex -0.17487052 -1.4392364 1.9031054
      vertex -0.1749847 -1.4518309 1.9275742
    endloop
  endfacet
  facet normal -0.9999589109368795 0.009065122056218785 -1.89167990106931E-7
    outer loop
      vertex -0.17487052 -1.4392364 1.9031054
      vertex -0.17498727 -1.4521149 1.9032558
      vertex -0.1749847 -1.4518309 1.9275742
    endloop
  endfacet
  facet normal -0.9999589059509431 0.009065490121072906 5.743046094950085E-5
    outer loop
      vertex -0.17520463 -1.4760919 1.9874618
      vertex -0.17508863 -1.4632957 1.9873122
      vertex -0.17520534 -1.4761696 1.9873646
    endloop
  endfacet
  facet normal -0.9999589097162253 0.009065256705277901 7.5288251373721E-8
    outer loop
      vertex -0.17508863 -1.4632957 1.9873122
      vertex -0.17498328 -1.4516745 1.9409559
      vertex -0.17520534 -1.4761696 1.9873646
    endloop
  endfacet
  facet normal -0.9999589050493171 0.009065771475752828 3.4701296234404703E-7
    outer loop
      vertex -0.17520534 -1.4761696 1.9873646
      vertex -0.17498328 -1.4516745 1.9409559
      vertex -0.17510039 -1.4645917 1.9386388
    endloop
  endfacet
  facet normal -0.9999589047341298 0.009065806246340916 1.531604950199255E-7
    outer loop
      vertex -0.17498328 -1.4516745 1.9409559
      vertex -0.1749847 -1.4518309 1.9275742
      vertex -0.17510039 -1.4645917 1.9386388
    endloop
  endfacet
  facet normal -0.9999589108959355 0.009065126572517417 1.9745559078756275E-7
    outer loop
      vertex -0.17509678 -1.4641937 1.903397
      vertex -0.17521353 -1.4770722 1.9035475
      vertex -0.17509484 -1.4639801 1.9216758
    endloop
  endfacet
  facet normal -0.999958912688199 0.009064928864542474 3.4025029864694345E-7
    outer loop
      vertex -0.17521353 -1.4770722 1.9035475
      vertex -0.17521118 -1.4768138 1.925666
      vertex -0.17509484 -1.4639801 1.9216758
    endloop
  endfacet
  facet normal -0.999958917014991 0.009064451487980721 -1.1952644523785875E-6
    outer loop
      vertex -0.17509484 -1.4639801 1.9216758
      vertex -0.17521118 -1.4768138 1.925666
      vertex -0.17509043 -1.4634933 1.9239817
    endloop
  endfacet
  facet normal -0.9999589147873097 0.009064697282611146 7.487932375006227E-7
    outer loop
      vertex -0.17521118 -1.4768138 1.925666
      vertex -0.17519614 -1.4751552 1.9319096
      vertex -0.17509043 -1.4634933 1.9239817
    endloop
  endfacet
  facet normal -0.9999589064133891 0.00906562077841584 2.1073624590973247E-6
    outer loop
      vertex -0.17509043 -1.4634933 1.9239817
      vertex -0.17519614 -1.4751552 1.9319096
      vertex -0.17507835 -1.4621613 1.9259257
    endloop
  endfacet
  facet normal -0.9999589134447732 0.009064845402398398 4.23513019808269E-7
    outer loop
      vertex -0.17519614 -1.4751552 1.9319096
      vertex -0.17515598 -1.4707253 1.9366115
      vertex -0.17507835 -1.4621613 1.9259257
    endloop
  endfacet
  facet normal -0.9999589156282079 0.009064604547666067 2.3046716196757825E-7
    outer loop
      vertex -0.17507835 -1.4621613 1.9259257
      vertex -0.17515598 -1.4707253 1.9366115
      vertex -0.17506045 -1.4601867 1.927212
    endloop
  endfacet
  facet normal -0.9999589279286129 0.009063247441854095 -1.2912276481511636E-6
    outer loop
      vertex -0.17515598 -1.4707253 1.9366115
      vertex -0.17510039 -1.4645917 1.9386388
      vertex -0.17506045 -1.4601867 1.927212
    endloop
  endfacet
  facet normal -0.9999589473260952 0.009061106886478251 -2.1164736633121607E-6
    outer loop
      vertex -0.17506045 -1.4601867 1.927212
      vertex -0.17510039 -1.4645917 1.9386388
      vertex -0.17503946 -1.4578702 1.9276447
    endloop
  endfacet
  facet normal -0.9999588946342731 0.00906692007991264 1.4378500359422328E-6
    outer loop
      vertex -0.17510039 -1.4645917 1.9386388
      vertex -0.1749847 -1.4518309 1.9275742
      vertex -0.17503946 -1.4578702 1.9276447
    endloop
  endfacet
  facet normal 0.008783729250520476 0.9699424941692768 0.2431756651170836
    outer loop
      vertex -0.166089 -1.4633772 1.9873122
      vertex -0.16598365 -1.4517561 1.9409559
      vertex -0.17508863 -1.4632957 1.9873122
    endloop
  endfacet
  facet normal 0.008794501472218842 0.9699419029939027 0.2431776337585794
    outer loop
      vertex -0.16598365 -1.4517561 1.9409559
      vertex -0.17498328 -1.4516745 1.9409559
      vertex -0.17508863 -1.4632957 1.9873122
    endloop
  endfacet
  facet normal -0.007073211268243565 -0.7810595712648162 0.6244164602394595
    outer loop
      vertex -0.1662057 -1.4762511 1.9873646
      vertex -0.166205 -1.4761734 1.9874618
      vertex -0.17520534 -1.4761696 1.9873646
    endloop
  endfacet
  facet normal -0.007073215913073824 -0.7810592162910898 0.6244169042101566
    outer loop
      vertex -0.166205 -1.4761734 1.9874618
      vertex -0.17520463 -1.4760919 1.9874618
      vertex -0.17520534 -1.4761696 1.9873646
    endloop
  endfacet
  facet normal -0.008821051354901169 -0.972870078492484 -0.23118390823546153
    outer loop
      vertex -0.16610076 -1.4646733 1.9386388
      vertex -0.1662057 -1.4762511 1.9873646
      vertex -0.17510039 -1.4645917 1.9386388
    endloop
  endfacet
  facet normal -0.008810228270827116 -0.9728697270576752 -0.23118579985055407
    outer loop
      vertex -0.1662057 -1.4762511 1.9873646
      vertex -0.17520534 -1.4761696 1.9873646
      vertex -0.17510039 -1.4645917 1.9386388
    endloop
  endfacet
  facet normal -0.0028452486613166463 -0.31380128933585305 0.9494844155494137
    outer loop
      vertex -0.16610076 -1.4646733 1.9386388
      vertex -0.17510039 -1.4645917 1.9386388
      vertex -0.17515598 -1.4707253 1.9366115
    endloop
  endfacet
  facet normal -0.002848693331884381 -0.313796645904999 0.9494859398459113
    outer loop
      vertex -0.16610076 -1.4646733 1.9386388
      vertex -0.17515598 -1.4707253 1.9366115
      vertex -0.16615635 -1.470807 1.9366115
    endloop
  endfacet
  facet normal -0.006607094836069719 -0.7278018225161003 0.6857556805744084
    outer loop
      vertex -0.17515598 -1.4707253 1.9366115
      vertex -0.17519614 -1.4751552 1.9319096
      vertex -0.16615635 -1.470807 1.9366115
    endloop
  endfacet
  facet normal -0.006599078528698593 -0.7278096213149736 0.6857474806981989
    outer loop
      vertex -0.16615635 -1.470807 1.9366115
      vertex -0.17519614 -1.4751552 1.9319096
      vertex -0.16619651 -1.4752368 1.9319096
    endloop
  endfacet
  facet normal -0.00876272474711876 -0.9664372612255552 0.2567532565905528
    outer loop
      vertex -0.17519614 -1.4751552 1.9319096
      vertex -0.17521118 -1.4768138 1.925666
      vertex -0.16619651 -1.4752368 1.9319096
    endloop
  endfacet
  facet normal -0.008773427627314614 -0.9664333228598009 0.25676771493673467
    outer loop
      vertex -0.16619651 -1.4752368 1.9319096
      vertex -0.17521118 -1.4768138 1.925666
      vertex -0.16621155 -1.4768955 1.925666
    endloop
  endfacet
  facet normal -0.00907715747376076 -0.9998905595547032 0.011682214070081593
    outer loop
      vertex -0.1662139 -1.4771539 1.9035475
      vertex -0.16621155 -1.4768955 1.925666
      vertex -0.17521353 -1.4770722 1.9035475
    endloop
  endfacet
  facet normal -0.009077157473760786 -0.9998905595547032 0.011682214070081602
    outer loop
      vertex -0.16621155 -1.4768955 1.925666
      vertex -0.17521118 -1.4768138 1.925666
      vertex -0.17521353 -1.4770722 1.9035475
    endloop
  endfacet
  facet normal -1.0581131838089673E-4 -0.01168420509496295 -0.9999317317473547
    outer loop
      vertex -0.16609715 -1.4642752 1.903397
      vertex -0.1662139 -1.4771539 1.9035475
      vertex -0.17509678 -1.4641937 1.903397
    endloop
  endfacet
  facet normal -1.0607260358633782E-4 -0.011684384154396012 -0.9999317296273458
    outer loop
      vertex -0.1662139 -1.4771539 1.9035475
      vertex -0.17521353 -1.4770722 1.9035475
      vertex -0.17509678 -1.4641937 1.903397
    endloop
  endfacet
  facet normal 0.009066048282663629 0.9998906875733105 -0.011679883248936384
    outer loop
      vertex -0.16609521 -1.4640617 1.9216758
      vertex -0.16609715 -1.4642752 1.903397
      vertex -0.17509484 -1.4639801 1.9216758
    endloop
  endfacet
  facet normal 0.009054938262342835 0.9998907243418516 -0.011685352720079822
    outer loop
      vertex -0.16609715 -1.4642752 1.903397
      vertex -0.17509678 -1.4641937 1.903397
      vertex -0.17509484 -1.4639801 1.9216758
    endloop
  endfacet
  facet normal 0.008871200658877752 0.9784010243325094 -0.20652539162041658
    outer loop
      vertex -0.16609521 -1.4640617 1.9216758
      vertex -0.17509484 -1.4639801 1.9216758
      vertex -0.1660908 -1.463575 1.9239817
    endloop
  endfacet
  facet normal 0.008881993492978435 0.9783923512760121 -0.20656601161901536
    outer loop
      vertex -0.17509484 -1.4639801 1.9216758
      vertex -0.17509043 -1.4634933 1.9239817
      vertex -0.1660908 -1.463575 1.9239817
    endloop
  endfacet
  facet normal 0.007488453676178184 0.8248875441588049 -0.5652472578909121
    outer loop
      vertex -0.1660908 -1.463575 1.9239817
      vertex -0.17509043 -1.4634933 1.9239817
      vertex -0.16607872 -1.462243 1.9259257
    endloop
  endfacet
  facet normal 0.007488453676178185 0.824887544158805 -0.5652472578909121
    outer loop
      vertex -0.17509043 -1.4634933 1.9239817
      vertex -0.17507835 -1.4621613 1.9259257
      vertex -0.16607872 -1.462243 1.9259257
    endloop
  endfacet
  facet normal 0.004954746598002482 0.5457880798751717 -0.8379086002377125
    outer loop
      vertex -0.16607872 -1.462243 1.9259257
      vertex -0.17507835 -1.4621613 1.9259257
      vertex -0.16606082 -1.4602684 1.927212
    endloop
  endfacet
  facet normal 0.004954746598002469 0.5457880798751719 -0.8379086002377124
    outer loop
      vertex -0.17507835 -1.4621613 1.9259257
      vertex -0.17506045 -1.4601867 1.927212
      vertex -0.16606082 -1.4602684 1.927212
    endloop
  endfacet
  facet normal 0.001666677247439323 0.183592148792892 -0.9830010910922539
    outer loop
      vertex -0.16606082 -1.4602684 1.927212
      vertex -0.17506045 -1.4601867 1.927212
      vertex -0.16603982 -1.4579518 1.9276447
    endloop
  endfacet
  facet normal 0.001664705063680669 0.18359983185392192 -0.9829996594609088
    outer loop
      vertex -0.17506045 -1.4601867 1.927212
      vertex -0.17503946 -1.4578702 1.9276447
      vertex -0.16603982 -1.4579518 1.9276447
    endloop
  endfacet
  facet normal -1.0569721087582615E-4 -0.011671591815233272 -0.9999318790660683
    outer loop
      vertex -0.16598508 -1.4519124 1.9275742
      vertex -0.16603982 -1.4579518 1.9276447
      vertex -0.1749847 -1.4518309 1.9275742
    endloop
  endfacet
  facet normal -1.0582840362726393E-4 -0.011671783510031852 -0.9999318768146378
    outer loop
      vertex -0.16603982 -1.4579518 1.9276447
      vertex -0.17503946 -1.4578702 1.9276447
      vertex -0.1749847 -1.4518309 1.9275742
    endloop
  endfacet
  facet normal -0.009077157040335179 -0.9998905118108861 0.01168630012576986
    outer loop
      vertex -0.16598764 -1.4521966 1.9032558
      vertex -0.16598508 -1.4519124 1.9275742
      vertex -0.17498727 -1.4521149 1.9032558
    endloop
  endfacet
  facet normal -0.0090549490922036 -0.9998908091915291 0.011678081659546325
    outer loop
      vertex -0.16598508 -1.4519124 1.9275742
      vertex -0.1749847 -1.4518309 1.9275742
      vertex -0.17498727 -1.4521149 1.9032558
    endloop
  endfacet
  facet normal -1.0587157625529926E-4 -0.01167653203202216 -0.9999318213712945
    outer loop
      vertex -0.16587089 -1.439318 1.9031054
      vertex -0.16598764 -1.4521966 1.9032558
      vertex -0.17487052 -1.4392364 1.9031054
    endloop
  endfacet
  facet normal -1.0600213306451735E-4 -0.011676621502960375 -0.9999318203126774
    outer loop
      vertex -0.16598764 -1.4521966 1.9032558
      vertex -0.17498727 -1.4521149 1.9032558
      vertex -0.17487052 -1.4392364 1.9031054
    endloop
  endfacet
  facet normal 0.009066047949342092 0.9998906508114171 -0.011683030193438974
    outer loop
      vertex -0.16586201 -1.4383376 1.9870197
      vertex -0.16587089 -1.439318 1.9031054
      vertex -0.17486164 -1.438256 1.9870197
    endloop
  endfacet
  facet normal 0.009066047949342092 0.9998906508114171 -0.011683030193438974
    outer loop
      vertex -0.16587089 -1.439318 1.9031054
      vertex -0.17487052 -1.4392364 1.9031054
      vertex -0.17486164 -1.438256 1.9870197
    endloop
  endfacet
  facet normal 1.0574266322011735E-4 0.011676623855183664 0.999931820312682
    outer loop
      vertex -0.16597876 -1.4512161 1.9871701
      vertex -0.16586201 -1.4383376 1.9870197
      vertex -0.17497839 -1.4511346 1.9871701
    endloop
  endfacet
  facet normal 1.0587157625529744E-4 0.01167653203202196 0.9999318213712945
    outer loop
      vertex -0.16586201 -1.4383376 1.9870197
      vertex -0.17486164 -1.438256 1.9870197
      vertex -0.17497839 -1.4511346 1.9871701
    endloop
  endfacet
  facet normal 0.9999589109267222 -0.009065123178154685 9.309062751634166E-8
    outer loop
      vertex -0.16587089 -1.439318 1.9031054
      vertex -0.16586201 -1.4383376 1.9870197
      vertex -0.16597876 -1.4512161 1.9871701
    endloop
  endfacet
  facet normal 0.9999589122905096 -0.009064972739496913 1.1438471773240608E-7
    outer loop
      vertex -0.16597876 -1.4512161 1.9871701
      vertex -0.16598365 -1.4517561 1.9409559
      vertex -0.16587089 -1.439318 1.9031054
    endloop
  endfacet
  facet normal 0.9999588831888234 -0.00906818233587612 -9.404114469244519E-7
    outer loop
      vertex -0.16598365 -1.4517561 1.9409559
      vertex -0.16598508 -1.4519124 1.9275742
      vertex -0.16587089 -1.439318 1.9031054
    endloop
  endfacet
  facet normal 0.999958911626054 -0.009065046011107874 6.740271813920533E-7
    outer loop
      vertex -0.16587089 -1.439318 1.9031054
      vertex -0.16598508 -1.4519124 1.9275742
      vertex -0.16598764 -1.4521966 1.9032558
    endloop
  endfacet
  facet normal 0.999958926335032 -0.009063423210835272 1.609759708271407E-6
    outer loop
      vertex -0.16603982 -1.4579518 1.9276447
      vertex -0.16598508 -1.4519124 1.9275742
      vertex -0.16610076 -1.4646733 1.9386388
    endloop
  endfacet
  facet normal 0.999958906061779 -0.009065659754794682 -9.698779669746263E-7
    outer loop
      vertex -0.16598508 -1.4519124 1.9275742
      vertex -0.16598365 -1.4517561 1.9409559
      vertex -0.16610076 -1.4646733 1.9386388
    endloop
  endfacet
  facet normal 0.9999589053403 -0.00906573937152439 -5.259999671266979E-7
    outer loop
      vertex -0.16610076 -1.4646733 1.9386388
      vertex -0.16598365 -1.4517561 1.9409559
      vertex -0.1662057 -1.4762511 1.9873646
    endloop
  endfacet
  facet normal 0.9999589167648293 -0.009064479162652827 1.3920619304883888E-7
    outer loop
      vertex -0.16598365 -1.4517561 1.9409559
      vertex -0.166089 -1.4633772 1.9873122
      vertex -0.1662057 -1.4762511 1.9873646
    endloop
  endfacet
  facet normal 0.9999589174113991 -0.009064298635688754 4.449343400762922E-5
    outer loop
      vertex -0.1662057 -1.4762511 1.9873646
      vertex -0.166089 -1.4633772 1.9873122
      vertex -0.166205 -1.4761734 1.9874618
    endloop
  endfacet
  facet normal 0.9999589121569432 -0.009064987467597423 -3.3956560910636523E-7
    outer loop
      vertex -0.1662139 -1.4771539 1.9035475
      vertex -0.16609715 -1.4642752 1.903397
      vertex -0.16621155 -1.4768955 1.925666
    endloop
  endfacet
  facet normal 0.9999589135813951 -0.009064830337823819 -2.5050961920605355E-7
    outer loop
      vertex -0.16609715 -1.4642752 1.903397
      vertex -0.16609521 -1.4640617 1.9216758
      vertex -0.16621155 -1.4768955 1.925666
    endloop
  endfacet
  facet normal 0.9999589127540984 -0.009064921585192245 -5.440153894953145E-7
    outer loop
      vertex -0.16621155 -1.4768955 1.925666
      vertex -0.16609521 -1.4640617 1.9216758
      vertex -0.16619651 -1.4752368 1.9319096
    endloop
  endfacet
  facet normal 0.9999589228083104 -0.009063812420731773 6.672690067119093E-7
    outer loop
      vertex -0.16609521 -1.4640617 1.9216758
      vertex -0.1660908 -1.463575 1.9239817
      vertex -0.16619651 -1.4752368 1.9319096
    endloop
  endfacet
  facet normal 0.9999589143312893 -0.00906474759094278 -7.08462785138933E-7
    outer loop
      vertex -0.16619651 -1.4752368 1.9319096
      vertex -0.1660908 -1.463575 1.9239817
      vertex -0.16615635 -1.470807 1.9366115
    endloop
  endfacet
  facet normal 0.9999588999357604 -0.009066335348264475 -1.6177095331015276E-6
    outer loop
      vertex -0.1660908 -1.463575 1.9239817
      vertex -0.16607872 -1.462243 1.9259257
      vertex -0.16615635 -1.470807 1.9366115
    endloop
  endfacet
  facet normal 0.9999589300152868 -0.009063017245801785 1.041760470465031E-6
    outer loop
      vertex -0.16615635 -1.470807 1.9366115
      vertex -0.16607872 -1.462243 1.9259257
      vertex -0.16610076 -1.4646733 1.9386388
    endloop
  endfacet
  facet normal 0.9999589105411054 -0.009065165693330518 6.310186970149608E-7
    outer loop
      vertex -0.16607872 -1.462243 1.9259257
      vertex -0.16606082 -1.4602684 1.927212
      vertex -0.16610076 -1.4646733 1.9386388
    endloop
  endfacet
  facet normal 0.9999589140183628 -0.009064782104941604 7.788997639784025E-7
    outer loop
      vertex -0.16610076 -1.4646733 1.9386388
      vertex -0.16606082 -1.4602684 1.927212
      vertex -0.16603982 -1.4579518 1.9276447
    endloop
  endfacet
endsolid grep4CCC00u2_17
