solid grep4CCC00u2_10
  facet normal -0.7073485788861775 0.6827790375389925 0.18295019498495282
    outer loop
      vertex -0.21301867 0.6009458 0.17089356
      vertex -0.255 0.5891554 0.0525816
      vertex -0.255 0.54774433 0.20712973
    endloop
  endfacet
  facet normal -0.11006140375734995 0.3353921533175136 -0.9356273782313144
    outer loop
      vertex -0.165 0.5917436 0.042922344
      vertex -0.165 0.47200495 -8.921775E-8
      vertex -0.255 0.5891554 0.0525816
    endloop
  endfacet
  facet normal -0.14610559122681008 0.30948959110292584 -0.939611275587521
    outer loop
      vertex -0.25945547 0.42741415 0.0
      vertex -0.255 0.5891554 0.0525816
      vertex -0.165 0.47200495 -8.921775E-8
    endloop
  endfacet
  facet normal -3.0841712850426743E-6 4.532304831726512E-6 -0.9999999999849731
    outer loop
      vertex -0.25945547 0.42741415 0.0
      vertex -0.165 0.47200495 -8.921775E-8
      vertex -0.30639815 0.3954703 0.0
    endloop
  endfacet
  facet normal -0.20927182184634177 0.307532754065331 -0.928239683356678
    outer loop
      vertex -0.25945547 0.42741415 0.0
      vertex -0.30639815 0.3954703 0.0
      vertex -0.255 0.5891554 0.0525816
    endloop
  endfacet
  facet normal 2.6762846760389036E-7 0.0 -0.9999999999999643
    outer loop
      vertex 0.165 0.3954703 -8.921775E-8
      vertex 0.165 0.47200495 -8.921775E-8
      vertex 0.4983642 -0.04041176 0.0
    endloop
  endfacet
  facet normal 1.8498864121700646E-7 -6.320324266523823E-8 -0.9999999999999809
    outer loop
      vertex 0.165 0.3954703 -8.921775E-8
      vertex 0.4983642 -0.04041176 0.0
      vertex 0.41890413 -0.27298227 0.0
    endloop
  endfacet
  facet normal 2.649948093446234E-8 -1.0451509598273197E-7 -0.9999999999999942
    outer loop
      vertex 0.165 0.3954703 -8.921775E-8
      vertex 0.23823188 -0.43959704 0.0
      vertex 9.184851E-17 -0.5 0.0
    endloop
  endfacet
  facet normal -1.3761539276663347E-6 1.3767341914730458E-6 -0.9999999999981054
    outer loop
      vertex -0.3937573 0.30814797 0.0
      vertex -0.30639815 0.3954703 0.0
      vertex -0.165 0.47200495 -8.921775E-8
    endloop
  endfacet
  facet normal -6.839590732856719E-7 4.10375443971693E-7 -0.9999999999996819
    outer loop
      vertex -0.3937573 0.30814797 0.0
      vertex -0.165 0.47200495 -8.921775E-8
      vertex -0.39377302 0.30812177 0.0
    endloop
  endfacet
  facet normal -0.7710099027566596 0.4626059416543225 -0.4376522279130817
    outer loop
      vertex -0.3937573 0.30814797 0.0
      vertex -0.39377302 0.30812177 0.0
      vertex -0.255 0.5891554 0.0525816
    endloop
  endfacet
  facet normal -0.32735363608376944 0.32749166676710784 -0.8863344770123955
    outer loop
      vertex -0.3937573 0.30814797 0.0
      vertex -0.255 0.5891554 0.0525816
      vertex -0.30639815 0.3954703 0.0
    endloop
  endfacet
  facet normal -3.6153591369140514E-7 6.109359829231622E-8 -0.9999999999999328
    outer loop
      vertex -0.49153528 5.551115E-17 0.0
      vertex -0.165 0.47200495 -8.921775E-8
      vertex -0.4983642 -0.04041176 0.0
    endloop
  endfacet
  facet normal -0.21363248006336696 0.9762054080765703 -0.03720436404552617
    outer loop
      vertex -0.20651868 0.6038596 0.16001886
      vertex 0.2 0.6893481 0.06886671
      vertex -0.255 0.5891554 0.0525816
    endloop
  endfacet
  facet normal -0.17602037426789396 0.04716453226006982 0.9832559863734772
    outer loop
      vertex -0.2425 2.9697687E-17 0.33099
      vertex -0.21001115 0.12125 0.33099
      vertex -0.37803432 0.09616798 0.30211398
    endloop
  endfacet
  facet normal -0.186921943252479 -0.033841583487555435 0.981791696011823
    outer loop
      vertex -0.37423334 -0.1101126 0.30211398
      vertex -0.2425 2.9697687E-17 0.33099
      vertex -0.38908443 -0.028083501 0.30211398
    endloop
  endfacet
  facet normal -0.14903055863191556 0.11985556877606054 0.9815419172033492
    outer loop
      vertex -0.32834846 0.21058376 0.30211398
      vertex -0.21001115 0.12125 0.33099
      vertex -0.2761076 0.27554098 0.30211398
    endloop
  endfacet
  facet normal -0.4088027056121535 0.32877338210449475 0.8513450599514599
    outer loop
      vertex -0.32834846 0.21058376 0.30211398
      vertex -0.2761076 0.27554098 0.30211398
      vertex -0.255 0.54774433 0.20712973
    endloop
  endfacet
  facet normal -0.30164688573360443 0.3348846468483724 0.8926709526093356
    outer loop
      vertex -0.24512687 0.30344683 0.30211398
      vertex -0.255 0.54774433 0.20712973
      vertex -0.2761076 0.27554098 0.30211398
    endloop
  endfacet
  facet normal -0.7163089981042622 -0.4683182538066203 0.5172808061260209
    outer loop
      vertex -0.4180856 -0.27423424 0.12
      vertex -0.3203638 -0.22254917 0.30211398
      vertex -0.41890413 -0.27298227 0.12
    endloop
  endfacet
  facet normal -0.21799633819817507 -0.8597869621301187 0.4617834733760497
    outer loop
      vertex -0.23823188 -0.43959704 0.12
      vertex 9.184851E-17 -0.5 0.12
      vertex -0.08294807 -0.38115707 0.30211398
    endloop
  endfacet
  facet normal -0.4395936110370306 -0.7357205021260854 0.5152405262464945
    outer loop
      vertex -0.23823188 -0.43959704 0.12
      vertex -0.19902553 -0.33548462 0.30211398
      vertex -0.27423424 -0.4180856 0.12
    endloop
  endfacet
  facet normal -0.6503127915957031 -0.5639247291222803 0.5090011522299007
    outer loop
      vertex -0.26566318 -0.28562942 0.30211398
      vertex -0.3203638 -0.22254917 0.30211398
      vertex -0.4180856 -0.27423424 0.12
    endloop
  endfacet
  facet normal -0.6202118613038256 -0.6202118613038256 0.48028584634162247
    outer loop
      vertex -0.26566318 -0.28562942 0.30211398
      vertex -0.4180856 -0.27423424 0.12
      vertex -0.27423424 -0.4180856 0.12
    endloop
  endfacet
  facet normal -0.511284376639064 -0.6833948984447386 0.5211139021217043
    outer loop
      vertex -0.26566318 -0.28562942 0.30211398
      vertex -0.27423424 -0.4180856 0.12
      vertex -0.19902553 -0.33548462 0.30211398
    endloop
  endfacet
  facet normal -0.11542371779680498 -0.15427809552949867 0.9812622659665226
    outer loop
      vertex -0.26566318 -0.28562942 0.30211398
      vertex -0.19902553 -0.33548462 0.30211398
      vertex -0.12125 -0.21001115 0.33099
    endloop
  endfacet
  facet normal -0.08917242980533034 -0.17055974133947271 0.9813040570571517
    outer loop
      vertex -0.16191615 -0.35488623 0.30211398
      vertex -0.12125 -0.21001115 0.33099
      vertex -0.19902553 -0.33548462 0.30211398
    endloop
  endfacet
  facet normal -0.3961760754528067 -0.7577643572305013 0.5184956086119314
    outer loop
      vertex -0.16191615 -0.35488623 0.30211398
      vertex -0.19902553 -0.33548462 0.30211398
      vertex -0.23823188 -0.43959704 0.12
    endloop
  endfacet
  facet normal -0.27381312361287746 -0.8230607262847945 0.4975916138611115
    outer loop
      vertex -0.16191615 -0.35488623 0.30211398
      vertex -0.23823188 -0.43959704 0.12
      vertex -0.08294807 -0.38115707 0.30211398
    endloop
  endfacet
  facet normal -0.05955578341166355 -0.1790200035063564 0.982041214515362
    outer loop
      vertex -0.16191615 -0.35488623 0.30211398
      vertex -0.08294807 -0.38115707 0.30211398
      vertex -0.12125 -0.21001115 0.33099
    endloop
  endfacet
  facet normal 0.08714293329441893 -0.9960495414097522 -0.017071034950073876
    outer loop
      vertex 0.07824166 -0.4938403 0.04
      vertex 0.008701477 -0.49992427 0.04
      vertex 9.184851E-17 -0.5 0.0
    endloop
  endfacet
  facet normal 0.23328831270275407 -0.920099169265959 -0.31463324978837554
    outer loop
      vertex 0.07824166 -0.4938403 0.04
      vertex 9.184851E-17 -0.5 0.0
      vertex 0.23823188 -0.43959704 0.0
    endloop
  endfacet
  facet normal 0.0911210768257112 -0.8479225692120899 0.5222300891167528
    outer loop
      vertex 6.8106456E-5 -0.3900783 0.30211398
      vertex 0.07824166 -0.4938403 0.12
      vertex 0.08288307 -0.38117868 0.30211398
    endloop
  endfacet
  facet normal -0.0916149299704017 -0.8525193490613904 0.5146041819519754
    outer loop
      vertex 6.8106456E-5 -0.3900783 0.30211398
      vertex -0.08294807 -0.38115707 0.30211398
      vertex 9.184851E-17 -0.5 0.12
    endloop
  endfacet
  facet normal 0.0 0.0 -1.0
    outer loop
      vertex -0.165 0.3954703 -8.921775E-8
      vertex 0.165 0.47200495 -8.921775E-8
      vertex 0.165 0.3954703 -8.921775E-8
    endloop
  endfacet
  facet normal 0.0 -9.963228261171763E-8 -0.9999999999999951
    outer loop
      vertex -0.165 0.3954703 -8.921775E-8
      vertex 0.165 0.3954703 -8.921775E-8
      vertex 9.184851E-17 -0.5 0.0
    endloop
  endfacet
  facet normal -1.8498864121700646E-7 -6.320324266523823E-8 -0.9999999999999809
    outer loop
      vertex -0.165 0.3954703 -8.921775E-8
      vertex -0.41890413 -0.27298227 0.0
      vertex -0.4983642 -0.04041176 0.0
    endloop
  endfacet
  facet normal -2.6762846760389036E-7 0.0 -0.9999999999999643
    outer loop
      vertex -0.165 0.3954703 -8.921775E-8
      vertex -0.4983642 -0.04041176 0.0
      vertex -0.165 0.47200495 -8.921775E-8
    endloop
  endfacet
  facet normal -0.8735200818475287 0.4750804993187059 0.10611873433176609
    outer loop
      vertex -0.4180856 0.27423424 0.12
      vertex -0.255 0.5891554 0.0525816
      vertex -0.4574136 0.20192271 0.12
    endloop
  endfacet
  facet normal -0.8694500623936987 0.47286694188076717 0.14301553859607238
    outer loop
      vertex -0.4180856 0.27423424 0.12
      vertex -0.4574136 0.20192271 0.12
      vertex -0.255 0.54774433 0.20712973
    endloop
  endfacet
  facet normal -0.8692424032170899 0.47754031200772246 0.12795661318175525
    outer loop
      vertex -0.4180856 0.27423424 0.12
      vertex -0.255 0.54774433 0.20712973
      vertex -0.255 0.5891554 0.0525816
    endloop
  endfacet
  facet normal -6.833216139874757E-7 4.094855815173794E-7 -0.9999999999996827
    outer loop
      vertex -0.4574136 0.20192271 0.0
      vertex -0.39377302 0.30812177 0.0
      vertex -0.165 0.47200495 -8.921775E-8
    endloop
  endfacet
  facet normal -3.615361772587434E-7 6.109378062946036E-8 -0.9999999999999328
    outer loop
      vertex -0.4574136 0.20192271 0.0
      vertex -0.165 0.47200495 -8.921775E-8
      vertex -0.49153528 5.551115E-17 0.0
    endloop
  endfacet
  facet normal -0.9860209096502682 0.1666216244443006 0.0
    outer loop
      vertex -0.4574136 0.20192271 0.0
      vertex -0.49153528 5.551115E-17 0.0
      vertex -0.4574136 0.20192271 0.12
    endloop
  endfacet
  facet normal -0.886228721179405 0.46324793982997553 0.0
    outer loop
      vertex -0.4574136 0.20192271 0.0
      vertex -0.4574136 0.20192271 0.12
      vertex -0.255 0.5891554 0.0525816
    endloop
  endfacet
  facet normal -0.7722458217227032 0.4627740772565164 -0.4352890352986242
    outer loop
      vertex -0.4574136 0.20192271 0.0
      vertex -0.255 0.5891554 0.0525816
      vertex -0.39377302 0.30812177 0.0
    endloop
  endfacet
  facet normal -0.8724665440916801 0.14743271339187017 0.4659031277665253
    outer loop
      vertex -0.4983642 -0.04041176 0.12
      vertex -0.37803432 0.09616798 0.30211398
      vertex -0.4574136 0.20192271 0.12
    endloop
  endfacet
  facet normal -0.9860209199467529 0.16662156351249371 1.054570743438563E-7
    outer loop
      vertex -0.4983642 -0.04041176 0.12
      vertex -0.4574136 0.20192271 0.12
      vertex -0.49153528 5.551115E-17 0.0
    endloop
  endfacet
  facet normal -0.9860209713944816 0.16662125905862935 0.0
    outer loop
      vertex -0.4983642 -0.04041176 0.12
      vertex -0.49153528 5.551115E-17 0.0
      vertex -0.4983642 -0.04041176 0.0
    endloop
  endfacet
  facet normal -0.9462929161230392 -0.3233105579707453 0.0
    outer loop
      vertex -0.4983642 -0.04041176 0.12
      vertex -0.41890413 -0.27298227 0.0
      vertex -0.41890413 -0.27298227 0.12
    endloop
  endfacet
  facet normal -0.8391330233643994 -0.28669829539371433 0.46223355191684307
    outer loop
      vertex -0.4983642 -0.04041176 0.12
      vertex -0.41890413 -0.27298227 0.12
      vertex -0.37423334 -0.1101126 0.30211398
    endloop
  endfacet
  facet normal -0.8428360849831724 -0.15259261293766874 0.516084129117621
    outer loop
      vertex -0.4983642 -0.04041176 0.12
      vertex -0.37423334 -0.1101126 0.30211398
      vertex -0.38908443 -0.028083501 0.30211398
    endloop
  endfacet
  facet normal -0.15306793931366933 0.9643381632761739 0.21592154316649914
    outer loop
      vertex -0.21127701 0.60262805 0.16461505
      vertex -0.21301867 0.6009458 0.17089356
      vertex 0.2 0.6893481 0.06886671
    endloop
  endfacet
  facet normal -0.19159058986861208 0.9793810854795708 0.06407601172556755
    outer loop
      vertex -0.21127701 0.60262805 0.16461505
      vertex 0.2 0.6893481 0.06886671
      vertex -0.20651868 0.6038596 0.16001886
    endloop
  endfacet
  facet normal -0.2627287233095796 0.9647755005223848 -0.013485234143332765
    outer loop
      vertex -0.21127701 0.60262805 0.16461505
      vertex -0.20651868 0.6038596 0.16001886
      vertex -0.255 0.5891554 0.0525816
    endloop
  endfacet
  facet normal -0.5005116597319275 0.8608476718534377 0.09181156973338125
    outer loop
      vertex -0.21127701 0.60262805 0.16461505
      vertex -0.255 0.5891554 0.0525816
      vertex -0.21301867 0.6009458 0.17089356
    endloop
  endfacet
  facet normal -0.11827634499741874 0.5295841829663108 0.8399710110271406
    outer loop
      vertex 0.178 0.6501673 0.20352493
      vertex -0.20001867 0.5975811 0.18345061
      vertex -0.255 0.54774433 0.20712973
    endloop
  endfacet
  facet normal -0.0 0.9601809524412469 0.2793788441686666
    outer loop
      vertex 0.178 0.6501673 0.20352493
      vertex 0.222 0.6501673 0.20352493
      vertex 0.2 0.6893481 0.06886671
    endloop
  endfacet
  facet normal -0.19263710314131272 -0.0034681279890004632 0.9812639393056158
    outer loop
      vertex -0.38983577 0.013649665 0.30211398
      vertex -0.38908443 -0.028083501 0.30211398
      vertex -0.2425 2.9697687E-17 0.33099
    endloop
  endfacet
  facet normal -0.1898351955497514 0.027149494854816447 0.9814405246675502
    outer loop
      vertex -0.38983577 0.013649665 0.30211398
      vertex -0.2425 2.9697687E-17 0.33099
      vertex -0.37803432 0.09616798 0.30211398
    endloop
  endfacet
  facet normal -0.8681563953975512 0.12416036721622918 0.48050876822703437
    outer loop
      vertex -0.38983577 0.013649665 0.30211398
      vertex -0.37803432 0.09616798 0.30211398
      vertex -0.4983642 -0.04041176 0.12
    endloop
  endfacet
  facet normal -0.8569061267680426 -0.015427246743895237 0.515241584080026
    outer loop
      vertex -0.38983577 0.013649665 0.30211398
      vertex -0.4983642 -0.04041176 0.12
      vertex -0.38908443 -0.028083501 0.30211398
    endloop
  endfacet
  facet normal -0.17608847881337095 -0.04718278082388274 0.9832429164875375
    outer loop
      vertex -0.21001115 -0.12125 0.33099
      vertex -0.2425 2.9697687E-17 0.33099
      vertex -0.37423334 -0.1101126 0.30211398
    endloop
  endfacet
  facet normal -0.14305905422483384 -0.12405497699695264 0.9819085851985314
    outer loop
      vertex -0.21001115 -0.12125 0.33099
      vertex -0.3203638 -0.22254917 0.30211398
      vertex -0.26566318 -0.28562942 0.30211398
    endloop
  endfacet
  facet normal -0.12903238410990894 -0.12903238410990894 0.983209686537834
    outer loop
      vertex -0.21001115 -0.12125 0.33099
      vertex -0.26566318 -0.28562942 0.30211398
      vertex -0.12125 -0.21001115 0.33099
    endloop
  endfacet
  facet normal -0.17379390178575427 0.08685916970108284 0.9809440169249835
    outer loop
      vertex -0.36561534 0.13601758 0.30211398
      vertex -0.21001115 0.12125 0.33099
      vertex -0.32834846 0.21058376 0.30211398
    endloop
  endfacet
  facet normal -0.6661553042964998 0.33293283612733204 0.6673775821720782
    outer loop
      vertex -0.36561534 0.13601758 0.30211398
      vertex -0.32834846 0.21058376 0.30211398
      vertex -0.255 0.54774433 0.20712973
    endloop
  endfacet
  facet normal -0.7888849082720083 0.33134388288575684 0.5175633611209887
    outer loop
      vertex -0.36561534 0.13601758 0.30211398
      vertex -0.255 0.54774433 0.20712973
      vertex -0.4574136 0.20192271 0.12
    endloop
  endfacet
  facet normal -0.8226539794294917 0.256377060684555 0.5074556462229676
    outer loop
      vertex -0.36561534 0.13601758 0.30211398
      vertex -0.4574136 0.20192271 0.12
      vertex -0.37803432 0.09616798 0.30211398
    endloop
  endfacet
  facet normal -0.17711378586752216 0.0551968542824278 0.982641345625655
    outer loop
      vertex -0.36561534 0.13601758 0.30211398
      vertex -0.37803432 0.09616798 0.30211398
      vertex -0.21001115 0.12125 0.33099
    endloop
  endfacet
  facet normal -0.7071067811865476 -0.7071067811865476 0.0
    outer loop
      vertex -0.4180856 -0.27423424 0.04
      vertex -0.27423424 -0.4180856 0.12
      vertex -0.4180856 -0.27423424 0.12
    endloop
  endfacet
  facet normal -0.8369897526866528 -0.5472185613605736 0.0
    outer loop
      vertex -0.4180856 -0.27423424 0.04
      vertex -0.41890413 -0.27298227 0.12
      vertex -0.41890413 -0.27298227 0.0
    endloop
  endfacet
  facet normal -0.7070860251760732 -0.7070860251760732 -0.007661984168808055
    outer loop
      vertex -0.4180856 -0.27423424 0.04
      vertex -0.41890413 -0.27298227 0.0
      vertex -0.27423424 -0.4180856 0.04
    endloop
  endfacet
  facet normal -0.2457701645336698 -0.9693281313492831 0.0
    outer loop
      vertex -0.23823188 -0.43959704 0.0
      vertex 9.184851E-17 -0.5 0.12
      vertex -0.23823188 -0.43959704 0.12
    endloop
  endfacet
  facet normal -0.5129173980674513 -0.8584379667510726 0.0
    outer loop
      vertex -0.23823188 -0.43959704 0.0
      vertex -0.27423424 -0.4180856 0.12
      vertex -0.27423424 -0.4180856 0.04
    endloop
  endfacet
  facet normal -2.649948093446233E-8 -1.0451509598273196E-7 -0.9999999999999942
    outer loop
      vertex -0.23823188 -0.43959704 0.0
      vertex -0.165 0.3954703 -8.921775E-8
      vertex 9.184851E-17 -0.5 0.0
    endloop
  endfacet
  facet normal 0.5113735875427535 -0.6833534251200796 0.5210807522258997
    outer loop
      vertex 0.1989763 -0.3355351 0.30211398
      vertex 0.27423424 -0.4180856 0.12
      vertex 0.26572034 -0.28558856 0.30211398
    endloop
  endfacet
  facet normal 0.008702790584284617 -0.9999621300009547 0.0
    outer loop
      vertex 0.008701477 -0.49992427 0.12
      vertex 9.184851E-17 -0.5 0.0
      vertex 0.008701477 -0.49992427 0.04
    endloop
  endfacet
  facet normal 0.08715563367736544 -0.9961947076341537 0.0
    outer loop
      vertex 0.008701477 -0.49992427 0.12
      vertex 0.07824166 -0.4938403 0.04
      vertex 0.07824166 -0.4938403 0.12
    endloop
  endfacet
  facet normal 0.07457007775135346 -0.852340963738045 0.5176429126707501
    outer loop
      vertex 0.008701477 -0.49992427 0.12
      vertex 0.07824166 -0.4938403 0.12
      vertex 6.8106456E-5 -0.3900783 0.30211398
    endloop
  endfacet
  facet normal 0.007450849472940124 -0.8561124431434478 0.5167358798623222
    outer loop
      vertex 0.008701477 -0.49992427 0.12
      vertex 6.8106456E-5 -0.3900783 0.30211398
      vertex 9.184851E-17 -0.5 0.12
    endloop
  endfacet
  facet normal -0.12464760782599936 0.13838223466417168 0.9825036035519698
    outer loop
      vertex -0.12125 0.21001115 0.33099
      vertex -0.24512687 0.30344683 0.30211398
      vertex -0.2761076 0.27554098 0.30211398
    endloop
  endfacet
  facet normal -0.1288308888573716 0.1288308888573716 0.9832625306358619
    outer loop
      vertex -0.12125 0.21001115 0.33099
      vertex -0.2761076 0.27554098 0.30211398
      vertex -0.21001115 0.12125 0.33099
    endloop
  endfacet
  facet normal 0.04599665983184112 0.1716618164265812 0.9840815657583678
    outer loop
      vertex 0.13583528 0.3716399 0.30211398
      vertex 6.8694657E-17 0.2425 0.33099
      vertex 0.12125 0.21001115 0.33099
    endloop
  endfacet
  facet normal -0.047283418096536106 -0.17646406210761517 0.9831707446611642
    outer loop
      vertex -2.599298E-16 -0.2425 0.33099
      vertex -0.12125 -0.21001115 0.33099
      vertex -0.08294807 -0.38115707 0.30211398
    endloop
  endfacet
  facet normal -0.020632260804701177 -0.1919927413203428 0.9811794418425138
    outer loop
      vertex -2.599298E-16 -0.2425 0.33099
      vertex -0.08294807 -0.38115707 0.30211398
      vertex 6.8106456E-5 -0.3900783 0.30211398
    endloop
  endfacet
  facet normal 0.0206303210727709 -0.19197440874357993 0.9811830696867876
    outer loop
      vertex -2.599298E-16 -0.2425 0.33099
      vertex 6.8106456E-5 -0.3900783 0.30211398
      vertex 0.08288307 -0.38117868 0.30211398
    endloop
  endfacet
  facet normal 0.13482987500458024 0.9571056510412395 0.25645599535042013
    outer loop
      vertex 0.222 0.6760539 0.10691494
      vertex 0.2 0.6893481 0.06886671
      vertex 0.222 0.6501673 0.20352493
    endloop
  endfacet
  facet normal 0.6202283967726051 -0.6202283967726051 0.4802431380808767
    outer loop
      vertex 0.4180856 -0.27423424 0.12
      vertex 0.26572034 -0.28558856 0.30211398
      vertex 0.27423424 -0.4180856 0.12
    endloop
  endfacet
  facet normal -0.1342820906400066 0.6960378608058303 0.7053365270976633
    outer loop
      vertex -0.20651868 0.5980319 0.18176828
      vertex -0.20001867 0.5975811 0.18345061
      vertex 0.178 0.6501673 0.20352493
    endloop
  endfacet
  facet normal -0.16889117947145796 0.5687877206695846 0.8049573270132018
    outer loop
      vertex -0.20651868 0.5980319 0.18176828
      vertex -0.255 0.54774433 0.20712973
      vertex -0.20001867 0.5975811 0.18345061
    endloop
  endfacet
  facet normal -0.14174420651109235 0.9561731036452855 0.2562061197276186
    outer loop
      vertex 0.178 0.6760539 0.10691494
      vertex -0.21301867 0.6009458 0.17089356
      vertex 0.178 0.6501673 0.20352493
    endloop
  endfacet
  facet normal -0.13482987500458005 0.9571056510412393 0.2564559953504201
    outer loop
      vertex 0.178 0.6760539 0.10691494
      vertex 0.178 0.6501673 0.20352493
      vertex 0.2 0.6893481 0.06886671
    endloop
  endfacet
  facet normal -0.14262857224524322 0.9571672351351996 0.25196820109474344
    outer loop
      vertex 0.178 0.6760539 0.10691494
      vertex 0.2 0.6893481 0.06886671
      vertex -0.21301867 0.6009458 0.17089356
    endloop
  endfacet
  facet normal 0.895672007276761 0.4447152520218054 0.0
    outer loop
      vertex 0.4574136 0.20192271 0.12
      vertex 0.4574136 0.20192271 0.0
      vertex 0.222 0.6760539 0.10691494
    endloop
  endfacet
  facet normal 0.8879932025282576 0.44418730914862553 0.11901977421803676
    outer loop
      vertex 0.4574136 0.20192271 0.12
      vertex 0.222 0.6760539 0.10691494
      vertex 0.222 0.6501673 0.20352493
    endloop
  endfacet
  facet normal -0.17090108822933656 -0.0934225959294582 0.9808491405979972
    outer loop
      vertex -0.36028254 -0.14952448 0.30211398
      vertex -0.3203638 -0.22254917 0.30211398
      vertex -0.21001115 -0.12125 0.33099
    endloop
  endfacet
  facet normal -0.1769573720588051 -0.06263839497425615 0.9822232536185909
    outer loop
      vertex -0.36028254 -0.14952448 0.30211398
      vertex -0.21001115 -0.12125 0.33099
      vertex -0.37423334 -0.1101126 0.30211398
    endloop
  endfacet
  facet normal -0.8330486966454429 -0.29487798494162887 0.46805645280680996
    outer loop
      vertex -0.36028254 -0.14952448 0.30211398
      vertex -0.37423334 -0.1101126 0.30211398
      vertex -0.41890413 -0.27298227 0.12
    endloop
  endfacet
  facet normal -0.7498803314253609 -0.40991995969148004 0.519273641915249
    outer loop
      vertex -0.36028254 -0.14952448 0.30211398
      vertex -0.41890413 -0.27298227 0.12
      vertex -0.3203638 -0.22254917 0.30211398
    endloop
  endfacet
  facet normal -9.115437854499059E-8 -9.884512347651337E-8 -0.999999999999991
    outer loop
      vertex -0.35231596 -0.33438948 0.0
      vertex -0.41890413 -0.27298227 0.0
      vertex -0.165 0.3954703 -8.921775E-8
    endloop
  endfacet
  facet normal -9.115431365220095E-8 -9.884514013102087E-8 -0.999999999999991
    outer loop
      vertex -0.35231596 -0.33438948 0.0
      vertex -0.165 0.3954703 -8.921775E-8
      vertex -0.23823188 -0.43959704 0.0
    endloop
  endfacet
  facet normal -0.6628061418975094 -0.7187280925128082 -0.2100427273100377
    outer loop
      vertex -0.35231596 -0.33438948 0.0
      vertex -0.23823188 -0.43959704 0.0
      vertex -0.27423424 -0.4180856 0.04
    endloop
  endfacet
  facet normal -0.6628066276536098 -0.7187279864909231 -0.21004155725273205
    outer loop
      vertex -0.35231596 -0.33438948 0.0
      vertex -0.27423424 -0.4180856 0.04
      vertex -0.41890413 -0.27298227 0.0
    endloop
  endfacet
  facet normal 0.6628066276536098 -0.7187279864909231 -0.21004155725273205
    outer loop
      vertex 0.35231596 -0.33438948 0.0
      vertex 0.41890413 -0.27298227 0.0
      vertex 0.27423424 -0.4180856 0.04
    endloop
  endfacet
  facet normal 0.6628061418975094 -0.7187280925128082 -0.2100427273100377
    outer loop
      vertex 0.35231596 -0.33438948 0.0
      vertex 0.27423424 -0.4180856 0.04
      vertex 0.23823188 -0.43959704 0.0
    endloop
  endfacet
  facet normal 9.115431365220095E-8 -9.884514013102087E-8 -0.999999999999991
    outer loop
      vertex 0.35231596 -0.33438948 0.0
      vertex 0.23823188 -0.43959704 0.0
      vertex 0.165 0.3954703 -8.921775E-8
    endloop
  endfacet
  facet normal 9.115437854499059E-8 -9.884512347651337E-8 -0.999999999999991
    outer loop
      vertex 0.35231596 -0.33438948 0.0
      vertex 0.165 0.3954703 -8.921775E-8
      vertex 0.41890413 -0.27298227 0.0
    endloop
  endfacet
  facet normal 0.43961288565692896 -0.7357527608593197 0.515178013556748
    outer loop
      vertex 0.23823188 -0.43959704 0.12
      vertex 0.27423424 -0.4180856 0.12
      vertex 0.1989763 -0.3355351 0.30211398
    endloop
  endfacet
  facet normal 0.3210885890720356 -0.9470491634375322 0.0
    outer loop
      vertex 0.23823188 -0.43959704 0.12
      vertex 0.07824166 -0.4938403 0.04
      vertex 0.23823188 -0.43959704 0.0
    endloop
  endfacet
  facet normal 0.5129173980674513 -0.8584379667510728 0.0
    outer loop
      vertex 0.23823188 -0.43959704 0.12
      vertex 0.27423424 -0.4180856 0.04
      vertex 0.27423424 -0.4180856 0.12
    endloop
  endfacet
  facet normal 0.08018218785466148 0.31046942303132324 0.9471956261055248
    outer loop
      vertex 0.222 0.58501405 0.2248807
      vertex 0.222 0.6501673 0.20352493
      vertex 0.13583528 0.3716399 0.30211398
    endloop
  endfacet
  facet normal 0.1708028464760036 0.2736395642407434 0.9465451793326248
    outer loop
      vertex 0.2451524 0.30340534 0.30211398
      vertex 0.222 0.58501405 0.2248807
      vertex 0.13583528 0.3716399 0.30211398
    endloop
  endfacet
  facet normal 0.10353146545144089 0.1658655325473047 0.9806986595148768
    outer loop
      vertex 0.2451524 0.30340534 0.30211398
      vertex 0.13583528 0.3716399 0.30211398
      vertex 0.12125 0.21001115 0.33099
    endloop
  endfacet
  facet normal -0.09266054044148568 0.4234455673456618 0.9011702812123814
    outer loop
      vertex -0.13600282 0.3716399 0.30211398
      vertex 0.178 0.6501673 0.20352493
      vertex -0.255 0.54774433 0.20712973
    endloop
  endfacet
  facet normal -0.21633860479543426 0.3461897921097731 0.9128801870531297
    outer loop
      vertex -0.13600282 0.3716399 0.30211398
      vertex -0.255 0.54774433 0.20712973
      vertex -0.24512687 0.30344683 0.30211398
    endloop
  endfacet
  facet normal -0.10358303365497894 0.1657558479727867 0.9807117588780375
    outer loop
      vertex -0.13600282 0.3716399 0.30211398
      vertex -0.24512687 0.30344683 0.30211398
      vertex -0.12125 0.21001115 0.33099
    endloop
  endfacet
  facet normal -0.04598458300940161 0.17161674512609545 0.9840899912699937
    outer loop
      vertex -0.13600282 0.3716399 0.30211398
      vertex -0.12125 0.21001115 0.33099
      vertex 6.8694657E-17 0.2425 0.33099
    endloop
  endfacet
  facet normal -0.0 0.2182140074072127 0.9759009411673323
    outer loop
      vertex -0.13600282 0.3716399 0.30211398
      vertex 6.8694657E-17 0.2425 0.33099
      vertex 0.13583528 0.3716399 0.30211398
    endloop
  endfacet
  facet normal 0.0 0.33367851401248366 0.9426869306861216
    outer loop
      vertex -0.13600282 0.3716399 0.30211398
      vertex 0.222 0.6501673 0.20352493
      vertex 0.178 0.6501673 0.20352493
    endloop
  endfacet
  facet normal 0.11543396563501188 -0.154255514390023 0.9812646105195297
    outer loop
      vertex 0.12125 -0.21001115 0.33099
      vertex 0.1989763 -0.3355351 0.30211398
      vertex 0.26572034 -0.28558856 0.30211398
    endloop
  endfacet
  facet normal 0.12902314429444167 -0.12902314429444167 0.9832121116385576
    outer loop
      vertex 0.12125 -0.21001115 0.33099
      vertex 0.26572034 -0.28558856 0.30211398
      vertex 0.21001115 -0.12125 0.33099
    endloop
  endfacet
  facet normal 0.04728222685011048 -0.17645961631685675 0.983171599891597
    outer loop
      vertex 0.12125 -0.21001115 0.33099
      vertex -2.599298E-16 -0.2425 0.33099
      vertex 0.08288307 -0.38117868 0.30211398
    endloop
  endfacet
  facet normal 6.839590732856721E-7 4.103754439716931E-7 -0.9999999999996819
    outer loop
      vertex 0.39377302 0.30812177 0.0
      vertex 0.165 0.47200495 -8.921775E-8
      vertex 0.3937573 0.30814797 0.0
    endloop
  endfacet
  facet normal 0.7249606661862855 0.4349763997120785 -0.534067003452053
    outer loop
      vertex 0.39377302 0.30812177 0.0
      vertex 0.3937573 0.30814797 0.0
      vertex 0.22 0.67141837 0.060005285
    endloop
  endfacet
  facet normal 1.3943803064802531E-6 1.402179657429117E-6 -0.9999999999980448
    outer loop
      vertex 0.34934226 0.35231596 0.0
      vertex 0.3937573 0.30814797 0.0
      vertex 0.165 0.47200495 -8.921775E-8
    endloop
  endfacet
  facet normal 1.3943827101209331E-6 1.4021833594618197E-6 -0.9999999999980449
    outer loop
      vertex 0.34934226 0.35231596 0.0
      vertex 0.165 0.47200495 -8.921775E-8
      vertex 0.3059465 0.3954703 0.0
    endloop
  endfacet
  facet normal 0.1145246198702846 0.24588938851649203 -0.9625084519413596
    outer loop
      vertex 0.255 0.4300872 0.0
      vertex 0.165 0.47200495 -8.921775E-8
      vertex 0.21 0.65589076 0.052331064
    endloop
  endfacet
  facet normal 0.17326349775779387 0.25499593517956387 -0.9512921913831915
    outer loop
      vertex 0.255 0.4300872 0.0
      vertex 0.21 0.65589076 0.052331064
      vertex 0.3059465 0.3954703 0.0
    endloop
  endfacet
  facet normal 3.151605301499078E-6 4.63829110904855E-6 -0.9999999999842768
    outer loop
      vertex 0.255 0.4300872 0.0
      vertex 0.3059465 0.3954703 0.0
      vertex 0.165 0.47200495 -8.921775E-8
    endloop
  endfacet
  facet normal 0.18725743184855156 0.25937916065851624 -0.9474476794174804
    outer loop
      vertex 0.2173205 0.6624535 0.055574574
      vertex 0.3059465 0.3954703 0.0
      vertex 0.21 0.65589076 0.052331064
    endloop
  endfacet
  facet normal 7.685347221792366E-7 0.44307070696160816 -0.8964866695227265
    outer loop
      vertex 0.2173205 0.6624535 0.055574574
      vertex 0.21 0.65589076 0.052331064
      vertex 0.22 0.67141837 0.060005285
    endloop
  endfacet
  facet normal 0.3692803912232585 0.32070700361168447 -0.8722264674340101
    outer loop
      vertex 0.2173205 0.6624535 0.055574574
      vertex 0.22 0.67141837 0.060005285
      vertex 0.3937573 0.30814797 0.0
    endloop
  endfacet
  facet normal 0.283021446213805 0.2846045032713507 -0.9159143724719654
    outer loop
      vertex 0.2173205 0.6624535 0.055574574
      vertex 0.3937573 0.30814797 0.0
      vertex 0.34934226 0.35231596 0.0
    endloop
  endfacet
  facet normal 0.28302104791651134 0.28460436355493846 -0.9159145389618664
    outer loop
      vertex 0.2173205 0.6624535 0.055574574
      vertex 0.34934226 0.35231596 0.0
      vertex 0.3059465 0.3954703 0.0
    endloop
  endfacet
  facet normal 0.05156704170074341 0.2616585979882502 -0.9637819350397978
    outer loop
      vertex 0.2 0.65348864 0.05114386
      vertex 0.21 0.65589076 0.052331064
      vertex 0.165 0.47200495 -8.921775E-8
    endloop
  endfacet
  facet normal 0.0 0.27124518547240845 -0.9625102853258446
    outer loop
      vertex 0.2 0.65348864 0.05114386
      vertex 0.165 0.47200495 -8.921775E-8
      vertex -0.165 0.47200495 -8.921775E-8
    endloop
  endfacet
  facet normal 0.2503881061881115 0.9498909007767194 0.18711780487469307
    outer loop
      vertex 0.21 0.686946 0.0676795
      vertex 0.2 0.6893481 0.06886671
      vertex 0.222 0.6760539 0.10691494
    endloop
  endfacet
  facet normal 7.120167299141349E-7 0.4430707362145777 -0.8964866550650741
    outer loop
      vertex 0.21 0.686946 0.0676795
      vertex 0.22 0.67141837 0.060005285
      vertex 0.21 0.65589076 0.052331064
    endloop
  endfacet
  facet normal 3.4659640826306735E-7 0.4430707362146635 -0.8964866550652475
    outer loop
      vertex 0.21 0.686946 0.0676795
      vertex 0.21 0.65589076 0.052331064
      vertex 0.2 0.65348864 0.05114386
    endloop
  endfacet
  facet normal 7.616937132901014E-6 0.4430743100888743 -0.8964848887076962
    outer loop
      vertex 0.2173205 0.6803832 0.064435996
      vertex 0.22 0.67141837 0.060005285
      vertex 0.21 0.686946 0.0676795
    endloop
  endfacet
  facet normal 0.6680705710893687 0.7440945453324895 0.0022404577123016395
    outer loop
      vertex 0.2173205 0.6803832 0.064435996
      vertex 0.21 0.686946 0.0676795
      vertex 0.222 0.6760539 0.10691494
    endloop
  endfacet
  facet normal 0.8897675720986576 0.45346471634863533 -0.0518017245708258
    outer loop
      vertex 0.2173205 0.6803832 0.064435996
      vertex 0.222 0.6760539 0.10691494
      vertex 0.4574136 0.20192271 0.0
    endloop
  endfacet
  facet normal 0.7779481678008677 0.4495023200934325 -0.4390265509577916
    outer loop
      vertex 0.2173205 0.6803832 0.064435996
      vertex 0.4574136 0.20192271 0.0
      vertex 0.22 0.67141837 0.060005285
    endloop
  endfacet
  facet normal 0.8369897526866528 -0.5472185613605736 0.0
    outer loop
      vertex 0.4180856 -0.27423424 0.04
      vertex 0.41890413 -0.27298227 0.12
      vertex 0.4180856 -0.27423424 0.12
    endloop
  endfacet
  facet normal 0.7071067811865476 -0.7071067811865476 0.0
    outer loop
      vertex 0.4180856 -0.27423424 0.04
      vertex 0.27423424 -0.4180856 0.12
      vertex 0.27423424 -0.4180856 0.04
    endloop
  endfacet
  facet normal 0.7070860251760732 -0.7070860251760732 -0.007661984168808055
    outer loop
      vertex 0.4180856 -0.27423424 0.04
      vertex 0.27423424 -0.4180856 0.04
      vertex 0.41890413 -0.27298227 0.0
    endloop
  endfacet
  facet normal -0.5987962155724372 0.7163985217375656 0.3580729677989641
    outer loop
      vertex -0.21127701 0.5992634 0.17717208
      vertex -0.21301867 0.6009458 0.17089356
      vertex -0.255 0.54774433 0.20712973
    endloop
  endfacet
  facet normal -0.4019323688011971 0.6906833408070858 0.601171268143631
    outer loop
      vertex -0.21127701 0.5992634 0.17717208
      vertex -0.255 0.54774433 0.20712973
      vertex -0.20651868 0.5980319 0.18176828
    endloop
  endfacet
  facet normal -0.14534444253731973 0.9076862874995374 0.3936757504708957
    outer loop
      vertex -0.21127701 0.5992634 0.17717208
      vertex -0.20651868 0.5980319 0.18176828
      vertex 0.178 0.6501673 0.20352493
    endloop
  endfacet
  facet normal -0.14344863554603585 0.9452633295569319 0.2930865516446015
    outer loop
      vertex -0.21127701 0.5992634 0.17717208
      vertex 0.178 0.6501673 0.20352493
      vertex -0.21301867 0.6009458 0.17089356
    endloop
  endfacet
  facet normal 0.9860209096502682 0.16662162444430056 0.0
    outer loop
      vertex 0.49153528 2.7755576E-17 0.0
      vertex 0.4574136 0.20192271 0.0
      vertex 0.4574136 0.20192271 0.12
    endloop
  endfacet
  facet normal 3.6153591369140525E-7 6.109359829231629E-8 -0.9999999999999328
    outer loop
      vertex 0.49153528 2.7755576E-17 0.0
      vertex 0.4983642 -0.04041176 0.0
      vertex 0.165 0.47200495 -8.921775E-8
    endloop
  endfacet
  facet normal 3.615361772587434E-7 6.109378062946035E-8 -0.9999999999999328
    outer loop
      vertex 0.49153528 2.7755576E-17 0.0
      vertex 0.165 0.47200495 -8.921775E-8
      vertex 0.4574136 0.20192271 0.0
    endloop
  endfacet
  facet normal 0.2731852467747035 -0.8211738146564855 0.50104230067646
    outer loop
      vertex 0.16191615 -0.35488623 0.30211398
      vertex 0.08288307 -0.38117868 0.30211398
      vertex 0.07824166 -0.4938403 0.12
    endloop
  endfacet
  facet normal 0.27834455837358046 -0.8209758618857341 0.4985207528526697
    outer loop
      vertex 0.16191615 -0.35488623 0.30211398
      vertex 0.07824166 -0.4938403 0.12
      vertex 0.23823188 -0.43959704 0.12
    endloop
  endfacet
  facet normal 0.3957929788000434 -0.7579995154430973 0.5184444546145887
    outer loop
      vertex 0.16191615 -0.35488623 0.30211398
      vertex 0.23823188 -0.43959704 0.12
      vertex 0.1989763 -0.3355351 0.30211398
    endloop
  endfacet
  facet normal 0.08907348419051081 -0.1705883162958933 0.9813080763743337
    outer loop
      vertex 0.16191615 -0.35488623 0.30211398
      vertex 0.1989763 -0.3355351 0.30211398
      vertex 0.12125 -0.21001115 0.33099
    endloop
  endfacet
  facet normal 0.059555754454801955 -0.179020011687261 0.9820412147801193
    outer loop
      vertex 0.16191615 -0.35488623 0.30211398
      vertex 0.12125 -0.21001115 0.33099
      vertex 0.08288307 -0.38117868 0.30211398
    endloop
  endfacet
  facet normal 6.833216272072337E-7 4.094855999715243E-7 -0.9999999999996827
    outer loop
      vertex 0.4442065 0.22396182 0.0
      vertex 0.165 0.47200495 -8.921775E-8
      vertex 0.39377302 0.30812177 0.0
    endloop
  endfacet
  facet normal 0.7263925199769102 0.4352961548623202 -0.5318563382001507
    outer loop
      vertex 0.4442065 0.22396182 0.0
      vertex 0.39377302 0.30812177 0.0
      vertex 0.22 0.67141837 0.060005285
    endloop
  endfacet
  facet normal 0.7263926924584855 0.4352962042736046 -0.5318560621896722
    outer loop
      vertex 0.4442065 0.22396182 0.0
      vertex 0.22 0.67141837 0.060005285
      vertex 0.4574136 0.20192271 0.0
    endloop
  endfacet
  facet normal -0.032445955669588473 0.331020751490054 -0.9430654919164666
    outer loop
      vertex 0.19 0.65589076 0.052331064
      vertex 0.2 0.65348864 0.05114386
      vertex -0.165 0.47200495 -8.921775E-8
    endloop
  endfacet
  facet normal -0.03600226330319379 0.3372234246471518 -0.9407359878873
    outer loop
      vertex 0.19 0.65589076 0.052331064
      vertex -0.165 0.47200495 -8.921775E-8
      vertex -0.165 0.5917436 0.042922344
    endloop
  endfacet
  facet normal 0.7940010048290098 0.32077741698925344 0.5163954425440114
    outer loop
      vertex 0.36557445 0.13607502 0.30211398
      vertex 0.4574136 0.20192271 0.12
      vertex 0.222 0.6501673 0.20352493
    endloop
  endfacet
  facet normal 0.9860209713944816 0.16662125905862948 0.0
    outer loop
      vertex 0.4983642 -0.04041176 0.12
      vertex 0.4983642 -0.04041176 0.0
      vertex 0.49153528 2.7755576E-17 0.0
    endloop
  endfacet
  facet normal 0.9860209199467529 0.16662156351249371 1.0545707430709424E-7
    outer loop
      vertex 0.4983642 -0.04041176 0.12
      vertex 0.49153528 2.7755576E-17 0.0
      vertex 0.4574136 0.20192271 0.12
    endloop
  endfacet
  facet normal 0.838281379875364 -0.28640732277102976 0.4639560039673881
    outer loop
      vertex 0.4983642 -0.04041176 0.12
      vertex 0.36033475 -0.14939865 0.30211398
      vertex 0.41890413 -0.27298227 0.12
    endloop
  endfacet
  facet normal 0.9462929161230392 -0.3233105579707453 0.0
    outer loop
      vertex 0.4983642 -0.04041176 0.12
      vertex 0.41890413 -0.27298227 0.0
      vertex 0.4983642 -0.04041176 0.0
    endloop
  endfacet
  facet normal 0.6240708656330707 0.3116956251020597 0.7165063795670115
    outer loop
      vertex 0.3283883 0.2105284 0.30211398
      vertex 0.36557445 0.13607502 0.30211398
      vertex 0.222 0.6501673 0.20352493
    endloop
  endfacet
  facet normal 0.8579782103250709 0.030041335644549003 0.5128068922704532
    outer loop
      vertex 0.38616735 0.055228077 0.30211398
      vertex 0.38908443 -0.028083501 0.30211398
      vertex 0.4983642 -0.04041176 0.12
    endloop
  endfacet
  facet normal 0.8748270823832692 0.1478316061262119 0.46132785755785555
    outer loop
      vertex 0.38616735 0.055228077 0.30211398
      vertex 0.4983642 -0.04041176 0.12
      vertex 0.4574136 0.20192271 0.12
    endloop
  endfacet
  facet normal 0.8390146724048033 0.21370932042990048 0.5003825594990805
    outer loop
      vertex 0.38616735 0.055228077 0.30211398
      vertex 0.4574136 0.20192271 0.12
      vertex 0.36557445 0.13607502 0.30211398
    endloop
  endfacet
  facet normal 0.19452948356682687 0.006811274969766048 0.9808730226469223
    outer loop
      vertex 0.2425 -5.939537E-17 0.33099
      vertex 0.38908443 -0.028083501 0.30211398
      vertex 0.38616735 0.055228077 0.30211398
    endloop
  endfacet
  facet normal 0.1798852325565021 0.04581940229345216 0.9826199089584762
    outer loop
      vertex 0.2425 -5.939537E-17 0.33099
      vertex 0.38616735 0.055228077 0.30211398
      vertex 0.36557445 0.13607502 0.30211398
    endloop
  endfacet
  facet normal 0.6502956358464163 -0.5640336076460896 0.5089024223216494
    outer loop
      vertex 0.32033995 -0.22261555 0.30211398
      vertex 0.26572034 -0.28558856 0.30211398
      vertex 0.4180856 -0.27423424 0.12
    endloop
  endfacet
  facet normal 0.7163374884738402 -0.46833688062851875 0.5172244859344342
    outer loop
      vertex 0.32033995 -0.22261555 0.30211398
      vertex 0.4180856 -0.27423424 0.12
      vertex 0.41890413 -0.27298227 0.12
    endloop
  endfacet
  facet normal 0.7500236063508164 -0.4097010953929985 0.5192394460653899
    outer loop
      vertex 0.32033995 -0.22261555 0.30211398
      vertex 0.41890413 -0.27298227 0.12
      vertex 0.36033475 -0.14939865 0.30211398
    endloop
  endfacet
  facet normal 0.17092968284675486 -0.09337049888098772 0.980849118601135
    outer loop
      vertex 0.32033995 -0.22261555 0.30211398
      vertex 0.36033475 -0.14939865 0.30211398
      vertex 0.21001115 -0.12125 0.33099
    endloop
  endfacet
  facet normal 0.14302169476366192 -0.12404979831089945 0.9819146818160706
    outer loop
      vertex 0.32033995 -0.22261555 0.30211398
      vertex 0.21001115 -0.12125 0.33099
      vertex 0.26572034 -0.28558856 0.30211398
    endloop
  endfacet
  facet normal 0.837673972359188 -0.24647323035079682 0.4873943606079388
    outer loop
      vertex 0.3838262 -0.06955965 0.30211398
      vertex 0.36033475 -0.14939865 0.30211398
      vertex 0.4983642 -0.04041176 0.12
    endloop
  endfacet
  facet normal 0.8492524282911338 -0.10766584419429263 0.5168930054039644
    outer loop
      vertex 0.3838262 -0.06955965 0.30211398
      vertex 0.4983642 -0.04041176 0.12
      vertex 0.38908443 -0.028083501 0.30211398
    endloop
  endfacet
  facet normal 0.18880605006409015 -0.0239363022017424 0.9817226333828223
    outer loop
      vertex 0.3838262 -0.06955965 0.30211398
      vertex 0.38908443 -0.028083501 0.30211398
      vertex 0.2425 -5.939537E-17 0.33099
    endloop
  endfacet
  facet normal 0.17744297434582249 -0.04754571692433218 0.9829818897911899
    outer loop
      vertex 0.3838262 -0.06955965 0.30211398
      vertex 0.2425 -5.939537E-17 0.33099
      vertex 0.21001115 -0.12125 0.33099
    endloop
  endfacet
  facet normal 0.17886884239180784 -0.052629522759616715 0.9824642846208251
    outer loop
      vertex 0.3838262 -0.06955965 0.30211398
      vertex 0.21001115 -0.12125 0.33099
      vertex 0.36033475 -0.14939865 0.30211398
    endloop
  endfacet
  facet normal -0.05449728957477434 0.42927420675362193 -0.9015285357907712
    outer loop
      vertex 0.18267949 0.6624535 0.055574574
      vertex -0.165 0.5917436 0.042922344
      vertex 0.18 0.67141837 0.060005285
    endloop
  endfacet
  facet normal -7.685322382370651E-7 0.4430707069628938 -0.896486669522091
    outer loop
      vertex 0.18267949 0.6624535 0.055574574
      vertex 0.18 0.67141837 0.060005285
      vertex 0.19 0.65589076 0.052331064
    endloop
  endfacet
  facet normal -0.047857722613680945 0.3991516625366035 -0.9156350739680614
    outer loop
      vertex 0.18267949 0.6624535 0.055574574
      vertex 0.19 0.65589076 0.052331064
      vertex -0.165 0.5917436 0.042922344
    endloop
  endfacet
  facet normal 0.0 0.4430708194715481 -0.8964866139172469
    outer loop
      vertex 0.19 0.686946 0.0676795
      vertex 0.21 0.686946 0.0676795
      vertex 0.2 0.65348864 0.05114386
    endloop
  endfacet
  facet normal -3.4659640826306634E-7 0.4430707362146634 -0.8964866550652475
    outer loop
      vertex 0.19 0.686946 0.0676795
      vertex 0.2 0.65348864 0.05114386
      vertex 0.19 0.65589076 0.052331064
    endloop
  endfacet
  facet normal -7.120167299141349E-7 0.4430707362145777 -0.8964866550650741
    outer loop
      vertex 0.19 0.686946 0.0676795
      vertex 0.19 0.65589076 0.052331064
      vertex 0.18 0.67141837 0.060005285
    endloop
  endfacet
  facet normal -0.10284216536832953 0.5914606115408045 -0.7997486067622318
    outer loop
      vertex 0.19 0.686946 0.0676795
      vertex -0.165 0.5917436 0.042922344
      vertex -0.255 0.5891554 0.0525816
    endloop
  endfacet
  facet normal -0.20145248762241422 0.9521822183018936 -0.22970833328468118
    outer loop
      vertex 0.19 0.686946 0.0676795
      vertex -0.255 0.5891554 0.0525816
      vertex 0.2 0.6893481 0.06886671
    endloop
  endfacet
  facet normal 0.0 0.44307666031269405 -0.8964837271730868
    outer loop
      vertex 0.19 0.686946 0.0676795
      vertex 0.2 0.6893481 0.06886671
      vertex 0.21 0.686946 0.0676795
    endloop
  endfacet
  facet normal 0.4069397698645592 0.29252967585538603 0.8653475674239355
    outer loop
      vertex 0.30398527 0.2444756 0.30211398
      vertex 0.3283883 0.2105284 0.30211398
      vertex 0.222 0.6501673 0.20352493
    endloop
  endfacet
  facet normal 0.37024616633277135 0.2893371031414277 0.8827240888644723
    outer loop
      vertex 0.30398527 0.2444756 0.30211398
      vertex 0.222 0.6501673 0.20352493
      vertex 0.222 0.58501405 0.2248807
    endloop
  endfacet
  facet normal 0.27570840502064775 0.2752551894932355 0.9209883039746019
    outer loop
      vertex 0.30398527 0.2444756 0.30211398
      vertex 0.222 0.58501405 0.2248807
      vertex 0.2451524 0.30340534 0.30211398
    endloop
  endfacet
  facet normal -0.07680549423330862 0.5093007671023123 -0.8571543878932042
    outer loop
      vertex 0.18267949 0.6803832 0.064435996
      vertex -0.165 0.5917436 0.042922344
      vertex 0.19 0.686946 0.0676795
    endloop
  endfacet
  facet normal -7.616912514378849E-6 0.4430743100761323 -0.8964848887139939
    outer loop
      vertex 0.18267949 0.6803832 0.064435996
      vertex 0.19 0.686946 0.0676795
      vertex 0.18 0.67141837 0.060005285
    endloop
  endfacet
  facet normal -0.061594736706995626 0.45696659923578603 -0.8873486437657278
    outer loop
      vertex 0.18267949 0.6803832 0.064435996
      vertex 0.18 0.67141837 0.060005285
      vertex -0.165 0.5917436 0.042922344
    endloop
  endfacet
  facet normal 0.0 0.0 1.0
    outer loop
      vertex 0.21001115 0.12125 0.33099
      vertex 0.21001115 -0.12125 0.33099
      vertex 0.2425 -5.939537E-17 0.33099
    endloop
  endfacet
  facet normal 0.17790396792870544 0.047669239822189825 0.982892578957638
    outer loop
      vertex 0.21001115 0.12125 0.33099
      vertex 0.2425 -5.939537E-17 0.33099
      vertex 0.36557445 0.13607502 0.30211398
    endloop
  endfacet
  facet normal 0.17381223757099962 0.08681147770794048 0.9809449900013386
    outer loop
      vertex 0.21001115 0.12125 0.33099
      vertex 0.36557445 0.13607502 0.30211398
      vertex 0.3283883 0.2105284 0.30211398
    endloop
  endfacet
  facet normal 0.15525844608907077 0.11160792400153728 0.9815490238485668
    outer loop
      vertex 0.21001115 0.12125 0.33099
      vertex 0.3283883 0.2105284 0.30211398
      vertex 0.30398527 0.2444756 0.30211398
    endloop
  endfacet
  facet normal 0.13077902641421452 0.13056404898026092 0.982776615189856
    outer loop
      vertex 0.21001115 0.12125 0.33099
      vertex 0.30398527 0.2444756 0.30211398
      vertex 0.2451524 0.30340534 0.30211398
    endloop
  endfacet
  facet normal 0.1306012981642631 0.1306012981642631 0.982795300067933
    outer loop
      vertex 0.21001115 0.12125 0.33099
      vertex 0.2451524 0.30340534 0.30211398
      vertex 0.12125 0.21001115 0.33099
    endloop
  endfacet
  facet normal 0.0 0.0 -1.0
    outer loop
      vertex -0.165 0.3954703 -8.921775E-8
      vertex -0.165 0.47200495 -8.921775E-8
      vertex 0.165 0.47200495 -8.921775E-8
    endloop
  endfacet
  facet normal -0.9462929161230392 -0.3233105579707453 -0.0
    outer loop
      vertex -0.4983642 -0.04041176 0.12
      vertex -0.4983642 -0.04041176 0.0
      vertex -0.41890413 -0.27298227 0.0
    endloop
  endfacet
  facet normal -0.7071067811865476 -0.7071067811865476 0.0
    outer loop
      vertex -0.4180856 -0.27423424 0.04
      vertex -0.27423424 -0.4180856 0.04
      vertex -0.27423424 -0.4180856 0.12
    endloop
  endfacet
  facet normal -0.8369897526866528 -0.5472185613605736 0.0
    outer loop
      vertex -0.4180856 -0.27423424 0.04
      vertex -0.4180856 -0.27423424 0.12
      vertex -0.41890413 -0.27298227 0.12
    endloop
  endfacet
  facet normal -0.2457701645336698 -0.9693281313492831 0.0
    outer loop
      vertex -0.23823188 -0.43959704 0.0
      vertex 9.184851E-17 -0.5 0.0
      vertex 9.184851E-17 -0.5 0.12
    endloop
  endfacet
  facet normal -0.5129173980674513 -0.8584379667510728 0.0
    outer loop
      vertex -0.23823188 -0.43959704 0.0
      vertex -0.23823188 -0.43959704 0.12
      vertex -0.27423424 -0.4180856 0.12
    endloop
  endfacet
  facet normal 0.008702790584284619 -0.9999621300009547 0.0
    outer loop
      vertex 0.008701477 -0.49992427 0.12
      vertex 9.184851E-17 -0.5 0.12
      vertex 9.184851E-17 -0.5 0.0
    endloop
  endfacet
  facet normal 0.08715563367736544 -0.9961947076341537 0.0
    outer loop
      vertex 0.008701477 -0.49992427 0.12
      vertex 0.008701477 -0.49992427 0.04
      vertex 0.07824166 -0.4938403 0.04
    endloop
  endfacet
  facet normal 0.3210885890720356 -0.9470491634375322 0.0
    outer loop
      vertex 0.23823188 -0.43959704 0.12
      vertex 0.07824166 -0.4938403 0.12
      vertex 0.07824166 -0.4938403 0.04
    endloop
  endfacet
  facet normal 0.5129173980674513 -0.8584379667510728 0.0
    outer loop
      vertex 0.23823188 -0.43959704 0.12
      vertex 0.23823188 -0.43959704 0.0
      vertex 0.27423424 -0.4180856 0.04
    endloop
  endfacet
  facet normal -0.0 0.33367851401248355 0.9426869306861217
    outer loop
      vertex -0.13600282 0.3716399 0.30211398
      vertex 0.13583528 0.3716399 0.30211398
      vertex 0.222 0.6501673 0.20352493
    endloop
  endfacet
  facet normal 0.8369897526866528 -0.5472185613605736 0.0
    outer loop
      vertex 0.4180856 -0.27423424 0.04
      vertex 0.41890413 -0.27298227 0.0
      vertex 0.41890413 -0.27298227 0.12
    endloop
  endfacet
  facet normal 0.7071067811865476 -0.7071067811865476 0.0
    outer loop
      vertex 0.4180856 -0.27423424 0.04
      vertex 0.4180856 -0.27423424 0.12
      vertex 0.27423424 -0.4180856 0.12
    endloop
  endfacet
  facet normal 6.833215307926135E-7 4.0948549144367024E-7 -0.9999999999996827
    outer loop
      vertex 0.4442065 0.22396182 0.0
      vertex 0.4574136 0.20192271 0.0
      vertex 0.165 0.47200495 -8.921775E-8
    endloop
  endfacet
  facet normal 0.9462929161230392 -0.3233105579707453 0.0
    outer loop
      vertex 0.4983642 -0.04041176 0.12
      vertex 0.41890413 -0.27298227 0.12
      vertex 0.41890413 -0.27298227 0.0
    endloop
  endfacet
  facet normal 0.0 0.0 1.0
    outer loop
      vertex 0.21001115 0.12125 0.33099
      vertex 0.12125 0.21001115 0.33099
      vertex 6.8694657E-17 0.2425 0.33099
    endloop
  endfacet
  facet normal 0.0 0.0 1.0
    outer loop
      vertex 0.21001115 0.12125 0.33099
      vertex 6.8694657E-17 0.2425 0.33099
      vertex -0.12125 0.21001115 0.33099
    endloop
  endfacet
  facet normal 0.0 0.0 1.0
    outer loop
      vertex 0.21001115 0.12125 0.33099
      vertex -0.12125 0.21001115 0.33099
      vertex -0.21001115 0.12125 0.33099
    endloop
  endfacet
  facet normal 0.0 0.0 1.0
    outer loop
      vertex 0.21001115 0.12125 0.33099
      vertex -0.21001115 0.12125 0.33099
      vertex -0.2425 2.9697687E-17 0.33099
    endloop
  endfacet
  facet normal 0.0 0.0 1.0
    outer loop
      vertex 0.21001115 0.12125 0.33099
      vertex -0.2425 2.9697687E-17 0.33099
      vertex -0.21001115 -0.12125 0.33099
    endloop
  endfacet
  facet normal 0.0 0.0 1.0
    outer loop
      vertex 0.21001115 0.12125 0.33099
      vertex -0.21001115 -0.12125 0.33099
      vertex -0.12125 -0.21001115 0.33099
    endloop
  endfacet
  facet normal 0.0 0.0 1.0
    outer loop
      vertex 0.21001115 0.12125 0.33099
      vertex -0.12125 -0.21001115 0.33099
      vertex -2.599298E-16 -0.2425 0.33099
    endloop
  endfacet
  facet normal 0.0 0.0 1.0
    outer loop
      vertex 0.21001115 0.12125 0.33099
      vertex -2.599298E-16 -0.2425 0.33099
      vertex 0.12125 -0.21001115 0.33099
    endloop
  endfacet
  facet normal 0.0 0.0 1.0
    outer loop
      vertex 0.21001115 0.12125 0.33099
      vertex 0.12125 -0.21001115 0.33099
      vertex 0.21001115 -0.12125 0.33099
    endloop
  endfacet
endsolid grep4CCC00u2_10
