solid grep4CCC00u2_18
  facet normal -0.6972588061328419 -0.6972613435263001 -0.16630326543427534
    outer loop
      vertex -0.046226191999997786 -0.08006620000000009 0.0
      vertex -0.04949999999999779 -0.0857365000000001 0.03750000000000009
      vertex -0.0783534049999978 -0.056883200000000134 0.03750000000000009
    endloop
  endfacet
  facet normal 0.6972643384841929 -0.6972553667494195 -0.16630512865613542
    outer loop
      vertex 0.0800661100000022 -0.046226199999999995 0.0
      vertex 0.08573651000000221 -0.0495000000000001 0.03750000000000009
      vertex 0.07835340500000221 -0.056883200000000134 0.03750000000000009
    endloop
  endfacet
  facet normal 0.6972526470479568 0.6972674119270483 -0.16630364532737502
    outer loop
      vertex 0.04622619200000221 0.08006610000000025 -4.440892098500626E-16
      vertex 0.049500000000002216 0.08573640000000005 0.037499999999999645
      vertex 0.06064503600000221 0.07459159999999976 0.037499999999999645
    endloop
  endfacet
  facet normal -0.6972616235833374 0.6972581222137795 -0.16630495868987974
    outer loop
      vertex -0.08006610999999779 0.046226199999999995 0.0
      vertex -0.0857365099999978 0.0495000000000001 0.03750000000000009
      vertex -0.060645035999997786 0.07459159999999976 0.037499999999999645
    endloop
  endfacet
  facet normal -0.2552164275021864 -0.952474685568493 -0.1663025811111228
    outer loop
      vertex -0.006749999999997789 -0.09719140000000004 0.03750000000000009
      vertex -0.04949999999999779 -0.0857365000000001 0.03750000000000009
      vertex -0.046226191999997786 -0.08006620000000009 0.0
    endloop
  endfacet
  facet normal -0.2552134263479942 -0.952474919453889 -0.16630584723041075
    outer loop
      vertex -0.006749999999997789 -0.09719140000000004 0.03750000000000009
      vertex -0.046226191999997786 -0.08006620000000009 0.0
      vertex -2.0259908112716622E-17 -0.09245239999999999 0.0
    endloop
  endfacet
  facet normal -0.2552073150825355 -0.9524767095027116 -0.16630497341706474
    outer loop
      vertex -0.006749999999997789 -0.09719140000000004 0.03750000000000009
      vertex -2.0259908112716622E-17 -0.09245239999999999 0.0
      vertex -2.0983446459000974E-17 -0.09899999999999998 0.03750000000000009
    endloop
  endfacet
  facet normal -0.9524741226217777 -0.2552169354183395 -0.16630502581565615
    outer loop
      vertex -0.08006610999999779 -0.046226199999999995 0.0
      vertex -0.0857365099999978 -0.0495000000000001 0.03750000000000009
      vertex -0.08847183999999779 -0.03929170000000015 0.03750000000000009
    endloop
  endfacet
  facet normal -0.9524745975459673 -0.2552148412744002 -0.16630551952034028
    outer loop
      vertex -0.08006610999999779 -0.046226199999999995 0.0
      vertex -0.08847183999999779 -0.03929170000000015 0.03750000000000009
      vertex -0.09245238499999779 0.0 0.0
    endloop
  endfacet
  facet normal -0.6972605581493289 -0.6972588685699603 -0.16630629648280018
    outer loop
      vertex -0.08006610999999779 -0.046226199999999995 0.0
      vertex -0.046226191999997786 -0.08006620000000009 0.0
      vertex -0.0783534049999978 -0.056883200000000134 0.03750000000000009
    endloop
  endfacet
  facet normal -0.6972643384841929 -0.6972553667494195 -0.16630512865613542
    outer loop
      vertex -0.08006610999999779 -0.046226199999999995 0.0
      vertex -0.0783534049999978 -0.056883200000000134 0.03750000000000009
      vertex -0.0857365099999978 -0.0495000000000001 0.03750000000000009
    endloop
  endfacet
  facet normal 0.25520731508237776 -0.9524767095027525 -0.1663049734170719
    outer loop
      vertex 0.006750000000002211 -0.09719140000000004 0.03750000000000009
      vertex -2.0983446459000974E-17 -0.09899999999999998 0.03750000000000009
      vertex -2.0259908112716622E-17 -0.09245239999999999 0.0
    endloop
  endfacet
  facet normal 0.9524741226217777 -0.2552169354183395 -0.16630502581565615
    outer loop
      vertex 0.0884718400000022 -0.03929170000000015 0.03750000000000009
      vertex 0.08573651000000221 -0.0495000000000001 0.03750000000000009
      vertex 0.0800661100000022 -0.046226199999999995 0.0
    endloop
  endfacet
  facet normal 0.9524745975459673 -0.2552148412744002 -0.16630551952034028
    outer loop
      vertex 0.0884718400000022 -0.03929170000000015 0.03750000000000009
      vertex 0.0800661100000022 -0.046226199999999995 0.0
      vertex 0.0924523850000022 0.0 0.0
    endloop
  endfacet
  facet normal 0.25521642750218637 -0.952474685568493 -0.16630258111112278
    outer loop
      vertex 0.04622619200000221 -0.08006620000000009 0.0
      vertex 0.049500000000002216 -0.0857365000000001 0.03750000000000009
      vertex 0.006750000000002211 -0.09719140000000004 0.03750000000000009
    endloop
  endfacet
  facet normal 0.25521342634797 -0.9524749194538908 -0.166305847230437
    outer loop
      vertex 0.04622619200000221 -0.08006620000000009 0.0
      vertex 0.006750000000002211 -0.09719140000000004 0.03750000000000009
      vertex -2.0259908112716622E-17 -0.09245239999999999 0.0
    endloop
  endfacet
  facet normal 0.697260558149329 -0.6972588685699602 -0.16630629648280018
    outer loop
      vertex 0.04622619200000221 -0.08006620000000009 0.0
      vertex 0.0800661100000022 -0.046226199999999995 0.0
      vertex 0.07835340500000221 -0.056883200000000134 0.03750000000000009
    endloop
  endfacet
  facet normal 0.6972588061328421 -0.6972613435262999 -0.16630326543427532
    outer loop
      vertex 0.04622619200000221 -0.08006620000000009 0.0
      vertex 0.07835340500000221 -0.056883200000000134 0.03750000000000009
      vertex 0.049500000000002216 -0.0857365000000001 0.03750000000000009
    endloop
  endfacet
  facet normal 0.25521987708404964 0.952473733789567 -0.1663027383483614
    outer loop
      vertex 0.008799847000002211 0.09664219999999979 0.037499999999999645
      vertex 0.049500000000002216 0.08573640000000005 0.037499999999999645
      vertex 0.04622619200000221 0.08006610000000025 -4.440892098500626E-16
    endloop
  endfacet
  facet normal 0.25521728987780423 0.9524739588271904 -0.16630541994621945
    outer loop
      vertex 0.008799847000002211 0.09664219999999979 0.037499999999999645
      vertex 0.04622619200000221 0.08006610000000025 -4.440892098500626E-16
      vertex -2.0021226908112714E-14 0.09245249999999983 -4.440892098500626E-16
    endloop
  endfacet
  facet normal 0.25520362592841683 0.9524780990841385 -0.16630267610009974
    outer loop
      vertex 0.008799847000002211 0.09664219999999979 0.037499999999999645
      vertex -2.0021226908112714E-14 0.09245249999999983 -4.440892098500626E-16
      vertex -2.0011858846459002E-14 0.0990000000000002 0.037499999999999645
    endloop
  endfacet
  facet normal 0.9524741226217806 0.2552169354183291 -0.16630502581565568
    outer loop
      vertex 0.0800661100000022 0.046226199999999995 0.0
      vertex 0.08573651000000221 0.0495000000000001 0.03750000000000009
      vertex 0.0884718400000022 0.03929169999999971 0.03750000000000009
    endloop
  endfacet
  facet normal 0.9524745975459679 0.25521484127440036 -0.16630551952033737
    outer loop
      vertex 0.0800661100000022 0.046226199999999995 0.0
      vertex 0.0884718400000022 0.03929169999999971 0.03750000000000009
      vertex 0.0924523850000022 0.0 0.0
    endloop
  endfacet
  facet normal 0.6972594013637596 0.6972597722475082 -0.1663073576700826
    outer loop
      vertex 0.0800661100000022 0.046226199999999995 0.0
      vertex 0.04622619200000221 0.08006610000000025 -4.440892098500626E-16
      vertex 0.06064503600000221 0.07459159999999976 0.037499999999999645
    endloop
  endfacet
  facet normal 0.6972616235833375 0.6972581222137793 -0.16630495868987974
    outer loop
      vertex 0.0800661100000022 0.046226199999999995 0.0
      vertex 0.06064503600000221 0.07459159999999976 0.037499999999999645
      vertex 0.08573651000000221 0.0495000000000001 0.03750000000000009
    endloop
  endfacet
  facet normal -0.2552140184047879 0.9524753968772012 -0.16630220429476839
    outer loop
      vertex -0.037596079999997783 0.08892619999999951 0.037499999999999645
      vertex -2.0011858846459002E-14 0.0990000000000002 0.037499999999999645
      vertex -2.0021226908112714E-14 0.09245249999999983 -4.440892098500626E-16
    endloop
  endfacet
  facet normal -0.9524741226217806 0.2552169354183291 -0.16630502581565568
    outer loop
      vertex -0.08847183999999779 0.03929169999999971 0.03750000000000009
      vertex -0.0857365099999978 0.0495000000000001 0.03750000000000009
      vertex -0.08006610999999779 0.046226199999999995 0.0
    endloop
  endfacet
  facet normal -0.9524745975459679 0.25521484127440036 -0.16630551952033734
    outer loop
      vertex -0.08847183999999779 0.03929169999999971 0.03750000000000009
      vertex -0.08006610999999779 0.046226199999999995 0.0
      vertex -0.09245238499999779 0.0 0.0
    endloop
  endfacet
  facet normal -0.2552264256262008 0.9524719269360946 -0.1663030368355197
    outer loop
      vertex -0.046226191999997786 0.08006610000000025 -4.440892098500626E-16
      vertex -0.04949999999999779 0.08573640000000005 0.037499999999999645
      vertex -0.037596079999997783 0.08892619999999951 0.037499999999999645
    endloop
  endfacet
  facet normal -0.2552172814134051 0.9524739272370362 -0.16630561386077175
    outer loop
      vertex -0.046226191999997786 0.08006610000000025 -4.440892098500626E-16
      vertex -0.037596079999997783 0.08892619999999951 0.037499999999999645
      vertex -2.0021226908112714E-14 0.09245249999999983 -4.440892098500626E-16
    endloop
  endfacet
  facet normal -0.6972594013637595 0.6972597722475083 -0.16630735767008248
    outer loop
      vertex -0.046226191999997786 0.08006610000000025 -4.440892098500626E-16
      vertex -0.08006610999999779 0.046226199999999995 0.0
      vertex -0.060645035999997786 0.07459159999999976 0.037499999999999645
    endloop
  endfacet
  facet normal -0.6972526470479568 0.6972674119270483 -0.16630364532737502
    outer loop
      vertex -0.046226191999997786 0.08006610000000025 -4.440892098500626E-16
      vertex -0.060645035999997786 0.07459159999999976 0.037499999999999645
      vertex -0.04949999999999779 0.08573640000000005 0.037499999999999645
    endloop
  endfacet
  facet normal -0.9524747919386581 -0.25521441813819223 -0.16630505553287905
    outer loop
      vertex -0.0971925799999978 -0.0067453999999997905 0.03750000000000009
      vertex -0.09245238499999779 0.0 0.0
      vertex -0.08847183999999779 -0.03929170000000015 0.03750000000000009
    endloop
  endfacet
  facet normal -0.9524748461972378 -0.2552142328866886 -0.16630502906889916
    outer loop
      vertex -0.0971925799999978 -0.0067453999999997905 0.03750000000000009
      vertex -0.0989999999999978 0.0 0.03750000000000009
      vertex -0.09245238499999779 0.0 0.0
    endloop
  endfacet
  facet normal 0.9524747919386581 -0.25521441813819223 -0.16630505553287905
    outer loop
      vertex 0.09719258000000221 -0.0067453999999997905 0.03750000000000009
      vertex 0.0884718400000022 -0.03929170000000015 0.03750000000000009
      vertex 0.0924523850000022 0.0 0.0
    endloop
  endfacet
  facet normal 0.9524748461972378 -0.2552142328866886 -0.16630502906889916
    outer loop
      vertex 0.09719258000000221 -0.0067453999999997905 0.03750000000000009
      vertex 0.0924523850000022 0.0 0.0
      vertex 0.09900000000000221 0.0 0.03750000000000009
    endloop
  endfacet
  facet normal 0.9524747919386573 0.25521441813819545 -0.1663050555328795
    outer loop
      vertex 0.09719258000000221 0.0067453999999997905 0.03750000000000009
      vertex 0.0924523850000022 0.0 0.0
      vertex 0.0884718400000022 0.03929169999999971 0.03750000000000009
    endloop
  endfacet
  facet normal 0.9524748461972378 0.2552142328866886 -0.16630502906889916
    outer loop
      vertex 0.09719258000000221 0.0067453999999997905 0.03750000000000009
      vertex 0.09900000000000221 0.0 0.03750000000000009
      vertex 0.0924523850000022 0.0 0.0
    endloop
  endfacet
  facet normal -0.9524747919386573 0.25521441813819545 -0.1663050555328795
    outer loop
      vertex -0.0971925799999978 0.0067453999999997905 0.03750000000000009
      vertex -0.08847183999999779 0.03929169999999971 0.03750000000000009
      vertex -0.09245238499999779 0.0 0.0
    endloop
  endfacet
  facet normal -0.9524748461972378 0.2552142328866886 -0.16630502906889916
    outer loop
      vertex -0.0971925799999978 0.0067453999999997905 0.03750000000000009
      vertex -0.09245238499999779 0.0 0.0
      vertex -0.0989999999999978 0.0 0.03750000000000009
    endloop
  endfacet
  facet normal 4.803509462370339E-15 -1.7926754398473235E-14 -1.0
    outer loop
      vertex -2.0021226908112714E-14 0.09245249999999983 -4.440892098500626E-16
      vertex -0.08006610999999779 0.046226199999999995 0.0
      vertex -0.046226191999997786 0.08006610000000025 -4.440892098500626E-16
    endloop
  endfacet
  facet normal 0.0 0.0 1.0
    outer loop
      vertex -0.0971925799999978 0.0067453999999997905 0.03750000000000009
      vertex -0.0857365099999978 0.0495000000000001 0.03750000000000009
      vertex -0.08847183999999779 0.03929169999999971 0.03750000000000009
    endloop
  endfacet
  facet normal -4.803509462364026E-15 -1.7926754398466918E-14 -1.0
    outer loop
      vertex -2.0021226908112714E-14 0.09245249999999983 -4.440892098500626E-16
      vertex 0.04622619200000221 0.08006610000000025 -4.440892098500626E-16
      vertex 0.0800661100000022 0.046226199999999995 0.0
    endloop
  endfacet
  facet normal 6.561620395026584E-15 1.7581811755759273E-15 -1.0
    outer loop
      vertex -2.0021226908112714E-14 0.09245249999999983 -4.440892098500626E-16
      vertex 0.0800661100000022 0.046226199999999995 0.0
      vertex 0.0924523850000022 0.0 0.0
    endloop
  endfacet
  facet normal 3.7883502203812155E-15 -1.015085549449281E-15 -1.0
    outer loop
      vertex -2.0021226908112714E-14 0.09245249999999983 -4.440892098500626E-16
      vertex 0.0924523850000022 0.0 0.0
      vertex 0.0800661100000022 -0.046226199999999995 0.0
    endloop
  endfacet
  facet normal 2.03017338821923E-15 -2.0301684687683423E-15 -1.0
    outer loop
      vertex -2.0021226908112714E-14 0.09245249999999983 -4.440892098500626E-16
      vertex 0.0800661100000022 -0.046226199999999995 0.0
      vertex 0.04622619200000221 -0.08006620000000009 0.0
    endloop
  endfacet
  facet normal 6.43534405148039E-16 -2.4017168276776342E-15 -1.0
    outer loop
      vertex -2.0021226908112714E-14 0.09245249999999983 -4.440892098500626E-16
      vertex 0.04622619200000221 -0.08006620000000009 0.0
      vertex -2.0259908112716622E-17 -0.09245239999999999 0.0
    endloop
  endfacet
  facet normal -6.435344051481386E-16 -2.4017168276777734E-15 -1.0
    outer loop
      vertex -2.0021226908112714E-14 0.09245249999999983 -4.440892098500626E-16
      vertex -2.0259908112716622E-17 -0.09245239999999999 0.0
      vertex -0.046226191999997786 -0.08006620000000009 0.0
    endloop
  endfacet
  facet normal -2.0301733882196425E-15 -2.0301684687687553E-15 -1.0
    outer loop
      vertex -2.0021226908112714E-14 0.09245249999999983 -4.440892098500626E-16
      vertex -0.046226191999997786 -0.08006620000000009 0.0
      vertex -0.08006610999999779 -0.046226199999999995 0.0
    endloop
  endfacet
  facet normal -3.788350220382652E-15 -1.0150855494496659E-15 -1.0
    outer loop
      vertex -2.0021226908112714E-14 0.09245249999999983 -4.440892098500626E-16
      vertex -0.08006610999999779 -0.046226199999999995 0.0
      vertex -0.09245238499999779 0.0 0.0
    endloop
  endfacet
  facet normal -6.561620395030894E-15 1.758181175577082E-15 -1.0
    outer loop
      vertex -2.0021226908112714E-14 0.09245249999999983 -4.440892098500626E-16
      vertex -0.09245238499999779 0.0 0.0
      vertex -0.08006610999999779 0.046226199999999995 0.0
    endloop
  endfacet
  facet normal 0.0 0.0 1.0
    outer loop
      vertex -0.0971925799999978 0.0067453999999997905 0.03750000000000009
      vertex -0.0989999999999978 0.0 0.03750000000000009
      vertex -0.0971925799999978 -0.0067453999999997905 0.03750000000000009
    endloop
  endfacet
  facet normal 0.0 0.0 1.0
    outer loop
      vertex -0.0971925799999978 0.0067453999999997905 0.03750000000000009
      vertex -0.0971925799999978 -0.0067453999999997905 0.03750000000000009
      vertex -0.08847183999999779 -0.03929170000000015 0.03750000000000009
    endloop
  endfacet
  facet normal 0.0 0.0 1.0
    outer loop
      vertex -0.0971925799999978 0.0067453999999997905 0.03750000000000009
      vertex -0.08847183999999779 -0.03929170000000015 0.03750000000000009
      vertex -0.0857365099999978 -0.0495000000000001 0.03750000000000009
    endloop
  endfacet
  facet normal 0.0 0.0 1.0
    outer loop
      vertex -0.0971925799999978 0.0067453999999997905 0.03750000000000009
      vertex -0.0857365099999978 -0.0495000000000001 0.03750000000000009
      vertex -0.0783534049999978 -0.056883200000000134 0.03750000000000009
    endloop
  endfacet
  facet normal 0.0 0.0 1.0
    outer loop
      vertex -0.0971925799999978 0.0067453999999997905 0.03750000000000009
      vertex -0.0783534049999978 -0.056883200000000134 0.03750000000000009
      vertex -0.04949999999999779 -0.0857365000000001 0.03750000000000009
    endloop
  endfacet
  facet normal 0.0 0.0 1.0
    outer loop
      vertex -0.0971925799999978 0.0067453999999997905 0.03750000000000009
      vertex -0.04949999999999779 -0.0857365000000001 0.03750000000000009
      vertex -0.006749999999997789 -0.09719140000000004 0.03750000000000009
    endloop
  endfacet
  facet normal 0.0 0.0 1.0
    outer loop
      vertex -0.0971925799999978 0.0067453999999997905 0.03750000000000009
      vertex -0.006749999999997789 -0.09719140000000004 0.03750000000000009
      vertex -2.0983446459000974E-17 -0.09899999999999998 0.03750000000000009
    endloop
  endfacet
  facet normal 0.0 0.0 1.0
    outer loop
      vertex -0.0971925799999978 0.0067453999999997905 0.03750000000000009
      vertex -2.0983446459000974E-17 -0.09899999999999998 0.03750000000000009
      vertex 0.006750000000002211 -0.09719140000000004 0.03750000000000009
    endloop
  endfacet
  facet normal 0.0 0.0 1.0
    outer loop
      vertex -0.0971925799999978 0.0067453999999997905 0.03750000000000009
      vertex 0.006750000000002211 -0.09719140000000004 0.03750000000000009
      vertex 0.049500000000002216 -0.0857365000000001 0.03750000000000009
    endloop
  endfacet
  facet normal 0.0 0.0 1.0
    outer loop
      vertex -0.0971925799999978 0.0067453999999997905 0.03750000000000009
      vertex 0.049500000000002216 -0.0857365000000001 0.03750000000000009
      vertex 0.07835340500000221 -0.056883200000000134 0.03750000000000009
    endloop
  endfacet
  facet normal 0.0 0.0 1.0
    outer loop
      vertex -0.0971925799999978 0.0067453999999997905 0.03750000000000009
      vertex 0.07835340500000221 -0.056883200000000134 0.03750000000000009
      vertex 0.08573651000000221 -0.0495000000000001 0.03750000000000009
    endloop
  endfacet
  facet normal 0.0 0.0 1.0
    outer loop
      vertex -0.0971925799999978 0.0067453999999997905 0.03750000000000009
      vertex 0.08573651000000221 -0.0495000000000001 0.03750000000000009
      vertex 0.0884718400000022 -0.03929170000000015 0.03750000000000009
    endloop
  endfacet
  facet normal 0.0 0.0 1.0
    outer loop
      vertex -0.0971925799999978 0.0067453999999997905 0.03750000000000009
      vertex 0.0884718400000022 -0.03929170000000015 0.03750000000000009
      vertex 0.09719258000000221 -0.0067453999999997905 0.03750000000000009
    endloop
  endfacet
  facet normal 0.0 0.0 1.0
    outer loop
      vertex -0.0971925799999978 0.0067453999999997905 0.03750000000000009
      vertex 0.09719258000000221 -0.0067453999999997905 0.03750000000000009
      vertex 0.09900000000000221 0.0 0.03750000000000009
    endloop
  endfacet
  facet normal -0.0 0.0 1.0
    outer loop
      vertex -0.0971925799999978 0.0067453999999997905 0.03750000000000009
      vertex 0.09900000000000221 0.0 0.03750000000000009
      vertex 0.09719258000000221 0.0067453999999997905 0.03750000000000009
    endloop
  endfacet
  facet normal 0.0 0.0 1.0
    outer loop
      vertex -0.0971925799999978 0.0067453999999997905 0.03750000000000009
      vertex 0.09719258000000221 0.0067453999999997905 0.03750000000000009
      vertex 0.0884718400000022 0.03929169999999971 0.03750000000000009
    endloop
  endfacet
  facet normal 0.0 0.0 1.0
    outer loop
      vertex -0.0971925799999978 0.0067453999999997905 0.03750000000000009
      vertex 0.0884718400000022 0.03929169999999971 0.03750000000000009
      vertex 0.08573651000000221 0.0495000000000001 0.03750000000000009
    endloop
  endfacet
  facet normal -3.3529335951123397E-15 1.434580352486807E-14 1.0
    outer loop
      vertex -0.0971925799999978 0.0067453999999997905 0.03750000000000009
      vertex 0.08573651000000221 0.0495000000000001 0.03750000000000009
      vertex 0.06064503600000221 0.07459159999999976 0.037499999999999645
    endloop
  endfacet
  facet normal 1.9677369457802076E-15 1.9677786141743135E-15 1.0
    outer loop
      vertex -0.0971925799999978 0.0067453999999997905 0.03750000000000009
      vertex 0.06064503600000221 0.07459159999999976 0.037499999999999645
      vertex 0.049500000000002216 0.08573640000000005 0.037499999999999645
    endloop
  endfacet
  facet normal 1.0058990405351388E-15 3.753988231247073E-15 1.0
    outer loop
      vertex -0.0971925799999978 0.0067453999999997905 0.03750000000000009
      vertex 0.049500000000002216 0.08573640000000005 0.037499999999999645
      vertex 0.008799847000002211 0.09664219999999979 0.037499999999999645
    endloop
  endfacet
  facet normal 1.005846863251901E-15 3.7540497506435925E-15 1.0
    outer loop
      vertex -0.0971925799999978 0.0067453999999997905 0.03750000000000009
      vertex 0.008799847000002211 0.09664219999999979 0.037499999999999645
      vertex -2.0011858846459002E-14 0.0990000000000002 0.037499999999999645
    endloop
  endfacet
  facet normal -1.7971490142653865E-15 6.707077578689079E-15 1.0
    outer loop
      vertex -0.0971925799999978 0.0067453999999997905 0.03750000000000009
      vertex -2.0011858846459002E-14 0.0990000000000002 0.037499999999999645
      vertex -0.037596079999997783 0.08892619999999951 0.037499999999999645
    endloop
  endfacet
  facet normal -1.79726558184477E-15 6.707162112056301E-15 1.0
    outer loop
      vertex -0.0971925799999978 0.0067453999999997905 0.03750000000000009
      vertex -0.037596079999997783 0.08892619999999951 0.037499999999999645
      vertex -0.04949999999999779 0.08573640000000005 0.037499999999999645
    endloop
  endfacet
  facet normal -1.4188111650209345E-14 1.4188412094752569E-14 1.0
    outer loop
      vertex -0.0971925799999978 0.0067453999999997905 0.03750000000000009
      vertex -0.04949999999999779 0.08573640000000005 0.037499999999999645
      vertex -0.060645035999997786 0.07459159999999976 0.037499999999999645
    endloop
  endfacet
  facet normal 2.4177074672224293E-14 -6.478232981719547E-15 1.0
    outer loop
      vertex -0.0971925799999978 0.0067453999999997905 0.03750000000000009
      vertex -0.060645035999997786 0.07459159999999976 0.037499999999999645
      vertex -0.0857365099999978 0.0495000000000001 0.03750000000000009
    endloop
  endfacet
endsolid grep4CCC00u2_18
