solid grep4CCC00u2_14
  facet normal 0.9961947344127902 0.08715532759522325 -0.0
    outer loop
      vertex 0.14915599 0.079301566 0.4965
      vertex 0.14654133 0.10918741 0.4965
      vertex 0.14915599 0.079301566 0.6475
    endloop
  endfacet
  facet normal 0.9961947344127902 0.08715532759522325 -0.0
    outer loop
      vertex 0.14654133 0.10918741 0.4965
      vertex 0.14654133 0.10918741 0.6475
      vertex 0.14915599 0.079301566 0.6475
    endloop
  endfacet
  facet normal 0.0 0.0 -1.0
    outer loop
      vertex -0.012810294 0.071843185 0.4835
      vertex -0.012899134 0.07285865 0.4835
      vertex -0.012830744 0.07294015 0.4835
    endloop
  endfacet
  facet normal 0.7660058215558218 -0.642833634265189 0.0
    outer loop
      vertex 0.19114959 -0.05733927 0.4835
      vertex 0.19121799 -0.057257764 0.4835
      vertex 0.19121799 -0.057257764 0.4965
    endloop
  endfacet
  facet normal 0.7660058215558218 -0.642833634265189 0.0
    outer loop
      vertex 0.17095153 -0.081410386 0.4965
      vertex 0.17095153 -0.081410386 0.4835
      vertex 0.17101993 -0.08132888 0.4835
    endloop
  endfacet
  facet normal 0.766044646002088 -0.6427873678997866 0.0
    outer loop
      vertex 0.17101993 -0.08132888 0.421
      vertex 0.19114959 -0.05733927 0.421
      vertex 0.17101993 -0.08132888 0.4835
    endloop
  endfacet
  facet normal 0.766044646002088 -0.6427873678997866 0.0
    outer loop
      vertex 0.19114959 -0.05733927 0.421
      vertex 0.19114959 -0.05733927 0.4835
      vertex 0.17101993 -0.08132888 0.4835
    endloop
  endfacet
  facet normal 0.7660446460019945 -0.6427873678997081 4.943521925455141E-7
    outer loop
      vertex 0.17101993 -0.08132888 0.4835
      vertex 0.19114959 -0.05733927 0.4835
      vertex 0.17095153 -0.081410386 0.4965
    endloop
  endfacet
  facet normal 0.7660443839624125 -0.642787680186395 -4.910155197685482E-7
    outer loop
      vertex 0.19114959 -0.05733927 0.4835
      vertex 0.19121799 -0.057257764 0.4965
      vertex 0.17095153 -0.081410386 0.4965
    endloop
  endfacet
  facet normal 0.08715565253499077 -0.9961947059843272 0.0
    outer loop
      vertex 0.05781039 -0.07273828 0.6475
      vertex 0.1340176 -0.06607102 0.6475
      vertex 0.05781039 -0.07273828 0.7015
    endloop
  endfacet
  facet normal 0.08715565253499077 -0.9961947059843272 0.0
    outer loop
      vertex 0.1340176 -0.06607102 0.6475
      vertex 0.1340176 -0.06607102 0.7015
      vertex 0.05781039 -0.07273828 0.7015
    endloop
  endfacet
  facet normal 0.0 0.0 -1.0
    outer loop
      vertex 0.007298928 0.09692976 0.4835
      vertex 0.007367319 0.09701126 0.4835
      vertex 0.008382776 0.0971001 0.4835
    endloop
  endfacet
  facet normal 0.9878713239961733 0.15527474754784704 -0.0
    outer loop
      vertex 0.1784591 0.08857709 0.421
      vertex 0.17828874 0.089660935 0.421
      vertex 0.1784591 0.08857709 0.4835
    endloop
  endfacet
  facet normal 0.9878713239961733 0.15527474754784704 -0.0
    outer loop
      vertex 0.17828874 0.089660935 0.421
      vertex 0.17828874 0.089660935 0.4835
      vertex 0.1784591 0.08857709 0.4835
    endloop
  endfacet
  facet normal 0.9099611167229771 -0.41469358091520114 0.0
    outer loop
      vertex 0.1340176 -0.06607102 0.6475
      vertex 0.14596163 -0.039862264 0.6475
      vertex 0.1340176 -0.06607102 0.7015
    endloop
  endfacet
  facet normal 0.9099611167229771 -0.41469358091520114 0.0
    outer loop
      vertex 0.14596163 -0.039862264 0.6475
      vertex 0.14596163 -0.039862264 0.7015
      vertex 0.1340176 -0.06607102 0.7015
    endloop
  endfacet
  facet normal 0.0 0.0 1.0
    outer loop
      vertex 0.015043624 0.09768285 0.4965
      vertex 0.007367319 0.09701126 0.4965
      vertex 0.017658297 0.06779701 0.4965
    endloop
  endfacet
  facet normal 0.0 0.0 1.0
    outer loop
      vertex 0.007367319 0.09701126 0.4965
      vertex -0.012899134 0.07285865 0.4965
      vertex 0.017658297 0.06779701 0.4965
    endloop
  endfacet
  facet normal 0.0 0.0 1.0
    outer loop
      vertex 0.017658297 0.06779701 0.4965
      vertex -0.012899134 0.07285865 0.4965
      vertex -0.012227545 0.065182336 0.4965
    endloop
  endfacet
  facet normal -0.01863919133558558 0.9998262751830217 0.0
    outer loop
      vertex 0.15429914 0.10979061 0.421
      vertex 0.15320218 0.10977016 0.421
      vertex 0.15429914 0.10979061 0.4835
    endloop
  endfacet
  facet normal -0.01863919133558558 0.9998262751830217 0.0
    outer loop
      vertex 0.15320218 0.10977016 0.421
      vertex 0.15320218 0.10977016 0.4835
      vertex 0.15429914 0.10979061 0.4835
    endloop
  endfacet
  facet normal -0.9961946957762903 -0.0871557692134295 0.0
    outer loop
      vertex 0.015043624 0.09768285 0.4965
      vertex 0.017658297 0.06779701 0.4965
      vertex 0.015043624 0.09768285 0.6475
    endloop
  endfacet
  facet normal -0.9961946957762903 -0.0871557692134295 0.0
    outer loop
      vertex 0.017658297 0.06779701 0.4965
      vertex 0.017658297 0.06779701 0.6475
      vertex 0.015043624 0.09768285 0.6475
    endloop
  endfacet
  facet normal -0.9998262767662913 -0.018639106407105786 -0.0
    outer loop
      vertex -0.012830744 0.07294015 0.4835
      vertex -0.012830744 0.07294015 0.43718806
      vertex -0.012810294 0.071843185 0.4835
    endloop
  endfacet
  facet normal -0.9998262767662913 -0.018639106407105786 0.0
    outer loop
      vertex -0.012830744 0.07294015 0.43718806
      vertex -0.012810294 0.071843185 0.43747845
      vertex -0.012810294 0.071843185 0.4835
    endloop
  endfacet
  facet normal 0.9998264449992845 0.01863007998085236 -0.0
    outer loop
      vertex 0.19114959 -0.05733927 0.421
      vertex 0.19112915 -0.05624231 0.421
      vertex 0.19114959 -0.05733927 0.4835
    endloop
  endfacet
  facet normal 0.9998264449992845 0.01863007998085236 -0.0
    outer loop
      vertex 0.19112915 -0.05624231 0.421
      vertex 0.19112915 -0.05624231 0.4835
      vertex 0.19114959 -0.05733927 0.4835
    endloop
  endfacet
  facet normal 0.08715577335218558 -0.9961946954141959 0.0
    outer loop
      vertex 0.16066055 -0.052196134 0.4965
      vertex 0.1905464 -0.04958146 0.4965
      vertex 0.16066055 -0.052196134 0.6475
    endloop
  endfacet
  facet normal 0.08715577335218558 -0.9961946954141959 0.0
    outer loop
      vertex 0.1905464 -0.04958146 0.4965
      vertex 0.1905464 -0.04958146 0.6475
      vertex 0.16066055 -0.052196134 0.6475
    endloop
  endfacet
  facet normal -0.044695212226666156 0.2548720123767665 0.9659413001373482
    outer loop
      vertex -0.012810294 0.071843185 0.43747845
      vertex -0.012830744 0.07294015 0.43718806
      vertex -0.012899134 0.07285865 0.4372064
    endloop
  endfacet
  facet normal 0.1552651537719438 -0.9878728319091353 0.0
    outer loop
      vertex 0.16993608 -0.08149923 0.421
      vertex 0.17101993 -0.08132888 0.421
      vertex 0.16993608 -0.08149923 0.4835
    endloop
  endfacet
  facet normal 0.1552651537719438 -0.9878728319091353 0.0
    outer loop
      vertex 0.17101993 -0.08132888 0.421
      vertex 0.17101993 -0.08132888 0.4835
      vertex 0.16993608 -0.08149923 0.4835
    endloop
  endfacet
  facet normal 0.0 -0.0 1.0
    outer loop
      vertex 0.1340176 -0.06607102 0.7015
      vertex 0.14596163 -0.039862264 0.7015
      vertex 0.05781039 -0.07273828 0.7015
    endloop
  endfacet
  facet normal 0.0 0.0 1.0
    outer loop
      vertex 0.14596163 -0.039862264 0.7015
      vertex 0.041496724 -0.049001757 0.7015
      vertex 0.05781039 -0.07273828 0.7015
    endloop
  endfacet
  facet normal -0.0 0.0 1.0
    outer loop
      vertex 0.04430125 0.08167189 0.7015
      vertex 0.03235723 0.05546314 0.7015
      vertex 0.12050846 0.088339165 0.7015
    endloop
  endfacet
  facet normal 0.0 0.0 1.0
    outer loop
      vertex 0.03235723 0.05546314 0.7015
      vertex 0.13682212 0.064602636 0.7015
      vertex 0.12050846 0.088339165 0.7015
    endloop
  endfacet
  facet normal -0.0 0.0 1.0
    outer loop
      vertex 0.008620703 0.039149478 0.7015
      vertex 0.01528797 -0.03705774 0.7015
      vertex 0.03235723 0.05546314 0.7015
    endloop
  endfacet
  facet normal -0.0 0.0 1.0
    outer loop
      vertex 0.01528797 -0.03705774 0.7015
      vertex 0.041496724 -0.049001757 0.7015
      vertex 0.03235723 0.05546314 0.7015
    endloop
  endfacet
  facet normal -0.0 0.0 1.0
    outer loop
      vertex 0.03235723 0.05546314 0.7015
      vertex 0.041496724 -0.049001757 0.7015
      vertex 0.13682212 0.064602636 0.7015
    endloop
  endfacet
  facet normal 0.0 0.0 1.0
    outer loop
      vertex 0.041496724 -0.049001757 0.7015
      vertex 0.14596163 -0.039862264 0.7015
      vertex 0.13682212 0.064602636 0.7015
    endloop
  endfacet
  facet normal 0.0 0.0 1.0
    outer loop
      vertex 0.13682212 0.064602636 0.7015
      vertex 0.14596163 -0.039862264 0.7015
      vertex 0.16303088 0.052658617 0.7015
    endloop
  endfacet
  facet normal 0.0 0.0 1.0
    outer loop
      vertex 0.14596163 -0.039862264 0.7015
      vertex 0.16969815 -0.0235486 0.7015
      vertex 0.16303088 0.052658617 0.7015
    endloop
  endfacet
  facet normal -0.08715580229355925 0.9961946928821525 0.0
    outer loop
      vertex 0.17904183 0.08191624 0.4965
      vertex 0.14915599 0.079301566 0.4965
      vertex 0.17904183 0.08191624 0.6475
    endloop
  endfacet
  facet normal -0.08715580229355925 0.9961946928821525 0.0
    outer loop
      vertex 0.14915599 0.079301566 0.4965
      vertex 0.14915599 0.079301566 0.6475
      vertex 0.17904183 0.08191624 0.6475
    endloop
  endfacet
  facet normal 6.343180577458235E-4 -0.25873021587347417 0.9659494153601766
    outer loop
      vertex -1.4023781E-4 -0.07297621 0.43747845
      vertex -5.139683E-5 -0.07399167 0.4372064
      vertex -7.340997E-5 -0.073522694 0.43733203
    endloop
  endfacet
  facet normal 2.4160635000561938E-4 -0.25874745963905427 0.9659449744973612
    outer loop
      vertex -5.139683E-5 -0.07399167 0.4372064
      vertex 3.010793E-5 -0.07406006 0.43718806
      vertex -7.340997E-5 -0.073522694 0.43733203
    endloop
  endfacet
  facet normal -0.6427842228927815 -0.7660472849636131 0.0
    outer loop
      vertex 3.010793E-5 -0.07406006 0.43718806
      vertex -5.139683E-5 -0.07399167 0.4372064
      vertex -5.139683E-5 -0.07399167 0.421
    endloop
  endfacet
  facet normal -0.6427875437281133 -0.7660444984646643 -0.0
    outer loop
      vertex -5.139682E-5 -0.07399167 0.4965
      vertex -5.139682E-5 -0.07399167 0.4835
      vertex 0.024101222 -0.09425812 0.4965
    endloop
  endfacet
  facet normal -0.6427842691382447 -0.7660472460892556 -1.0367270560503507E-5
    outer loop
      vertex -5.139682E-5 -0.07399167 0.4835
      vertex 3.010793E-5 -0.07406006 0.4835
      vertex 0.024101222 -0.09425812 0.4965
    endloop
  endfacet
  facet normal -0.6427784842054495 -0.7660521002141727 0.0
    outer loop
      vertex 0.024101222 -0.09425812 0.421
      vertex 0.024101222 -0.09425812 0.43096346
      vertex 0.024019716 -0.09418973 0.4309866
    endloop
  endfacet
  facet normal -0.6427784842054495 -0.7660521002141727 0.0
    outer loop
      vertex 0.024101222 -0.09425812 0.4835
      vertex 0.024101222 -0.09425812 0.4965
      vertex 0.024019716 -0.09418973 0.4835
    endloop
  endfacet
  facet normal -0.6427875856331206 -0.7660444633021862 9.72391826547316E-8
    outer loop
      vertex 0.024101222 -0.09425812 0.4965
      vertex 3.010793E-5 -0.07406006 0.4835
      vertex 0.024019716 -0.09418973 0.4835
    endloop
  endfacet
  facet normal -0.6427875856331234 -0.7660444633021899 -0.0
    outer loop
      vertex 0.024019716 -0.09418973 0.4835
      vertex 3.010793E-5 -0.07406006 0.4835
      vertex 0.024019716 -0.09418973 0.4309866
    endloop
  endfacet
  facet normal -0.6427875856331233 -0.7660444633021899 -0.0
    outer loop
      vertex 3.010793E-5 -0.07406006 0.4835
      vertex 3.010793E-5 -0.07406006 0.43718806
      vertex 0.024019716 -0.09418973 0.4309866
    endloop
  endfacet
  facet normal -0.642787604875684 -0.7660444471557546 -1.2684817789428384E-7
    outer loop
      vertex 0.024019716 -0.09418973 0.4309866
      vertex 3.010793E-5 -0.07406006 0.43718806
      vertex 0.024101222 -0.09425812 0.421
    endloop
  endfacet
  facet normal -0.6427875435719381 -0.7660444985957103 2.8490804863161385E-8
    outer loop
      vertex 3.010793E-5 -0.07406006 0.43718806
      vertex -5.139683E-5 -0.07399167 0.421
      vertex 0.024101222 -0.09425812 0.421
    endloop
  endfacet
  facet normal 0.5664063732361635 -0.8241260949378171 0.0
    outer loop
      vertex 0.16969815 -0.0235486 0.6475
      vertex 0.16969815 -0.0235486 0.7015
      vertex 0.14596163 -0.039862264 0.6475
    endloop
  endfacet
  facet normal 0.5664063732361635 -0.8241260949378171 0.0
    outer loop
      vertex 0.16969815 -0.0235486 0.7015
      vertex 0.14596163 -0.039862264 0.7015
      vertex 0.14596163 -0.039862264 0.6475
    endloop
  endfacet
  facet normal -0.08715579650528349 0.9961946933885613 0.0
    outer loop
      vertex 0.017658297 0.06779701 0.4965
      vertex -0.012227545 0.065182336 0.4965
      vertex 0.017658297 0.06779701 0.6475
    endloop
  endfacet
  facet normal -0.08715579650528349 0.9961946933885613 0.0
    outer loop
      vertex -0.012227545 0.065182336 0.4965
      vertex -0.012227545 0.065182336 0.6475
      vertex 0.017658297 0.06779701 0.6475
    endloop
  endfacet
  facet normal -0.9819459800796678 -0.18916155054709363 0.0
    outer loop
      vertex 3.010793E-5 -0.07406006 0.43718806
      vertex 3.010793E-5 -0.07406006 0.4835
      vertex -7.340997E-5 -0.073522694 0.43733203
    endloop
  endfacet
  facet normal -0.9878733452806688 -0.1552613516889897 4.078672434097607E-4
    outer loop
      vertex 3.010793E-5 -0.07406006 0.4835
      vertex -1.4023781E-4 -0.07297621 0.4835
      vertex -7.340997E-5 -0.073522694 0.43733203
    endloop
  endfacet
  facet normal -0.9926057835053963 -0.1213826946135171 0.0
    outer loop
      vertex -7.340997E-5 -0.073522694 0.43733203
      vertex -1.4023781E-4 -0.07297621 0.4835
      vertex -1.4023781E-4 -0.07297621 0.43747845
    endloop
  endfacet
  facet normal 0.08715572015950514 -0.9961947000679526 0.0
    outer loop
      vertex 0.16993608 -0.08149923 0.4835
      vertex 0.031777527 -0.093586534 0.6475
      vertex 0.16993608 -0.08149923 0.421
    endloop
  endfacet
  facet normal 0.08715572015950514 -0.9961947000679526 0.0
    outer loop
      vertex 0.031777527 -0.093586534 0.6475
      vertex 0.031777527 -0.093586534 0.4965
      vertex 0.16993608 -0.08149923 0.421
    endloop
  endfacet
  facet normal 0.08715578566011113 -0.9961946943373915 0.0
    outer loop
      vertex 0.16327523 -0.08208197 0.6475
      vertex 0.031777527 -0.093586534 0.6475
      vertex 0.16327523 -0.08208197 0.4965
    endloop
  endfacet
  facet normal 0.0871577275454658 -0.9961945244409882 1.7040268057024714E-6
    outer loop
      vertex 0.031777527 -0.093586534 0.6475
      vertex 0.16993608 -0.08149923 0.4835
      vertex 0.16327523 -0.08208197 0.4965
    endloop
  endfacet
  facet normal 0.08715506945831178 -0.9961947569966462 3.3166993629861097E-7
    outer loop
      vertex 0.16327523 -0.08208197 0.4965
      vertex 0.16993608 -0.08149923 0.4835
      vertex 0.17095153 -0.081410386 0.4965
    endloop
  endfacet
  facet normal 0.08715928330934537 -0.9961943883263955 0.0
    outer loop
      vertex 0.16993608 -0.08149923 0.4835
      vertex 0.17095153 -0.081410386 0.4835
      vertex 0.17095153 -0.081410386 0.4965
    endloop
  endfacet
  facet normal 0.0871552706996786 -0.9961947393904798 0.0
    outer loop
      vertex 0.024101222 -0.09425812 0.4965
      vertex 0.024101222 -0.09425812 0.4835
      vertex 0.031777527 -0.093586534 0.4965
    endloop
  endfacet
  facet normal 0.08715487790746757 -0.9961947737550523 2.3371319840931615E-7
    outer loop
      vertex 0.024101222 -0.09425812 0.4835
      vertex 0.025116678 -0.09416928 0.4835
      vertex 0.031777527 -0.093586534 0.4965
    endloop
  endfacet
  facet normal 0.0871556349397011 -0.9961947075237014 -1.57138605473826E-7
    outer loop
      vertex 0.031777527 -0.093586534 0.4965
      vertex 0.025116678 -0.09416928 0.4835
      vertex 0.16993608 -0.08149923 0.421
    endloop
  endfacet
  facet normal 0.08715570224118277 -0.9961947016356021 0.0
    outer loop
      vertex 0.025116678 -0.09416928 0.4835
      vertex 0.025116678 -0.09416928 0.43091774
      vertex 0.16993608 -0.08149923 0.421
    endloop
  endfacet
  facet normal 0.08715569650130289 -0.9961947021377727 -8.445558156161585E-8
    outer loop
      vertex 0.16993608 -0.08149923 0.421
      vertex 0.025116678 -0.09416928 0.43091774
      vertex 0.024101222 -0.09425812 0.421
    endloop
  endfacet
  facet normal 0.08714623126481263 -0.996195530192514 8.920870145731464E-7
    outer loop
      vertex 0.025116678 -0.09416928 0.43091774
      vertex 0.024608899 -0.0942137 0.43094096
      vertex 0.024101222 -0.09425812 0.421
    endloop
  endfacet
  facet normal 0.0871635667596222 -0.9961940135484357 0.0
    outer loop
      vertex 0.024101222 -0.09425812 0.421
      vertex 0.024608899 -0.0942137 0.43094096
      vertex 0.024101222 -0.09425812 0.43096346
    endloop
  endfacet
  facet normal 0.9961946953296116 0.08715577431898953 -0.0
    outer loop
      vertex 0.16969815 -0.0235486 0.6475
      vertex 0.16303088 0.052658617 0.6475
      vertex 0.16969815 -0.0235486 0.7015
    endloop
  endfacet
  facet normal 0.9961946953296116 0.08715577431898953 -0.0
    outer loop
      vertex 0.16303088 0.052658617 0.6475
      vertex 0.16303088 0.052658617 0.7015
      vertex 0.16969815 -0.0235486 0.7015
    endloop
  endfacet
  facet normal 0.0871556684391471 -0.996194704592895 0.0
    outer loop
      vertex -7.2298653E-4 -0.06631536 0.4965
      vertex 0.029162854 -0.06370069 0.4965
      vertex -7.2298653E-4 -0.06631536 0.6475
    endloop
  endfacet
  facet normal 0.0871556684391471 -0.996194704592895 0.0
    outer loop
      vertex 0.029162854 -0.06370069 0.4965
      vertex 0.029162854 -0.06370069 0.6475
      vertex -7.2298653E-4 -0.06631536 0.6475
    endloop
  endfacet
  facet normal 0.0 0.0 -1.0
    outer loop
      vertex 3.010793E-5 -0.07406006 0.4835
      vertex -5.139682E-5 -0.07399167 0.4835
      vertex -1.4023781E-4 -0.07297621 0.4835
    endloop
  endfacet
  facet normal -0.7660287994168473 0.6428062526640385 0.0
    outer loop
      vertex -0.012830744 0.07294015 0.4835
      vertex -0.012899134 0.07285865 0.4835
      vertex -0.012899134 0.07285865 0.4965
    endloop
  endfacet
  facet normal -0.7660443360293241 0.642787737310978 1.5885474868407446E-7
    outer loop
      vertex 0.007367319 0.09701126 0.421
      vertex -0.012899134 0.07285865 0.421
      vertex -0.012830744 0.07294015 0.43718806
    endloop
  endfacet
  facet normal -0.7660287994168472 0.6428062526640385 0.0
    outer loop
      vertex -0.012899134 0.07285865 0.421
      vertex -0.012899134 0.07285865 0.4372064
      vertex -0.012830744 0.07294015 0.43718806
    endloop
  endfacet
  facet normal -0.7660241712189755 0.6428117680225541 0.0
    outer loop
      vertex 0.007367319 0.09701126 0.4965
      vertex 0.007367319 0.09701126 0.4835
      vertex 0.007298928 0.09692976 0.4835
    endloop
  endfacet
  facet normal -0.7660241712189755 0.6428117680225541 0.0
    outer loop
      vertex 0.007367319 0.09701126 0.43096346
      vertex 0.007367319 0.09701126 0.421
      vertex 0.007298928 0.09692976 0.4309866
    endloop
  endfacet
  facet normal -0.7660445002061257 0.6427875416526317 -3.369283749075365E-7
    outer loop
      vertex 0.007367319 0.09701126 0.421
      vertex -0.012830744 0.07294015 0.43718806
      vertex 0.007298928 0.09692976 0.4309866
    endloop
  endfacet
  facet normal -0.766044457318762 0.6427875927638955 0.0
    outer loop
      vertex 0.007298928 0.09692976 0.4309866
      vertex -0.012830744 0.07294015 0.43718806
      vertex 0.007298928 0.09692976 0.4835
    endloop
  endfacet
  facet normal -0.766044457318762 0.6427875927638955 0.0
    outer loop
      vertex -0.012830744 0.07294015 0.43718806
      vertex -0.012830744 0.07294015 0.4835
      vertex 0.007298928 0.09692976 0.4835
    endloop
  endfacet
  facet normal -0.7660444573187365 0.6427875927638741 2.582823254758952E-7
    outer loop
      vertex 0.007298928 0.09692976 0.4835
      vertex -0.012830744 0.07294015 0.4835
      vertex 0.007367319 0.09701126 0.4965
    endloop
  endfacet
  facet normal -0.7660443360293188 0.6427877373109735 -1.9781155397898082E-7
    outer loop
      vertex -0.012830744 0.07294015 0.4835
      vertex -0.012899134 0.07285865 0.4965
      vertex 0.007367319 0.09701126 0.4965
    endloop
  endfacet
  facet normal 0.4146932122699546 0.9099612847243702 -0.0
    outer loop
      vertex 0.16303088 0.052658617 0.6475
      vertex 0.13682212 0.064602636 0.6475
      vertex 0.16303088 0.052658617 0.7015
    endloop
  endfacet
  facet normal 0.4146932122699546 0.9099612847243702 -0.0
    outer loop
      vertex 0.13682212 0.064602636 0.6475
      vertex 0.13682212 0.064602636 0.7015
      vertex 0.16303088 0.052658617 0.7015
    endloop
  endfacet
  facet normal -0.9961946967891071 -0.08715575763688209 0.0
    outer loop
      vertex 0.029162854 -0.06370069 0.4965
      vertex 0.031777527 -0.093586534 0.4965
      vertex 0.029162854 -0.06370069 0.6475
    endloop
  endfacet
  facet normal -0.9961946967891071 -0.08715575763688209 0.0
    outer loop
      vertex 0.031777527 -0.093586534 0.4965
      vertex 0.031777527 -0.093586534 0.6475
      vertex 0.029162854 -0.06370069 0.6475
    endloop
  endfacet
  facet normal 0.0 -0.0 1.0
    outer loop
      vertex 0.024101222 -0.09425812 0.4965
      vertex 0.031777527 -0.093586534 0.4965
      vertex -5.139682E-5 -0.07399167 0.4965
    endloop
  endfacet
  facet normal 0.0 0.0 1.0
    outer loop
      vertex 0.031777527 -0.093586534 0.4965
      vertex 0.029162854 -0.06370069 0.4965
      vertex -5.139682E-5 -0.07399167 0.4965
    endloop
  endfacet
  facet normal 0.0 -0.0 1.0
    outer loop
      vertex -5.139682E-5 -0.07399167 0.4965
      vertex 0.029162854 -0.06370069 0.4965
      vertex -7.2298653E-4 -0.06631536 0.4965
    endloop
  endfacet
  facet normal -0.9961946975719707 -0.0871557486887124 0.0
    outer loop
      vertex -7.2298653E-4 -0.06631536 0.4965
      vertex -7.2298653E-4 -0.06631536 0.6475
      vertex -0.012227545 0.065182336 0.6475
    endloop
  endfacet
  facet normal -0.9961947192380682 -0.08715550104374609 0.0
    outer loop
      vertex -1.4023781E-4 -0.07297621 0.4835
      vertex -5.139682E-5 -0.07399167 0.4835
      vertex -5.139682E-5 -0.07399167 0.4965
    endloop
  endfacet
  facet normal -0.9961947200898346 -0.0871554913079855 0.0
    outer loop
      vertex -5.139683E-5 -0.07399167 0.421
      vertex -5.139683E-5 -0.07399167 0.4372064
      vertex -1.4023781E-4 -0.07297621 0.43747845
    endloop
  endfacet
  facet normal -0.9961947025166565 -0.08715569217067813 -1.504363855397855E-8
    outer loop
      vertex -5.139682E-5 -0.07399167 0.4965
      vertex -7.2298653E-4 -0.06631536 0.4965
      vertex -1.4023781E-4 -0.07297621 0.4835
    endloop
  endfacet
  facet normal -0.9961946941480688 -0.08715578782407166 3.4341722228760975E-8
    outer loop
      vertex -7.2298653E-4 -0.06631536 0.4965
      vertex -0.012227545 0.065182336 0.6475
      vertex -1.4023781E-4 -0.07297621 0.4835
    endloop
  endfacet
  facet normal -0.9961946976874602 -0.08715574736866089 -0.0
    outer loop
      vertex -1.4023781E-4 -0.07297621 0.4835
      vertex -0.012227545 0.065182336 0.6475
      vertex -1.4023781E-4 -0.07297621 0.43747845
    endloop
  endfacet
  facet normal -0.9961946976874602 -0.08715574736866089 -0.0
    outer loop
      vertex -0.012227545 0.065182336 0.6475
      vertex -0.012227545 0.065182336 0.4965
      vertex -1.4023781E-4 -0.07297621 0.43747845
    endloop
  endfacet
  facet normal -0.9961946970817563 -0.08715575429188624 1.6330036624895674E-8
    outer loop
      vertex -1.4023781E-4 -0.07297621 0.43747845
      vertex -0.012227545 0.065182336 0.4965
      vertex -5.139683E-5 -0.07399167 0.421
    endloop
  endfacet
  facet normal -0.9961948408212223 -0.08715411132688743 -0.0
    outer loop
      vertex -0.012899134 0.07285865 0.4372064
      vertex -0.012899134 0.07285865 0.421
      vertex -0.012810294 0.071843185 0.43747845
    endloop
  endfacet
  facet normal -0.996194698719108 -0.08715573557681344 -1.0085859428221219E-7
    outer loop
      vertex -0.012899134 0.07285865 0.421
      vertex -5.139683E-5 -0.07399167 0.421
      vertex -0.012810294 0.071843185 0.43747845
    endloop
  endfacet
  facet normal -0.9961946977296305 -0.08715574688665197 0.0
    outer loop
      vertex -0.012810294 0.071843185 0.43747845
      vertex -5.139683E-5 -0.07399167 0.421
      vertex -0.012810294 0.071843185 0.4835
    endloop
  endfacet
  facet normal -0.9961946972733536 -0.0871557521019206 1.2262232678383457E-8
    outer loop
      vertex -5.139683E-5 -0.07399167 0.421
      vertex -0.012227545 0.065182336 0.4965
      vertex -0.012810294 0.071843185 0.4835
    endloop
  endfacet
  facet normal -0.9961948408208545 -0.08715411132685524 8.593858568725173E-7
    outer loop
      vertex -0.012810294 0.071843185 0.4835
      vertex -0.012227545 0.065182336 0.4965
      vertex -0.012899134 0.07285865 0.4835
    endloop
  endfacet
  facet normal -0.9961947144597918 -0.08715555565983063 0.0
    outer loop
      vertex -0.012227545 0.065182336 0.4965
      vertex -0.012899134 0.07285865 0.4965
      vertex -0.012899134 0.07285865 0.4835
    endloop
  endfacet
  facet normal 0.824126260013048 0.5664061330502222 -0.0
    outer loop
      vertex 0.12050846 0.088339165 0.6475
      vertex 0.12050846 0.088339165 0.7015
      vertex 0.13682212 0.064602636 0.6475
    endloop
  endfacet
  facet normal 0.824126260013048 0.5664061330502222 0.0
    outer loop
      vertex 0.12050846 0.088339165 0.7015
      vertex 0.13682212 0.064602636 0.7015
      vertex 0.13682212 0.064602636 0.6475
    endloop
  endfacet
  facet normal -0.0 0.0 1.0
    outer loop
      vertex 0.1340176 -0.06607102 0.6475
      vertex 0.16327523 -0.08208197 0.6475
      vertex 0.14596163 -0.039862264 0.6475
    endloop
  endfacet
  facet normal 0.0 0.0 1.0
    outer loop
      vertex 0.16327523 -0.08208197 0.6475
      vertex 0.16066055 -0.052196134 0.6475
      vertex 0.14596163 -0.039862264 0.6475
    endloop
  endfacet
  facet normal -0.0 0.0 1.0
    outer loop
      vertex 0.14596163 -0.039862264 0.6475
      vertex 0.16066055 -0.052196134 0.6475
      vertex 0.16969815 -0.0235486 0.6475
    endloop
  endfacet
  facet normal 0.0 0.0 1.0
    outer loop
      vertex 0.16066055 -0.052196134 0.6475
      vertex 0.1905464 -0.04958146 0.6475
      vertex 0.16969815 -0.0235486 0.6475
    endloop
  endfacet
  facet normal -0.0 -0.0 1.0
    outer loop
      vertex 0.16969815 -0.0235486 0.6475
      vertex 0.1905464 -0.04958146 0.6475
      vertex 0.16303088 0.052658617 0.6475
    endloop
  endfacet
  facet normal 0.0 0.0 1.0
    outer loop
      vertex 0.1905464 -0.04958146 0.6475
      vertex 0.17904183 0.08191624 0.6475
      vertex 0.16303088 0.052658617 0.6475
    endloop
  endfacet
  facet normal 0.0 -0.0 1.0
    outer loop
      vertex 0.16303088 0.052658617 0.6475
      vertex 0.17904183 0.08191624 0.6475
      vertex 0.13682212 0.064602636 0.6475
    endloop
  endfacet
  facet normal 0.0 0.0 1.0
    outer loop
      vertex 0.17904183 0.08191624 0.6475
      vertex 0.14915599 0.079301566 0.6475
      vertex 0.13682212 0.064602636 0.6475
    endloop
  endfacet
  facet normal 0.0 -0.0 1.0
    outer loop
      vertex 0.13682212 0.064602636 0.6475
      vertex 0.14915599 0.079301566 0.6475
      vertex 0.12050846 0.088339165 0.6475
    endloop
  endfacet
  facet normal 0.0 0.0 1.0
    outer loop
      vertex 0.14915599 0.079301566 0.6475
      vertex 0.14654133 0.10918741 0.6475
      vertex 0.12050846 0.088339165 0.6475
    endloop
  endfacet
  facet normal 0.0 -0.0 1.0
    outer loop
      vertex 0.12050846 0.088339165 0.6475
      vertex 0.14654133 0.10918741 0.6475
      vertex 0.04430125 0.08167189 0.6475
    endloop
  endfacet
  facet normal 0.0 0.0 1.0
    outer loop
      vertex 0.14654133 0.10918741 0.6475
      vertex 0.015043624 0.09768285 0.6475
      vertex 0.04430125 0.08167189 0.6475
    endloop
  endfacet
  facet normal 0.0 0.0 1.0
    outer loop
      vertex 0.04430125 0.08167189 0.6475
      vertex 0.015043624 0.09768285 0.6475
      vertex 0.03235723 0.05546314 0.6475
    endloop
  endfacet
  facet normal 0.0 0.0 1.0
    outer loop
      vertex 0.015043624 0.09768285 0.6475
      vertex 0.017658297 0.06779701 0.6475
      vertex 0.03235723 0.05546314 0.6475
    endloop
  endfacet
  facet normal 0.0 0.0 1.0
    outer loop
      vertex 0.03235723 0.05546314 0.6475
      vertex 0.017658297 0.06779701 0.6475
      vertex 0.008620703 0.039149478 0.6475
    endloop
  endfacet
  facet normal 0.0 0.0 1.0
    outer loop
      vertex 0.017658297 0.06779701 0.6475
      vertex -0.012227545 0.065182336 0.6475
      vertex 0.008620703 0.039149478 0.6475
    endloop
  endfacet
  facet normal 0.0 0.0 1.0
    outer loop
      vertex 0.008620703 0.039149478 0.6475
      vertex -0.012227545 0.065182336 0.6475
      vertex 0.01528797 -0.03705774 0.6475
    endloop
  endfacet
  facet normal 0.0 0.0 1.0
    outer loop
      vertex -0.012227545 0.065182336 0.6475
      vertex -7.2298653E-4 -0.06631536 0.6475
      vertex 0.01528797 -0.03705774 0.6475
    endloop
  endfacet
  facet normal 0.0 0.0 1.0
    outer loop
      vertex 0.01528797 -0.03705774 0.6475
      vertex -7.2298653E-4 -0.06631536 0.6475
      vertex 0.041496724 -0.049001757 0.6475
    endloop
  endfacet
  facet normal 0.0 0.0 1.0
    outer loop
      vertex -7.2298653E-4 -0.06631536 0.6475
      vertex 0.029162854 -0.06370069 0.6475
      vertex 0.041496724 -0.049001757 0.6475
    endloop
  endfacet
  facet normal 0.0 0.0 1.0
    outer loop
      vertex 0.041496724 -0.049001757 0.6475
      vertex 0.029162854 -0.06370069 0.6475
      vertex 0.05781039 -0.07273828 0.6475
    endloop
  endfacet
  facet normal 0.0 0.0 1.0
    outer loop
      vertex 0.029162854 -0.06370069 0.6475
      vertex 0.031777527 -0.093586534 0.6475
      vertex 0.05781039 -0.07273828 0.6475
    endloop
  endfacet
  facet normal -0.0 0.0 1.0
    outer loop
      vertex 0.05781039 -0.07273828 0.6475
      vertex 0.031777527 -0.093586534 0.6475
      vertex 0.1340176 -0.06607102 0.6475
    endloop
  endfacet
  facet normal 0.0 0.0 1.0
    outer loop
      vertex 0.031777527 -0.093586534 0.6475
      vertex 0.16327523 -0.08208197 0.6475
      vertex 0.1340176 -0.06607102 0.6475
    endloop
  endfacet
  facet normal 0.0 0.0 -1.0
    outer loop
      vertex 0.025116678 -0.09416928 0.4835
      vertex 0.024101222 -0.09425812 0.4835
      vertex 0.024019716 -0.09418973 0.4835
    endloop
  endfacet
  facet normal 0.9961946902181996 0.08715583274265319 -0.0
    outer loop
      vertex 0.17904183 0.08191624 0.4965
      vertex 0.17904183 0.08191624 0.6475
      vertex 0.1905464 -0.04958146 0.6475
    endloop
  endfacet
  facet normal 0.9961947015310967 0.08715570343568653 0.0
    outer loop
      vertex 0.19112915 -0.05624231 0.4835
      vertex 0.19112915 -0.05624231 0.421
      vertex 0.1784591 0.08857709 0.421
    endloop
  endfacet
  facet normal 0.9961939219445752 0.08716461369549947 0.0
    outer loop
      vertex 0.1784591 0.08857709 0.4835
      vertex 0.17837025 0.089592546 0.4835
      vertex 0.17837025 0.089592546 0.4965
    endloop
  endfacet
  facet normal 0.9961946933343139 0.08715579712533421 0.0
    outer loop
      vertex 0.1905464 -0.04958146 0.4965
      vertex 0.19121799 -0.057257764 0.4965
      vertex 0.19121799 -0.057257764 0.4835
    endloop
  endfacet
  facet normal 0.9961947588511532 0.08715504826052446 4.4557802989064243E-7
    outer loop
      vertex 0.19121799 -0.057257764 0.4835
      vertex 0.19112915 -0.05624231 0.4835
      vertex 0.1905464 -0.04958146 0.4965
    endloop
  endfacet
  facet normal 0.9961946982380975 0.08715574107480364 8.7881549143632E-8
    outer loop
      vertex 0.19112915 -0.05624231 0.4835
      vertex 0.1784591 0.08857709 0.421
      vertex 0.1905464 -0.04958146 0.4965
    endloop
  endfacet
  facet normal 0.9961947024078224 0.08715569341466067 -0.0
    outer loop
      vertex 0.1905464 -0.04958146 0.4965
      vertex 0.1784591 0.08857709 0.421
      vertex 0.1905464 -0.04958146 0.6475
    endloop
  endfacet
  facet normal 0.9961947024078224 0.08715569341466067 -0.0
    outer loop
      vertex 0.1784591 0.08857709 0.421
      vertex 0.1784591 0.08857709 0.4835
      vertex 0.1905464 -0.04958146 0.6475
    endloop
  endfacet
  facet normal 0.9961943288191303 0.08715996337461646 3.624677772266276E-6
    outer loop
      vertex 0.1905464 -0.04958146 0.6475
      vertex 0.1784591 0.08857709 0.4835
      vertex 0.17904183 0.08191624 0.4965
    endloop
  endfacet
  facet normal 0.9961948079809957 0.08715448669501744 7.970959798031918E-7
    outer loop
      vertex 0.1784591 0.08857709 0.4835
      vertex 0.17837025 0.089592546 0.4965
      vertex 0.17904183 0.08191624 0.4965
    endloop
  endfacet
  facet normal -0.08715584712828668 0.9961946889596184 0.0
    outer loop
      vertex 0.12050846 0.088339165 0.6475
      vertex 0.04430125 0.08167189 0.6475
      vertex 0.12050846 0.088339165 0.7015
    endloop
  endfacet
  facet normal -0.08715584712828668 0.9961946889596184 0.0
    outer loop
      vertex 0.04430125 0.08167189 0.6475
      vertex 0.04430125 0.08167189 0.7015
      vertex 0.12050846 0.088339165 0.7015
    endloop
  endfacet
  facet normal 0.9961946745044804 0.08715601235091282 -0.0
    outer loop
      vertex 0.16327523 -0.08208197 0.4965
      vertex 0.16066055 -0.052196134 0.4965
      vertex 0.16327523 -0.08208197 0.6475
    endloop
  endfacet
  facet normal 0.9961946745044804 0.08715601235091282 -0.0
    outer loop
      vertex 0.16066055 -0.052196134 0.4965
      vertex 0.16066055 -0.052196134 0.6475
      vertex 0.16327523 -0.08208197 0.6475
    endloop
  endfacet
  facet normal 0.018639157364110315 -0.999826275816332 0.0
    outer loop
      vertex 0.024019716 -0.09418973 0.4835
      vertex 0.024019716 -0.09418973 0.4309866
      vertex 0.025116678 -0.09416928 0.4835
    endloop
  endfacet
  facet normal 0.018639157364110315 -0.999826275816332 0.0
    outer loop
      vertex 0.024019716 -0.09418973 0.4309866
      vertex 0.025116678 -0.09416928 0.43091774
      vertex 0.025116678 -0.09416928 0.4835
    endloop
  endfacet
  facet normal -0.08715575361399235 0.9961946971410645 0.0
    outer loop
      vertex 0.015043624 0.09768285 0.4965
      vertex 0.015043624 0.09768285 0.6475
      vertex 0.14654133 0.10918741 0.6475
    endloop
  endfacet
  facet normal -0.08715576931290978 0.9961946957675868 0.0
    outer loop
      vertex 0.15320218 0.10977016 0.4835
      vertex 0.15320218 0.10977016 0.421
      vertex 0.008382776 0.0971001 0.43091774
    endloop
  endfacet
  facet normal -0.08715576251291224 0.9961946963625047 1.0005396748717387E-7
    outer loop
      vertex 0.15320218 0.10977016 0.421
      vertex 0.007367319 0.09701126 0.421
      vertex 0.008382776 0.0971001 0.43091774
    endloop
  endfacet
  facet normal -0.08715479273117357 0.9961947812069617 0.0
    outer loop
      vertex 0.008382776 0.0971001 0.43091774
      vertex 0.007367319 0.09701126 0.421
      vertex 0.007367319 0.09701126 0.43096346
    endloop
  endfacet
  facet normal -0.08715479273117357 0.9961947812069617 0.0
    outer loop
      vertex 0.008382776 0.0971001 0.4835
      vertex 0.007367319 0.09701126 0.4835
      vertex 0.007367319 0.09701126 0.4965
    endloop
  endfacet
  facet normal -0.08715584219587583 0.9961946893911489 0.0
    outer loop
      vertex 0.14654133 0.10918741 0.4965
      vertex 0.15421763 0.109859 0.4965
      vertex 0.15421763 0.109859 0.4835
    endloop
  endfacet
  facet normal -0.08715538896863409 0.9961947290432999 2.6967217412627806E-7
    outer loop
      vertex 0.15421763 0.109859 0.4835
      vertex 0.15320218 0.10977016 0.4835
      vertex 0.14654133 0.10918741 0.4965
    endloop
  endfacet
  facet normal -0.08715579158293651 0.9961946938192092 6.180445760211334E-8
    outer loop
      vertex 0.15320218 0.10977016 0.4835
      vertex 0.008382776 0.0971001 0.43091774
      vertex 0.14654133 0.10918741 0.4965
    endloop
  endfacet
  facet normal -0.08715576246793302 0.9961946963664449 0.0
    outer loop
      vertex 0.14654133 0.10918741 0.4965
      vertex 0.008382776 0.0971001 0.43091774
      vertex 0.14654133 0.10918741 0.6475
    endloop
  endfacet
  facet normal -0.08715576246793302 0.9961946963664449 0.0
    outer loop
      vertex 0.008382776 0.0971001 0.43091774
      vertex 0.008382776 0.0971001 0.4835
      vertex 0.14654133 0.10918741 0.6475
    endloop
  endfacet
  facet normal -0.08715549112274214 0.9961947201060145 -2.303390657659872E-7
    outer loop
      vertex 0.14654133 0.10918741 0.6475
      vertex 0.008382776 0.0971001 0.4835
      vertex 0.015043624 0.09768285 0.4965
    endloop
  endfacet
  facet normal -0.08715578585770581 0.9961946943201011 -7.816894751782096E-8
    outer loop
      vertex 0.008382776 0.0971001 0.4835
      vertex 0.007367319 0.09701126 0.4965
      vertex 0.015043624 0.09768285 0.4965
    endloop
  endfacet
  facet normal -0.909961211914982 0.41469337203555245 0.0
    outer loop
      vertex 0.04430125 0.08167189 0.6475
      vertex 0.03235723 0.05546314 0.6475
      vertex 0.04430125 0.08167189 0.7015
    endloop
  endfacet
  facet normal -0.909961211914982 0.41469337203555245 0.0
    outer loop
      vertex 0.03235723 0.05546314 0.6475
      vertex 0.03235723 0.05546314 0.7015
      vertex 0.04430125 0.08167189 0.7015
    endloop
  endfacet
  facet normal 0.0 0.0 -1.0
    outer loop
      vertex 0.17828874 0.089660935 0.4835
      vertex 0.17837025 0.089592546 0.4835
      vertex 0.1784591 0.08857709 0.4835
    endloop
  endfacet
  facet normal 0.0652744553830529 -0.23984135953947497 0.9686151804141324
    outer loop
      vertex 0.025116678 -0.09416928 0.43091774
      vertex 0.024019716 -0.09418973 0.4309866
      vertex 0.024608899 -0.0942137 0.43094096
    endloop
  endfacet
  facet normal 0.06467634110233722 -0.24981389146168345 0.9661314561354394
    outer loop
      vertex 0.024019716 -0.09418973 0.4309866
      vertex 0.024101222 -0.09425812 0.43096346
      vertex 0.024608899 -0.0942137 0.43094096
    endloop
  endfacet
  facet normal 0.0 0.0 -1.0
    outer loop
      vertex -5.139683E-5 -0.07399167 0.421
      vertex -0.012899134 0.07285865 0.421
      vertex 0.024101222 -0.09425812 0.421
    endloop
  endfacet
  facet normal 0.0 0.0 -1.0
    outer loop
      vertex -0.012899134 0.07285865 0.421
      vertex 0.007367319 0.09701126 0.421
      vertex 0.024101222 -0.09425812 0.421
    endloop
  endfacet
  facet normal 0.0 0.0 -1.0
    outer loop
      vertex 0.024101222 -0.09425812 0.421
      vertex 0.007367319 0.09701126 0.421
      vertex 0.16993608 -0.08149923 0.421
    endloop
  endfacet
  facet normal 0.0 0.0 -1.0
    outer loop
      vertex 0.007367319 0.09701126 0.421
      vertex 0.15320218 0.10977016 0.421
      vertex 0.16993608 -0.08149923 0.421
    endloop
  endfacet
  facet normal -0.0 0.0 -1.0
    outer loop
      vertex 0.19114959 -0.05733927 0.421
      vertex 0.17101993 -0.08132888 0.421
      vertex 0.19112915 -0.05624231 0.421
    endloop
  endfacet
  facet normal -0.0 0.0 -1.0
    outer loop
      vertex 0.17101993 -0.08132888 0.421
      vertex 0.16993608 -0.08149923 0.421
      vertex 0.19112915 -0.05624231 0.421
    endloop
  endfacet
  facet normal -0.0 0.0 -1.0
    outer loop
      vertex 0.19112915 -0.05624231 0.421
      vertex 0.16993608 -0.08149923 0.421
      vertex 0.1784591 0.08857709 0.421
    endloop
  endfacet
  facet normal 0.0 0.0 -1.0
    outer loop
      vertex 0.16993608 -0.08149923 0.421
      vertex 0.15320218 0.10977016 0.421
      vertex 0.1784591 0.08857709 0.421
    endloop
  endfacet
  facet normal 0.0 0.0 -1.0
    outer loop
      vertex 0.1784591 0.08857709 0.421
      vertex 0.15320218 0.10977016 0.421
      vertex 0.17828874 0.089660935 0.421
    endloop
  endfacet
  facet normal 0.0 0.0 -1.0
    outer loop
      vertex 0.15320218 0.10977016 0.421
      vertex 0.15429914 0.10979061 0.421
      vertex 0.17828874 0.089660935 0.421
    endloop
  endfacet
  facet normal -0.5664062126260917 0.8241262053220773 0.0
    outer loop
      vertex 0.008620703 0.039149478 0.6475
      vertex 0.008620703 0.039149478 0.7015
      vertex 0.03235723 0.05546314 0.6475
    endloop
  endfacet
  facet normal -0.5664062126260917 0.8241262053220773 0.0
    outer loop
      vertex 0.008620703 0.039149478 0.7015
      vertex 0.03235723 0.05546314 0.7015
      vertex 0.03235723 0.05546314 0.6475
    endloop
  endfacet
  facet normal 0.0 0.0 1.0
    outer loop
      vertex 0.17904183 0.08191624 0.4965
      vertex 0.17837025 0.089592546 0.4965
      vertex 0.14915599 0.079301566 0.4965
    endloop
  endfacet
  facet normal 0.0 0.0 1.0
    outer loop
      vertex 0.17837025 0.089592546 0.4965
      vertex 0.15421763 0.109859 0.4965
      vertex 0.14915599 0.079301566 0.4965
    endloop
  endfacet
  facet normal 0.0 -0.0 1.0
    outer loop
      vertex 0.14915599 0.079301566 0.4965
      vertex 0.15421763 0.109859 0.4965
      vertex 0.14654133 0.10918741 0.4965
    endloop
  endfacet
  facet normal 0.0 0.0 -1.0
    outer loop
      vertex 0.17101993 -0.08132888 0.4835
      vertex 0.17095153 -0.081410386 0.4835
      vertex 0.16993608 -0.08149923 0.4835
    endloop
  endfacet
  facet normal -0.996194698833851 -0.08715573426535363 0.0
    outer loop
      vertex 0.008620703 0.039149478 0.6475
      vertex 0.01528797 -0.03705774 0.6475
      vertex 0.008620703 0.039149478 0.7015
    endloop
  endfacet
  facet normal -0.996194698833851 -0.08715573426535363 0.0
    outer loop
      vertex 0.01528797 -0.03705774 0.6475
      vertex 0.01528797 -0.03705774 0.7015
      vertex 0.008620703 0.039149478 0.7015
    endloop
  endfacet
  facet normal 0.0 0.0 -1.0
    outer loop
      vertex 0.15320218 0.10977016 0.4835
      vertex 0.15421763 0.109859 0.4835
      vertex 0.15429914 0.10979061 0.4835
    endloop
  endfacet
  facet normal 0.0 0.0 1.0
    outer loop
      vertex 0.19121799 -0.057257764 0.4965
      vertex 0.1905464 -0.04958146 0.4965
      vertex 0.17095153 -0.081410386 0.4965
    endloop
  endfacet
  facet normal 0.0 0.0 1.0
    outer loop
      vertex 0.1905464 -0.04958146 0.4965
      vertex 0.16066055 -0.052196134 0.4965
      vertex 0.17095153 -0.081410386 0.4965
    endloop
  endfacet
  facet normal 0.0 0.0 1.0
    outer loop
      vertex 0.17095153 -0.081410386 0.4965
      vertex 0.16066055 -0.052196134 0.4965
      vertex 0.16327523 -0.08208197 0.4965
    endloop
  endfacet
  facet normal -0.41469323338197384 -0.9099612751030693 0.0
    outer loop
      vertex 0.01528797 -0.03705774 0.6475
      vertex 0.041496724 -0.049001757 0.6475
      vertex 0.01528797 -0.03705774 0.7015
    endloop
  endfacet
  facet normal -0.41469323338197384 -0.9099612751030693 0.0
    outer loop
      vertex 0.041496724 -0.049001757 0.6475
      vertex 0.041496724 -0.049001757 0.7015
      vertex 0.01528797 -0.03705774 0.7015
    endloop
  endfacet
  facet normal 0.01931421755614292 0.27406376929311993 0.9615175564497206
    outer loop
      vertex 0.008382776 0.0971001 0.43091774
      vertex 0.007367319 0.09701126 0.43096346
      vertex 0.007835738 0.09703319 0.4309478
    endloop
  endfacet
  facet normal 0.020252270778764226 0.25731115859294357 0.966116355928136
    outer loop
      vertex 0.007367319 0.09701126 0.43096346
      vertex 0.007298928 0.09692976 0.4309866
      vertex 0.007835738 0.09703319 0.4309478
    endloop
  endfacet
  facet normal 0.0 0.0 -1.0
    outer loop
      vertex 0.19112915 -0.05624231 0.4835
      vertex 0.19121799 -0.057257764 0.4835
      vertex 0.19114959 -0.05733927 0.4835
    endloop
  endfacet
  facet normal -0.8241260959401067 -0.5664063717778236 0.0
    outer loop
      vertex 0.05781039 -0.07273828 0.6475
      vertex 0.05781039 -0.07273828 0.7015
      vertex 0.041496724 -0.049001757 0.6475
    endloop
  endfacet
  facet normal -0.8241260959401067 -0.5664063717778236 0.0
    outer loop
      vertex 0.05781039 -0.07273828 0.7015
      vertex 0.041496724 -0.049001757 0.7015
      vertex 0.041496724 -0.049001757 0.6475
    endloop
  endfacet
  facet normal -0.18919542791770805 0.9819394533549588 0.0
    outer loop
      vertex 0.007298928 0.09692976 0.4309866
      vertex 0.007298928 0.09692976 0.4835
      vertex 0.007835738 0.09703319 0.4309478
    endloop
  endfacet
  facet normal -0.15525652861498498 0.9878741224979636 3.5835918123609985E-4
    outer loop
      vertex 0.007298928 0.09692976 0.4835
      vertex 0.008382776 0.0971001 0.4835
      vertex 0.007835738 0.09703319 0.4309478
    endloop
  endfacet
  facet normal -0.12140846178695788 0.9926026321779148 0.0
    outer loop
      vertex 0.007835738 0.09703319 0.4309478
      vertex 0.008382776 0.0971001 0.4835
      vertex 0.008382776 0.0971001 0.43091774
    endloop
  endfacet
  facet normal 0.6427599727633174 0.7660676324015391 0.0
    outer loop
      vertex 0.15429914 0.10979061 0.4835
      vertex 0.15421763 0.109859 0.4835
      vertex 0.15421763 0.109859 0.4965
    endloop
  endfacet
  facet normal 0.642754457142765 0.7660722601837959 0.0
    outer loop
      vertex 0.17837025 0.089592546 0.4965
      vertex 0.17837025 0.089592546 0.4835
      vertex 0.17828874 0.089660935 0.4835
    endloop
  endfacet
  facet normal 0.6427878062160103 0.7660442782111286 -0.0
    outer loop
      vertex 0.17828874 0.089660935 0.421
      vertex 0.15429914 0.10979061 0.421
      vertex 0.17828874 0.089660935 0.4835
    endloop
  endfacet
  facet normal 0.6427878062160103 0.7660442782111286 -0.0
    outer loop
      vertex 0.15429914 0.10979061 0.421
      vertex 0.15429914 0.10979061 0.4835
      vertex 0.17828874 0.089660935 0.4835
    endloop
  endfacet
  facet normal 0.6427878062159694 0.7660442782110801 -3.563032376132563E-7
    outer loop
      vertex 0.17828874 0.089660935 0.4835
      vertex 0.15429914 0.10979061 0.4835
      vertex 0.17837025 0.089592546 0.4965
    endloop
  endfacet
  facet normal 0.6427875997482491 0.7660444514581369 2.9517078931270256E-7
    outer loop
      vertex 0.15429914 0.10979061 0.4835
      vertex 0.15421763 0.109859 0.4965
      vertex 0.17837025 0.089592546 0.4965
    endloop
  endfacet
endsolid grep4CCC00u2_14
