solid grep4CCC00u2_9
  facet normal -0.008811112432255228 -0.9722217917536757 0.23389560050795855
    outer loop
      vertex -0.16755418 -1.5146871 1.9222674
      vertex -0.17555386 -1.5146146 1.9222674
      vertex -0.16755989 -1.5153158 1.9196539
    endloop
  endfacet
  facet normal -0.008811112432255224 -0.9722217917536757 0.2338956005079586
    outer loop
      vertex -0.17555386 -1.5146146 1.9222674
      vertex -0.17555957 -1.5152433 1.9196539
      vertex -0.16755989 -1.5153158 1.9196539
    endloop
  endfacet
  facet normal -0.007018774526449398 -0.7744544855697774 0.6325906943553616
    outer loop
      vertex -0.16755989 -1.5153158 1.9196539
      vertex -0.17555957 -1.5152433 1.9196539
      vertex -0.1675753 -1.5170162 1.917572
    endloop
  endfacet
  facet normal -0.0070286291283272835 -0.7744726388295136 0.6325683600031117
    outer loop
      vertex -0.17555957 -1.5152433 1.9196539
      vertex -0.17557497 -1.5169436 1.917572
      vertex -0.1675753 -1.5170162 1.917572
    endloop
  endfacet
  facet normal -0.0038413633741902747 -0.42327326919583846 0.905993920239918
    outer loop
      vertex -0.1675753 -1.5170162 1.917572
      vertex -0.17557497 -1.5169436 1.917572
      vertex -0.16759738 -1.5194514 1.9164342
    endloop
  endfacet
  facet normal -0.0038413584551915117 -0.4232732562925035 0.9059939262891112
    outer loop
      vertex -0.17557497 -1.5169436 1.917572
      vertex -0.17559706 -1.5193788 1.9164342
      vertex -0.16759738 -1.5194514 1.9164342
    endloop
  endfacet
  facet normal 1.0567259458532377E-4 0.011643897265187013 0.9999322019466023
    outer loop
      vertex -0.16759738 -1.5194514 1.9164342
      vertex -0.17559706 -1.5193788 1.9164342
      vertex -0.16762175 -1.5221391 1.9164655
    endloop
  endfacet
  facet normal 1.0552326216820061E-4 0.011643465857517556 0.9999322069858867
    outer loop
      vertex -0.17559706 -1.5193788 1.9164342
      vertex -0.17562142 -1.5220666 1.9164655
      vertex -0.16762175 -1.5221391 1.9164655
    endloop
  endfacet
  facet normal 0.004027097672665799 0.44435106812593067 0.8958436865545681
    outer loop
      vertex -0.16762175 -1.5221391 1.9164655
      vertex -0.17562142 -1.5220666 1.9164655
      vertex -0.16764358 -1.5245471 1.91766
    endloop
  endfacet
  facet normal 0.004032786225852771 0.44436582627241394 0.8958363405647771
    outer loop
      vertex -0.17562142 -1.5220666 1.9164655
      vertex -0.17564325 -1.5244745 1.91766
      vertex -0.16764358 -1.5245471 1.91766
    endloop
  endfacet
  facet normal 0.007160878751991431 0.789044998980173 0.6142936686959081
    outer loop
      vertex -0.16764358 -1.5245471 1.91766
      vertex -0.17564325 -1.5244745 1.91766
      vertex -0.16765855 -1.5261983 1.9197811
    endloop
  endfacet
  facet normal 0.00715086176792898 0.7890270737999188 0.614316809135737
    outer loop
      vertex -0.17564325 -1.5244745 1.91766
      vertex -0.17565821 -1.5261258 1.9197811
      vertex -0.16765855 -1.5261983 1.9197811
    endloop
  endfacet
  facet normal 0.008858235587203245 0.9774189365186873 0.21112497293536864
    outer loop
      vertex -0.16765855 -1.5261983 1.9197811
      vertex -0.17565821 -1.5261258 1.9197811
      vertex -0.1676637 -1.5267658 1.9224086
    endloop
  endfacet
  facet normal 0.00887051134778379 0.9774264946769553 0.211089463337109
    outer loop
      vertex -0.17565821 -1.5261258 1.9197811
      vertex -0.17566337 -1.5266932 1.9224086
      vertex -0.1676637 -1.5267658 1.9224086
    endloop
  endfacet
  facet normal 0.009074370012112505 0.9998905826211568 -0.011682405334815267
    outer loop
      vertex -0.16765673 -1.525999 1.988044
      vertex -0.1676637 -1.5267658 1.9224086
      vertex -0.17565641 -1.5259264 1.988044
    endloop
  endfacet
  facet normal 0.009074381354727549 0.9998905825343694 -0.011682403952465469
    outer loop
      vertex -0.1676637 -1.5267658 1.9224086
      vertex -0.17566337 -1.5266932 1.9224086
      vertex -0.17565641 -1.5259264 1.988044
    endloop
  endfacet
  facet normal 1.059644653710125E-4 0.01169214834062712 0.9999316388827353
    outer loop
      vertex -0.16777349 -1.5388775 1.9881946
      vertex -0.16765673 -1.525999 1.988044
      vertex -0.17577316 -1.538805 1.9881946
    endloop
  endfacet
  facet normal 1.0610965559649793E-4 0.011692056331678398 0.9999316399431902
    outer loop
      vertex -0.16765673 -1.525999 1.988044
      vertex -0.17565641 -1.5259264 1.988044
      vertex -0.17577316 -1.538805 1.9881946
    endloop
  endfacet
  facet normal -0.009061871749852774 -0.9998906786198959 0.011683890166957952
    outer loop
      vertex -0.16778044 -1.5396444 1.922559
      vertex -0.16777349 -1.5388775 1.9881946
      vertex -0.17578012 -1.5395719 1.922559
    endloop
  endfacet
  facet normal -0.009061883076583207 -0.9998906785011125 0.011683891547404788
    outer loop
      vertex -0.16777349 -1.5388775 1.9881946
      vertex -0.17577316 -1.538805 1.9881946
      vertex -0.17578012 -1.5395719 1.922559
    endloop
  endfacet
  facet normal -0.008858200385532394 -0.9774174960029546 -0.21113164327794218
    outer loop
      vertex -0.16778044 -1.5396444 1.922559
      vertex -0.17578012 -1.5395719 1.922559
      vertex -0.175764 -1.5377942 1.9143286
    endloop
  endfacet
  facet normal -0.008870439828001904 -0.9774198358580105 -0.21112029691282053
    outer loop
      vertex -0.16778044 -1.5396444 1.922559
      vertex -0.175764 -1.5377942 1.9143286
      vertex -0.16776432 -1.5378668 1.9143286
    endloop
  endfacet
  facet normal -0.007160773032415517 -0.7890343362530441 -0.6143073656918793
    outer loop
      vertex -0.175764 -1.5377942 1.9143286
      vertex -0.1757171 -1.5326219 1.9076846
      vertex -0.16776432 -1.5378668 1.9143286
    endloop
  endfacet
  facet normal -0.007140961755036347 -0.7890230126160729 -0.6143221404340474
    outer loop
      vertex -0.16776432 -1.5378668 1.9143286
      vertex -0.1757171 -1.5326219 1.9076846
      vertex -0.16771744 -1.5326943 1.9076846
    endloop
  endfacet
  facet normal -0.00402164183844289 -0.4443614274776184 -0.8958385726050071
    outer loop
      vertex -0.1757171 -1.5326219 1.9076846
      vertex -0.17564873 -1.525079 1.9039428
      vertex -0.16771744 -1.5326943 1.9076846
    endloop
  endfacet
  facet normal -0.004032831160167967 -0.4443707775078583 -0.8958338843613224
    outer loop
      vertex -0.16771744 -1.5326943 1.9076846
      vertex -0.17564873 -1.525079 1.9039428
      vertex -0.16764906 -1.5251516 1.9039428
    endloop
  endfacet
  facet normal -1.0605185727231026E-4 -0.011685673017435786 -0.9999317145681165
    outer loop
      vertex -0.17564873 -1.525079 1.9039428
      vertex -0.17557241 -1.5166597 1.9038444
      vertex -0.16764906 -1.5251516 1.9039428
    endloop
  endfacet
  facet normal -1.0605185727230924E-4 -0.011685673017435786 -0.9999317145681165
    outer loop
      vertex -0.16764906 -1.5251516 1.9039428
      vertex -0.17557241 -1.5166597 1.9038444
      vertex -0.16757274 -1.5167323 1.9038444
    endloop
  endfacet
  facet normal 0.0038418630843824264 0.42332833140841375 -0.905968191447696
    outer loop
      vertex -0.17557241 -1.5166597 1.9038444
      vertex -0.17550325 -1.5090317 1.907409
      vertex -0.16757274 -1.5167323 1.9038444
    endloop
  endfacet
  facet normal 0.003831197866478953 0.42331931818370433 -0.9059724481326084
    outer loop
      vertex -0.16757274 -1.5167323 1.9038444
      vertex -0.17550325 -1.5090317 1.907409
      vertex -0.16750358 -1.5091041 1.907409
    endloop
  endfacet
  facet normal 0.007009101538902491 0.7744544103266204 -0.6325908937230001
    outer loop
      vertex -0.17550325 -1.5090317 1.907409
      vertex -0.17545496 -1.5037054 1.9139303
      vertex -0.16750358 -1.5091041 1.907409
    endloop
  endfacet
  facet normal 0.007018843373161265 0.7744601459117896 -0.6325837638068122
    outer loop
      vertex -0.16750358 -1.5091041 1.907409
      vertex -0.17545496 -1.5037054 1.9139303
      vertex -0.1674553 -1.5037779 1.9139303
    endloop
  endfacet
  facet normal 0.00881109962396976 0.9722179478339833 -0.23391157823608194
    outer loop
      vertex -0.17545496 -1.5037054 1.9139303
      vertex -0.17543711 -1.5017359 1.9221169
      vertex -0.1674553 -1.5037779 1.9139303
    endloop
  endfacet
  facet normal 0.008823276374015311 0.9722205382639234 -0.23390035222682978
    outer loop
      vertex -0.1674553 -1.5037779 1.9139303
      vertex -0.17543711 -1.5017359 1.9221169
      vertex -0.16743745 -1.5018085 1.9221169
    endloop
  endfacet
  facet normal 0.009086879472993031 0.9998904692390875 -0.011682386155262507
    outer loop
      vertex -0.16743049 -1.5010417 1.9877524
      vertex -0.16743745 -1.5018085 1.9221169
      vertex -0.17543016 -1.500969 1.9877524
    endloop
  endfacet
  facet normal 0.009074392537806432 0.9998905648593459 -0.011683907964724493
    outer loop
      vertex -0.16743745 -1.5018085 1.9221169
      vertex -0.17543711 -1.5017359 1.9221169
      vertex -0.17543016 -1.500969 1.9877524
    endloop
  endfacet
  facet normal 1.0589411419561843E-4 0.011684385772491123 0.9999317296273562
    outer loop
      vertex -0.16754724 -1.5139202 1.9879029
      vertex -0.16743049 -1.5010417 1.9877524
      vertex -0.17554691 -1.5138477 1.9879029
    endloop
  endfacet
  facet normal 1.0618456316532037E-4 0.011684201711365775 0.9999317317473262
    outer loop
      vertex -0.16743049 -1.5010417 1.9877524
      vertex -0.17543016 -1.500969 1.9877524
      vertex -0.17554691 -1.5138477 1.9879029
    endloop
  endfacet
  facet normal -0.0090618717481142 -0.999890678428061 0.011683906585252132
    outer loop
      vertex -0.16755418 -1.5146871 1.9222674
      vertex -0.16754724 -1.5139202 1.9879029
      vertex -0.17555386 -1.5146146 1.9222674
    endloop
  endfacet
  facet normal -0.009061883074872382 -0.9998906783092772 0.011683907965702728
    outer loop
      vertex -0.16754724 -1.5139202 1.9879029
      vertex -0.17554691 -1.5138477 1.9879029
      vertex -0.17555386 -1.5146146 1.9222674
    endloop
  endfacet
  facet normal 0.9999589038491137 -0.009065903860303856 -2.73914377664548E-7
    outer loop
      vertex -0.16765673 -1.525999 1.988044
      vertex -0.16777349 -1.5388775 1.9881946
      vertex -0.1676637 -1.5267658 1.9224086
    endloop
  endfacet
  facet normal 0.9999589185956077 -0.00906427719689472 2.5591265329550337E-8
    outer loop
      vertex -0.16777349 -1.5388775 1.9881946
      vertex -0.16778044 -1.5396444 1.922559
      vertex -0.1676637 -1.5267658 1.9224086
    endloop
  endfacet
  facet normal 0.9999589188251318 -0.009064251604945483 2.2171821700056235E-6
    outer loop
      vertex -0.1676637 -1.5267658 1.9224086
      vertex -0.16778044 -1.5396444 1.922559
      vertex -0.16765855 -1.5261983 1.9197811
    endloop
  endfacet
  facet normal 0.9999589160828614 -0.009064554364353087 7.515903467161196E-7
    outer loop
      vertex -0.16778044 -1.5396444 1.922559
      vertex -0.16776432 -1.5378668 1.9143286
      vertex -0.16765855 -1.5261983 1.9197811
    endloop
  endfacet
  facet normal 0.9999589154990912 -0.009064618750419478 8.893896243064249E-7
    outer loop
      vertex -0.16765855 -1.5261983 1.9197811
      vertex -0.16776432 -1.5378668 1.9143286
      vertex -0.16764358 -1.5245471 1.91766
    endloop
  endfacet
  facet normal 0.9999589196618418 -0.009064159521205739 -9.468647938905435E-7
    outer loop
      vertex -0.16776432 -1.5378668 1.9143286
      vertex -0.16771744 -1.5326943 1.9076846
      vertex -0.16764358 -1.5245471 1.91766
    endloop
  endfacet
  facet normal 0.9999589096481766 -0.009065264211703944 -4.455771484631912E-8
    outer loop
      vertex -0.16764358 -1.5245471 1.91766
      vertex -0.16771744 -1.5326943 1.9076846
      vertex -0.16762175 -1.5221391 1.9164655
    endloop
  endfacet
  facet normal 0.9999589090544695 -0.0090653297013469 3.417146908305259E-8
    outer loop
      vertex -0.16771744 -1.5326943 1.9076846
      vertex -0.16764906 -1.5251516 1.9039428
      vertex -0.16762175 -1.5221391 1.9164655
    endloop
  endfacet
  facet normal 0.999958895226878 -0.009066854828497863 4.01090997123981E-7
    outer loop
      vertex -0.16762175 -1.5221391 1.9164655
      vertex -0.16764906 -1.5251516 1.9039428
      vertex -0.16759738 -1.5194514 1.9164342
    endloop
  endfacet
  facet normal 0.9999589163766086 -0.00906452196635213 -6.635513825284684E-7
    outer loop
      vertex -0.16764906 -1.5251516 1.9039428
      vertex -0.16757274 -1.5167323 1.9038444
      vertex -0.16759738 -1.5194514 1.9164342
    endloop
  endfacet
  facet normal 0.9999589014514139 -0.00906616826686596 -1.0191426932686133E-6
    outer loop
      vertex -0.16759738 -1.5194514 1.9164342
      vertex -0.16757274 -1.5167323 1.9038444
      vertex -0.1675753 -1.5170162 1.917572
    endloop
  endfacet
  facet normal 0.9999589073601522 -0.00906551653680074 -1.0056631854240615E-6
    outer loop
      vertex -0.16757274 -1.5167323 1.9038444
      vertex -0.16750358 -1.5091041 1.907409
      vertex -0.1675753 -1.5170162 1.917572
    endloop
  endfacet
  facet normal 0.9999589284598898 -0.009063188881328886 8.066123367668063E-7
    outer loop
      vertex -0.1675753 -1.5170162 1.917572
      vertex -0.16750358 -1.5091041 1.907409
      vertex -0.16755989 -1.5153158 1.9196539
    endloop
  endfacet
  facet normal 0.9999589169969184 -0.009064453558986956 1.650028758044029E-7
    outer loop
      vertex -0.16750358 -1.5091041 1.907409
      vertex -0.1674553 -1.5037779 1.9139303
      vertex -0.16755989 -1.5153158 1.9196539
    endloop
  endfacet
  facet normal 0.9999588995048149 -0.009066382258484613 -3.72327922517187E-6
    outer loop
      vertex -0.16755989 -1.5153158 1.9196539
      vertex -0.1674553 -1.5037779 1.9139303
      vertex -0.16755418 -1.5146871 1.9222674
    endloop
  endfacet
  facet normal 0.9999589256353266 -0.009063500551178015 4.77808717654585E-8
    outer loop
      vertex -0.1674553 -1.5037779 1.9139303
      vertex -0.16743745 -1.5018085 1.9221169
      vertex -0.16755418 -1.5146871 1.9222674
    endloop
  endfacet
  facet normal 0.9999589256481362 -0.009063499136475743 1.6884984122135233E-7
    outer loop
      vertex -0.16755418 -1.5146871 1.9222674
      vertex -0.16743745 -1.5018085 1.9221169
      vertex -0.16754724 -1.5139202 1.9879029
    endloop
  endfacet
  facet normal 0.9999589109030228 -0.009065125791932607 -1.3065433539480825E-7
    outer loop
      vertex -0.16743745 -1.5018085 1.9221169
      vertex -0.16743049 -1.5010417 1.9877524
      vertex -0.16754724 -1.5139202 1.9879029
    endloop
  endfacet
  facet normal -0.9999589121965545 0.00906498310435314 -3.3839964012561465E-8
    outer loop
      vertex -0.17554691 -1.5138477 1.9879029
      vertex -0.17543016 -1.500969 1.9877524
      vertex -0.17555386 -1.5146146 1.9222674
    endloop
  endfacet
  facet normal -0.9999589121965545 0.009064983104352983 -3.3839963980062643E-8
    outer loop
      vertex -0.17543016 -1.500969 1.9877524
      vertex -0.17543711 -1.5017359 1.9221169
      vertex -0.17555386 -1.5146146 1.9222674
    endloop
  endfacet
  facet normal -0.9999589117559322 0.009065030805373542 4.048409711038395E-6
    outer loop
      vertex -0.17555386 -1.5146146 1.9222674
      vertex -0.17543711 -1.5017359 1.9221169
      vertex -0.17555957 -1.5152433 1.9196539
    endloop
  endfacet
  facet normal -0.9999589038544251 0.009065903248669105 -7.3657128331758E-7
    outer loop
      vertex -0.17543711 -1.5017359 1.9221169
      vertex -0.17545496 -1.5037054 1.9139303
      vertex -0.17555957 -1.5152433 1.9196539
    endloop
  endfacet
  facet normal -0.9999589251356447 0.009063554027896647 -5.472629110373047E-6
    outer loop
      vertex -0.17555957 -1.5152433 1.9196539
      vertex -0.17545496 -1.5037054 1.9139303
      vertex -0.17557497 -1.5169436 1.917572
    endloop
  endfacet
  facet normal -0.9999589100093694 0.009065224349912427 5.997744960705296E-7
    outer loop
      vertex -0.17545496 -1.5037054 1.9139303
      vertex -0.17550325 -1.5090317 1.907409
      vertex -0.17557497 -1.5169436 1.917572
    endloop
  endfacet
  facet normal -0.9999588751238612 0.0090690709613039 3.5946093535763477E-6
    outer loop
      vertex -0.17557497 -1.5169436 1.917572
      vertex -0.17550325 -1.5090317 1.907409
      vertex -0.17559706 -1.5193788 1.9164342
    endloop
  endfacet
  facet normal -0.9999589018573047 0.009066123553488632 2.1522371451114501E-7
    outer loop
      vertex -0.17550325 -1.5090317 1.907409
      vertex -0.17557241 -1.5166597 1.9038444
      vertex -0.17559706 -1.5193788 1.9164342
    endloop
  endfacet
  facet normal -0.9999589320184292 0.009062796274279554 -5.034492087378595E-7
    outer loop
      vertex -0.17559706 -1.5193788 1.9164342
      vertex -0.17557241 -1.5166597 1.9038444
      vertex -0.17562142 -1.5220666 1.9164655
    endloop
  endfacet
  facet normal -0.9999589164223333 0.009064516943478772 2.3374886892089468E-7
    outer loop
      vertex -0.17557241 -1.5166597 1.9038444
      vertex -0.17564873 -1.525079 1.9039428
      vertex -0.17562142 -1.5220666 1.9164655
    endloop
  endfacet
  facet normal -0.9999589065613724 0.00906560470040063 -2.7938167759259044E-8
    outer loop
      vertex -0.17562142 -1.5220666 1.9164655
      vertex -0.17564873 -1.525079 1.9039428
      vertex -0.17564325 -1.5244745 1.91766
    endloop
  endfacet
  facet normal -0.9999589228651269 0.009063806176910043 5.132704632481308E-8
    outer loop
      vertex -0.17564873 -1.525079 1.9039428
      vertex -0.1757171 -1.5326219 1.9076846
      vertex -0.17564325 -1.5244745 1.91766
    endloop
  endfacet
  facet normal -0.9999589431342438 0.009061569528421892 1.8782579730713267E-6
    outer loop
      vertex -0.17564325 -1.5244745 1.91766
      vertex -0.1757171 -1.5326219 1.9076846
      vertex -0.17565821 -1.5261258 1.9197811
    endloop
  endfacet
  facet normal -0.9999589002070779 0.009066305543535392 -6.653005570511407E-7
    outer loop
      vertex -0.1757171 -1.5326219 1.9076846
      vertex -0.175764 -1.5377942 1.9143286
      vertex -0.17565821 -1.5261258 1.9197811
    endloop
  endfacet
  facet normal -0.999958879952801 0.009068537584506514 -5.442281678990066E-6
    outer loop
      vertex -0.17565821 -1.5261258 1.9197811
      vertex -0.175764 -1.5377942 1.9143286
      vertex -0.17566337 -1.5266932 1.9224086
    endloop
  endfacet
  facet normal -0.9999589122510567 0.009064977075590907 -5.50145584234579E-7
    outer loop
      vertex -0.175764 -1.5377942 1.9143286
      vertex -0.17578012 -1.5395719 1.922559
      vertex -0.17566337 -1.5266932 1.9224086
    endloop
  endfacet
  facet normal -0.9999589121789568 0.009064985044659593 1.3229898073677305E-7
    outer loop
      vertex -0.17566337 -1.5266932 1.9224086
      vertex -0.17578012 -1.5395719 1.922559
      vertex -0.17565641 -1.5259264 1.988044
    endloop
  endfacet
  facet normal -0.9999589115424489 0.009065055257810328 1.1766704532088714E-7
    outer loop
      vertex -0.17578012 -1.5395719 1.922559
      vertex -0.17577316 -1.538805 1.9881946
      vertex -0.17565641 -1.5259264 1.988044
    endloop
  endfacet
endsolid grep4CCC00u2_9
