solid grep4CCC00u2_11
  facet normal 0.9993032124263939 -1.801656214944111E-16 -0.0373241159880514
    outer loop
      vertex 0.11600000000000033 -0.023000000000000576 -0.14798002700000779
      vertex 0.11600000000000033 0.022999999999999465 -0.147980027000008
      vertex 0.12000020000000022 -4.440892098500626E-16 -0.04088003000000784
    endloop
  endfacet
  facet normal 0.9905867465392153 0.13667263600735263 -0.00764775441904979
    outer loop
      vertex 0.11550330000000031 0.032545299999999555 -0.041732254000007796
      vertex 0.12000020000000022 -4.440892098500626E-16 -0.04088003000000784
      vertex 0.11600000000000033 0.022999999999999465 -0.147980027000008
    endloop
  endfacet
  facet normal 0.5245165303945623 -4.090620311263639E-15 -0.8514002638846493
    outer loop
      vertex 0.07184910000000033 -4.440892098500626E-16 -0.1751797800000079
      vertex 0.11600000000000033 0.022999999999999465 -0.147980027000008
      vertex 0.11600000000000033 -0.023000000000000576 -0.14798002700000779
    endloop
  endfacet
  facet normal -0.454416030776639 -0.03520635846803108 0.8900935812017887
    outer loop
      vertex -0.19249999999999964 -4.440892098500626E-16 -0.02703761500000801
      vertex -0.1465447999999996 -0.030006800000000444 -0.004763160000007982
      vertex -0.1473304999999996 -4.440892098500626E-16 -0.003977405000007872
    endloop
  endfacet
  facet normal -0.454416030776639 0.03520635846803108 0.8900935812017887
    outer loop
      vertex -0.1465447999999996 0.030006799999999556 -0.004763160000007982
      vertex -0.19249999999999964 -4.440892098500626E-16 -0.02703761500000801
      vertex -0.1473304999999996 -4.440892098500626E-16 -0.003977405000007872
    endloop
  endfacet
  facet normal 0.10185337368890779 -0.6511953624961359 -0.7520442075647641
    outer loop
      vertex -0.11387339999999968 -0.07224570000000052 -0.19030482600000775
      vertex -0.14642699999999964 -0.03450410000000059 -0.22739420000000798
      vertex 2.220446049250313E-16 -0.07290290000000055 -0.174313272000008
    endloop
  endfacet
  facet normal 0.08452478687909216 -0.7691152241084764 -0.6334961187312927
    outer loop
      vertex -0.11387339999999968 -0.07224570000000052 -0.19030482600000775
      vertex 2.220446049250313E-16 -0.07290290000000055 -0.174313272000008
      vertex -0.1080076999999997 -0.08637830000000046 -0.1723640770000081
    endloop
  endfacet
  facet normal 0.11274550465031968 -0.6310419985504634 -0.7675118547922122
    outer loop
      vertex 2.220446049250313E-16 -0.0718490000000005 -0.1751797800000081
      vertex 2.220446049250313E-16 -0.07290290000000055 -0.174313272000008
      vertex -0.14642699999999964 -0.03450410000000059 -0.22739420000000798
    endloop
  endfacet
  facet normal 0.5164986736408494 -0.701780535651306 -0.49064569692213694
    outer loop
      vertex 0.05742230000000026 -0.09945830000000044 -0.10028442400000781
      vertex 0.03645140000000025 -0.06313570000000057 -0.1743132720000078
      vertex 0.11600000000000033 -0.023000000000000576 -0.14798002700000779
    endloop
  endfacet
  facet normal -0.3511088123558275 -0.9044301798099723 0.24233995076128384
    outer loop
      vertex -0.1669999999999996 -0.08900000000000041 -0.06966029000000784
      vertex -0.19249999999999967 -0.08006620000000053 -0.07326380800000787
      vertex -0.19249999999999967 -0.09245240000000043 -0.11949000000001009
    endloop
  endfacet
  facet normal -0.24367138309323416 -0.9509482335740834 0.1905825651096153
    outer loop
      vertex -0.1669999999999996 -0.08900000000000041 -0.06966029000000784
      vertex -0.19249999999999967 -0.09245240000000043 -0.11949000000001009
      vertex -0.028734499999999663 -0.1154787000000006 -0.025000000000007905
    endloop
  endfacet
  facet normal -0.17327107778885956 0.9829982126596031 0.060758929466482224
    outer loop
      vertex -0.19249999999999967 0.09245249999999983 -0.11949000000003007
      vertex -0.028734499999999663 0.11547869999999949 -0.025000000000007905
      vertex -0.026564299999999763 0.11703219999999948 -0.04394462000000798
    endloop
  endfacet
  facet normal -0.07299055136557628 0.6723390122216226 -0.7366360241368881
    outer loop
      vertex -0.1669999999999996 0.06060569999999954 -0.2015323660000079
      vertex -0.14561829999999976 0.06538809999999962 -0.1992860300000081
      vertex -0.14642699999999964 0.03450409999999926 -0.22739420000000776
    endloop
  endfacet
  facet normal -0.34731289717874636 0.5075379888585905 -0.7885296071287894
    outer loop
      vertex -0.1669999999999996 0.06060569999999954 -0.2015323660000079
      vertex -0.14642699999999964 0.03450409999999926 -0.22739420000000776
      vertex -0.19249999999999967 0.04622619999999955 -0.19955611000000784
    endloop
  endfacet
  facet normal 0.29923305460188654 -0.08017891578984573 -0.9508054062195846
    outer loop
      vertex 0.06222320000000025 -0.03592450000000058 -0.1751797800000079
      vertex -0.13346849999999977 -4.440892098500626E-16 -0.2397963800000078
      vertex 0.07184910000000033 -4.440892098500626E-16 -0.1751797800000079
    endloop
  endfacet
  facet normal 0.47174523872778007 -0.1264032204615168 -0.8726274437551383
    outer loop
      vertex 0.06222320000000025 -0.03592450000000058 -0.1751797800000079
      vertex 0.07184910000000033 -4.440892098500626E-16 -0.1751797800000079
      vertex 0.11600000000000033 -0.023000000000000576 -0.14798002700000779
    endloop
  endfacet
  facet normal 0.4717452387277795 0.12640322046151203 -0.8726274437551393
    outer loop
      vertex 0.06222320000000025 0.03592449999999947 -0.1751797800000081
      vertex 0.11600000000000033 0.022999999999999465 -0.147980027000008
      vertex 0.07184910000000033 -4.440892098500626E-16 -0.1751797800000079
    endloop
  endfacet
  facet normal 0.2992330546018866 0.08017891578984039 -0.950805406219585
    outer loop
      vertex 0.06222320000000025 0.03592449999999947 -0.1751797800000081
      vertex 0.07184910000000033 -4.440892098500626E-16 -0.1751797800000079
      vertex -0.13346849999999977 -4.440892098500626E-16 -0.2397963800000078
    endloop
  endfacet
  facet normal -0.5373663417464798 0.21827479784963044 0.8146125013659615
    outer loop
      vertex -0.19249999999999964 0.04622619999999955 -0.0394238900000079
      vertex -0.19249999999999964 -4.440892098500626E-16 -0.02703761500000801
      vertex -0.1465447999999996 0.030006799999999556 -0.004763160000007982
    endloop
  endfacet
  facet normal 0.218964672082857 -0.8171808551028915 -0.5331696938432958
    outer loop
      vertex -0.005316499999999724 -0.08971750000000056 -0.1507252030000079
      vertex 2.220446049250313E-16 -0.07290290000000055 -0.174313272000008
      vertex 0.03645140000000025 -0.06313570000000057 -0.1743132720000078
    endloop
  endfacet
  facet normal 0.25899435125783943 -0.8360932830141334 -0.4836010216233824
    outer loop
      vertex -0.005316499999999724 -0.08971750000000056 -0.1507252030000079
      vertex 0.03645140000000025 -0.06313570000000057 -0.1743132720000078
      vertex 0.05742230000000026 -0.09945830000000044 -0.10028442400000781
    endloop
  endfacet
  facet normal 0.09219074495429169 -0.8205251114198108 -0.5641271204917204
    outer loop
      vertex -0.005316499999999724 -0.08971750000000056 -0.1507252030000079
      vertex -0.1080076999999997 -0.08637830000000046 -0.1723640770000081
      vertex 2.220446049250313E-16 -0.07290290000000055 -0.174313272000008
    endloop
  endfacet
  facet normal 0.6835005231298428 -0.6834988971452178 -0.2562348385417223
    outer loop
      vertex 0.09945830000000022 -0.05742220000000042 -0.10028442400000803
      vertex 0.05742230000000026 -0.09945830000000044 -0.10028442400000781
      vertex 0.11600000000000033 -0.023000000000000576 -0.14798002700000779
    endloop
  endfacet
  facet normal 0.8521824642057909 -0.517417755628466 -0.0778711362479494
    outer loop
      vertex 0.09945830000000022 -0.05742220000000042 -0.10028442400000803
      vertex 0.11600000000000033 -0.023000000000000576 -0.14798002700000779
      vertex 0.10849060000000033 -0.051284700000000516 -0.04222034000000785
    endloop
  endfacet
  facet normal -0.19653368855040496 0.7334755658539124 0.6506827979592327
    outer loop
      vertex -0.05049999999999975 0.08746859999999956 -7.993605777301127E-15
      vertex 2.220446049250313E-16 0.10099999999999931 -7.993605777301127E-15
      vertex -0.028734499999999663 0.11547869999999949 -0.025000000000007905
    endloop
  endfacet
  facet normal -0.24367197155627734 0.9509476480926072 0.1905847340817615
    outer loop
      vertex -0.1669999999999996 0.08899999999999908 -0.06966029000000784
      vertex -0.028734499999999663 0.11547869999999949 -0.025000000000007905
      vertex -0.19249999999999967 0.09245249999999983 -0.11949000000003007
    endloop
  endfacet
  facet normal -0.3511120737398036 0.904428020247671 0.24234328516592593
    outer loop
      vertex -0.1669999999999996 0.08899999999999908 -0.06966029000000784
      vertex -0.19249999999999967 0.09245249999999983 -0.11949000000003007
      vertex -0.19249999999999967 0.08006609999999936 -0.07326380800000809
    endloop
  endfacet
  facet normal -0.34048061525060236 0.7356320111595566 0.5855924306169928
    outer loop
      vertex -0.1669999999999996 0.08899999999999908 -0.06966029000000784
      vertex -0.19249999999999967 0.08006609999999936 -0.07326380800000809
      vertex -0.05049999999999975 0.08746859999999956 -7.993605777301127E-15
    endloop
  endfacet
  facet normal -0.3273899263517193 0.7579610874198118 0.5641904165091715
    outer loop
      vertex -0.1669999999999996 0.08899999999999908 -0.06966029000000784
      vertex -0.05049999999999975 0.08746859999999956 -7.993605777301127E-15
      vertex -0.028734499999999663 0.11547869999999949 -0.025000000000007905
    endloop
  endfacet
  facet normal -0.35111207373980885 0.9044280202476115 -0.24234328516614045
    outer loop
      vertex -0.19249999999999967 0.08006609999999936 -0.1657161920000081
      vertex -0.19249999999999967 0.09245249999999983 -0.11949000000003007
      vertex -0.1669999999999996 0.08899999999999908 -0.1693197100000079
    endloop
  endfacet
  facet normal -0.3356024891141527 0.7066615543493009 -0.6228967947461402
    outer loop
      vertex -0.19249999999999967 0.08006609999999936 -0.1657161920000081
      vertex -0.1669999999999996 0.08899999999999908 -0.1693197100000079
      vertex -0.1669999999999996 0.06060569999999954 -0.2015323660000079
    endloop
  endfacet
  facet normal -0.41304386617525773 0.6439701878905609 -0.6439698453523981
    outer loop
      vertex -0.19249999999999967 0.08006609999999936 -0.1657161920000081
      vertex -0.1669999999999996 0.06060569999999954 -0.2015323660000079
      vertex -0.19249999999999967 0.04622619999999955 -0.19955611000000784
    endloop
  endfacet
  facet normal 0.2189620742942369 0.8171795266689864 -0.5331727967683803
    outer loop
      vertex 2.220446049250313E-16 0.07290289999999966 -0.174313272000008
      vertex -0.005316499999999724 0.08971759999999951 -0.1507252030000079
      vertex 0.03645140000000025 0.0631357999999993 -0.174313272000008
    endloop
  endfacet
  facet normal 0.9412349410108307 -0.3369490932583504 -0.023282920193000503
    outer loop
      vertex 0.1163538000000004 -0.02935940000000059 -0.041644440000008
      vertex 0.10849060000000033 -0.051284700000000516 -0.04222034000000785
      vertex 0.11600000000000033 -0.023000000000000576 -0.14798002700000779
    endloop
  endfacet
  facet normal 0.992352987126368 -0.12297152954566791 -0.01065607162951105
    outer loop
      vertex 0.1163538000000004 -0.02935940000000059 -0.041644440000008
      vertex 0.11600000000000033 -0.023000000000000576 -0.14798002700000779
      vertex 0.12000020000000022 -4.440892098500626E-16 -0.04088003000000784
    endloop
  endfacet
  facet normal 0.013394769313961483 0.8718734240104462 0.4895480698147288
    outer loop
      vertex 0.03226840000000042 0.11454149999999941 -0.025000000000007905
      vertex -0.028734499999999663 0.11547869999999949 -0.025000000000007905
      vertex 2.220446049250313E-16 0.10099999999999931 -7.993605777301127E-15
    endloop
  endfacet
  facet normal -0.10277461405633256 0.9873175934300321 -0.12100143969846695
    outer loop
      vertex 2.220446049250313E-16 0.11484449999999957 -0.10028442400000781
      vertex -0.1669999999999996 0.08899999999999908 -0.1693197100000079
      vertex -0.19249999999999967 0.09245249999999983 -0.11949000000003007
    endloop
  endfacet
  facet normal 0.9894162789513372 0.1378940756390339 0.04517356361574892
    outer loop
      vertex 0.11502370000000028 0.030505099999999397 -0.025000000000007905
      vertex 0.12000020000000022 -4.440892098500626E-16 -0.04088003000000784
      vertex 0.11550330000000031 0.032545299999999555 -0.041732254000007796
    endloop
  endfacet
  facet normal 0.1677617766232526 0.6260969606540946 -0.7614844595682272
    outer loop
      vertex 0.03592450000000035 0.06222309999999953 -0.1751797800000081
      vertex 2.220446049250313E-16 0.07290289999999966 -0.174313272000008
      vertex 0.03645140000000025 0.0631357999999993 -0.174313272000008
    endloop
  endfacet
  facet normal 0.45833923360934775 0.45834097643684757 -0.7614779683308724
    outer loop
      vertex 0.03592450000000035 0.06222309999999953 -0.1751797800000081
      vertex 0.03645140000000025 0.0631357999999993 -0.174313272000008
      vertex 0.06222320000000025 0.03592449999999947 -0.1751797800000081
    endloop
  endfacet
  facet normal 0.2595132722606378 0.2595142590556453 -0.930217829794385
    outer loop
      vertex 0.03592450000000035 0.06222309999999953 -0.1751797800000081
      vertex 0.06222320000000025 0.03592449999999947 -0.1751797800000081
      vertex -0.13346849999999977 -4.440892098500626E-16 -0.2397963800000078
    endloop
  endfacet
  facet normal 0.18485461816727988 0.43961657321521685 -0.8789573588614746
    outer loop
      vertex -0.14704839999999963 0.010775699999999722 -0.23939281000000778
      vertex -0.14642699999999964 0.03450409999999926 -0.22739420000000776
      vertex 0.03592450000000035 0.06222309999999953 -0.1751797800000081
    endloop
  endfacet
  facet normal 0.23054218946924143 0.3248887285971129 -0.9172227716892336
    outer loop
      vertex -0.14704839999999963 0.010775699999999722 -0.23939281000000778
      vertex 0.03592450000000035 0.06222309999999953 -0.1751797800000081
      vertex -0.13346849999999977 -4.440892098500626E-16 -0.2397963800000078
    endloop
  endfacet
  facet normal -0.5418711690022269 0.21752749220924789 -0.8118235192068014
    outer loop
      vertex -0.14704839999999963 0.010775699999999722 -0.23939281000000778
      vertex -0.19249999999999967 -4.440892098500626E-16 -0.21194238500000773
      vertex -0.19249999999999967 0.04622619999999955 -0.19955611000000784
    endloop
  endfacet
  facet normal -0.38681857295475913 0.42417286022668027 -0.818809365032155
    outer loop
      vertex -0.14704839999999963 0.010775699999999722 -0.23939281000000778
      vertex -0.19249999999999967 0.04622619999999955 -0.19955611000000784
      vertex -0.14642699999999964 0.03450409999999926 -0.22739420000000776
    endloop
  endfacet
  facet normal 0.2595132722606395 -0.2595142590556414 -0.9302178297943857
    outer loop
      vertex 0.03592450000000035 -0.06222310000000042 -0.1751797800000081
      vertex -0.13346849999999977 -4.440892098500626E-16 -0.2397963800000078
      vertex 0.06222320000000025 -0.03592450000000058 -0.1751797800000079
    endloop
  endfacet
  facet normal 0.45835769530727327 -0.45835943820497077 -0.7614557430087638
    outer loop
      vertex 0.03592450000000035 -0.06222310000000042 -0.1751797800000081
      vertex 0.06222320000000025 -0.03592450000000058 -0.1751797800000079
      vertex 0.03645140000000025 -0.06313570000000057 -0.1743132720000078
    endloop
  endfacet
  facet normal 0.1677725433322133 -0.6261307320439523 -0.7614543191117541
    outer loop
      vertex 0.03592450000000035 -0.06222310000000042 -0.1751797800000081
      vertex 0.03645140000000025 -0.06313570000000057 -0.1743132720000078
      vertex 2.220446049250313E-16 -0.07290290000000055 -0.174313272000008
    endloop
  endfacet
  facet normal 0.1677598205722134 -0.6260908251848092 -0.7614899350752994
    outer loop
      vertex 0.03592450000000035 -0.06222310000000042 -0.1751797800000081
      vertex 2.220446049250313E-16 -0.07290290000000055 -0.174313272000008
      vertex 2.220446049250313E-16 -0.0718490000000005 -0.1751797800000081
    endloop
  endfacet
  facet normal 0.14925609655976693 -0.5570336946011619 -0.8169676130170163
    outer loop
      vertex 0.03592450000000035 -0.06222310000000042 -0.1751797800000081
      vertex 2.220446049250313E-16 -0.0718490000000005 -0.1751797800000081
      vertex -0.14642699999999964 -0.03450410000000059 -0.22739420000000798
    endloop
  endfacet
  facet normal 0.45837716479412993 -0.4583771647941362 -0.7614333520345588
    outer loop
      vertex 0.06313570000000035 -0.03645140000000047 -0.174313272000008
      vertex 0.03645140000000025 -0.06313570000000057 -0.1743132720000078
      vertex 0.06222320000000025 -0.03592450000000058 -0.1751797800000079
    endloop
  endfacet
  facet normal 0.48805893687609275 -0.41632455742520125 -0.7671195063483189
    outer loop
      vertex 0.06313570000000035 -0.03645140000000047 -0.174313272000008
      vertex 0.06222320000000025 -0.03592450000000058 -0.1751797800000079
      vertex 0.11600000000000033 -0.023000000000000576 -0.14798002700000779
    endloop
  endfacet
  facet normal 0.4856370220262929 -0.48563702202629877 -0.7268516806576582
    outer loop
      vertex 0.06313570000000035 -0.03645140000000047 -0.174313272000008
      vertex 0.11600000000000033 -0.023000000000000576 -0.14798002700000779
      vertex 0.03645140000000025 -0.06313570000000057 -0.1743132720000078
    endloop
  endfacet
  facet normal 0.4880589368760907 0.41632455742528246 -0.7671195063482762
    outer loop
      vertex 0.06313570000000035 0.03645139999999958 -0.174313272000008
      vertex 0.11600000000000033 0.022999999999999465 -0.147980027000008
      vertex 0.06222320000000025 0.03592449999999947 -0.1751797800000081
    endloop
  endfacet
  facet normal 0.4583778902812773 0.45837617250651547 -0.7614335126454328
    outer loop
      vertex 0.06313570000000035 0.03645139999999958 -0.174313272000008
      vertex 0.06222320000000025 0.03592449999999947 -0.1751797800000081
      vertex 0.03645140000000025 0.0631357999999993 -0.174313272000008
    endloop
  endfacet
  facet normal 0.48563712309131524 0.4856353031623633 -0.7268527615672863
    outer loop
      vertex 0.06313570000000035 0.03645139999999958 -0.174313272000008
      vertex 0.03645140000000025 0.0631357999999993 -0.174313272000008
      vertex 0.11600000000000033 0.022999999999999465 -0.147980027000008
    endloop
  endfacet
  facet normal -0.3678200156337486 -0.5528128671350453 0.7477341573240585
    outer loop
      vertex -0.05049999999999975 -0.08746860000000045 -7.993605777301127E-15
      vertex -0.1465447999999996 -0.030006800000000444 -0.004763160000007982
      vertex -0.1669999999999996 -0.06060570000000043 -0.037447634000007834
    endloop
  endfacet
  facet normal -0.3610901089749124 -0.6871400861571417 0.6304382881745381
    outer loop
      vertex -0.05049999999999975 -0.08746860000000045 -7.993605777301127E-15
      vertex -0.1669999999999996 -0.06060570000000043 -0.037447634000007834
      vertex -0.19249999999999967 -0.08006620000000053 -0.07326380800000787
    endloop
  endfacet
  facet normal -0.34047853518924037 -0.7356356788749684 0.5855890325488975
    outer loop
      vertex -0.05049999999999975 -0.08746860000000045 -7.993605777301127E-15
      vertex -0.19249999999999967 -0.08006620000000053 -0.07326380800000787
      vertex -0.1669999999999996 -0.08900000000000041 -0.06966029000000784
    endloop
  endfacet
  facet normal -0.3273899263517189 -0.757961087419809 0.5641904165091755
    outer loop
      vertex -0.05049999999999975 -0.08746860000000045 -7.993605777301127E-15
      vertex -0.1669999999999996 -0.08900000000000041 -0.06966029000000784
      vertex -0.028734499999999663 -0.1154787000000006 -0.025000000000007905
    endloop
  endfacet
  facet normal -0.19653368855040756 -0.7334755658539102 0.6506827979592344
    outer loop
      vertex -0.05049999999999975 -0.08746860000000045 -7.993605777301127E-15
      vertex -0.028734499999999663 -0.1154787000000006 -0.025000000000007905
      vertex 2.220446049250313E-16 -0.10100000000000042 -7.993605777301127E-15
    endloop
  endfacet
  facet normal -0.4130434823242099 -0.6439693594976222 0.6439709199472538
    outer loop
      vertex -0.19249999999999964 -0.04622620000000044 -0.0394238900000079
      vertex -0.19249999999999967 -0.08006620000000053 -0.07326380800000787
      vertex -0.1669999999999996 -0.06060570000000043 -0.037447634000007834
    endloop
  endfacet
  facet normal -0.36917250829140114 -0.5519095475936631 0.7477349198725398
    outer loop
      vertex -0.19249999999999964 -0.04622620000000044 -0.0394238900000079
      vertex -0.1669999999999996 -0.06060570000000043 -0.037447634000007834
      vertex -0.1465447999999996 -0.030006800000000444 -0.004763160000007982
    endloop
  endfacet
  facet normal -0.5373663417464798 -0.21827479784963044 0.8146125013659615
    outer loop
      vertex -0.19249999999999964 -0.04622620000000044 -0.0394238900000079
      vertex -0.1465447999999996 -0.030006800000000444 -0.004763160000007982
      vertex -0.19249999999999964 -4.440892098500626E-16 -0.02703761500000801
    endloop
  endfacet
  facet normal 0.07113937108138053 -0.8781251103959684 -0.47311254514567036
    outer loop
      vertex -0.12650429999999968 -0.08767170000000046 -0.17274468300000811
      vertex -0.1080076999999997 -0.08637830000000046 -0.1723640770000081
      vertex -0.005316499999999724 -0.08971750000000056 -0.1507252030000079
    endloop
  endfacet
  facet normal 0.06703459018273689 -0.7730082269720429 -0.6308443902838253
    outer loop
      vertex -0.12650429999999968 -0.08767170000000046 -0.17274468300000811
      vertex -0.11387339999999968 -0.07224570000000052 -0.19030482600000775
      vertex -0.1080076999999997 -0.08637830000000046 -0.1723640770000081
    endloop
  endfacet
  facet normal 0.06413362867955143 -0.6707861730545446 -0.7388726464765306
    outer loop
      vertex -0.14561829999999976 -0.06538800000000045 -0.19928603000000789
      vertex -0.14642699999999964 -0.03450410000000059 -0.22739420000000798
      vertex -0.11387339999999968 -0.07224570000000052 -0.19030482600000775
    endloop
  endfacet
  facet normal -0.35110881235583025 -0.9044301798099655 -0.24233995076130532
    outer loop
      vertex -0.19249999999999967 -0.08006620000000053 -0.16571619200000787
      vertex -0.1669999999999996 -0.08900000000000041 -0.16931971000000812
      vertex -0.19249999999999967 -0.09245240000000043 -0.11949000000001009
    endloop
  endfacet
  facet normal -0.16481047057154585 -0.9852733746372765 0.0455399387445646
    outer loop
      vertex -0.008920699999999782 -0.11967180000000055 -0.044012500000008004
      vertex -0.028734499999999663 -0.1154787000000006 -0.025000000000007905
      vertex -0.19249999999999967 -0.09245240000000043 -0.11949000000001009
    endloop
  endfacet
  facet normal 0.25700375238071876 -0.9558186611590892 -0.14268762469911836
    outer loop
      vertex 0.045109100000000346 -0.11120250000000054 -0.04379188000000789
      vertex 0.0165076000000004 -0.11886300000000061 -0.04399262600000786
      vertex 0.05742230000000026 -0.09945830000000044 -0.10028442400000781
    endloop
  endfacet
  facet normal 0.48313573891265277 -0.8722386063146252 -0.07602415037108397
    outer loop
      vertex 0.045109100000000346 -0.11120250000000054 -0.04379188000000789
      vertex 0.05742230000000026 -0.09945830000000044 -0.10028442400000781
      vertex 0.07014860000000023 -0.09736470000000041 -0.04342865400000795
    endloop
  endfacet
  facet normal 0.698455896679558 -0.6984542351174798 -0.1559520498102247
    outer loop
      vertex 0.0822930000000004 -0.08734110000000062 -0.043165730000007896
      vertex 0.05742230000000026 -0.09945830000000044 -0.10028442400000781
      vertex 0.09945830000000022 -0.05742220000000042 -0.10028442400000803
    endloop
  endfacet
  facet normal 0.6338859669983886 -0.7650211739218081 -0.11371536524945258
    outer loop
      vertex 0.0822930000000004 -0.08734110000000062 -0.043165730000007896
      vertex 0.07014860000000023 -0.09736470000000041 -0.04342865400000795
      vertex 0.05742230000000026 -0.09945830000000044 -0.10028442400000781
    endloop
  endfacet
  facet normal -0.1216123036468061 0.1216119746857318 0.9850994747814832
    outer loop
      vertex -0.08746849999999971 0.050499999999999545 -7.993605777301127E-15
      vertex -0.05049999999999975 0.08746859999999956 -7.993605777301127E-15
      vertex -0.1465447999999996 0.030006799999999556 -0.004763160000007982
    endloop
  endfacet
  facet normal -0.09012810819892228 0.028428619270399143 0.9955243531520774
    outer loop
      vertex -0.08746849999999971 0.050499999999999545 -7.993605777301127E-15
      vertex -0.1465447999999996 0.030006799999999556 -0.004763160000007982
      vertex -0.1473304999999996 -4.440892098500626E-16 -0.003977405000007872
    endloop
  endfacet
  facet normal -0.08551145506944567 0.022912836718261522 0.9960736885218024
    outer loop
      vertex -0.08746849999999971 0.050499999999999545 -7.993605777301127E-15
      vertex -0.1473304999999996 -4.440892098500626E-16 -0.003977405000007872
      vertex -0.10099999999999974 -4.440892098500626E-16 -7.993605777301127E-15
    endloop
  endfacet
  facet normal -0.36917250829140114 0.5519095475936631 0.7477349198725398
    outer loop
      vertex -0.1669999999999996 0.06060569999999954 -0.037447634000007834
      vertex -0.19249999999999964 0.04622619999999955 -0.0394238900000079
      vertex -0.1465447999999996 0.030006799999999556 -0.004763160000007982
    endloop
  endfacet
  facet normal -0.36782001563374866 0.5528128671350453 0.7477341573240583
    outer loop
      vertex -0.1669999999999996 0.06060569999999954 -0.037447634000007834
      vertex -0.1465447999999996 0.030006799999999556 -0.004763160000007982
      vertex -0.05049999999999975 0.08746859999999956 -7.993605777301127E-15
    endloop
  endfacet
  facet normal -0.3610899798959514 0.6871413623290257 0.6304369711520353
    outer loop
      vertex -0.1669999999999996 0.06060569999999954 -0.037447634000007834
      vertex -0.05049999999999975 0.08746859999999956 -7.993605777301127E-15
      vertex -0.19249999999999967 0.08006609999999936 -0.07326380800000809
    endloop
  endfacet
  facet normal -0.4130438661752598 0.6439701878905644 0.6439698453523934
    outer loop
      vertex -0.1669999999999996 0.06060569999999954 -0.037447634000007834
      vertex -0.19249999999999967 0.08006609999999936 -0.07326380800000809
      vertex -0.19249999999999964 0.04622619999999955 -0.0394238900000079
    endloop
  endfacet
  facet normal -0.0429693060211812 0.9653371275194867 -0.2574448853103987
    outer loop
      vertex -0.1450009999999997 0.0889649999999993 -0.17312273200000794
      vertex -0.1669999999999996 0.08899999999999908 -0.1693197100000079
      vertex 2.220446049250313E-16 0.11484449999999957 -0.10028442400000781
    endloop
  endfacet
  facet normal 0.06744775059115614 0.8901960758607033 -0.4505571522708282
    outer loop
      vertex -0.1450009999999997 0.0889649999999993 -0.17312273200000794
      vertex 2.220446049250313E-16 0.11484449999999957 -0.10028442400000781
      vertex -0.005316499999999724 0.08971759999999951 -0.1507252030000079
    endloop
  endfacet
  facet normal -0.09576828507625544 0.7405795554732348 -0.6651092824405769
    outer loop
      vertex -0.1450009999999997 0.0889649999999993 -0.17312273200000794
      vertex -0.14561829999999976 0.06538809999999962 -0.1992860300000081
      vertex -0.1669999999999996 0.06060569999999954 -0.2015323660000079
    endloop
  endfacet
  facet normal -0.11240101806858807 0.7454146821390307 -0.6570562858604374
    outer loop
      vertex -0.1450009999999997 0.0889649999999993 -0.17312273200000794
      vertex -0.1669999999999996 0.06060569999999954 -0.2015323660000079
      vertex -0.1669999999999996 0.08899999999999908 -0.1693197100000079
    endloop
  endfacet
  facet normal 0.7332039127601264 -0.1964608995073734 0.6510108580338693
    outer loop
      vertex 0.11502370000000028 -0.03050500000000045 -0.025000000000007905
      vertex 0.1010000000000002 -4.440892098500626E-16 -7.993605777301127E-15
      vertex 0.08746860000000023 -0.05050000000000043 -7.993605777301127E-15
    endloop
  endfacet
  facet normal 0.939599159392663 -0.3383345784787163 0.051798964026612604
    outer loop
      vertex 0.11502370000000028 -0.03050500000000045 -0.025000000000007905
      vertex 0.10849060000000033 -0.051284700000000516 -0.04222034000000785
      vertex 0.1163538000000004 -0.02935940000000059 -0.041644440000008
    endloop
  endfacet
  facet normal 0.9896799197226609 -0.1247525784633704 0.07050142313803262
    outer loop
      vertex 0.11502370000000028 -0.03050500000000045 -0.025000000000007905
      vertex 0.1163538000000004 -0.02935940000000059 -0.041644440000008
      vertex 0.12000020000000022 -4.440892098500626E-16 -0.04088003000000784
    endloop
  endfacet
  facet normal 0.9542403241566733 -0.0 0.2990408061675983
    outer loop
      vertex 0.11502370000000028 -0.03050500000000045 -0.025000000000007905
      vertex 0.12000020000000022 -4.440892098500626E-16 -0.04088003000000784
      vertex 0.11502370000000028 0.030505099999999397 -0.025000000000007905
    endloop
  endfacet
  facet normal 0.8721533157555459 -0.0 0.48923265816644657
    outer loop
      vertex 0.11502370000000028 -0.03050500000000045 -0.025000000000007905
      vertex 0.11502370000000028 0.030505099999999397 -0.025000000000007905
      vertex 0.1010000000000002 -4.440892098500626E-16 -7.993605777301127E-15
    endloop
  endfacet
  facet normal 0.4555788813293613 0.8794686400978073 0.13777806055827982
    outer loop
      vertex 0.042208500000000315 0.11234099999999958 -0.04382178400000791
      vertex 0.03226840000000042 0.11454149999999941 -0.025000000000007905
      vertex 0.06774710000000028 0.09905709999999934 -0.043473930000007766
    endloop
  endfacet
  facet normal 0.23689619328783346 0.9714665192636488 0.011532369899733014
    outer loop
      vertex 0.01427180000000039 0.11915559999999936 -0.04400022600000808
      vertex 0.03226840000000042 0.11454149999999941 -0.025000000000007905
      vertex 0.042208500000000315 0.11234099999999958 -0.04382178400000791
    endloop
  endfacet
  facet normal 0.23566523620838584 0.9626227412654185 -0.1334891547710791
    outer loop
      vertex 0.01427180000000039 0.11915559999999936 -0.04400022600000808
      vertex 0.042208500000000315 0.11234099999999958 -0.04382178400000791
      vertex 2.220446049250313E-16 0.11484449999999957 -0.10028442400000781
    endloop
  endfacet
  facet normal -0.14964270166656307 0.9866816804525741 0.06376772927756241
    outer loop
      vertex -0.009462499999999707 0.11963029999999963 -0.04401265000000798
      vertex -0.026564299999999763 0.11703219999999948 -0.04394462000000798
      vertex -0.028734499999999663 0.11547869999999949 -0.025000000000007905
    endloop
  endfacet
  facet normal 0.014957661343170598 0.9736029867170531 0.2277575303316594
    outer loop
      vertex -0.009462499999999707 0.11963029999999963 -0.04401265000000798
      vertex -0.028734499999999663 0.11547869999999949 -0.025000000000007905
      vertex 0.03226840000000042 0.11454149999999941 -0.025000000000007905
    endloop
  endfacet
  facet normal 0.019398817286068678 0.9756322916449076 0.21855277940947762
    outer loop
      vertex -0.009462499999999707 0.11963029999999963 -0.04401265000000798
      vertex 0.03226840000000042 0.11454149999999941 -0.025000000000007905
      vertex 0.01427180000000039 0.11915559999999936 -0.04400022600000808
    endloop
  endfacet
  facet normal 0.019972835902397006 0.9964821723343817 -0.08139020853743709
    outer loop
      vertex -0.009462499999999707 0.11963029999999963 -0.04401265000000798
      vertex 0.01427180000000039 0.11915559999999936 -0.04400022600000808
      vertex 2.220446049250313E-16 0.11484449999999957 -0.10028442400000781
    endloop
  endfacet
  facet normal -0.10491843288289292 0.9892590725534167 -0.1017772558686454
    outer loop
      vertex -0.009462499999999707 0.11963029999999963 -0.04401265000000798
      vertex 2.220446049250313E-16 0.11484449999999957 -0.10028442400000781
      vertex -0.19249999999999967 0.09245249999999983 -0.11949000000003007
    endloop
  endfacet
  facet normal -0.15015959068306697 0.9886280733545486 0.008162714080934594
    outer loop
      vertex -0.009462499999999707 0.11963029999999963 -0.04401265000000798
      vertex -0.19249999999999967 0.09245249999999983 -0.11949000000003007
      vertex -0.026564299999999763 0.11703219999999948 -0.04394462000000798
    endloop
  endfacet
  facet normal 0.25899435125784026 0.8360932830141324 -0.48360102162338336
    outer loop
      vertex 0.05742230000000026 0.09945839999999939 -0.10028442400000781
      vertex 0.03645140000000025 0.0631357999999993 -0.174313272000008
      vertex -0.005316499999999724 0.08971759999999951 -0.1507252030000079
    endloop
  endfacet
  facet normal 0.23070728929444367 0.8610202181223433 -0.4532309903911717
    outer loop
      vertex 0.05742230000000026 0.09945839999999939 -0.10028442400000781
      vertex -0.005316499999999724 0.08971759999999951 -0.1507252030000079
      vertex 2.220446049250313E-16 0.11484449999999957 -0.10028442400000781
    endloop
  endfacet
  facet normal 0.25592866394610575 0.9551486419373529 -0.1489684220765995
    outer loop
      vertex 0.05742230000000026 0.09945839999999939 -0.10028442400000781
      vertex 2.220446049250313E-16 0.11484449999999957 -0.10028442400000781
      vertex 0.042208500000000315 0.11234099999999958 -0.04382178400000791
    endloop
  endfacet
  facet normal 0.4608996328510166 0.8840600939762331 -0.07751953738595334
    outer loop
      vertex 0.05742230000000026 0.09945839999999939 -0.10028442400000781
      vertex 0.042208500000000315 0.11234099999999958 -0.04382178400000791
      vertex 0.06774710000000028 0.09905709999999934 -0.043473930000007766
    endloop
  endfacet
  facet normal 0.6835002721507868 0.6834986461667611 -0.2562361774964748
    outer loop
      vertex 0.05742230000000026 0.09945839999999939 -0.10028442400000781
      vertex 0.09945830000000022 0.05742229999999959 -0.10028442400000781
      vertex 0.11600000000000033 0.022999999999999465 -0.147980027000008
    endloop
  endfacet
  facet normal 0.5164993175483387 0.7017800878355409 -0.49064565960542356
    outer loop
      vertex 0.05742230000000026 0.09945839999999939 -0.10028442400000781
      vertex 0.11600000000000033 0.022999999999999465 -0.147980027000008
      vertex 0.03645140000000025 0.0631357999999993 -0.174313272000008
    endloop
  endfacet
  facet normal 0.7332035376584082 0.19646079899942506 0.6510113108247066
    outer loop
      vertex 0.08746860000000023 0.050499999999999545 -7.993605777301127E-15
      vertex 0.1010000000000002 -4.440892098500626E-16 -7.993605777301127E-15
      vertex 0.11502370000000028 0.030505099999999397 -0.025000000000007905
    endloop
  endfacet
  facet normal 0.6987996395816445 0.6987979772018366 -0.15284126006803775
    outer loop
      vertex 0.08973560000000025 0.07968159999999957 -0.04296656000000798
      vertex 0.09945830000000022 0.05742229999999959 -0.10028442400000781
      vertex 0.05742230000000026 0.09945839999999939 -0.10028442400000781
    endloop
  endfacet
  facet normal 0.6582660290910742 0.7440453425339234 -0.11437815874652725
    outer loop
      vertex 0.08973560000000025 0.07968159999999957 -0.04296656000000798
      vertex 0.05742230000000026 0.09945839999999939 -0.10028442400000781
      vertex 0.06774710000000028 0.09905709999999934 -0.043473930000007766
    endloop
  endfacet
  facet normal 0.1677598205722134 0.6260908251848092 -0.7614899350752994
    outer loop
      vertex 2.220446049250313E-16 0.07184899999999961 -0.1751797800000081
      vertex 2.220446049250313E-16 0.07290289999999966 -0.174313272000008
      vertex 0.03592450000000035 0.06222309999999953 -0.1751797800000081
    endloop
  endfacet
  facet normal 0.14925609655976593 0.5570336946011581 -0.8169676130170189
    outer loop
      vertex 2.220446049250313E-16 0.07184899999999961 -0.1751797800000081
      vertex 0.03592450000000035 0.06222309999999953 -0.1751797800000081
      vertex -0.14642699999999964 0.03450409999999926 -0.22739420000000776
    endloop
  endfacet
  facet normal 0.11274550465031662 0.6310419985504636 -0.7675118547922124
    outer loop
      vertex 2.220446049250313E-16 0.07184899999999961 -0.1751797800000081
      vertex -0.14642699999999964 0.03450409999999926 -0.22739420000000776
      vertex 2.220446049250313E-16 0.07290289999999966 -0.174313272000008
    endloop
  endfacet
  facet normal 0.23054306064283217 -0.32488682848986317 -0.91722322575436
    outer loop
      vertex -0.14704839999999963 -0.010775800000000446 -0.239392810000008
      vertex -0.13346849999999977 -4.440892098500626E-16 -0.2397963800000078
      vertex 0.03592450000000035 -0.06222310000000042 -0.1751797800000081
    endloop
  endfacet
  facet normal 0.1848541939133863 -0.4396180968152723 -0.8789566860461044
    outer loop
      vertex -0.14704839999999963 -0.010775800000000446 -0.239392810000008
      vertex 0.03592450000000035 -0.06222310000000042 -0.1751797800000081
      vertex -0.14642699999999964 -0.03450410000000059 -0.22739420000000798
    endloop
  endfacet
  facet normal -0.1216123036468061 -0.1216119746857318 0.9850994747814832
    outer loop
      vertex -0.08746849999999971 -0.05050000000000043 -7.993605777301127E-15
      vertex -0.1465447999999996 -0.030006800000000444 -0.004763160000007982
      vertex -0.05049999999999975 -0.08746860000000045 -7.993605777301127E-15
    endloop
  endfacet
  facet normal -0.08551145506944567 -0.022912836718261522 0.9960736885218024
    outer loop
      vertex -0.08746849999999971 -0.05050000000000043 -7.993605777301127E-15
      vertex -0.10099999999999974 -4.440892098500626E-16 -7.993605777301127E-15
      vertex -0.1473304999999996 -4.440892098500626E-16 -0.003977405000007872
    endloop
  endfacet
  facet normal -0.09012810819892228 -0.028428619270399143 0.9955243531520774
    outer loop
      vertex -0.08746849999999971 -0.05050000000000043 -7.993605777301127E-15
      vertex -0.1473304999999996 -4.440892098500626E-16 -0.003977405000007872
      vertex -0.1465447999999996 -0.030006800000000444 -0.004763160000007982
    endloop
  endfacet
  facet normal 0.07107933409264136 -0.8782992079382396 -0.47279829695125586
    outer loop
      vertex -0.1450009999999997 -0.08896510000000046 -0.17312273200000794
      vertex -0.12650429999999968 -0.08767170000000046 -0.17274468300000811
      vertex -0.005316499999999724 -0.08971750000000056 -0.1507252030000079
    endloop
  endfacet
  facet normal 0.029086122532271677 -0.742212907212967 -0.6695326712286067
    outer loop
      vertex -0.1450009999999997 -0.08896510000000046 -0.17312273200000794
      vertex -0.14561829999999976 -0.06538800000000045 -0.19928603000000789
      vertex -0.11387339999999968 -0.07224570000000052 -0.19030482600000775
    endloop
  endfacet
  facet normal 0.06694605335992959 -0.772982424412408 -0.6308854075733924
    outer loop
      vertex -0.1450009999999997 -0.08896510000000046 -0.17312273200000794
      vertex -0.11387339999999968 -0.07224570000000052 -0.19030482600000775
      vertex -0.12650429999999968 -0.08767170000000046 -0.17274468300000811
    endloop
  endfacet
  facet normal -1.0 0.0 0.0
    outer loop
      vertex -0.19249999999999967 -0.04622620000000044 -0.19955611000000784
      vertex -0.19249999999999967 0.04622619999999955 -0.19955611000000784
      vertex -0.19249999999999967 -4.440892098500626E-16 -0.21194238500000773
    endloop
  endfacet
  facet normal -0.5418715070674699 -0.21752743579676692 -0.8118233086725908
    outer loop
      vertex -0.19249999999999967 -0.04622620000000044 -0.19955611000000784
      vertex -0.19249999999999967 -4.440892098500626E-16 -0.21194238500000773
      vertex -0.14704839999999963 -0.010775800000000446 -0.239392810000008
    endloop
  endfacet
  facet normal -0.38681789738409744 -0.424174390643563 -0.8188088913693524
    outer loop
      vertex -0.19249999999999967 -0.04622620000000044 -0.19955611000000784
      vertex -0.14704839999999963 -0.010775800000000446 -0.239392810000008
      vertex -0.14642699999999964 -0.03450410000000059 -0.22739420000000798
    endloop
  endfacet
  facet normal -0.04297247726968121 -0.965338859310168 -0.25743786221737186
    outer loop
      vertex 2.220446049250313E-16 -0.11484450000000046 -0.10028442400000781
      vertex -0.1669999999999996 -0.08900000000000041 -0.16931971000000812
      vertex -0.1450009999999997 -0.08896510000000046 -0.17312273200000794
    endloop
  endfacet
  facet normal 0.06744926901261233 -0.8901952059085639 -0.45055864378244237
    outer loop
      vertex 2.220446049250313E-16 -0.11484450000000046 -0.10028442400000781
      vertex -0.1450009999999997 -0.08896510000000046 -0.17312273200000794
      vertex -0.005316499999999724 -0.08971750000000056 -0.1507252030000079
    endloop
  endfacet
  facet normal 0.23070851392048233 -0.8610191924514244 -0.4532323155236171
    outer loop
      vertex 2.220446049250313E-16 -0.11484450000000046 -0.10028442400000781
      vertex -0.005316499999999724 -0.08971750000000056 -0.1507252030000079
      vertex 0.05742230000000026 -0.09945830000000044 -0.10028442400000781
    endloop
  endfacet
  facet normal 0.25614480286187213 -0.9559490786142956 -0.14335689402094387
    outer loop
      vertex 2.220446049250313E-16 -0.11484450000000046 -0.10028442400000781
      vertex 0.05742230000000026 -0.09945830000000044 -0.10028442400000781
      vertex 0.0165076000000004 -0.11886300000000061 -0.04399262600000786
    endloop
  endfacet
  facet normal 0.03175080641052439 -0.9962543950749644 -0.08043050780703918
    outer loop
      vertex 2.220446049250313E-16 -0.11484450000000046 -0.10028442400000781
      vertex 0.0165076000000004 -0.11886300000000061 -0.04399262600000786
      vertex -0.008920699999999782 -0.11967180000000055 -0.044012500000008004
    endloop
  endfacet
  facet normal -0.10494916523761288 -0.9892839515205928 -0.10150337915424111
    outer loop
      vertex 2.220446049250313E-16 -0.11484450000000046 -0.10028442400000781
      vertex -0.008920699999999782 -0.11967180000000055 -0.044012500000008004
      vertex -0.19249999999999967 -0.09245240000000043 -0.11949000000001009
    endloop
  endfacet
  facet normal -0.10277530330966023 -0.9873177202062964 -0.1209998198190762
    outer loop
      vertex 2.220446049250313E-16 -0.11484450000000046 -0.10028442400000781
      vertex -0.19249999999999967 -0.09245240000000043 -0.11949000000001009
      vertex -0.1669999999999996 -0.08900000000000041 -0.16931971000000812
    endloop
  endfacet
  facet normal 0.19649728499454064 -0.7333397055902803 0.6508469045747513
    outer loop
      vertex 0.03226840000000042 -0.11454150000000052 -0.025000000000007905
      vertex 0.05050000000000021 -0.08746860000000045 -7.993605777301127E-15
      vertex 2.220446049250313E-16 -0.10100000000000042 -7.993605777301127E-15
    endloop
  endfacet
  facet normal 0.013394769313961483 -0.8718734240104462 0.4895480698147288
    outer loop
      vertex 0.03226840000000042 -0.11454150000000052 -0.025000000000007905
      vertex 2.220446049250313E-16 -0.10100000000000042 -7.993605777301127E-15
      vertex -0.028734499999999663 -0.1154787000000006 -0.025000000000007905
    endloop
  endfacet
  facet normal 0.014948922211183425 -0.9730341514687605 0.23017617122585315
    outer loop
      vertex 0.03226840000000042 -0.11454150000000052 -0.025000000000007905
      vertex -0.028734499999999663 -0.1154787000000006 -0.025000000000007905
      vertex -0.008920699999999782 -0.11967180000000055 -0.044012500000008004
    endloop
  endfacet
  facet normal 0.031012621622699528 -0.9798686813144725 0.1972196356327738
    outer loop
      vertex 0.03226840000000042 -0.11454150000000052 -0.025000000000007905
      vertex -0.008920699999999782 -0.11967180000000055 -0.044012500000008004
      vertex 0.0165076000000004 -0.11886300000000061 -0.04399262600000786
    endloop
  endfacet
  facet normal 0.25867970436673715 -0.96594955199115 0.005125773779074335
    outer loop
      vertex 0.03226840000000042 -0.11454150000000052 -0.025000000000007905
      vertex 0.0165076000000004 -0.11886300000000061 -0.04399262600000786
      vertex 0.045109100000000346 -0.11120250000000054 -0.04379188000000789
    endloop
  endfacet
  facet normal 0.4746714450224807 -0.8634048742488547 0.17093578444430402
    outer loop
      vertex 0.03226840000000042 -0.11454150000000052 -0.025000000000007905
      vertex 0.045109100000000346 -0.11120250000000054 -0.04379188000000789
      vertex 0.07014860000000023 -0.09736470000000041 -0.04342865400000795
    endloop
  endfacet
  facet normal 0.8458374622317947 -0.5280332376885231 -0.07576204446457904
    outer loop
      vertex 0.10328140000000041 -0.05959780000000059 -0.042438700000007934
      vertex 0.09945830000000022 -0.05742220000000042 -0.10028442400000803
      vertex 0.10849060000000033 -0.051284700000000516 -0.04222034000000785
    endloop
  endfacet
  facet normal 0.8458329459977402 -0.5280404757798535 -0.07576201820813672
    outer loop
      vertex 0.0934598000000002 -0.07527130000000049 -0.0428503900000079
      vertex 0.09945830000000022 -0.05742220000000042 -0.10028442400000803
      vertex 0.10328140000000041 -0.05959780000000059 -0.042438700000007934
    endloop
  endfacet
  facet normal 0.7292876574229218 -0.6712658173612772 -0.13244514023883106
    outer loop
      vertex 0.0934598000000002 -0.07527130000000049 -0.0428503900000079
      vertex 0.0822930000000004 -0.08734110000000062 -0.043165730000007896
      vertex 0.09945830000000022 -0.05742220000000042 -0.10028442400000803
    endloop
  endfacet
  facet normal 0.09219050080741767 0.8205234994540999 -0.5641295049937339
    outer loop
      vertex -0.1080076999999997 0.08637829999999935 -0.1723640770000081
      vertex -0.005316499999999724 0.08971759999999951 -0.1507252030000079
      vertex 2.220446049250313E-16 0.07290289999999966 -0.174313272000008
    endloop
  endfacet
  facet normal 0.0 0.0 1.0
    outer loop
      vertex 0.05050000000000021 0.08746859999999956 -7.993605777301127E-15
      vertex 0.1010000000000002 -4.440892098500626E-16 -7.993605777301127E-15
      vertex 0.08746860000000023 0.050499999999999545 -7.993605777301127E-15
    endloop
  endfacet
  facet normal 0.19649728499453806 0.7333397055902828 0.6508469045747493
    outer loop
      vertex 0.05050000000000021 0.08746859999999956 -7.993605777301127E-15
      vertex 0.03226840000000042 0.11454149999999941 -0.025000000000007905
      vertex 2.220446049250313E-16 0.10099999999999931 -7.993605777301127E-15
    endloop
  endfacet
  facet normal 0.9293307078599926 0.3681292259510197 -0.028728181793290113
    outer loop
      vertex 0.1063679000000004 0.05556029999999956 -0.042334924000007934
      vertex 0.11550330000000031 0.032545299999999555 -0.041732254000007796
      vertex 0.11600000000000033 0.022999999999999465 -0.147980027000008
    endloop
  endfacet
  facet normal 0.8475507945005457 0.523988988847941 -0.08422107994799358
    outer loop
      vertex 0.1063679000000004 0.05556029999999956 -0.042334924000007934
      vertex 0.11600000000000033 0.022999999999999465 -0.147980027000008
      vertex 0.09945830000000022 0.05742229999999959 -0.10028442400000781
    endloop
  endfacet
  facet normal 0.9264251637182189 0.36960365854045724 0.07162088817642787
    outer loop
      vertex 0.1063679000000004 0.05556029999999956 -0.042334924000007934
      vertex 0.11502370000000028 0.030505099999999397 -0.025000000000007905
      vertex 0.11550330000000031 0.032545299999999555 -0.041732254000007796
    endloop
  endfacet
  facet normal 0.0 0.037425621103842246 -0.9992994160335488
    outer loop
      vertex -0.1473304999999996 -4.440892098500626E-16 -0.2397963800000078
      vertex -0.14704839999999963 0.010775699999999722 -0.23939281000000778
      vertex -0.13346849999999977 -4.440892098500626E-16 -0.2397963800000078
    endloop
  endfacet
  facet normal 0.0 -0.03742527427852277 -0.9992994290227416
    outer loop
      vertex -0.1473304999999996 -4.440892098500626E-16 -0.2397963800000078
      vertex -0.13346849999999977 -4.440892098500626E-16 -0.2397963800000078
      vertex -0.14704839999999963 -0.010775800000000446 -0.239392810000008
    endloop
  endfacet
  facet normal -0.5243361619818461 -0.045571297234724195 -0.8502910361202756
    outer loop
      vertex -0.1473304999999996 -4.440892098500626E-16 -0.2397963800000078
      vertex -0.14704839999999963 -0.010775800000000446 -0.239392810000008
      vertex -0.19249999999999967 -4.440892098500626E-16 -0.21194238500000773
    endloop
  endfacet
  facet normal -0.5243361518765481 0.045571719264456384 -0.8502910197329941
    outer loop
      vertex -0.1473304999999996 -4.440892098500626E-16 -0.2397963800000078
      vertex -0.19249999999999967 -4.440892098500626E-16 -0.21194238500000773
      vertex -0.14704839999999963 0.010775699999999722 -0.23939281000000778
    endloop
  endfacet
  facet normal -0.09576388723211067 -0.7405770082159673 -0.6651127519481812
    outer loop
      vertex -0.1669999999999996 -0.06060570000000043 -0.20153236600000812
      vertex -0.14561829999999976 -0.06538800000000045 -0.19928603000000789
      vertex -0.1450009999999997 -0.08896510000000046 -0.17312273200000794
    endloop
  endfacet
  facet normal -0.11240436366019886 -0.7454143982363491 -0.6570560356104245
    outer loop
      vertex -0.1669999999999996 -0.06060570000000043 -0.20153236600000812
      vertex -0.1450009999999997 -0.08896510000000046 -0.17312273200000794
      vertex -0.1669999999999996 -0.08900000000000041 -0.16931971000000812
    endloop
  endfacet
  facet normal -0.3356000300089763 -0.7066622115631838 -0.6228973740565973
    outer loop
      vertex -0.1669999999999996 -0.06060570000000043 -0.20153236600000812
      vertex -0.1669999999999996 -0.08900000000000041 -0.16931971000000812
      vertex -0.19249999999999967 -0.08006620000000053 -0.16571619200000787
    endloop
  endfacet
  facet normal -0.4130434823242144 -0.6439693594976211 -0.6439709199472521
    outer loop
      vertex -0.1669999999999996 -0.06060570000000043 -0.20153236600000812
      vertex -0.19249999999999967 -0.08006620000000053 -0.16571619200000787
      vertex -0.19249999999999967 -0.04622620000000044 -0.19955611000000784
    endloop
  endfacet
  facet normal -0.34731289717875313 -0.5075379888585907 -0.7885296071287864
    outer loop
      vertex -0.1669999999999996 -0.06060570000000043 -0.20153236600000812
      vertex -0.19249999999999967 -0.04622620000000044 -0.19955611000000784
      vertex -0.14642699999999964 -0.03450410000000059 -0.22739420000000798
    endloop
  endfacet
  facet normal -0.07298778900733834 -0.6723402979495305 -0.7366351243383368
    outer loop
      vertex -0.1669999999999996 -0.06060570000000043 -0.20153236600000812
      vertex -0.14642699999999964 -0.03450410000000059 -0.22739420000000798
      vertex -0.14561829999999976 -0.06538800000000045 -0.19928603000000789
    endloop
  endfacet
  facet normal 0.7575137716610754 -0.432194785904171 0.4892653194137716
    outer loop
      vertex 0.0847895000000003 -0.08349690000000054 -0.025000000000007905
      vertex 0.11502370000000028 -0.03050500000000045 -0.025000000000007905
      vertex 0.08746860000000023 -0.05050000000000043 -7.993605777301127E-15
    endloop
  endfacet
  facet normal 0.5367762777111994 -0.5367762777111994 0.65095503329571
    outer loop
      vertex 0.0847895000000003 -0.08349690000000054 -0.025000000000007905
      vertex 0.08746860000000023 -0.05050000000000043 -7.993605777301127E-15
      vertex 0.05050000000000021 -0.08746860000000045 -7.993605777301127E-15
    endloop
  endfacet
  facet normal 0.44375007706791575 -0.7507341751123117 0.48937109377307497
    outer loop
      vertex 0.0847895000000003 -0.08349690000000054 -0.025000000000007905
      vertex 0.05050000000000021 -0.08746860000000045 -7.993605777301127E-15
      vertex 0.03226840000000042 -0.11454150000000052 -0.025000000000007905
    endloop
  endfacet
  facet normal 0.4943919892632248 -0.8364099104930557 0.23663267437391247
    outer loop
      vertex 0.0847895000000003 -0.08349690000000054 -0.025000000000007905
      vertex 0.03226840000000042 -0.11454150000000052 -0.025000000000007905
      vertex 0.07014860000000023 -0.09736470000000041 -0.04342865400000795
    endloop
  endfacet
  facet normal 0.6337430953439065 -0.7698194992971966 0.07581310972211641
    outer loop
      vertex 0.0847895000000003 -0.08349690000000054 -0.025000000000007905
      vertex 0.07014860000000023 -0.09736470000000041 -0.04342865400000795
      vertex 0.0822930000000004 -0.08734110000000062 -0.043165730000007896
    endloop
  endfacet
  facet normal 0.7327924242305208 -0.6790921530357145 0.0430012869071885
    outer loop
      vertex 0.0847895000000003 -0.08349690000000054 -0.025000000000007905
      vertex 0.0822930000000004 -0.08734110000000062 -0.043165730000007896
      vertex 0.0934598000000002 -0.07527130000000049 -0.0428503900000079
    endloop
  endfacet
  facet normal 0.8342091113643455 -0.5270107307735272 0.16234176346911494
    outer loop
      vertex 0.0847895000000003 -0.08349690000000054 -0.025000000000007905
      vertex 0.0934598000000002 -0.07527130000000049 -0.0428503900000079
      vertex 0.10328140000000041 -0.05959780000000059 -0.042438700000007934
    endloop
  endfacet
  facet normal 0.8342115257689008 -0.527002751603829 0.16235525885020036
    outer loop
      vertex 0.0847895000000003 -0.08349690000000054 -0.025000000000007905
      vertex 0.10328140000000041 -0.05959780000000059 -0.042438700000007934
      vertex 0.10849060000000033 -0.051284700000000516 -0.04222034000000785
    endloop
  endfacet
  facet normal 0.8388693083471168 -0.47861168296340284 0.2592858276963263
    outer loop
      vertex 0.0847895000000003 -0.08349690000000054 -0.025000000000007905
      vertex 0.10849060000000033 -0.051284700000000516 -0.04222034000000785
      vertex 0.11502370000000028 -0.03050500000000045 -0.025000000000007905
    endloop
  endfacet
  facet normal 0.0710749407280468 0.8783098975149455 -0.4727790992924611
    outer loop
      vertex -0.12650429999999968 0.08767169999999935 -0.1727446830000079
      vertex -0.1450009999999997 0.0889649999999993 -0.17312273200000794
      vertex -0.005316499999999724 0.08971759999999951 -0.1507252030000079
    endloop
  endfacet
  facet normal 0.07113931178915503 0.8781232362173064 -0.47311603263196467
    outer loop
      vertex -0.12650429999999968 0.08767169999999935 -0.1727446830000079
      vertex -0.005316499999999724 0.08971759999999951 -0.1507252030000079
      vertex -0.1080076999999997 0.08637829999999935 -0.1723640770000081
    endloop
  endfacet
  facet normal 0.028516652370670473 0.7422346052395569 -0.6695331144330723
    outer loop
      vertex -0.11384569999999972 0.07250559999999928 -0.19004242000000815
      vertex -0.14561829999999976 0.06538809999999962 -0.1992860300000081
      vertex -0.1450009999999997 0.0889649999999993 -0.17312273200000794
    endloop
  endfacet
  facet normal 0.06698817713416959 0.7740171737349614 -0.6296109901261127
    outer loop
      vertex -0.11384569999999972 0.07250559999999928 -0.19004242000000815
      vertex -0.1450009999999997 0.0889649999999993 -0.17312273200000794
      vertex -0.12650429999999968 0.08767169999999935 -0.1727446830000079
    endloop
  endfacet
  facet normal 0.06708078659387362 0.7740446697248667 -0.6295673255025782
    outer loop
      vertex -0.11384569999999972 0.07250559999999928 -0.19004242000000815
      vertex -0.12650429999999968 0.08767169999999935 -0.1727446830000079
      vertex -0.1080076999999997 0.08637829999999935 -0.1723640770000081
    endloop
  endfacet
  facet normal 0.08466953891686216 0.7700995069458527 -0.6322798578014015
    outer loop
      vertex -0.11384569999999972 0.07250559999999928 -0.19004242000000815
      vertex -0.1080076999999997 0.08637829999999935 -0.1723640770000081
      vertex 2.220446049250313E-16 0.07290289999999966 -0.174313272000008
    endloop
  endfacet
  facet normal 0.10157392984144688 0.6517039996332044 -0.7516412931968609
    outer loop
      vertex -0.11384569999999972 0.07250559999999928 -0.19004242000000815
      vertex 2.220446049250313E-16 0.07290289999999966 -0.174313272000008
      vertex -0.14642699999999964 0.03450409999999926 -0.22739420000000776
    endloop
  endfacet
  facet normal 0.06469723464602721 0.6707524153024449 -0.7388541569180576
    outer loop
      vertex -0.11384569999999972 0.07250559999999928 -0.19004242000000815
      vertex -0.14642699999999964 0.03450409999999926 -0.22739420000000776
      vertex -0.14561829999999976 0.06538809999999962 -0.1992860300000081
    endloop
  endfacet
  facet normal 0.6606598707798256 0.7503471612743423 0.02253159356815309
    outer loop
      vertex 0.0847895000000003 0.08349699999999971 -0.025000000000007905
      vertex 0.08973560000000025 0.07968159999999957 -0.04296656000000798
      vertex 0.06774710000000028 0.09905709999999934 -0.043473930000007766
    endloop
  endfacet
  facet normal 0.49298526692370154 0.8340327111928558 0.2476993404441386
    outer loop
      vertex 0.0847895000000003 0.08349699999999971 -0.025000000000007905
      vertex 0.06774710000000028 0.09905709999999934 -0.043473930000007766
      vertex 0.03226840000000042 0.11454149999999941 -0.025000000000007905
    endloop
  endfacet
  facet normal 0.4437487027724131 0.7507342683303115 0.48937219694456735
    outer loop
      vertex 0.0847895000000003 0.08349699999999971 -0.025000000000007905
      vertex 0.03226840000000042 0.11454149999999941 -0.025000000000007905
      vertex 0.05050000000000021 0.08746859999999956 -7.993605777301127E-15
    endloop
  endfacet
  facet normal 0.5367755274760362 0.5367755274760362 0.6509562705786361
    outer loop
      vertex 0.0847895000000003 0.08349699999999971 -0.025000000000007905
      vertex 0.05050000000000021 0.08746859999999956 -7.993605777301127E-15
      vertex 0.08746860000000023 0.050499999999999545 -7.993605777301127E-15
    endloop
  endfacet
  facet normal 0.7575131309316114 0.43219442033994593 0.48926663435513923
    outer loop
      vertex 0.0847895000000003 0.08349699999999971 -0.025000000000007905
      vertex 0.08746860000000023 0.050499999999999545 -7.993605777301127E-15
      vertex 0.11502370000000028 0.030505099999999397 -0.025000000000007905
    endloop
  endfacet
  facet normal 0.8358477758504138 0.47688776633063584 0.2719127689721343
    outer loop
      vertex 0.0847895000000003 0.08349699999999971 -0.025000000000007905
      vertex 0.11502370000000028 0.030505099999999397 -0.025000000000007905
      vertex 0.1063679000000004 0.05556029999999956 -0.042334924000007934
    endloop
  endfacet
  facet normal 0.8174471796633701 0.56639724588781 0.10475814198001852
    outer loop
      vertex 0.10350530000000036 0.05971189999999971 -0.042443635000007696
      vertex 0.08973560000000025 0.07968159999999957 -0.04296656000000798
      vertex 0.0847895000000003 0.08349699999999971 -0.025000000000007905
    endloop
  endfacet
  facet normal 0.8174505733747057 0.5663897952539696 0.10477194243465866
    outer loop
      vertex 0.10350530000000036 0.05971189999999971 -0.042443635000007696
      vertex 0.0847895000000003 0.08349699999999971 -0.025000000000007905
      vertex 0.1063679000000004 0.05556029999999956 -0.042334924000007934
    endloop
  endfacet
  facet normal 0.8216140927265251 0.56442677279668 -0.07982919756263507
    outer loop
      vertex 0.10350530000000036 0.05971189999999971 -0.042443635000007696
      vertex 0.1063679000000004 0.05556029999999956 -0.042334924000007934
      vertex 0.09945830000000022 0.05742229999999959 -0.10028442400000781
    endloop
  endfacet
  facet normal 0.8216093906096895 0.5644336255894121 -0.0798291398298024
    outer loop
      vertex 0.10350530000000036 0.05971189999999971 -0.042443635000007696
      vertex 0.09945830000000022 0.05742229999999959 -0.10028442400000781
      vertex 0.08973560000000025 0.07968159999999957 -0.04296656000000798
    endloop
  endfacet
  facet normal -1.0 0.0 0.0
    outer loop
      vertex -0.19249999999999967 -0.04622620000000044 -0.19955611000000784
      vertex -0.19249999999999967 -0.08006620000000053 -0.16571619200000787
      vertex -0.19249999999999967 -0.09245240000000043 -0.11949000000001009
    endloop
  endfacet
  facet normal -1.0 0.0 0.0
    outer loop
      vertex -0.19249999999999967 -0.04622620000000044 -0.19955611000000784
      vertex -0.19249999999999967 -0.09245240000000043 -0.11949000000001009
      vertex -0.19249999999999967 -0.08006620000000053 -0.07326380800000787
    endloop
  endfacet
  facet normal -1.0 6.468715323015371E-16 1.7332911275213024E-16
    outer loop
      vertex -0.19249999999999967 -0.04622620000000044 -0.19955611000000784
      vertex -0.19249999999999967 -0.08006620000000053 -0.07326380800000787
      vertex -0.19249999999999964 -0.04622620000000044 -0.0394238900000079
    endloop
  endfacet
  facet normal -1.0 -4.644340343904265E-17 1.7332911275213024E-16
    outer loop
      vertex -0.19249999999999967 -0.04622620000000044 -0.19955611000000784
      vertex -0.19249999999999964 -0.04622620000000044 -0.0394238900000079
      vertex -0.19249999999999964 -4.440892098500626E-16 -0.02703761500000801
    endloop
  endfacet
  facet normal -1.0 4.0221165181674565E-17 1.5010740726498812E-16
    outer loop
      vertex -0.19249999999999967 -0.04622620000000044 -0.19955611000000784
      vertex -0.19249999999999964 -4.440892098500626E-16 -0.02703761500000801
      vertex -0.19249999999999964 0.04622619999999955 -0.0394238900000079
    endloop
  endfacet
  facet normal -1.0 -4.1010121858485885E-16 4.1010121209038213E-16
    outer loop
      vertex -0.19249999999999967 -0.04622620000000044 -0.19955611000000784
      vertex -0.19249999999999964 0.04622619999999955 -0.0394238900000079
      vertex -0.19249999999999967 0.08006609999999936 -0.07326380800000809
    endloop
  endfacet
  facet normal -1.0 0.0 0.0
    outer loop
      vertex -0.19249999999999967 -0.04622620000000044 -0.19955611000000784
      vertex -0.19249999999999967 0.08006609999999936 -0.07326380800000809
      vertex -0.19249999999999967 0.09245249999999983 -0.11949000000003007
    endloop
  endfacet
  facet normal -1.0 0.0 0.0
    outer loop
      vertex -0.19249999999999967 -0.04622620000000044 -0.19955611000000784
      vertex -0.19249999999999967 0.09245249999999983 -0.11949000000003007
      vertex -0.19249999999999967 0.08006609999999936 -0.1657161920000081
    endloop
  endfacet
  facet normal -1.0 0.0 0.0
    outer loop
      vertex -0.19249999999999967 -0.04622620000000044 -0.19955611000000784
      vertex -0.19249999999999967 0.08006609999999936 -0.1657161920000081
      vertex -0.19249999999999967 0.04622619999999955 -0.19955611000000784
    endloop
  endfacet
  facet normal 0.0 0.0 1.0
    outer loop
      vertex 0.05050000000000021 0.08746859999999956 -7.993605777301127E-15
      vertex 2.220446049250313E-16 0.10099999999999931 -7.993605777301127E-15
      vertex -0.05049999999999975 0.08746859999999956 -7.993605777301127E-15
    endloop
  endfacet
  facet normal 0.0 0.0 1.0
    outer loop
      vertex 0.05050000000000021 0.08746859999999956 -7.993605777301127E-15
      vertex -0.05049999999999975 0.08746859999999956 -7.993605777301127E-15
      vertex -0.08746849999999971 0.050499999999999545 -7.993605777301127E-15
    endloop
  endfacet
  facet normal 0.0 0.0 1.0
    outer loop
      vertex 0.05050000000000021 0.08746859999999956 -7.993605777301127E-15
      vertex -0.08746849999999971 0.050499999999999545 -7.993605777301127E-15
      vertex -0.10099999999999974 -4.440892098500626E-16 -7.993605777301127E-15
    endloop
  endfacet
  facet normal 0.0 0.0 1.0
    outer loop
      vertex 0.05050000000000021 0.08746859999999956 -7.993605777301127E-15
      vertex -0.10099999999999974 -4.440892098500626E-16 -7.993605777301127E-15
      vertex -0.08746849999999971 -0.05050000000000043 -7.993605777301127E-15
    endloop
  endfacet
  facet normal 0.0 0.0 1.0
    outer loop
      vertex 0.05050000000000021 0.08746859999999956 -7.993605777301127E-15
      vertex -0.08746849999999971 -0.05050000000000043 -7.993605777301127E-15
      vertex -0.05049999999999975 -0.08746860000000045 -7.993605777301127E-15
    endloop
  endfacet
  facet normal 0.0 0.0 1.0
    outer loop
      vertex 0.05050000000000021 0.08746859999999956 -7.993605777301127E-15
      vertex -0.05049999999999975 -0.08746860000000045 -7.993605777301127E-15
      vertex 2.220446049250313E-16 -0.10100000000000042 -7.993605777301127E-15
    endloop
  endfacet
  facet normal 0.0 0.0 1.0
    outer loop
      vertex 0.05050000000000021 0.08746859999999956 -7.993605777301127E-15
      vertex 2.220446049250313E-16 -0.10100000000000042 -7.993605777301127E-15
      vertex 0.05050000000000021 -0.08746860000000045 -7.993605777301127E-15
    endloop
  endfacet
  facet normal 0.0 0.0 1.0
    outer loop
      vertex 0.05050000000000021 0.08746859999999956 -7.993605777301127E-15
      vertex 0.05050000000000021 -0.08746860000000045 -7.993605777301127E-15
      vertex 0.08746860000000023 -0.05050000000000043 -7.993605777301127E-15
    endloop
  endfacet
  facet normal 0.0 0.0 1.0
    outer loop
      vertex 0.05050000000000021 0.08746859999999956 -7.993605777301127E-15
      vertex 0.08746860000000023 -0.05050000000000043 -7.993605777301127E-15
      vertex 0.1010000000000002 -4.440892098500626E-16 -7.993605777301127E-15
    endloop
  endfacet
endsolid grep4CCC00u2_11
